<svg width="64" height="64" viewBox="0 0 64 64" fill="none" xmlns="http://www.w3.org/2000/svg">
<path d="M32.0065 58.0116C45.8164 58.0116 57.0116 46.5926 57.0116 32.5064C57.0116 18.4203 45.8164 7.00122 32.0065 7.00122C18.1966 7.00122 7.0014 18.4203 7.0014 32.5064C7.0014 46.5926 18.1966 58.0116 32.0065 58.0116Z" fill="#0200CD"/>
<path d="M32 0C14.334 0 0 14.334 0 32C0 49.666 14.334 64 32 64C49.666 64 64 49.666 64 32C64 14.334 49.6791 0 32 0ZM32 60.6942C16.1895 60.6942 3.31891 47.8236 3.31891 32.0131C3.31891 16.2025 16.1895 3.31891 32 3.31891C47.8105 3.31891 60.6811 16.1895 60.6811 32C60.6811 47.8105 47.8236 60.6942 32 60.6942Z" fill="#0200CD"/>
<path d="M34.3232 42.4802H30.6758V25.4441L25.4756 27.1873V24.1404L33.8691 21.0789H34.3232V42.4802Z" fill="white"/>
</svg>
