<svg width="64" height="64" viewBox="0 0 64 64" fill="none" xmlns="http://www.w3.org/2000/svg">
<path d="M32 58C45.8071 58 57 46.5833 57 32.5C57 18.4167 45.8071 7 32 7C18.1929 7 7 18.4167 7 32.5C7 46.5833 18.1929 58 32 58Z" fill="#0200CD"/>
<path d="M31.9935 0C14.3311 0 0 14.3311 0 31.9935C0 49.6558 14.3311 63.9869 31.9935 63.9869C49.6558 63.9869 63.9869 49.6558 63.9869 31.9935C63.9869 14.3311 49.6689 0 31.9935 0ZM31.9935 60.6818C16.1862 60.6818 3.31823 47.8138 3.31823 32.0065C3.31823 16.1992 16.1862 3.31823 31.9935 3.31823C47.8008 3.31823 60.6687 16.1862 60.6687 31.9935C60.6687 47.8008 47.8138 60.6818 31.9935 60.6818Z" fill="#0200CD"/>
<path d="M19.1007 27.8444C19.6922 26.0323 20.6607 24.366 21.9425 22.9552C22.0495 22.8399 22.1878 22.7584 22.3404 22.7204C22.493 22.6824 22.6534 22.6897 22.802 22.7414L25.862 23.8304C26.0793 23.9075 26.3108 23.9365 26.5405 23.9156C26.7701 23.8947 26.9926 23.8244 27.1925 23.7094C27.3923 23.5943 27.565 23.4374 27.6984 23.2493C27.8319 23.0613 27.9231 22.8466 27.9657 22.6199L28.5507 19.4339C28.5781 19.2786 28.6515 19.135 28.7614 19.0219C28.8714 18.9088 29.0127 18.8313 29.1672 18.7994C31.0366 18.4048 32.9678 18.4048 34.8372 18.7994C35.1522 18.8669 35.3952 19.1167 35.4537 19.4339L36.0387 22.6199C36.0806 22.8469 36.1714 23.0621 36.3047 23.2506C36.438 23.4391 36.6107 23.5963 36.8108 23.7115C37.0109 23.8266 37.2336 23.8969 37.4635 23.9174C37.6935 23.9379 37.9251 23.9083 38.1425 23.8304L41.2025 22.7414C41.351 22.6897 41.5114 22.6824 41.664 22.7204C41.8166 22.7584 41.9549 22.8399 42.062 22.9552C43.343 24.3662 44.3107 26.0325 44.9015 27.8444C44.9508 27.9942 44.954 28.1554 44.9107 28.307C44.8673 28.4586 44.7795 28.5938 44.6585 28.6949L42.179 30.7897C42.0024 30.9381 41.8605 31.1234 41.7632 31.3325C41.6658 31.5416 41.6154 31.7695 41.6154 32.0002C41.6154 32.2308 41.6658 32.4587 41.7632 32.6678C41.8605 32.8769 42.0024 33.0622 42.179 33.2107L44.6585 35.3054C44.906 35.5147 45.0005 35.8499 44.9015 36.1559C44.3107 37.9678 43.343 39.6341 42.062 41.0452C41.9549 41.1604 41.8166 41.2419 41.664 41.2799C41.5114 41.3179 41.351 41.3106 41.2025 41.2589L38.1425 40.1699C37.9251 40.0928 37.6936 40.0638 37.464 40.0847C37.2343 40.1056 37.0119 40.1759 36.812 40.291C36.6121 40.406 36.4395 40.5629 36.306 40.751C36.1725 40.939 36.0813 41.1538 36.0387 41.3804L35.4537 44.5664C35.4262 44.722 35.3524 44.8658 35.2421 44.979C35.1317 45.0921 34.9899 45.1695 34.835 45.2009C32.9663 45.5952 31.0359 45.5952 29.1672 45.2009C29.0123 45.1695 28.8705 45.0921 28.7601 44.979C28.6498 44.8658 28.576 44.722 28.5485 44.5664L27.9657 41.3804C27.9238 41.1534 27.8331 40.9382 27.6998 40.7497C27.5664 40.5612 27.3938 40.404 27.1937 40.2888C26.9936 40.1737 26.7708 40.1034 26.5409 40.0829C26.311 40.0624 26.0793 40.0921 25.862 40.1699L22.802 41.2589C22.6534 41.3106 22.493 41.3179 22.3404 41.2799C22.1878 41.2419 22.0495 41.1604 21.9425 41.0452C20.6615 39.6341 19.6938 37.9678 19.103 36.1559C19.0537 36.0061 19.0505 35.845 19.0938 35.6933C19.1371 35.5417 19.225 35.4065 19.346 35.3054L21.8255 33.2107C22.0016 33.062 22.1432 32.8766 22.2404 32.6675C22.3375 32.4585 22.3878 32.2307 22.3878 32.0002C22.3878 31.7696 22.3375 31.5419 22.2404 31.3328C22.1432 31.1237 22.0016 30.9383 21.8255 30.7897L19.346 28.6949C19.225 28.5938 19.1371 28.4586 19.0938 28.307C19.0505 28.1554 19.0514 27.9942 19.1007 27.8444ZM28.0625 32.0002C28.0625 33.0444 28.4773 34.046 29.2157 34.7844C29.9542 35.5228 30.9557 35.9377 32 35.9377C33.0443 35.9377 34.0458 35.5228 34.7842 34.7844C35.5226 34.046 35.9375 33.0444 35.9375 32.0002C35.9375 30.9559 35.5226 29.9543 34.7842 29.2159C34.0458 28.4775 33.0443 28.0627 32 28.0627C30.9557 28.0627 29.9542 28.4775 29.2157 29.2159C28.4773 29.9543 28.0625 30.9559 28.0625 32.0002Z" fill="white"/>
</svg>
