<svg width="64" height="64" viewBox="0 0 64 64" fill="none" xmlns="http://www.w3.org/2000/svg">
<path d="M32 58C45.8071 58 57 46.5833 57 32.5C57 18.4167 45.8071 7 32 7C18.1929 7 7 18.4167 7 32.5C7 46.5833 18.1929 58 32 58Z" fill="#0200CD"/>
<path d="M31.9935 0C14.3311 0 0 14.3311 0 31.9935C0 49.6558 14.3311 63.9869 31.9935 63.9869C49.6558 63.9869 63.9869 49.6558 63.9869 31.9935C63.9869 14.3311 49.6689 0 31.9935 0ZM31.9935 60.6818C16.1862 60.6818 3.31823 47.8138 3.31823 32.0065C3.31823 16.1992 16.1862 3.31823 31.9935 3.31823C47.8008 3.31823 60.6687 16.1862 60.6687 31.9935C60.6687 47.8008 47.8138 60.6818 31.9935 60.6818Z" fill="#0200CD"/>
<g clip-path="url(#clip0_2321_347)">
<path d="M25.8797 21C26.205 21.0813 26.5304 21.122 26.8557 21.2033C28.401 21.6913 29.3769 22.7486 29.8649 24.2939C30.1089 25.1072 30.0683 25.9612 29.8649 26.7745C29.8243 26.9778 29.8649 27.0591 29.9869 27.1811C32.2642 29.4584 34.5415 31.7357 36.8187 34.0129C36.9814 34.1756 37.1034 34.1756 37.266 34.1349C38.12 33.9316 38.974 33.8909 39.828 34.1349C41.5359 34.6636 42.5525 35.8429 42.9592 37.5508C43.1219 38.2015 43.0812 38.8928 42.9185 39.5434C42.7152 40.1128 42.1459 40.3161 41.7392 39.9094C41.1699 39.3808 40.6413 38.8115 40.072 38.2421C39.462 37.6728 38.608 37.7135 38.0793 38.3235C37.7134 38.7708 37.7134 39.4621 38.0793 39.8688C38.486 40.3161 38.9333 40.7634 39.3806 41.2107C39.5433 41.3734 39.7466 41.536 39.9093 41.7394C40.3159 42.146 40.1126 42.7153 39.584 42.8373C37.1034 43.488 34.5821 41.902 34.0941 39.3808C33.9315 38.6488 34.0128 37.9575 34.1755 37.2255C34.2161 37.0222 34.1755 36.9002 34.0535 36.7375C31.7762 34.4603 29.5396 32.2237 27.2623 29.9464C27.0997 29.7837 26.9777 29.7431 26.7744 29.7837C25.839 29.9871 24.9037 30.0684 24.0091 29.7024C22.4232 29.0924 21.4472 27.9538 21.1219 26.2865C21.0812 26.0832 21.0812 25.8799 21.0405 25.6765C21.0405 25.5545 21.0405 25.4325 21.0405 25.2699C21.0812 24.9445 21.1219 24.6599 21.2032 24.3346C21.2845 23.8466 21.8538 23.6839 22.2605 24.0906C22.4232 24.2532 22.5858 24.4159 22.7891 24.5786C23.1958 25.0259 23.6431 25.4732 24.0904 25.8799C24.4971 26.2458 25.1884 26.2458 25.6357 25.9205C26.2864 25.4325 26.327 24.5379 25.7577 23.9686C25.2291 23.4399 24.7004 22.9113 24.1311 22.342C23.9684 22.1386 23.8058 21.8946 23.9278 21.61C24.0091 21.3253 24.2531 21.2033 24.5378 21.122C24.7411 21.0813 24.9851 21.0407 25.1884 21C25.4324 21 25.6764 21 25.8797 21Z" fill="white"/>
<path d="M21 40.1127C21.0813 39.6654 21.2033 39.2588 21.5287 38.8928C21.61 38.7708 21.6913 38.6894 21.8133 38.5675C23.8059 36.5748 25.7985 34.5416 27.8318 32.549C27.8725 32.5083 27.8725 32.5083 27.8725 32.5083C29.0924 33.7283 30.2717 34.9076 31.4917 36.1275C31.4917 36.1275 31.451 36.1682 31.4104 36.2089C29.4177 38.2015 27.4251 40.1941 25.4325 42.1867C24.4566 43.1626 23.0739 43.2846 22.0166 42.4713C21.488 42.0647 21.1627 41.536 21.0407 40.8854C21.0407 40.8447 21 40.7634 21 40.7227C21 40.5194 21 40.3161 21 40.1127ZM24.4159 40.4381C24.5786 40.4381 24.7412 40.3161 24.8632 40.1534C26.1238 38.8928 27.3438 37.6728 28.6044 36.4122C28.6451 36.3715 28.7264 36.2902 28.7671 36.2495C29.0111 35.8835 28.8484 35.3549 28.4011 35.2736C28.1165 35.1922 27.9131 35.3142 27.7098 35.5175C26.4492 36.7782 25.2292 37.9981 23.9686 39.2588C23.9279 39.2994 23.8466 39.3401 23.8059 39.4214C23.6433 39.6248 23.6433 39.8687 23.7652 40.0721C23.8872 40.3161 24.0906 40.3974 24.4159 40.4381Z" fill="white"/>
<path d="M41.373 21C41.5357 21.122 41.739 21.2033 41.861 21.366C42.1457 21.6506 42.4303 21.9353 42.715 22.22C43.0403 22.5453 43.081 22.7893 42.837 23.1959C42.1864 24.2939 41.5357 25.3512 40.8851 26.4492C40.6004 26.9372 40.1531 26.9778 39.7464 26.5712C39.6651 26.4898 39.5431 26.3678 39.4211 26.2052C37.9571 27.6691 36.5339 29.1331 35.1106 30.5564C34.4599 29.9464 33.8906 29.3364 33.3213 28.7671C34.7446 27.3438 36.1679 25.9205 37.5912 24.4566C37.4692 24.3346 37.3878 24.2532 37.3065 24.1312C37.0218 23.8059 37.0625 23.3993 37.4285 23.1553C38.5671 22.464 39.7058 21.7726 40.8851 21.0813C40.9257 21.0407 41.0071 21 41.0884 21C41.1697 21 41.251 21 41.373 21Z" fill="white"/>
</g>
<defs>
<clipPath id="clip0_2321_347">
<rect width="22" height="22" fill="white" transform="translate(21 21)"/>
</clipPath>
</defs>
</svg>
