<svg width="64" height="64" viewBox="0 0 64 64" fill="none" xmlns="http://www.w3.org/2000/svg">
<path d="M32 58C45.8071 58 57 46.5833 57 32.5C57 18.4167 45.8071 7 32 7C18.1929 7 7 18.4167 7 32.5C7 46.5833 18.1929 58 32 58Z" fill="#0200CD"/>
<path d="M31.9935 0C14.3311 0 0 14.3311 0 31.9935C0 49.6558 14.3311 63.9869 31.9935 63.9869C49.6558 63.9869 63.9869 49.6558 63.9869 31.9935C63.9869 14.3311 49.6689 0 31.9935 0ZM31.9935 60.6818C16.1862 60.6818 3.31823 47.8138 3.31823 32.0065C3.31823 16.1992 16.1862 3.31823 31.9935 3.31823C47.8008 3.31823 60.6687 16.1862 60.6687 31.9935C60.6687 47.8008 47.8138 60.6818 31.9935 60.6818Z" fill="#0200CD"/>
<path d="M31.534 17C23.507 17 17 23.507 17 31.534C17 39.561 23.507 46.068 31.534 46.068C39.561 46.068 46.068 39.561 46.068 31.534C46.068 23.507 39.561 17 31.534 17ZM32.789 39.414V41.461H30.831V39.437C27.618 38.997 26.211 36.357 26.211 36.357L28.211 34.684C28.211 34.684 29.488 36.907 31.798 36.907C33.074 36.907 34.042 36.224 34.042 35.057C34.042 32.329 26.692 32.66 26.692 27.599C26.692 25.399 28.432 23.814 30.83 23.439V21.394H32.788V23.439C34.46 23.659 36.44 24.539 36.44 26.432V27.884H33.844V27.18C33.844 26.454 32.919 25.97 31.884 25.97C30.564 25.97 29.597 26.63 29.597 27.554C29.597 30.348 36.947 29.666 36.947 34.969C36.947 37.149 35.319 39.039 32.789 39.414Z" fill="white"/>
</svg>
