<svg width="64" height="64" viewBox="0 0 64 64" fill="none" xmlns="http://www.w3.org/2000/svg">
<path d="M32 58C45.8071 58 57 46.5833 57 32.5C57 18.4167 45.8071 7 32 7C18.1929 7 7 18.4167 7 32.5C7 46.5833 18.1929 58 32 58Z" fill="#0200CD"/>
<path d="M31.9935 0C14.3311 0 0 14.3311 0 31.9935C0 49.6558 14.3311 63.9869 31.9935 63.9869C49.6558 63.9869 63.9869 49.6558 63.9869 31.9935C63.9869 14.3311 49.6689 0 31.9935 0ZM31.9935 60.6818C16.1862 60.6818 3.31823 47.8138 3.31823 32.0065C3.31823 16.1992 16.1862 3.31823 31.9935 3.31823C47.8008 3.31823 60.6687 16.1862 60.6687 31.9935C60.6687 47.8008 47.8138 60.6818 31.9935 60.6818Z" fill="#0200CD"/>
<path d="M29.3212 41.4C29.3212 40.4769 29.3212 39.5538 29.3212 38.6308C29.1982 38.6308 29.0751 38.6308 29.0136 38.6308C27.1674 38.6308 25.3212 38.6308 23.4136 38.6308C22.1828 38.6308 21.5059 37.8923 21.5059 36.7231C21.5059 36.4769 21.5059 36.2308 21.5059 35.9846C21.6289 35.9846 21.6905 35.9846 21.8136 35.9846C22.552 35.9846 23.2905 35.9846 24.0289 35.9846C24.152 35.9846 24.2751 35.9846 24.3366 35.8C24.3366 35.7385 24.4597 35.7385 24.5212 35.6769C24.5828 35.6769 24.6443 35.6769 24.7674 35.6769C30.7366 35.6769 36.6443 35.6769 42.6136 35.6769C42.7366 35.6769 42.8597 35.6769 42.9828 35.6769C42.9828 35.5538 42.9828 35.4923 42.9828 35.3692C42.9828 31.9231 42.9828 28.4154 42.9828 24.9692C42.9828 24.5385 42.9828 24.4769 42.552 24.4769C35.7212 24.4769 28.8905 24.4769 21.9982 24.4769C21.8751 24.4769 21.752 24.4769 21.6289 24.4769C21.5674 23.7385 22.3059 23.0615 23.1059 23C23.1674 23 23.2905 23 23.352 23C29.6905 23 36.0905 23 42.4289 23C43.4136 23 44.0905 23.5538 44.2751 24.4769C44.2751 24.6 44.2751 24.7231 44.2751 24.9077C44.2751 28.8462 44.2751 32.7846 44.2751 36.7846C44.2751 37.8923 43.5366 38.6308 42.4289 38.6308C40.5828 38.6308 38.6751 38.6308 36.8289 38.6308C36.7059 38.6308 36.5828 38.6308 36.4597 38.6308C36.4597 39.5538 36.4597 40.4769 36.4597 41.4C36.5212 41.4 36.6443 41.4 36.7674 41.4C37.5059 41.4 38.3059 41.4 39.0443 41.4C39.352 41.4 39.6597 41.4615 39.9674 41.6462C40.3982 41.8308 40.6443 42.2 40.6443 42.6923C40.6443 43.0615 40.6443 43.4308 40.6443 43.8C35.4751 43.8 30.3059 43.8 25.0751 43.8C25.0751 43.3077 25.0751 42.8154 25.1982 42.3231C25.3212 41.8308 25.9366 41.4615 26.6136 41.4615C27.4136 41.4615 28.152 41.4615 28.952 41.4615C29.0751 41.4 29.1982 41.4 29.3212 41.4Z" fill="white"/>
<path d="M26.9829 29.2154C27.1675 29.2769 27.2906 29.3384 27.4752 29.4C27.6598 29.4615 27.8444 29.4615 27.8444 29.7692C27.9675 29.7692 28.029 29.7692 28.1521 29.7692C30.6137 29.7692 33.0752 29.7692 35.5367 29.7692C35.7214 29.7692 35.8444 29.7077 35.9675 29.5231C36.2752 29.0308 36.829 28.8461 37.3214 29.0308C37.8752 29.2154 38.1829 29.6461 38.1829 30.2C38.1829 30.7538 37.8137 31.2461 37.3214 31.3692C36.7675 31.4923 36.2137 31.3077 35.9675 30.8154C35.8444 30.6308 35.7829 30.5692 35.5367 30.5692C33.0752 30.5692 30.6137 30.5692 28.1521 30.5692C28.0906 30.5692 27.9675 30.5692 27.906 30.5692C27.7829 31.0615 27.2906 30.8769 26.9829 31.2461C27.106 31.2461 27.229 31.2461 27.2906 31.2461C28.2752 31.2461 29.3214 31.2461 30.306 31.2461C30.4906 31.2461 30.6752 31.3077 30.8598 31.4308C31.3521 31.7384 31.8444 32.0461 32.2752 32.2923C32.3367 32.3538 32.5214 32.3538 32.5829 32.2923C33.1367 32.0461 33.6906 32.1077 34.0598 32.5384C34.429 32.9692 34.4906 33.5231 34.1829 34.0154C33.8752 34.5077 33.3214 34.6923 32.829 34.5692C32.2752 34.3846 31.906 33.9538 31.9675 33.3384C31.9675 33.1538 31.906 33.0923 31.7829 33.0308C31.3521 32.7846 30.9214 32.4769 30.4906 32.2308C30.3675 32.1692 30.2444 32.1077 30.1214 32.1077C29.0137 32.1077 27.906 32.1077 26.8598 32.1077C26.5521 32.1077 26.4906 32.2308 26.6137 32.5384C26.8598 33.1538 26.8598 33.1538 26.3675 33.6461C25.9367 34.0769 25.9367 34.0769 25.3829 33.8308C25.1983 33.7692 25.0752 33.7692 24.9521 33.8308C24.7675 33.9538 24.5214 34.0769 24.2752 34.1384C24.029 34.2 23.906 34.3231 23.7829 34.5692C23.5983 35.0615 23.5983 35.0615 23.106 35.0615C23.0444 35.0615 23.0444 35.0615 22.9829 35.0615C22.429 35.1846 22.1214 35 21.9983 34.4461C21.9983 34.3846 21.8752 34.2615 21.7521 34.2615C21.506 34.1384 21.1983 34.0769 20.9521 33.9538C20.7675 33.8308 20.5829 33.8308 20.3983 33.9538C19.906 34.2 19.906 34.2 19.4752 33.7692C19.2906 33.5846 19.0444 33.4615 18.9829 33.2769C18.9214 33.0923 19.106 32.8461 19.229 32.6C19.229 32.5384 19.229 32.4154 19.229 32.3538C19.106 32.0461 18.9829 31.7384 18.8598 31.4308C18.7983 31.3077 18.6752 31.2461 18.5521 31.1846C18.0598 30.8154 18.0598 30.8154 18.0598 30.2615C18.0598 30.0154 17.9983 29.7692 18.1214 29.5846C18.2444 29.4 18.4906 29.4 18.7367 29.2769C18.8598 29.2154 18.9214 29.0923 18.9829 29.0308C19.106 28.7846 19.1675 28.5384 19.2906 28.2923C19.3521 28.0461 19.3521 27.9231 19.2906 27.6769C19.0444 27.1846 19.0444 27.1846 19.4137 26.8154C19.5983 26.6308 19.7214 26.3846 19.906 26.3231C20.0906 26.2615 20.3367 26.5077 20.5829 26.5692C20.6444 26.5692 20.7675 26.5692 20.8906 26.5692C21.1367 26.4461 21.3829 26.3231 21.6906 26.2615C21.9367 26.2 21.9983 26.0769 22.1214 25.8923C22.306 25.3384 22.306 25.4 22.8598 25.4H22.9214C23.5983 25.4 23.5983 25.4 23.906 26.0154C23.9675 26.0769 24.029 26.2 24.1521 26.2615C24.3983 26.3846 24.706 26.4461 24.9521 26.5692C25.1367 26.6923 25.2598 26.6923 25.4444 26.5692C25.9983 26.3231 25.9367 26.3846 26.3675 26.6923C26.7983 27.0615 26.9829 27.3692 26.6137 27.9231C26.4906 28.1077 26.6137 28.2923 26.8598 28.2923C28.029 28.2923 29.1367 28.2923 30.306 28.2923C30.429 28.2923 30.4906 28.2308 30.6137 28.1692C31.0444 27.9231 31.4137 27.6769 31.8444 27.4308C32.029 27.3077 32.0906 27.2461 32.0906 27C32.0906 26.3846 32.5829 25.8308 33.1983 25.7692C33.8137 25.7077 34.3675 26.1384 34.4906 26.7538C34.6137 27.3692 34.2444 27.9846 33.629 28.1692C33.3214 28.2308 33.0137 28.2308 32.706 28.0461C32.5829 27.9846 32.4598 27.9846 32.3367 28.0461C31.906 28.3538 31.4137 28.6 30.9829 28.9077C30.7367 29.0308 30.5521 29.0923 30.2444 29.0923C29.2598 29.0923 28.2137 29.0923 27.229 29.0923C27.1675 29.0923 27.106 29.0923 27.0444 29.0923C27.0444 29.1538 27.0444 29.1538 26.9829 29.2154ZM22.9829 32.4769C24.2752 32.4769 25.2598 31.4308 25.2598 30.2C25.2598 28.9077 24.2137 27.8615 22.9214 27.9231C21.6906 27.9231 20.6444 28.9692 20.6444 30.2615C20.6444 31.4923 21.6906 32.4769 22.9829 32.4769Z" fill="white"/>
</svg>
