<svg width="64" height="64" viewBox="0 0 64 64" fill="none" xmlns="http://www.w3.org/2000/svg">
<path d="M32.0066 58.0116C45.8165 58.0116 57.0117 46.5926 57.0117 32.5064C57.0117 18.4203 45.8165 7.00122 32.0066 7.00122C18.1966 7.00122 7.00146 18.4203 7.00146 32.5064C7.00146 46.5926 18.1966 58.0116 32.0066 58.0116Z" fill="#0200CD"/>
<path d="M32 0C14.334 0 0 14.334 0 32C0 49.666 14.334 64 32 64C49.666 64 64 49.666 64 32C64 14.334 49.6791 0 32 0ZM32 60.6942C16.1895 60.6942 3.31891 47.8236 3.31891 32.0131C3.31891 16.2025 16.1895 3.31891 32 3.31891C47.8105 3.31891 60.6811 16.1895 60.6811 32C60.6811 47.8105 47.8236 60.6942 32 60.6942Z" fill="#0200CD"/>
<path d="M39.3184 39.2393H23.9082L23.791 37.0127L32.9463 22.6719H35.8613L32.7559 28.1064L27.5557 36.3242H39.3184V39.2393ZM36.6816 44H33.0488V22.6719H36.6816V44Z" fill="white"/>
</svg>
