<svg width="73" height="73" viewBox="0 0 73 73" fill="none" xmlns="http://www.w3.org/2000/svg">
<path d="M45.1411 5.17228L45.2038 5.3813L45.2492 5.53255L45.3036 5.47691M45.1411 5.17228L43.4801 5.02986C41.6755 4.44988 39.0726 4.04167 36.3748 4.04167C33.677 4.04167 31.0742 4.44987 29.2696 5.03188L29.1176 4.55555C29.1173 4.55563 29.117 4.55572 29.1167 4.55581C28.5259 4.74443 28.094 4.92799 27.7971 5.07977L27.6071 5.17691L27.5458 5.3813L27.4977 5.54181L27.3618 5.34181C27.3481 5.35109 27.3348 5.36089 27.3219 5.37117L27.3217 5.37095L27.3164 5.37555C27.2976 5.39085 27.2796 5.4072 27.2625 5.42452L27.4676 5.64217L26.0686 10.3061L25.9004 10.8668L26.4805 10.9452C33.0469 11.8329 39.7028 11.8329 46.2691 10.9452L46.8493 10.8668L46.6811 10.3061L45.2805 5.63678L45.3592 5.5227M45.1411 5.17228L44.9452 5.07612C44.5212 4.868 44.0817 4.69312 43.6307 4.55307L45.1411 5.17228ZM45.3036 5.47691L45.2634 5.54738L45.257 5.55853L45.2695 5.60005L45.2977 5.57569L45.3592 5.5227M45.3036 5.47691L45.4148 5.36314M45.3036 5.47691L45.381 5.34131C45.3927 5.34797 45.404 5.35526 45.4148 5.36314M45.3592 5.5227L45.4774 5.42071C45.4686 5.41052 45.4593 5.40085 45.4495 5.39171M45.3592 5.5227L45.4495 5.39171M45.4495 5.39171C45.4494 5.39166 45.4494 5.39161 45.4493 5.39156C45.4385 5.38144 45.427 5.372 45.415 5.36327C45.4149 5.36322 45.4149 5.36318 45.4148 5.36314M45.4495 5.39171L45.451 5.38957L45.4166 5.36128L45.4148 5.36314M47.7305 13.8056L47.8551 14.2201L48.5682 16.5925L50.6169 17.0316L47.7305 13.8056ZM47.7305 13.8056L47.3023 13.8696C46.6255 13.9707 45.947 14.061 45.2673 14.1403C39.3589 14.8281 33.3907 14.8281 27.4824 14.1403C26.8026 14.0611 26.1242 13.9709 25.4474 13.8696L25.0192 13.8055L24.8946 14.2201L24.1814 16.5925M47.7305 13.8056L24.1814 16.5925M24.1814 16.5925L22.1327 17.0316L24.1814 16.5925ZM14.9537 19.4727L14.9555 19.4717C16.4811 18.5951 18.9051 17.7204 22.1323 17.0317L14.9537 19.4727ZM14.9537 19.4727C14.7792 19.5739 14.6082 19.6808 14.4408 19.7933L13.8238 20.2077M14.9537 19.4727L13.8238 20.2077M13.8238 20.2077L14.4402 20.623M13.8238 20.2077L14.4402 20.623M14.4402 20.623C15.344 21.232 16.7946 21.9106 18.8406 22.5394C23.1722 23.8712 29.3713 24.75 36.3748 24.75C43.3783 24.75 49.5775 23.8712 53.909 22.5394C55.9549 21.9106 57.406 21.2319 58.3102 20.6205L58.9288 20.2022M14.4402 20.623L58.9288 20.2022M58.9288 20.2022L58.3063 19.7895M58.9288 20.2022L58.3063 19.7895M58.3063 19.7895C58.1389 19.6786 57.9678 19.5731 57.7935 19.4733M58.3063 19.7895L57.7935 19.4733M57.7935 19.4733C56.2675 18.5947 53.8436 17.7202 50.6174 17.0317L57.7935 19.4733ZM59.1531 20.532L59.139 20.5098L58.2953 21.0467L58.3095 21.0689L59.1531 20.532ZM50.8784 13.7115L50.9634 13.9949L51.2527 14.0568C54.6378 14.7808 57.4039 15.7394 59.3104 16.8372C61.25 17.954 62.1457 19.1204 62.1457 20.2083C62.1457 21.0883 61.565 22.0214 60.2871 22.9512C59.0201 23.873 57.1546 24.7238 54.8043 25.4469C50.1099 26.8911 43.5941 27.7917 36.3748 27.7917C29.1556 27.7917 22.6398 26.8911 17.9454 25.4469C15.5951 24.7238 13.7296 23.873 12.4626 22.9512C11.1847 22.0214 10.604 21.0883 10.604 20.2083C10.604 19.1204 11.4997 17.954 13.4393 16.8372C15.3458 15.7394 18.1119 14.7808 21.4969 14.0568L21.7863 13.9949L21.8713 13.7115L24.7288 4.18532L24.7498 4.11504V4.04167C24.7498 3.72318 24.9685 3.32151 25.5836 2.87168C26.1847 2.43206 27.0738 2.01666 28.1831 1.65937C30.396 0.946617 33.3744 0.5 36.3748 0.5C39.3753 0.5 42.3537 0.946617 44.5666 1.65937C45.6758 2.01666 46.565 2.43206 47.1661 2.87168C47.7811 3.32151 47.9998 3.72318 47.9998 4.04167V4.11504L48.0209 4.18532L50.8784 13.7115ZM58.276 19.4108L59.1157 19.9427C59.1352 19.9183 59.1513 19.8955 59.1643 19.875C59.1708 19.8648 59.1766 19.8551 59.1816 19.8462L59.1887 19.8333L59.1918 19.8273L59.1933 19.8244L59.194 19.8229L59.1944 19.8222L59.1946 19.8219L59.1947 19.8217C59.1947 19.8216 59.1948 19.8215 58.7475 19.598L58.9711 19.1508L58.6365 18.9836L58.3816 19.2573C58.339 19.303 58.3034 19.3548 58.276 19.4108ZM58.3348 19.318L58.5806 19.5147C58.3002 19.3745 58.3002 19.3745 58.3003 19.3744L58.3004 19.3742L58.3005 19.3739L58.3009 19.3732L58.3016 19.3718L58.303 19.3691L58.3057 19.3639L58.3109 19.3543C58.3144 19.3483 58.3176 19.3429 58.3206 19.3383C58.3265 19.3289 58.3314 19.3223 58.3348 19.318ZM58.8451 19.6889L59.1745 19.85C59.1586 19.8823 59.138 19.9123 59.1133 19.9388L58.8451 19.6889ZM14.0022 19.598L14.3557 19.2445L13.5418 19.7931C13.5674 19.8534 13.6023 19.9093 13.6453 19.9587L14.4776 19.4235C14.4583 19.381 14.4367 19.3451 14.4154 19.3152C14.4047 19.3004 14.3942 19.2871 14.3842 19.2753C14.3792 19.2694 14.3743 19.2639 14.3695 19.2588L14.3625 19.2514L14.3591 19.2479L14.3574 19.2461L14.3566 19.2453L14.3561 19.2449L14.3559 19.2447C14.3558 19.2446 14.3557 19.2445 14.0022 19.598ZM14.1138 19.5507L14.3995 19.302C14.4257 19.3321 14.447 19.3662 14.4626 19.403L14.1138 19.5507ZM13.5672 19.8373L13.9261 19.6742C13.6486 19.9516 13.6485 19.9515 13.6484 19.9514L13.6482 19.9512L13.6478 19.9508L13.647 19.95L13.6454 19.9483L13.6421 19.945L13.6358 19.9382C13.6316 19.9337 13.6276 19.9292 13.6237 19.9246C13.6158 19.9154 13.6085 19.9061 13.6016 19.8965C13.5879 19.8773 13.5764 19.8575 13.5672 19.8373ZM13.5771 20.5653L14.1496 20.8993L14.44 21.0688C14.4264 21.0896 14.411 21.1092 14.394 21.1275L14.4433 21.0746L14.4757 21.0099L14.4797 21.0018L13.9196 20.6847L13.6629 20.4451C13.644 20.4654 13.6266 20.4871 13.6108 20.5099L13.6107 20.5098L13.6074 20.515C13.5964 20.5312 13.5863 20.548 13.5771 20.5653ZM14.4596 21.0355C14.4577 21.0392 14.4557 21.0427 14.4537 21.0463L14.3199 20.9611L14.4596 21.0355Z" fill="#B1F540" stroke="#0200CD"/>
<path d="M25.4058 37.4537C22.6308 34.732 20.9723 31.0818 20.7381 27.2172C21.7673 27.4493 22.8031 27.6513 23.8441 27.8232C24.2109 30.8112 25.6346 33.5749 27.8646 35.6101C30.1906 37.7328 33.226 38.9097 36.375 38.9097C39.5241 38.9097 42.5594 37.7328 44.8855 35.6101C47.1155 33.5749 48.5391 30.8113 48.9059 27.8232C49.9476 27.6514 50.9841 27.4493 52.014 27.2171C51.7798 31.0818 50.1212 34.732 47.3463 37.4537C44.4174 40.3264 40.4786 41.9356 36.376 41.9356C32.2735 41.9356 28.3347 40.3264 25.4058 37.4537Z" fill="#B1F540" stroke="#0200CD"/>
<path d="M69.2085 69.2082H68.7085H60.6251H60.1251V68.7082V60.6248C60.1251 60.2215 59.9649 59.8347 59.6797 59.5494C59.3945 59.2642 59.0076 59.104 58.6043 59.104H58.1043V58.604V53.5095V52.8373L58.7481 53.0306C62.0724 54.0287 64.7964 55.2458 66.6534 56.6332L69.2085 69.2082ZM69.2085 69.2082V68.7082M69.2085 69.2082V68.7082M69.2085 68.7082V60.6248C69.2085 59.3933 68.5852 58.0763 66.6535 56.6333L69.2085 68.7082ZM72.2501 72.2498H16.49C16.6056 71.761 16.6668 71.2515 16.6668 70.729V69.2082H56.5835H57.0835V68.7082V62.6457V62.1457H56.5835H49.2074H49.1261L49.0491 62.1714C48.0152 62.5166 46.9659 62.8138 45.9046 63.0621L45.9045 63.0621C42.7808 63.7936 39.5834 64.1642 36.3751 64.1665C32.5054 64.1665 29.198 63.6153 26.8483 63.0623L26.8475 63.0621C25.7855 62.8139 24.7356 62.5166 23.7011 62.1714L23.6241 62.1457H23.5428H20.3188C21.3365 61.2768 22.2123 60.2507 22.9118 59.104H24.2501H24.7501V58.604V47.7544C28.6059 47.2581 32.4886 46.9992 36.3764 46.979C42.4161 46.9791 51.46 47.7761 58.978 49.9276C62.7398 51.0041 66.0826 52.4096 68.4746 54.1969C70.861 55.98 72.2501 58.1002 72.2501 60.6248V72.2498ZM48.0001 51.3957V51.8316V58.604V59.104H48.5001H54.5626H55.0626V58.604V52.4667V52.0647L54.6699 51.9784C52.669 51.5387 50.6067 51.1808 48.5683 50.9004L48.5004 51.3937H48.5001H48.0001V51.3957ZM44.9585 50.9248V50.4707L44.5064 50.4271C41.8043 50.1669 39.0916 50.0313 36.3771 50.0207H36.3751C34.0303 50.0207 31.2239 50.1468 28.245 50.427L27.7918 50.4697V50.9248V59.7559V60.1593L28.1861 60.2446C30.8768 60.8266 33.6216 61.1217 36.3745 61.1248L36.3757 61.1248C39.1286 61.1217 41.8735 60.8266 44.5642 60.2446L44.9585 60.1593V59.7559V50.9248Z" fill="#B1F540" stroke="#0200CD"/>
<path d="M8.58333 60.625V60.125H8.08333C6.07211 60.125 4.14326 59.326 2.72111 57.9039C1.29896 56.4817 0.5 54.5529 0.5 52.5417V38.3958C0.5 37.9925 0.660231 37.6057 0.945442 37.3204C1.23065 37.0352 1.61748 36.875 2.02083 36.875C2.42418 36.875 2.81101 37.0352 3.09622 37.3204C3.38144 37.6057 3.54167 37.9925 3.54167 38.3958V52.5417C3.54167 53.7462 4.02016 54.9014 4.87189 55.7531C5.72362 56.6048 6.87881 57.0833 8.08333 57.0833H8.58333V56.5833V38.3958C8.58333 37.9925 8.74356 37.6057 9.02878 37.3204C9.31399 37.0352 9.70082 36.875 10.1042 36.875C10.5075 36.875 10.8943 37.0352 11.1796 37.3204C11.4648 37.6057 11.625 37.9925 11.625 38.3958V56.5833V57.0833H12.125C13.3295 57.0833 14.4847 56.6048 15.3364 55.7531C16.1882 54.9014 16.6667 53.7462 16.6667 52.5417V38.3958C16.6667 37.9925 16.8269 37.6057 17.1121 37.3204C17.3973 37.0352 17.7842 36.875 18.1875 36.875C18.5909 36.875 18.9777 37.0352 19.2629 37.3204C19.5481 37.6057 19.7083 37.9925 19.7083 38.3958V52.5417C19.7083 54.5529 18.9094 56.4817 17.4872 57.9039C16.0651 59.326 14.1362 60.125 12.125 60.125H11.625V60.625V70.7292C11.625 71.1325 11.4648 71.5193 11.1796 71.8046C10.8943 72.0898 10.5075 72.25 10.1042 72.25C9.70082 72.25 9.31399 72.0898 9.02878 71.8046C8.74356 71.5193 8.58333 71.1325 8.58333 70.7292V60.625Z" fill="#B1F540" stroke="#0200CD"/>
</svg>
