<svg width="18" height="18" viewBox="0 0 18 18" fill="none" xmlns="http://www.w3.org/2000/svg">
<circle cx="9" cy="9" r="8.5" stroke="#0200CD"/>
<path fill-rule="evenodd" clip-rule="evenodd" d="M10.885 12.9989C10.3081 12.9776 8.67291 12.7517 6.96041 11.04C5.24832 9.32781 5.02274 7.69338 5.0011 7.11612C4.96904 6.23641 5.64298 5.38195 6.4215 5.04825C6.51525 5.00778 6.61791 4.99237 6.71942 5.00353C6.82092 5.0147 6.91777 5.05206 7.00048 5.11194C7.64156 5.57904 8.08391 6.28569 8.46375 6.84131C8.54733 6.96339 8.58306 7.11193 8.56414 7.25865C8.54523 7.40537 8.47298 7.54 8.36118 7.6369L7.57946 8.21736C7.54169 8.24462 7.51511 8.28467 7.50464 8.33005C7.49418 8.37544 7.50054 8.42308 7.52256 8.46412C7.69966 8.7858 8.01459 9.26491 8.3752 9.62545C8.73621 9.98599 9.23786 10.3217 9.58204 10.5188C9.6252 10.543 9.67599 10.5498 9.72398 10.5377C9.77198 10.5256 9.81352 10.4956 9.84008 10.4539L10.3489 9.67953C10.4425 9.55528 10.5805 9.47205 10.7341 9.44726C10.8876 9.42247 11.0448 9.45804 11.1727 9.54653C11.7365 9.93671 12.3944 10.3714 12.876 10.9879C12.9408 11.0712 12.982 11.1703 12.9953 11.275C13.0086 11.3796 12.9936 11.4859 12.9517 11.5828C12.6164 12.3651 11.7677 13.0313 10.885 12.9989Z" fill="#0200CD"/>
</svg>
