<svg width="64" height="64" viewBox="0 0 64 64" fill="none" xmlns="http://www.w3.org/2000/svg">
<g clip-path="url(#clip0_1570_265)">
<circle cx="31.5" cy="32.5" r="29.5" fill="white"/>
<path d="M32 58C45.8071 58 57 46.5833 57 32.5C57 18.4167 45.8071 7 32 7C18.1929 7 7 18.4167 7 32.5C7 46.5833 18.1929 58 32 58Z" fill="#0200CD"/>
<path d="M31.9935 0C14.3311 0 0 14.3311 0 31.9935C0 49.6558 14.3311 63.9869 31.9935 63.9869C49.6558 63.9869 63.9869 49.6558 63.9869 31.9935C63.9869 14.3311 49.6689 0 31.9935 0ZM31.9935 60.6818C16.1862 60.6818 3.31823 47.8138 3.31823 32.0065C3.31823 16.1992 16.1862 3.31823 31.9935 3.31823C47.8008 3.31823 60.6687 16.1862 60.6687 31.9935C60.6687 47.8008 47.8138 60.6818 31.9935 60.6818Z" fill="#0200CD"/>
</g>
<path d="M28.432 22C28.1934 22 28 22.1934 28 22.432V29.1351C28 29.4503 28.2427 29.7654 28.5352 30.0308C29.0894 30.5336 29.5389 31.1925 29.5235 31.9407C29.4241 36.7414 28.768 39.5615 28.768 41.027C28.768 41.8198 28.768 42.6126 29.536 43.4054C30.304 44.1982 30.304 44.1982 31.072 43.4054C31.84 42.6126 31.84 41.8198 31.84 41.027C31.84 39.5615 31.1839 36.7414 31.0845 31.9407C31.0691 31.1925 31.5186 30.5336 32.0728 30.0308C32.3653 29.7654 32.608 29.4503 32.608 29.1351V22.432C32.608 22.1934 32.4146 22 32.176 22C31.9374 22 31.744 22.1934 31.744 22.432V26.2528C31.744 26.5311 31.5184 26.7568 31.24 26.7568C30.9616 26.7568 30.736 26.5311 30.736 26.2528V22.432C30.736 22.1934 30.5426 22 30.304 22C30.0654 22 29.872 22.1934 29.872 22.432V26.2528C29.872 26.5311 29.6464 26.7568 29.368 26.7568C29.0896 26.7568 28.864 26.5311 28.864 26.2528V22.432C28.864 22.1934 28.6706 22 28.432 22ZM38.1784 22.6987C37.9167 22.2211 37.2362 21.9223 37.0134 22.4192C36.928 22.6095 36.928 22.7928 36.928 22.7928C36.928 22.7928 36.928 22.7928 36.928 22.7928V36.2611C36.928 36.2662 36.9321 36.2703 36.9371 36.2703C36.9425 36.2703 36.9467 36.275 36.9462 36.2804C36.7256 38.5442 36.448 40.0771 36.448 41.027C36.448 41.8198 36.448 42.6126 37.216 43.4054C37.984 44.1982 37.984 44.1982 38.752 43.4054C39.52 42.6126 39.52 41.8198 39.52 41.027C39.52 39.9921 39.1941 38.2799 38.9639 35.6689C38.937 35.3641 38.9853 35.0578 39.0896 34.7701C39.6028 33.3545 40 31.6412 40 29.9279C40 27.9034 39.1026 24.3852 38.1784 22.6987Z" fill="white"/>
<defs>
<clipPath id="clip0_1570_265">
<rect width="64" height="64" fill="white"/>
</clipPath>
</defs>
</svg>
