<svg width="64" height="64" viewBox="0 0 64 64" fill="none" xmlns="http://www.w3.org/2000/svg">
<g clip-path="url(#clip0_1570_263)">
<circle cx="31.5" cy="32.5" r="29.5" fill="white"/>
<path d="M32 58C45.8071 58 57 46.5833 57 32.5C57 18.4167 45.8071 7 32 7C18.1929 7 7 18.4167 7 32.5C7 46.5833 18.1929 58 32 58Z" fill="#0200CD"/>
<path d="M31.9935 0C14.3311 0 0 14.3311 0 31.9935C0 49.6558 14.3311 63.9869 31.9935 63.9869C49.6558 63.9869 63.9869 49.6558 63.9869 31.9935C63.9869 14.3311 49.6689 0 31.9935 0ZM31.9935 60.6818C16.1862 60.6818 3.31823 47.8138 3.31823 32.0065C3.31823 16.1992 16.1862 3.31823 31.9935 3.31823C47.8008 3.31823 60.6687 16.1862 60.6687 31.9935C60.6687 47.8008 47.8138 60.6818 31.9935 60.6818Z" fill="#0200CD"/>
</g>
<path d="M32.1098 38.4438C32.1099 38.4435 32.11 38.4427 32.11 38.4412V37.1089V36.7367L32.4666 36.63L34.1772 36.1177L34.2221 36.0875L32.7536 36.5277L32.11 36.7206V36.0488V34.9382C32.11 33.9183 32.397 32.9197 32.9499 32.0614C32.3877 32.9114 32.1035 33.9162 32.1035 34.9371V35.2461V35.9178L31.4601 35.725L29.0965 35.0171L29.1275 35.0436L31.7469 35.8272L32.1035 35.9339V36.3062V38.44C32.1035 38.4416 32.1037 38.4425 32.1038 38.4427L32.1038 38.443L32.1038 38.4431L32.1098 38.4438ZM32.1098 38.4438H32.1073C32.1058 38.4438 32.1049 38.4437 32.1046 38.4436L32.1043 38.4435L32.1043 38.4435L32.1043 38.4435L32.1098 38.4438ZM30.6969 29.6428L33.1314 30.3726L33.6542 30.5293C33.6529 30.534 33.6516 30.5387 33.6503 30.5434L33.1519 30.3942L30.7428 29.6735L30.6969 29.6428ZM33.4743 31.0552L33.5543 30.8503C33.4176 31.2443 33.2343 31.6211 33.0079 31.9723C33.1934 31.6812 33.3496 31.3742 33.4743 31.0552ZM33.7402 30.2065L33.7146 30.3029L33.7684 29.9745C33.8154 29.6877 33.8388 29.3976 33.8388 29.1044V27.2534H33.8464V29.1044C33.8464 29.2227 33.8423 29.3399 33.8341 29.4571L33.784 30.1777L34.4761 29.9708L35.1657 29.7647L35.1112 29.7982L34.0089 30.1265L33.7402 30.2065Z" fill="white" stroke="white"/>
<path d="M33.7969 22.6796C34.0228 23.6256 34.0087 24.6412 33.7585 25.5761C33.5328 24.6302 33.5468 23.6146 33.7969 22.6796ZM38.7885 27.6578L36.7468 28.2703C36.7971 28.1078 36.863 27.9501 36.9438 27.7995L36.2831 27.4449L36.9438 27.7995C37.1093 27.491 37.3343 27.2183 37.6056 26.9971C37.877 26.7759 38.1895 26.6106 38.525 26.5106L38.5279 26.5098L40.566 25.8983C40.3084 26.7103 39.6683 27.3871 38.7921 27.6567C38.7909 27.657 38.7897 27.6574 38.7885 27.6578ZM29.1122 28.1436L27.0801 27.534C27.0792 27.5337 27.0783 27.5335 27.0774 27.5332C26.1988 27.2646 25.5584 26.5896 25.2993 25.7769L27.3307 26.3864C27.331 26.3864 27.3312 26.3865 27.3315 26.3866C27.3315 26.3866 27.3315 26.3866 27.3316 26.3866C28.0101 26.5908 28.5799 27.0559 28.916 27.6797C28.9964 27.8289 29.0619 27.9843 29.1122 28.1436ZM25.6877 31.7493C26.5689 32.0132 27.2119 32.693 27.4663 33.5091L25.4229 32.896C24.5466 32.6265 23.9065 31.9496 23.6489 31.1377L25.687 31.7491L25.6877 31.7493ZM37.6131 32.8229C37.614 32.8226 37.6149 32.8223 37.6159 32.822L39.648 32.2124C39.3904 33.0243 38.7503 33.7012 37.8742 33.9707L35.8319 34.5834C36.0866 33.7717 36.7278 33.0935 37.6131 32.8229Z" fill="white" stroke="white" stroke-width="3"/>
<path d="M26.4028 39.849C27.3182 39.0768 28.828 38.34 32.0943 38.0622C34.7809 38.3374 35.9888 39.0484 36.7599 39.8033C37.104 40.1402 37.3696 40.4926 37.6551 40.8713C37.706 40.9389 37.7577 41.0074 37.8105 41.0768C37.9177 41.2177 38.0289 41.3607 38.1477 41.5034H32.0985L24.9263 41.5034C25.0377 41.3711 25.1434 41.2388 25.2467 41.1093C25.2533 41.1011 25.2598 41.0929 25.2663 41.0848C25.6124 40.6508 25.9416 40.2382 26.4028 39.849Z" fill="white" stroke="white"/>
<defs>
<clipPath id="clip0_1570_263">
<rect width="64" height="64" fill="white"/>
</clipPath>
</defs>
</svg>
