<svg width="64" height="64" viewBox="0 0 64 64" fill="none" xmlns="http://www.w3.org/2000/svg">
<g clip-path="url(#clip0_1570_264)">
<circle cx="31.5" cy="32.5" r="29.5" fill="white"/>
<path d="M32 58C45.8071 58 57 46.5833 57 32.5C57 18.4167 45.8071 7 32 7C18.1929 7 7 18.4167 7 32.5C7 46.5833 18.1929 58 32 58Z" fill="#0200CD"/>
<path d="M31.9935 0C14.3311 0 0 14.3311 0 31.9935C0 49.6558 14.3311 63.9869 31.9935 63.9869C49.6558 63.9869 63.9869 49.6558 63.9869 31.9935C63.9869 14.3311 49.6689 0 31.9935 0ZM31.9935 60.6818C16.1862 60.6818 3.31823 47.8138 3.31823 32.0065C3.31823 16.1992 16.1862 3.31823 31.9935 3.31823C47.8008 3.31823 60.6687 16.1862 60.6687 31.9935C60.6687 47.8008 47.8138 60.6818 31.9935 60.6818Z" fill="#0200CD"/>
</g>
<path d="M19.3131 27.6436C19.6783 27.7653 27.5914 28.8609 27.4696 33.0001L26.4957 35.4349L23.3305 36.4088C21.0174 35.2725 16.9757 31.9288 19.3131 27.6436Z" fill="white"/>
<path d="M40.2517 34.3392C42.4917 32.5861 43.214 26.7102 43.2952 23.9914C37.4517 21.9218 32.4604 26.7914 32.2169 26.9131C29.7822 30.4192 31.4459 33.3247 32.5822 34.3392C35.6987 36.4818 38.9938 35.2319 40.2517 34.3392Z" fill="white"/>
<path d="M44.0845 23.3629C44.072 23.1489 43.9814 22.9468 43.8297 22.7952C43.6781 22.6436 43.4761 22.5529 43.262 22.5404C37.6008 22.2123 33.0551 23.9339 31.1017 27.1582C29.8111 29.2889 29.8133 31.8789 31.0842 34.3485C30.3616 35.2082 29.8329 36.2136 29.5344 37.2962L27.7548 35.5156C28.6102 33.7295 28.5773 31.8668 27.6455 30.3214C26.1973 27.9392 22.8647 26.6562 18.727 26.9045C18.513 26.917 18.3109 27.0076 18.1593 27.1593C18.0077 27.3109 17.917 27.5129 17.9045 27.727C17.6606 31.8646 18.9392 35.1973 21.3225 36.641C22.1104 37.1219 23.0157 37.3759 23.9387 37.3749C24.8333 37.3639 25.714 37.152 26.5156 36.7548L29.25 39.4892V42.6249C29.25 42.857 29.3422 43.0796 29.5063 43.2437C29.6704 43.4078 29.8929 43.4999 30.125 43.4999C30.3571 43.4999 30.5796 43.4078 30.7437 43.2437C30.9078 43.0796 31 42.857 31 42.6249V39.3995C30.9961 38.0075 31.4698 36.6562 32.342 35.5714C33.4674 36.1595 34.7156 36.4742 35.9853 36.4901C37.2129 36.4941 38.4177 36.1587 39.4667 35.521C42.6911 33.5698 44.417 29.0242 44.0845 23.3629ZM26.4128 34.1746L23.743 31.5059C23.5775 31.3487 23.3573 31.2624 23.1291 31.2653C22.9009 31.2682 22.6829 31.3602 22.5216 31.5215C22.3602 31.6829 22.2683 31.9009 22.2654 32.129C22.2624 32.3572 22.3488 32.5775 22.5059 32.7429L25.1758 35.4128C24.1247 35.7606 23.1053 35.6742 22.2292 35.1437C20.5514 34.1276 19.602 31.7224 19.625 28.6249C22.7214 28.5976 25.1276 29.5514 26.1437 31.2292C26.6742 32.1053 26.7606 33.1246 26.4128 34.1746ZM38.56 34.0259C37.0944 34.9129 35.3717 34.9807 33.6217 34.2446L39.4941 28.3712C39.6582 28.2072 39.7505 27.9846 39.7506 27.7525C39.7507 27.5204 39.6586 27.2978 39.4946 27.1336C39.3306 26.9694 39.108 26.8771 38.8759 26.877C38.6438 26.8769 38.4212 26.969 38.257 27.1331L32.3836 32.9999C31.6442 31.2499 31.7109 29.5262 32.6023 28.0617C34.127 25.546 37.743 24.146 42.3728 24.2521C42.4778 28.8809 41.0778 32.5012 38.56 34.0259Z" fill="white"/>
<circle cx="39.0423" cy="38.3617" r="5.06383" fill="white"/>
<path d="M38.2604 41.0634C38.0984 41.0634 37.945 40.9878 37.8467 40.8574L36.5163 39.0996C36.4752 39.0453 36.4452 38.9835 36.428 38.9176C36.4107 38.8517 36.4067 38.783 36.416 38.7156C36.4254 38.6481 36.4479 38.5831 36.4824 38.5244C36.5168 38.4657 36.5625 38.4143 36.6169 38.3732C36.6712 38.3319 36.7331 38.3018 36.799 38.2846C36.865 38.2673 36.9338 38.2632 37.0013 38.2725C37.0689 38.2819 37.1339 38.3045 37.1927 38.339C37.2515 38.3735 37.303 38.4193 37.344 38.4737L38.2194 39.6295L40.4203 36.0952C40.4933 35.9785 40.6096 35.8955 40.7437 35.8645C40.8778 35.8334 41.0187 35.8568 41.1356 35.9295C41.3787 36.0807 41.4536 36.4009 41.3016 36.6444L38.7012 40.8184C38.6568 40.8899 38.5956 40.9496 38.523 40.9921C38.4503 41.0347 38.3683 41.0589 38.2842 41.0626C38.276 41.0634 38.2686 41.0634 38.2604 41.0634Z" fill="#0200CD"/>
<path d="M41.9433 24.3617C39.9044 24.7056 35.3617 26.9346 33.5022 33.1003" stroke="#0200CD" stroke-width="0.7" stroke-linecap="round"/>
<path d="M19.8301 28.6809C21.3691 29.0781 24.8343 30.915 26.3833 35.0852" stroke="#0200CD" stroke-width="0.7" stroke-linecap="round"/>
<defs>
<clipPath id="clip0_1570_264">
<rect width="64" height="64" fill="white"/>
</clipPath>
</defs>
</svg>
