<svg width="64" height="64" viewBox="0 0 64 64" fill="none" xmlns="http://www.w3.org/2000/svg">
<path d="M32.0065 58.0116C45.8164 58.0116 57.0116 46.5926 57.0116 32.5064C57.0116 18.4203 45.8164 7.00122 32.0065 7.00122C18.1966 7.00122 7.0014 18.4203 7.0014 32.5064C7.0014 46.5926 18.1966 58.0116 32.0065 58.0116Z" fill="#0200CD"/>
<path d="M32 0C14.334 0 0 14.334 0 32C0 49.666 14.334 64 32 64C49.666 64 64 49.666 64 32C64 14.334 49.6791 0 32 0ZM32 60.6942C16.1895 60.6942 3.31891 47.8236 3.31891 32.0131C3.31891 16.2025 16.1895 3.31891 32 3.31891C47.8105 3.31891 60.6811 16.1895 60.6811 32C60.6811 47.8105 47.8236 60.6942 32 60.6942Z" fill="#0200CD"/>
<path d="M38.9521 42H24.582V39.4951L31.5254 31.9512C32.2871 31.1113 32.8828 30.3838 33.3125 29.7686C33.752 29.1533 34.0596 28.6016 34.2354 28.1133C34.4111 27.6152 34.499 27.1318 34.499 26.6631C34.499 25.6768 34.2256 24.8711 33.6787 24.2461C33.1416 23.6113 32.3701 23.2939 31.3643 23.2939C30.583 23.2939 29.9238 23.4648 29.3867 23.8066C28.8594 24.1387 28.4639 24.5977 28.2002 25.1836C27.9365 25.7695 27.8047 26.4434 27.8047 27.2051H24.1719C24.1719 25.9551 24.4551 24.8125 25.0215 23.7773C25.5879 22.7422 26.4131 21.917 27.4971 21.3018C28.5811 20.6865 29.8848 20.3789 31.4082 20.3789C33.5566 20.3789 35.2168 20.9111 36.3887 21.9756C37.5605 23.04 38.1465 24.4756 38.1465 26.2822C38.1465 27.1807 37.9561 28.0645 37.5752 28.9336C37.1943 29.8027 36.6719 30.6719 36.0078 31.541C35.3438 32.4004 34.582 33.2842 33.7227 34.1924L29.167 39.085H38.9521V42Z" fill="white"/>
</svg>
