<svg width="64" height="64" viewBox="0 0 64 64" fill="none" xmlns="http://www.w3.org/2000/svg">
<path d="M32 58C45.8071 58 57 46.5833 57 32.5C57 18.4167 45.8071 7 32 7C18.1929 7 7 18.4167 7 32.5C7 46.5833 18.1929 58 32 58Z" fill="#0200CD"/>
<path d="M31.9935 0C14.3311 0 0 14.3311 0 31.9935C0 49.6558 14.3311 63.9869 31.9935 63.9869C49.6558 63.9869 63.9869 49.6558 63.9869 31.9935C63.9869 14.3311 49.6689 0 31.9935 0ZM31.9935 60.6818C16.1862 60.6818 3.31823 47.8138 3.31823 32.0065C3.31823 16.1992 16.1862 3.31823 31.9935 3.31823C47.8008 3.31823 60.6687 16.1862 60.6687 31.9935C60.6687 47.8008 47.8138 60.6818 31.9935 60.6818Z" fill="#0200CD"/>
<g clip-path="url(#clip0_2321_346)">
<path d="M19 38.9592C19 33.6691 19 28.4176 19 23.1661C19.1158 23.0116 19.3089 22.973 19.502 22.973C20.699 22.973 21.896 22.973 23.0931 22.973C23.5564 22.9344 23.6337 23.0116 23.6337 23.475C23.6337 24.9037 23.6337 26.3324 23.6337 27.7611C23.6337 27.8384 23.6337 27.9542 23.6337 28.0701C23.7495 28.0314 23.8653 27.9928 23.9426 27.9542C26.105 27.0275 28.2287 26.0621 30.3911 25.1354C30.8545 24.9423 31.0861 25.0968 31.0861 25.5988C31.0861 26.1007 31.0861 26.6413 31.0861 27.1433C31.0861 27.375 31.0861 27.6453 31.0861 27.9156C31.202 27.877 31.2792 27.8384 31.395 27.7998C33.403 26.9116 35.4495 26.0235 37.4574 25.1354C37.9208 24.9423 38.1525 25.0968 38.1525 25.5988C38.1525 26.2552 38.1525 26.9116 38.1525 27.5681C38.1525 27.6839 38.1525 27.7611 38.1525 27.9156C38.2683 27.877 38.3455 27.8384 38.4228 27.7998C39.5426 27.2978 40.701 26.7958 41.8208 26.2938C42.7475 25.9077 43.6743 25.4829 44.5624 25.0968C44.9485 24.9423 45.2188 25.0968 45.2188 25.5215C45.2188 25.5602 45.2188 25.5988 45.2188 25.6374C45.2188 30.078 45.2188 34.5186 45.2188 38.9205C45.2188 38.9978 45.2188 39.075 45.2188 39.1522C45.1802 39.3453 45.103 39.4611 44.8713 39.4998C44.7554 39.4998 44.6396 39.4998 44.5238 39.4998C36.3376 39.4998 28.1901 39.4998 20.004 39.4998C19.5792 39.4998 19.1931 39.3839 19 38.9592ZM28.4218 33.2443C28.4218 32.7809 28.4218 32.3176 28.4218 31.8542C28.4218 31.5453 28.3059 31.3908 27.9584 31.3908C27.4178 31.3908 26.8772 31.3908 26.3366 31.3908C26.0277 31.3908 25.8733 31.5453 25.8733 31.8542C25.8733 32.7809 25.8733 33.7077 25.8733 34.6344C25.8733 34.9433 25.9891 35.0978 26.3366 35.0978C26.8772 35.0978 27.4178 35.0978 27.9584 35.0978C28.3059 35.0978 28.4218 34.9819 28.4218 34.6344C28.4218 34.171 28.4218 33.7077 28.4218 33.2443ZM35.4881 33.2443C35.4881 32.7809 35.4881 32.3176 35.4881 31.8542C35.4881 31.5453 35.3723 31.3908 35.0634 31.3908C34.5228 31.3908 33.9822 31.3908 33.4416 31.3908C33.1327 31.3908 33.0168 31.5453 33.0168 31.8542C33.0168 32.7809 33.0168 33.7077 33.0168 34.5958C33.0168 34.9433 33.1327 35.0592 33.4802 35.0592C34.0208 35.0592 34.5228 35.0592 35.0634 35.0592C35.4109 35.0592 35.5267 34.9433 35.5267 34.5572C35.4881 34.171 35.4881 33.7077 35.4881 33.2443ZM40.0059 33.2057C40.0059 33.6691 40.0059 34.1324 40.0059 34.5958C40.0059 34.9433 40.1218 35.0978 40.4693 35.0978C41.0099 35.0978 41.5119 35.0978 42.0525 35.0978C42.4 35.0978 42.5158 34.9819 42.5158 34.6344C42.5158 33.7077 42.5158 32.7809 42.5158 31.8928C42.5158 31.5839 42.4 31.4295 42.0911 31.4295C41.5505 31.4295 41.0099 31.4295 40.4693 31.4295C40.1604 31.4295 40.0446 31.5839 40.0446 31.8928C40.0059 32.3176 40.0059 32.7809 40.0059 33.2057Z" fill="white"/>
<path d="M19 20.1931C19.1545 20.1158 19.3475 20 19.502 20C20.699 20 21.9347 20 23.1317 20C23.5564 20 23.6337 20.0772 23.6337 20.502C23.6337 20.8109 23.6337 21.1198 23.6337 21.4287C23.6337 21.699 23.5178 21.8149 23.2475 21.8149C21.9733 21.8149 20.6604 21.8149 19.3861 21.8149C19.2703 21.8149 19.1158 21.699 19 21.6604C19 21.1584 19 20.6564 19 20.1931Z" fill="white"/>
</g>
<defs>
<clipPath id="clip0_2321_346">
<rect width="26.1802" height="19.5" fill="white" transform="translate(19 20)"/>
</clipPath>
</defs>
</svg>
