<svg width="64" height="64" viewBox="0 0 64 64" fill="none" xmlns="http://www.w3.org/2000/svg">
<path d="M32 58C45.8071 58 57 46.5833 57 32.5C57 18.4167 45.8071 7 32 7C18.1929 7 7 18.4167 7 32.5C7 46.5833 18.1929 58 32 58Z" fill="#0200CD"/>
<path d="M31.9935 0C14.3311 0 0 14.3311 0 31.9935C0 49.6558 14.3311 63.9869 31.9935 63.9869C49.6558 63.9869 63.9869 49.6558 63.9869 31.9935C63.9869 14.3311 49.6689 0 31.9935 0ZM31.9935 60.6818C16.1862 60.6818 3.31823 47.8138 3.31823 32.0065C3.31823 16.1992 16.1862 3.31823 31.9935 3.31823C47.8008 3.31823 60.6687 16.1862 60.6687 31.9935C60.6687 47.8008 47.8138 60.6818 31.9935 60.6818Z" fill="#0200CD"/>
<g clip-path="url(#clip0_2321_345)">
<path d="M25.9154 36.4107C25.6917 35.292 25.4679 34.2291 25.2442 33.1103C25.1882 32.8866 25.1323 32.7747 24.9645 32.7188C24.0135 32.1594 23.0626 31.6 22.0557 31.0406C22.1116 30.9287 22.1116 30.8728 22.1675 30.8169C22.5591 29.8659 23.0066 28.9709 23.4541 28.0199C23.566 27.7962 23.566 27.6843 23.4541 27.4605C23.0066 26.5655 22.6151 25.6146 22.2235 24.6636C22.1675 24.5517 22.1675 24.4958 22.1116 24.3839C22.8388 23.9923 23.5101 23.6008 24.2373 23.1533C24.5729 22.9295 25.0204 22.8176 25.2442 22.5379C25.4679 22.2582 25.4679 21.7548 25.5239 21.4192C25.5798 20.636 25.7476 19.8529 25.9154 19.0697C26.4748 19.1257 27.0901 19.1816 27.6495 19.2375C28.2089 19.2935 28.7683 19.3494 29.3277 19.4054C29.4396 19.4054 29.5514 19.3494 29.6633 19.2935C30.4465 18.6222 31.1737 17.951 31.9568 17.2238C32.0687 17.1678 32.1246 17.0559 32.2365 17C32.3484 17.0559 32.4043 17.1119 32.4603 17.2238C33.2434 17.895 33.9706 18.6222 34.7537 19.2935C34.8656 19.4054 34.9775 19.4613 35.2013 19.4613C36.32 19.3494 37.4388 19.2375 38.5576 19.1257C38.6695 19.6851 38.7813 20.1885 38.8932 20.7479C39.0051 21.3073 39.117 21.9226 39.2848 22.482C39.3407 22.5939 39.3967 22.7617 39.5085 22.8176C40.4036 23.3211 41.2986 23.8805 42.1936 24.3839C42.2495 24.4398 42.3614 24.4958 42.4733 24.5517C42.1936 25.167 41.9698 25.7264 41.6901 26.2858C41.4664 26.7333 41.2986 27.1808 41.0748 27.6284C41.0189 27.7962 41.0189 27.908 41.0748 28.0759C41.5223 29.0828 41.9698 30.0897 42.4733 31.1525C42.3614 31.2084 42.3055 31.2644 42.2495 31.3203C41.3545 31.8238 40.5154 32.3272 39.6204 32.8307C39.4526 32.9425 39.3407 33.0544 39.2848 33.2782C39.061 34.2851 38.8932 35.292 38.6695 36.2989C38.6695 36.3548 38.6135 36.4667 38.6135 36.5226C37.9423 36.4667 37.3269 36.4107 36.7116 36.2989C36.2082 36.2429 35.6488 36.187 35.1453 36.131C35.0334 36.131 34.9216 36.187 34.8097 36.2429C34.0265 36.9142 33.2434 37.6414 32.5162 38.3126C32.4603 38.3686 32.3484 38.4245 32.2924 38.4805C31.6771 37.9211 31.0059 37.3617 30.3905 36.8023C30.2787 36.6904 30.1108 36.5785 29.999 36.4107C29.7193 36.0751 29.3836 36.0192 28.9921 36.0751C28.0411 36.187 27.0901 36.2989 26.1392 36.4107C26.0273 36.4107 25.9714 36.4107 25.9154 36.4107ZM38.9492 27.7402C38.9492 24.0483 35.9285 21.0276 32.2365 21.0276C28.5446 21.0276 25.5798 23.9923 25.5239 27.6843C25.4679 31.3203 28.4886 34.3969 32.1806 34.3969C35.8725 34.4529 38.8932 31.4322 38.9492 27.7402Z" fill="white"/>
<path d="M22.9507 43.2912C23.0066 43.1794 23.0066 43.1234 23.0626 43.0115C23.7898 41.5012 24.517 39.9349 25.2442 38.4246C25.3001 38.2567 25.412 38.2008 25.6357 38.1449C26.5867 38.033 27.5936 37.9211 28.5446 37.8092C28.8242 37.7533 29.048 37.8092 29.2718 38.033C29.999 38.7043 30.7262 39.3755 31.4534 40.0468C31.5652 40.1587 31.6771 40.2146 31.789 40.3265C30.894 42.2284 29.999 44.1862 29.048 46.1441C28.9361 46.0322 28.9361 45.9763 28.8802 45.8644C28.2089 45.0813 27.5377 44.2981 26.8664 43.515C26.7545 43.3472 26.5867 43.2912 26.3629 43.2912C25.356 43.2912 24.3492 43.2912 23.2863 43.2353C23.1744 43.3472 23.0626 43.2912 22.9507 43.2912Z" fill="white"/>
<path d="M41.5224 43.3469C40.4596 43.3469 39.3967 43.3469 38.3898 43.3469C37.9983 43.3469 37.7186 43.4588 37.4948 43.7944C36.8235 44.5776 36.1523 45.3607 35.4251 46.1998C34.5301 44.242 33.5791 42.34 32.6841 40.3822C33.3553 39.7669 34.0266 39.1515 34.6979 38.5921C34.7538 38.5362 34.8098 38.4803 34.8657 38.4243C35.2573 37.8649 35.8166 37.809 36.4879 37.9209C37.327 38.0887 38.1101 38.0887 38.9492 38.2006C39.0611 38.2006 39.173 38.3124 39.2289 38.3684C40.0121 39.9347 40.7393 41.5569 41.4665 43.1232C41.4665 43.1791 41.4665 43.2351 41.5224 43.3469Z" fill="white"/>
<path d="M37.2154 27.7403C37.2154 30.5372 34.922 32.7188 32.181 32.7188C29.44 32.7188 27.2024 30.4253 27.2584 27.7403C27.2584 24.9993 29.4959 22.7617 32.2369 22.7617C34.9779 22.7617 37.2154 25.0552 37.2154 27.7403Z" fill="white"/>
</g>
<defs>
<clipPath id="clip0_2321_345">
<rect width="20.4736" height="29.2" fill="white" transform="translate(22 17)"/>
</clipPath>
</defs>
</svg>
