<svg width="64" height="64" viewBox="0 0 64 64" fill="none" xmlns="http://www.w3.org/2000/svg">
<path d="M32 58C45.8071 58 57 46.5833 57 32.5C57 18.4167 45.8071 7 32 7C18.1929 7 7 18.4167 7 32.5C7 46.5833 18.1929 58 32 58Z" fill="#0200CD"/>
<path d="M31.9935 0C14.3311 0 0 14.3311 0 31.9935C0 49.6558 14.3311 63.9869 31.9935 63.9869C49.6558 63.9869 63.9869 49.6558 63.9869 31.9935C63.9869 14.3311 49.6689 0 31.9935 0ZM31.9935 60.6818C16.1862 60.6818 3.31823 47.8138 3.31823 32.0065C3.31823 16.1992 16.1862 3.31823 31.9935 3.31823C47.8008 3.31823 60.6687 16.1862 60.6687 31.9935C60.6687 47.8008 47.8138 60.6818 31.9935 60.6818Z" fill="#0200CD"/>
<path d="M20.9425 29.5282C21.1129 29.1307 21.4536 29.0171 21.8512 29.0171C28.1549 29.0171 34.4018 29.0171 40.7055 29.0171C41.387 29.0171 41.6141 29.2443 41.6141 29.9257C41.6141 35.0368 41.6141 40.0912 41.6141 45.2023C41.6141 45.3159 41.6141 45.3726 41.6141 45.543C39.7969 45.543 37.9796 45.543 36.1055 45.543C36.1055 45.4294 36.1055 45.3159 36.1055 45.2023C36.1055 42.4196 36.1055 39.6368 36.1055 36.9109C36.1055 36.7973 36.1055 36.7405 36.1055 36.627C36.0487 36.2294 35.8215 35.9455 35.3672 35.9455C32.6413 35.9455 29.9154 35.9455 27.1327 35.9455C26.7351 35.9455 26.4512 36.2294 26.3944 36.627C26.3944 36.7405 26.3944 36.7973 26.3944 36.9109C26.3944 39.6936 26.3944 42.4196 26.3944 45.2023C26.3944 45.3159 26.3944 45.4294 26.3944 45.5998C26.2808 45.5998 26.1672 45.5998 26.1104 45.5998C24.6907 45.5998 23.2709 45.5998 21.8512 45.5998C21.3969 45.5998 21.1129 45.4862 20.8857 45.0887C20.9425 39.864 20.9425 34.6961 20.9425 29.5282Z" fill="white"/>
<path d="M32.5279 18C32.9823 18.3407 33.0958 18.5679 32.9823 19.1358C32.8687 19.4765 32.6415 19.8173 32.3008 19.9877C32.0168 20.158 31.7329 20.2716 31.4489 20.3852C31.165 20.4988 30.881 20.5556 30.881 20.9531C30.881 21.237 30.4835 21.4642 30.1428 21.4074C29.802 21.3506 29.5749 21.1235 29.5181 20.7827C29.5181 20.158 29.7452 19.6469 30.3131 19.363C30.5971 19.1926 30.9378 19.079 31.2218 18.9654C31.4489 18.9086 31.5625 18.7951 31.5625 18.5679C31.5625 18.284 31.7897 18.1136 32.0736 18C32.244 18 32.4144 18 32.5279 18Z" fill="white"/>
<path d="M26.6217 18C27.1328 18.3407 27.2464 18.6815 27.0193 19.2494C26.9057 19.7037 26.5649 19.9877 26.1106 20.2148C25.8835 20.3284 25.5995 20.3852 25.3723 20.4988C25.202 20.5556 25.0884 20.6123 25.0884 20.8395C25.0316 21.237 24.6909 21.4642 24.2933 21.4642C23.8958 21.4074 23.6686 21.0667 23.7254 20.6691C23.7822 19.9877 24.123 19.5333 24.7477 19.2494C25.0316 19.1358 25.3156 19.079 25.5427 18.9654C25.6563 18.9086 25.7699 18.7951 25.7699 18.7383C25.7699 18.3975 25.997 18.1704 26.281 18C26.3946 18 26.5081 18 26.6217 18Z" fill="white"/>
<path d="M38.3206 18C38.8317 18.284 38.9453 18.5679 38.7749 19.1358C38.6614 19.5901 38.3206 19.9309 37.9231 20.1012C37.6391 20.2148 37.3552 20.3284 37.0712 20.442C36.9009 20.4988 36.7873 20.6123 36.7873 20.7827C36.7305 21.1802 36.4465 21.4074 36.049 21.4074C35.7083 21.4074 35.4243 21.1235 35.4243 20.7259C35.4243 20.1012 35.7083 19.6469 36.2762 19.363C36.5601 19.1926 36.9009 19.079 37.2416 18.9654C37.412 18.9086 37.5256 18.8519 37.5256 18.6247C37.5256 18.284 37.7527 18.1136 38.0367 18C38.0935 18 38.207 18 38.3206 18Z" fill="white"/>
<path d="M27.8706 37.3086C30.1422 37.3086 32.4138 37.3086 34.7422 37.3086C34.7422 40.0345 34.7422 42.8172 34.7422 45.5432C32.4706 45.5432 30.199 45.5432 27.8706 45.5432C27.8706 42.8172 27.8706 40.0913 27.8706 37.3086Z" fill="white"/>
<path d="M32.9816 27.6541C31.8458 27.6541 30.71 27.6541 29.5742 27.6541C29.5742 27.5406 29.5742 27.4838 29.5742 27.427C29.5742 26.4048 29.5742 25.3825 29.5742 24.3603C29.5742 24.0196 29.6878 23.7924 29.9717 23.622C30.5964 23.2245 31.2211 22.827 31.8458 22.3727C32.1298 22.2023 32.3569 22.0887 32.6977 22.2591C32.9816 22.4295 33.0384 22.6566 33.0384 22.9974C33.0384 24.4739 33.0384 25.9504 33.0384 27.427C32.9816 27.4838 32.9816 27.5406 32.9816 27.6541Z" fill="white"/>
<path d="M35.4243 27.6544C35.4243 27.2001 35.4243 26.7458 35.4243 26.3483C35.4243 25.6668 35.4243 24.9853 35.4243 24.3038C35.4243 24.0199 35.5379 23.7927 35.7651 23.6791C36.4465 23.2248 37.128 22.7705 37.7527 22.3162C38.2638 21.9754 38.8317 22.2594 38.8317 22.8841C38.8317 24.4742 38.8317 26.0075 38.8317 27.5977C38.8317 27.5977 38.8317 27.6544 38.8317 27.7112C37.6959 27.6544 36.5601 27.6544 35.4243 27.6544Z" fill="white"/>
<path d="M27.133 27.6542C25.9972 27.6542 24.8614 27.6542 23.7256 27.6542C23.7256 27.5406 23.7256 27.4838 23.7256 27.3702C23.7256 26.348 23.7256 25.3826 23.7256 24.3604C23.7256 23.9628 23.8392 23.7357 24.1799 23.5085C24.7478 23.111 25.3725 22.7134 25.9972 22.3159C26.2811 22.1455 26.5083 22.0887 26.7923 22.2591C27.0762 22.4295 27.133 22.6566 27.133 22.9406C27.133 24.4171 27.133 25.8937 27.133 27.427C27.133 27.4838 27.133 27.5406 27.133 27.6542Z" fill="white"/>
</svg>
