<svg width="64" height="64" viewBox="0 0 64 64" fill="none" xmlns="http://www.w3.org/2000/svg">
<path d="M32.0066 58.0116C45.8165 58.0116 57.0117 46.5926 57.0117 32.5064C57.0117 18.4203 45.8165 7.00122 32.0066 7.00122C18.1966 7.00122 7.00146 18.4203 7.00146 32.5064C7.00146 46.5926 18.1966 58.0116 32.0066 58.0116Z" fill="#0200CD"/>
<path d="M32 0C14.334 0 0 14.334 0 32C0 49.666 14.334 64 32 64C49.666 64 64 49.666 64 32C64 14.334 49.6791 0 32 0ZM32 60.6942C16.1895 60.6942 3.31891 47.8236 3.31891 32.0131C3.31891 16.2025 16.1895 3.31891 32 3.31891C47.8105 3.31891 60.6811 16.1895 60.6811 32C60.6811 47.8105 47.8236 60.6942 32 60.6942Z" fill="#0200CD"/>
<path d="M31.8662 28.6807C32.6768 28.6807 33.3457 28.5439 33.873 28.2705C34.4004 27.9971 34.7959 27.6162 35.0596 27.1279C35.3232 26.6396 35.4551 26.0781 35.4551 25.4434C35.4551 24.7988 35.3379 24.2422 35.1035 23.7734C34.8691 23.2949 34.5127 22.9287 34.0342 22.6748C33.5557 22.4209 32.9551 22.2939 32.2324 22.2939C31.627 22.2939 31.0752 22.416 30.5771 22.6602C30.0889 22.8945 29.6982 23.2314 29.4053 23.6709C29.1221 24.1006 28.9805 24.6182 28.9805 25.2236H25.3477C25.3477 24.0811 25.6455 23.0703 26.2412 22.1914C26.8369 21.3125 27.6475 20.624 28.6729 20.126C29.708 19.6279 30.875 19.3789 32.1738 19.3789C33.5508 19.3789 34.7568 19.6084 35.792 20.0674C36.8271 20.5166 37.6328 21.1904 38.209 22.0889C38.7949 22.9873 39.0879 24.1006 39.0879 25.4287C39.0879 26.0537 38.9463 26.6787 38.6631 27.3037C38.3799 27.9189 37.96 28.4854 37.4033 29.0029C36.8467 29.5205 36.1533 29.9355 35.3232 30.248C34.4932 30.5605 33.5312 30.7168 32.4375 30.7168H29.7568V28.6807H31.8662ZM29.7568 29.5449H32.4375C33.6875 29.5449 34.752 29.6914 35.6309 29.9844C36.5195 30.2676 37.2422 30.6631 37.7988 31.1709C38.3555 31.6787 38.7607 32.2646 39.0146 32.9287C39.2783 33.5928 39.4102 34.291 39.4102 35.0234C39.4102 36.3613 39.0928 37.499 38.458 38.4365C37.8232 39.3643 36.959 40.0723 35.8652 40.5605C34.7812 41.0488 33.5508 41.293 32.1738 41.293C31.2656 41.293 30.3867 41.166 29.5371 40.9121C28.6875 40.6582 27.9307 40.2822 27.2666 39.7842C26.6123 39.2764 26.0898 38.6465 25.6992 37.8945C25.3184 37.1328 25.1279 36.249 25.1279 35.2432H28.7607C28.7607 35.8486 28.9072 36.3906 29.2002 36.8691C29.4932 37.3379 29.8984 37.709 30.416 37.9824C30.9434 38.2461 31.5537 38.3779 32.2471 38.3779C33.3408 38.3779 34.2002 38.085 34.8252 37.499C35.46 36.9033 35.7773 36.0781 35.7773 35.0234C35.7773 34.2129 35.6162 33.5537 35.2939 33.0459C34.9814 32.5283 34.5322 32.1523 33.9463 31.918C33.3604 31.6738 32.667 31.5518 31.8662 31.5518H29.7568V29.5449Z" fill="white"/>
</svg>
