<svg width="31" height="31" viewBox="0 0 31 31" fill="none" xmlns="http://www.w3.org/2000/svg">
<g id="noto:blueberries">
<path id="Vector" d="M5.11023 5.76168C4.99883 5.78832 4.60648 5.46379 3.4125 5.57762C2.95961 5.62121 2.79492 5.73746 2.79492 5.73746C2.79492 5.73746 2.83852 5.09324 3.38102 4.65972C3.76125 4.35457 4.11 4.2359 4.34977 4.18988C4.52172 4.15597 4.6307 3.99371 4.60406 3.81933C4.53867 3.40519 4.52656 2.72465 5.04727 2.37832C5.53648 2.05137 6.06203 2.2766 6.38414 2.48972C6.54398 2.59629 6.75711 2.54543 6.84914 2.37347C6.97023 2.14582 7.17125 1.84793 7.48367 1.60574C8.09156 1.1359 8.65828 1.45558 8.65828 1.45558C8.65828 1.45558 8.13758 1.90605 8.11336 3.05402C8.11094 3.17996 8.15937 3.4948 8.09156 3.60621C7.29719 4.17051 6.78859 4.60644 5.99422 5.17316C5.66242 5.41051 5.57039 5.47347 5.23375 5.70355C5.19016 5.73504 5.14898 5.75199 5.11023 5.76168Z" fill="#3F51B5"/>
<path id="Vector_2" d="M10.615 16.8707C14.6572 16.8707 17.934 13.5939 17.934 9.55182C17.934 5.5097 14.6572 2.23291 10.615 2.23291C6.57293 2.23291 3.29614 5.5097 3.29614 9.55182C3.29614 13.5939 6.57293 16.8707 10.615 16.8707Z" fill="#3F51B5"/>
<path id="Vector_3" d="M14.8146 3.55762C15.1972 4.29145 15.8075 4.78551 15.3668 7.14199C15.0253 8.96809 13.4995 10.8765 10.3656 11.08C7.69911 11.2519 5.81489 9.79637 5.27481 8.0284C4.76138 6.34762 5.06411 4.92355 6.12974 3.7659C3.41239 5.57746 3.29614 8.70895 3.29614 9.54934C3.29614 13.5914 6.57294 16.8682 10.615 16.8682C14.6572 16.8682 17.934 13.5914 17.934 9.54934C17.9364 7.07176 16.7012 4.87996 14.8146 3.55762Z" fill="#303F9F"/>
<path id="Vector_4" d="M21.8914 22.492C26.3214 22.492 29.9126 18.9007 29.9126 14.4707C29.9126 10.0407 26.3214 6.44946 21.8914 6.44946C17.4614 6.44946 13.8701 10.0407 13.8701 14.4707C13.8701 18.9007 17.4614 22.492 21.8914 22.492Z" fill="#5064C9"/>
<path id="Vector_5" d="M29.9029 14.7879C28.5249 18.2779 25.3522 21.0654 20.4116 19.5348C16.3743 18.2827 14.2576 13.4801 15.4492 9.71411C14.9376 10.412 14.5426 11.1882 14.2794 12.0125C12.9328 16.2314 15.253 20.7433 19.4646 22.0875C23.6763 23.4316 28.1834 21.1018 29.53 16.8829C29.7503 16.1878 29.8714 15.4854 29.9029 14.7879Z" fill="#4054B0"/>
<path id="Vector_6" d="M24.3058 11.1819C24.3058 11.1819 25.1486 13.1194 26.5146 12.6544C27.3332 12.3758 27.12 11.0099 27.12 11.0099C27.12 11.0099 29.2973 10.9106 29.198 9.95397C29.0963 8.97311 27.7279 8.65342 27.7279 8.65342C27.7279 8.65342 27.6093 7.23662 27.12 6.86123C26.3039 6.23881 25.2891 7.20514 25.2891 7.20514C25.2891 7.20514 24.5068 5.89491 23.325 6.1492C22.378 6.35264 22.8963 8.37733 22.8963 8.37733C22.8963 8.37733 21.5255 8.36037 22.0946 9.48655C22.7171 10.7217 24.3058 11.1819 24.3058 11.1819Z" fill="#8092F2"/>
<path id="Vector_7" d="M26.8754 10.2827C27.2631 9.51196 26.8664 8.5295 25.9894 8.08828C25.1124 7.64706 24.0871 7.91416 23.6993 8.68485C23.3116 9.45555 23.7083 10.438 24.5853 10.8792C25.4624 11.3204 26.4877 11.0534 26.8754 10.2827Z" fill="#2F3E82"/>
<path id="Vector_8" d="M26.4309 10.593C26.8457 9.98217 26.6115 9.09958 25.9077 8.62167C25.204 8.14376 24.2972 8.25149 23.8824 8.8623C23.4676 9.4731 23.7019 10.3557 24.4056 10.8336C25.1094 11.3115 26.0161 11.2038 26.4309 10.593Z" fill="#5064C9"/>
<path id="Vector_9" d="M9.36537 29.6487C13.9372 29.6487 17.6433 25.9425 17.6433 21.3707C17.6433 16.7989 13.9372 13.0928 9.36537 13.0928C4.79358 13.0928 1.0874 16.7989 1.0874 21.3707C1.0874 25.9425 4.79358 29.6487 9.36537 29.6487Z" fill="#6678D9"/>
<path id="Vector_10" d="M17.1905 18.6703C17.2365 18.99 17.3527 27.2147 9.00695 27.452C5.58727 27.5489 3.26953 25.2942 2.19422 22.7076C1.08984 20.0508 2.39766 16.9048 2.39766 16.9048C2.39766 16.9048 1.69773 18.0334 1.54273 18.6703C1.24969 19.518 1.08984 20.4262 1.08984 21.3707C1.08984 25.9432 4.79531 29.6487 9.36781 29.6487C13.9403 29.6487 17.6458 25.9432 17.6458 21.3707C17.6434 20.4238 17.4811 19.5156 17.1905 18.6703Z" fill="#5366CF"/>
<path id="Vector_11" d="M8.57832 19.8012C8.57832 19.8012 7.59747 21.7169 5.81739 21.1986C4.99395 20.9588 5.37903 19.6704 5.37903 19.6704C5.37903 19.6704 4.22864 19.5759 3.81207 18.5854C3.43911 17.699 5.43473 17.3454 5.43473 17.3454C5.43473 17.3454 4.6452 15.8923 5.48075 15.3062C6.31629 14.7201 7.22692 16.0376 7.22692 16.0376C7.22692 16.0376 7.97043 13.8918 8.93676 14.6014C9.86192 15.282 9.627 17.2437 9.627 17.2437C9.627 17.2437 11.2932 17.5246 10.7314 18.6508C10.1114 19.8908 8.57832 19.8012 8.57832 19.8012Z" fill="#9AA7ED"/>
<path id="Vector_12" d="M7.68289 19.9C8.69838 19.6789 9.35618 18.74 9.15212 17.8029C8.94806 16.8658 7.95942 16.2854 6.94393 16.5066C5.92844 16.7277 5.27065 17.6666 5.4747 18.6037C5.67876 19.5408 6.6674 20.1212 7.68289 19.9Z" fill="#2C3F9E"/>
<path id="Vector_13" d="M7.93377 19.825C8.79242 19.638 9.34315 18.819 9.16386 17.9956C8.98456 17.1722 8.14313 16.6563 7.28447 16.8433C6.42582 17.0303 5.87509 17.8494 6.05438 18.6727C6.23368 19.4961 7.07511 20.012 7.93377 19.825Z" fill="#5366CF"/>
</g>
</svg>
