<svg width="65" height="70" viewBox="0 0 65 70" fill="none" xmlns="http://www.w3.org/2000/svg">
<path d="M28.767 1.86986C29.7942 1.29937 30.9499 1 32.125 1C33.3001 1 34.4558 1.29937 35.483 1.86986L61.4724 16.3049C62.0112 16.6046 62.4602 17.0428 62.7727 17.5742C63.0852 18.1057 63.25 18.711 63.25 19.3275V47.8069C63.2497 49.0403 62.9196 50.2512 62.2939 51.3141C61.6682 52.377 60.7697 53.2533 59.6914 53.8521L35.483 67.305C34.4558 67.8755 33.3001 68.1748 32.125 68.1748C30.9499 68.1748 29.7942 67.8755 28.767 67.305L4.55862 53.8521C3.48085 53.2535 2.58264 52.3778 1.95697 51.3156C1.3313 50.2533 1.00091 49.0432 1 47.8104V19.3275C0.999975 18.711 1.16476 18.1057 1.4773 17.5742C1.78984 17.0428 2.23876 16.6046 2.77758 16.3049L28.767 1.86986Z" stroke="#B1F540" stroke-width="2" stroke-linecap="round" stroke-linejoin="round"/>
<path d="M16.5625 8.64844L47.6875 25.9401V38.0443M11.375 35.7203L21.75 41.5026" stroke="#B1F540" stroke-width="2" stroke-linecap="round" stroke-linejoin="round"/>
<path d="M1 17.2939L32.125 34.5856M32.125 34.5856L63.25 17.2939M32.125 34.5856V69.1689" stroke="#B1F540" stroke-width="2" stroke-linejoin="round"/>
</svg>
