<svg width="95" height="97" viewBox="0 0 95 97" fill="none" xmlns="http://www.w3.org/2000/svg">
<path d="M27.5804 66.1001C23.0341 60.7712 20.2952 54.6971 20.2952 47.5795C20.2952 41.878 22.3261 37.0336 26.7792 33.3444C27.2264 32.9718 27.6549 32.5991 28.1021 32.2451C32.9465 28.9286 38.2754 28.5745 43.8092 29.7484C49.2126 30.9036 53.9079 33.4562 57.9698 37.1827C63.2986 42.0457 66.876 47.8963 68.0499 55.0697C68.9815 60.6967 68.0312 65.951 64.5284 70.6091C63.3918 72.1183 61.9198 73.2363 60.392 74.2611C58.6219 75.0809 56.9077 76.0684 54.9513 76.441C54.5973 76.5156 54.4669 76.2361 54.3737 76.0125C53.1999 73.1245 50.7404 71.6339 48.1133 70.4228C43.6601 68.3546 38.8902 67.4975 34.0458 66.9385C32.2385 66.7336 30.3939 66.9199 28.6052 66.5659C28.2139 66.51 27.7854 66.5659 27.5804 66.1001Z" fill="#F38F0C"/>
<path d="M60.4105 74.2796C60.6713 73.7393 61.2489 73.5343 61.6775 73.1617C65.3294 70.1246 67.3789 66.2304 67.9193 61.5351C68.795 53.8026 66.1492 47.1695 61.4352 41.2258C57.4665 36.2137 52.4544 32.6177 46.343 30.6799C40.2316 28.7421 34.2134 28.7794 28.5119 32.1519C28.4001 32.2078 28.251 32.2078 28.1206 32.245C31.0273 29.2266 34.2879 26.5808 37.5858 24.0095C44.927 18.2894 52.5662 13.0537 61.1557 9.34588C70.5278 5.30266 80.2725 2.41465 90.2595 0.309198C91.3774 0.0669777 92.5326 -0.0820813 93.6878 0.0483451C94.8989 0.178771 95.2716 0.830904 94.8058 1.94884C94.3772 2.91773 93.6878 3.71892 93.0171 4.52011C89.7937 8.3211 87.9491 12.8488 86.3839 17.4882C83.9431 24.7176 82.2103 32.1332 80.0676 39.4557C77.869 47.0391 75.4281 54.5666 71.5153 61.4605C69.2794 65.392 66.8572 69.2302 63.4662 72.3046C62.5532 73.143 61.5657 73.8511 60.4105 74.2796Z" fill="#C0694F"/>
<path d="M27.5805 66.1001C28.5121 66.3982 29.481 66.4727 30.4499 66.4914C35.9278 66.5845 41.2566 67.5348 46.3991 69.3794C48.9145 70.2737 51.2249 71.5407 53.1441 73.4785C54.0011 74.3356 54.3179 75.4908 54.97 76.441C54.5228 76.9441 55.0818 77.5217 54.8396 78.0434C54.6719 80.3725 53.0136 81.6767 51.3553 82.8878C48.5605 84.9374 45.2998 85.9808 41.9646 86.8006C36.2818 88.2353 30.5058 88.6825 24.6925 88.4216C18.8046 88.1608 12.9914 87.3223 7.51344 84.9747C5.33346 84.043 3.24664 82.9251 1.60699 81.1364C0.843066 80.2979 0.209566 79.4036 0.190934 78.2111C-0.0885514 75.3231 1.4952 73.4412 3.67518 71.9134C7.17806 69.4726 11.2026 68.336 15.3018 67.4789C19.0841 66.6963 22.9038 66.4355 26.7607 66.3051C27.0588 66.3423 27.3942 66.4914 27.5805 66.1001Z" fill="#FBA33A"/>
<path d="M0.209506 78.2483C1.66283 82.1611 5.07255 83.7449 8.57543 85.1237C12.4137 86.6329 16.4383 87.3968 20.5374 87.8254C23.6304 88.1607 26.7233 88.2912 29.8163 88.1607C36.3003 87.9185 42.6912 86.9869 48.635 84.2107C51.3925 82.9251 53.8334 81.1736 54.8395 78.062C55.0072 80.801 54.9886 83.5399 54.7091 86.2416C54.5228 87.993 53.3489 89.2228 52.026 90.2662C49.2685 92.4462 46.0637 93.6945 42.7099 94.5144C31.5305 97.2533 20.407 97.1788 9.43252 93.4523C6.93578 92.5952 4.58811 91.4214 2.55718 89.67C0.992064 88.3284 0.07908 86.726 0.134977 84.5647C0.172242 82.8878 -0.0327142 81.1922 0.00455051 79.5153C0.0418152 79.1054 0.00455058 78.6582 0.209506 78.2483Z" fill="#C0694F"/>
<path d="M68.3852 14.6003C69.6149 14.7866 70.8446 15.122 71.7949 15.9791C75.0742 19.0162 77.1424 22.7799 78.3907 27.0467C78.428 27.1771 78.4653 27.3076 78.4653 27.438C78.428 27.7547 78.6516 28.1833 78.2417 28.3323C77.869 28.4814 77.6454 28.0901 77.4405 27.8293C76.2294 26.3759 75.0928 24.8853 73.8444 23.4693C72.5402 21.9601 71.1614 20.544 69.8385 19.0534C69.205 18.3454 68.6274 17.6001 68.0684 16.8548C67.7889 16.4822 67.5653 16.0536 67.5094 15.5692C67.4349 14.917 67.584 14.4699 68.3852 14.6003Z" fill="#8A4B38"/>
<path d="M73.9936 45.3807C73.9936 45.5484 73.9936 45.716 73.9936 45.8837C73.975 46.2191 73.975 46.6477 73.6024 46.7222C73.1924 46.8154 73.2111 46.3495 73.1179 46.0887C72.1118 43.4056 70.7516 40.8903 69.6337 38.2631C69.3914 37.6669 68.9443 36.8284 69.5778 36.4185C70.2672 35.9713 70.8448 36.7539 71.3665 37.2197C72.8012 38.524 73.1179 40.3686 73.5651 42.1014C73.8446 43.1634 73.9191 44.2814 74.0682 45.3807C74.0309 45.3807 74.0123 45.3807 73.9936 45.3807Z" fill="#8A4B38"/>
</svg>
