<svg width="73" height="76" viewBox="0 0 73 76" fill="none" xmlns="http://www.w3.org/2000/svg">
<path d="M27.8334 73.9659C25.2272 73.3867 22.7452 72.4353 20.3872 71.2356C20.4286 70.946 20.594 70.6978 20.7181 70.4496C21.0491 69.8705 21.2146 69.2913 20.7181 68.7122C20.594 68.5881 20.6354 68.464 20.8009 68.3398C22.4142 68.0503 24.0689 68.0089 25.6823 67.7607C26.8406 67.5952 27.9989 67.347 29.1986 67.0988C29.4881 67.0574 29.7777 66.9333 30.0673 67.0161C30.4396 67.1402 30.481 67.4711 30.5637 67.7607C31.1015 69.1258 31.7634 70.4496 32.4666 71.7734C33.749 74.2555 38.6718 74.4623 40.1611 71.6079C40.7402 70.4496 41.278 69.2913 41.8158 68.0916C42.5604 66.4783 41.8571 65.1132 41.1125 63.748C40.9057 63.3757 40.4506 63.4584 40.1611 63.2516C39.9956 62.9207 40.3265 62.8793 40.492 62.7966C41.1539 62.507 41.7744 62.0933 42.3536 61.6796C42.6018 61.721 42.6845 61.9278 42.7672 62.1347C43.0982 62.962 43.5532 63.7066 43.9255 64.4926C44.8356 66.4369 46.4904 67.0161 48.4346 66.892C50.1721 66.8092 51.4545 65.9819 52.1578 64.2858C52.5714 63.3343 53.1092 62.4242 53.5229 61.4728C54.2675 59.7767 53.647 58.3288 52.7783 56.9223C52.6128 56.6327 52.2819 56.55 51.9509 56.6741C51.62 56.7982 51.4545 57.0878 51.4959 57.4187C51.4959 57.8324 51.7027 58.2047 51.9095 58.577C52.3646 59.363 52.406 60.149 51.9923 61.0177C51.4959 62.0933 50.9995 63.1275 50.4617 64.1617C50.1307 64.7822 49.5929 65.1545 48.8897 65.2373C48.3519 65.32 47.7728 65.2786 47.235 65.2373C46.6145 65.1545 46.0767 64.8649 45.7871 64.3685C45.0838 63.2516 44.422 62.0519 44.091 60.7695C44.1324 60.604 44.2565 60.5627 44.3806 60.4799C47.3177 58.577 49.8825 56.2604 52.2405 53.737C53.5229 52.3718 54.6812 50.924 55.7568 49.3934C55.9636 49.1451 56.0877 48.7728 56.46 48.6901C56.7082 48.7315 56.8323 48.8969 56.9978 49.021C58.8594 50.593 62.9548 50.4275 64.1544 47.2422C64.4854 46.4149 64.9404 45.6289 65.3541 44.8015C66.2228 43.1054 65.7264 41.5335 64.8163 40.0442C64.5681 39.6719 64.1958 39.5478 63.7821 39.7546C63.3685 39.9615 63.2857 40.3338 63.4512 40.7475C63.4926 40.8302 63.4098 40.7475 63.4926 40.8302C64.6095 42.4435 64.1958 44.0155 63.2444 45.5461C63.0789 45.7943 62.9548 46.0426 62.872 46.3321C61.9619 48.566 60.7623 48.4419 59.0662 48.2764C58.3216 48.1937 57.6597 47.7386 57.4942 46.8699C57.9493 45.8771 58.5698 44.967 59.1076 44.0155C60.1004 42.0712 60.9691 40.0442 61.7551 38.0172C61.9206 37.769 62.1688 37.6862 62.417 37.5621C62.9134 37.2726 63.3685 36.9002 63.658 36.4452C64.444 35.0801 65.1886 33.7149 65.6851 32.267C66.2642 30.6123 65.561 29.1644 64.5681 27.882C64.444 27.7166 64.2786 27.6338 64.1958 27.427C63.989 26.5996 64.2372 25.7309 64.2786 24.9036C64.2786 24.5312 64.3199 24.2003 64.2786 23.828C64.4027 22.9593 64.9404 22.256 65.23 21.47C65.6437 20.4772 66.0574 19.5671 65.8092 18.4502C65.7678 18.2847 65.8092 18.1192 65.9746 17.9951C66.7193 18.9052 67.3398 19.898 67.8776 20.9322C67.7121 21.2632 67.4225 21.5114 67.257 21.8423C66.3469 23.4557 66.2228 25.0277 67.2157 26.6824C67.6293 27.3443 67.8776 28.0889 68.2085 28.7921C68.829 30.1986 69.8632 31.026 71.3938 31.2742C71.5593 31.3156 71.7248 31.3569 71.8489 31.4811C72.3039 32.9289 72.428 34.4182 72.5521 35.9074C72.6762 37.7276 72.8003 39.5892 72.5521 41.4093C71.6834 41.7817 70.6078 41.4921 70.0701 40.582C69.3668 39.3823 68.7463 38.0999 68.2499 36.7761C68.043 36.2797 68.1258 35.7006 68.374 35.2042C68.5808 34.7905 68.7463 34.3768 68.9118 33.9218C69.0772 33.4667 68.9118 33.1358 68.4981 32.9289C68.1258 32.7221 67.7535 32.8462 67.5466 33.2185C66.6779 34.7491 66.0987 36.3211 67.0088 38.0585C67.5466 39.0514 67.9603 40.1683 68.5394 41.1198C69.3254 42.4435 70.4837 43.1468 72.0557 43.0641C72.1798 43.0641 72.3039 43.0641 72.428 43.1054C72.0557 46.1667 71.3938 49.1865 70.1528 52.0409C69.8632 52.1236 69.7805 51.8341 69.6977 51.6686C69.3668 50.8412 68.9118 50.0552 68.4981 49.2279C68.0844 48.4005 68.043 47.5732 68.4981 46.7044C68.7049 46.3735 68.8704 46.0012 68.9531 45.6289C69.0359 45.2152 68.8704 44.9256 68.4981 44.7188C68.0844 44.5119 67.7948 44.7188 67.588 45.0497C66.5538 46.7044 66.1815 48.3592 67.2157 50.2207C67.9189 51.4617 68.374 52.9096 69.2841 54.0679C68.9531 54.8953 68.5808 55.6399 68.0844 56.3845C67.257 57.005 67.0088 57.9979 66.5951 58.8666C63.989 62.7966 60.7623 66.106 56.8323 68.7122C55.9222 67.9262 55.5913 66.6438 56.0463 65.5682C56.2118 65.1959 56.46 64.8236 56.5428 64.4513C56.6669 63.9962 56.6255 63.5825 56.1291 63.4171C55.674 63.2102 55.3845 63.4584 55.0949 63.8721C53.8952 65.7337 53.9366 67.5539 55.1362 69.4154C55.219 69.4981 55.2603 69.6223 55.3017 69.7464C54.8053 70.0359 54.3089 70.3255 53.8538 70.6151C53.5643 70.4082 53.5229 70.0359 53.3574 69.7464C53.2333 69.4982 53.1092 69.2499 52.9437 69.0845C52.6542 68.7949 52.3232 68.5467 51.9095 68.7949C51.5372 69.0431 51.4545 69.4154 51.62 69.8291C51.8268 70.3669 52.0337 70.9047 52.3646 71.4011C49.9239 72.6835 47.3177 73.5522 44.6288 74.1727C44.4633 73.8831 44.3392 73.5522 44.1737 73.2626C43.7601 72.518 43.7601 71.7734 44.091 71.0288C44.2565 70.6564 44.422 70.2841 44.5874 69.9118C44.7943 69.4568 44.6702 69.0845 44.2151 68.8776C43.8014 68.6294 43.4291 68.8363 43.2223 69.2086C42.3536 70.6565 41.7744 72.1871 42.6845 73.8831C42.8086 74.09 42.9327 74.2968 42.8913 74.545C41.9813 74.7932 41.0298 74.876 40.1197 74.9587C39.9129 75.0001 39.6646 74.876 39.5405 75.1242C37.5549 75.1242 35.5279 75.1242 33.5422 75.1242C32.6735 74.8346 31.7634 74.876 30.8947 74.6691C30.4396 74.5864 30.0259 74.5037 29.5709 74.4209C30.4396 73.6349 30.6464 72.6421 30.4396 71.5252C30.3155 70.7392 29.9432 70.0359 29.6122 69.374C29.4054 68.9604 29.0745 68.7122 28.6194 68.919C28.123 69.1258 28.0403 69.5395 28.2057 69.9946C28.3712 70.4496 28.5781 70.8219 28.7435 71.277C28.9504 72.1043 28.6608 73.2213 27.8334 73.9659Z" fill="#A5A046"/>
<path d="M30.1501 67.0988C28.785 67.347 27.4198 67.6366 26.0133 67.8434C24.2345 68.1743 22.4143 68.2984 20.6355 68.4225C20.4287 68.6294 20.1804 68.6294 19.8909 68.6294C19.4358 68.588 18.9394 68.7535 18.5671 68.4225C18.4016 68.1743 18.4844 67.8848 18.5671 67.6366C18.9808 66.1887 18.4016 64.9063 17.6984 63.7066C17.4915 63.3343 17.1192 63.2516 16.7469 63.417C16.3332 63.6239 16.2091 63.9548 16.3332 64.3685C16.4573 64.7822 16.7055 65.1545 16.871 65.5682C17.3261 66.6437 16.9951 67.8848 16.1264 68.6708C12.2792 66.0232 9.01111 62.7551 6.4463 58.8252C5.99126 57.9978 5.74305 57.0464 4.99843 56.4259C4.54338 55.6812 4.1297 54.8952 3.79876 54.1093C4.70885 52.8268 5.24663 51.379 5.94989 49.9725C6.90135 48.235 6.40493 46.6217 5.41211 45.091C5.20527 44.7601 4.87432 44.5946 4.46064 44.8015C4.04696 45.0083 3.92286 45.3393 4.04696 45.7943C4.17107 46.208 4.37791 46.5389 4.58475 46.9112C4.95706 47.6559 4.95706 48.3591 4.58475 49.1037C4.17107 49.8897 3.84013 50.6757 3.46781 51.4617C3.34371 51.7099 3.30234 52.0409 2.88866 52.0409C1.85447 49.7243 1.27532 47.3249 0.861637 44.8428C0.778901 44.2637 0.696165 43.6845 0.613429 43.1054C0.696165 43.064 0.778901 43.0227 0.903004 43.064C2.88866 43.1881 4.1297 42.1539 4.83295 40.4165C5.1639 39.6305 5.53621 38.8859 5.94989 38.0999C6.90135 36.3211 6.36357 34.7077 5.37074 33.1357C5.1639 32.8461 4.87432 32.722 4.54338 32.8875C4.17107 33.053 3.96423 33.3426 4.04696 33.7562C4.1297 34.2113 4.33654 34.5836 4.54338 34.9559C4.91569 35.6592 4.95706 36.3624 4.62612 37.0657C4.1297 38.1412 3.63329 39.1754 3.13687 40.2096C2.59909 41.2852 1.48216 41.7402 0.447958 41.3266C0.365222 38.0585 0.40659 34.7077 1.19258 31.4396C1.31668 31.2742 1.52352 31.2742 1.73036 31.2328C3.0955 30.9846 4.08833 30.24 4.66748 28.9989C5.12253 28.0475 5.57758 27.0546 6.07399 26.1032C6.94272 24.3244 6.3222 22.7524 5.41211 21.2218C5.32937 21.0977 5.20527 21.0149 5.1639 20.8908C5.70168 19.9394 6.23946 18.9879 6.94272 18.1192C7.02545 18.2019 7.06682 18.326 7.06682 18.4501C6.81861 19.6084 7.27366 20.6013 7.72871 21.5941C8.14239 22.4628 8.55607 23.3315 9.01111 24.1589C9.71437 25.3999 10.7899 26.0204 12.1964 26.1446C14.6371 26.3514 16.3332 25.4827 17.2433 23.1247C17.5743 22.256 18.1121 21.4286 18.443 20.5599C19.0635 18.9465 18.443 17.5814 17.5743 16.2576C17.3674 15.9267 17.0365 15.8439 16.6642 16.0508C16.2919 16.2576 16.1678 16.5472 16.2919 16.9609C16.3746 17.2918 16.5401 17.5814 16.7055 17.9123C17.1606 18.7811 17.1606 19.6498 16.7469 20.5185C16.2919 21.5113 15.8368 22.4628 15.299 23.4143C14.7613 24.4485 13.8098 24.6967 12.7342 24.6967C11.6587 24.6967 10.8313 24.3657 10.2935 23.3729C9.7971 22.4214 9.30069 21.47 8.88701 20.4771C8.47333 19.5671 8.47333 18.657 8.96974 17.8296C9.46616 17.0436 9.46616 16.3404 8.76291 15.7198C9.30069 15.0993 9.83847 14.4788 10.3763 13.8583C11.4932 14.4788 12.7342 14.4374 13.9339 14.3133C14.9681 14.1892 15.8368 13.6514 16.3746 12.7827C17.202 11.4176 17.9052 9.9697 18.4844 8.48046C18.6085 8.14951 18.6085 7.7772 18.6912 7.40489C22.6212 5.17102 26.882 3.72315 31.3498 3.06126C31.598 3.01989 31.8876 3.01989 32.1358 3.01989C32.384 2.97853 32.5081 3.144 32.5908 3.30947C33.17 4.38503 33.6664 5.4606 33.956 6.66027C33.9973 6.78437 33.956 6.90848 33.9146 7.03258C33.4595 7.28079 33.0045 7.28079 32.5081 7.32216C31.267 7.48763 30.0674 7.85994 28.8677 8.31499C28.454 8.48046 28.0403 8.72866 27.668 9.01824C26.427 10.0111 26.427 10.9212 27.6267 11.914C27.9162 12.1622 28.2886 12.2863 28.5368 12.6586C28.7022 13.1137 28.454 13.486 28.2886 13.8583C27.8749 14.727 27.3785 15.5957 27.0061 16.4645C26.5097 17.5814 25.641 17.9123 24.5654 17.9537C23.4071 18.0364 22.4143 17.6641 21.8352 16.5886C21.256 15.513 20.801 14.3961 20.2632 13.2791C19.9736 12.6586 20.0977 12.0381 20.3459 11.4589C20.5114 11.0453 20.7596 10.673 20.8837 10.2593C20.9664 9.8456 20.9251 9.47329 20.47 9.30782C20.0563 9.14234 19.7254 9.30781 19.5186 9.63876C18.5671 11.2107 18.112 12.8655 19.1049 14.6029C19.5599 15.3889 19.8495 16.299 20.3045 17.1263C21.256 18.9465 22.7453 19.6084 24.7723 19.5257C26.5511 19.4429 27.7508 18.657 28.4954 17.0436C28.9918 16.0094 29.571 15.0166 29.9846 13.941C30.1501 13.5687 30.3983 13.3205 30.812 13.3619C32.5908 13.6101 34.3696 13.9824 36.1898 13.941C37.8032 13.8997 39.3751 13.7342 40.9471 13.3619C41.1953 13.3205 41.4022 13.2378 41.6504 13.2378C42.0227 13.2791 42.1468 13.5687 42.2709 13.8583C42.6846 14.8511 43.2224 15.7612 43.636 16.754C44.9184 19.7739 47.8142 19.8566 50.0067 19.0706C50.7513 18.8224 51.3305 18.2433 51.7028 17.4987C52.2406 16.4645 52.737 15.3889 53.2748 14.3547C54.1435 12.6586 53.6471 11.0866 52.7783 9.59739C52.5715 9.22508 52.1992 9.10098 51.7855 9.26645C51.3718 9.47329 51.3305 9.80423 51.4132 10.2179C51.5373 10.7143 51.7855 11.128 51.9924 11.5417C52.2819 12.2449 52.2406 12.9068 51.9096 13.5687C51.4132 14.5615 50.8754 15.5544 50.4204 16.5886C49.593 18.4088 46.2009 18.1605 45.4976 16.754C44.9184 15.5957 44.3393 14.3961 43.8015 13.1964C43.6774 12.9482 43.6774 12.6586 43.8015 12.4104C44.0911 12.0381 44.5461 11.7485 44.8357 11.4176C45.4149 10.7557 45.4562 10.1352 44.8771 9.43192C44.3807 8.8114 43.7601 8.43909 43.0569 8.14951C41.5263 7.529 39.9543 7.19805 38.2996 7.07395C37.9273 7.03258 37.555 7.07395 37.3481 6.70164C37.1827 5.41923 37.0172 4.1782 36.5621 2.97853C36.5208 2.85442 36.5208 2.73032 36.6035 2.64758C42.5191 2.64758 48.1038 4.09546 53.3161 6.86711C53.4816 6.94984 53.6471 7.07395 53.8125 7.15668C54.2262 8.9355 55.095 10.5075 55.8809 12.0795C56.6256 13.5273 57.8252 14.2306 59.4386 14.272C60.4728 14.3133 61.4656 14.1892 62.4171 13.7342C62.9549 14.3547 63.4926 14.9752 64.0304 15.5957C63.9477 15.7612 63.7822 15.8439 63.6581 15.9267C63.2031 16.2576 63.1617 16.6713 63.3685 17.1263C63.534 17.4159 63.6995 17.7469 63.8236 18.0364C64.1132 18.6983 64.1545 19.3602 63.8649 20.0221C63.4099 21.0977 62.9135 22.1732 62.3757 23.2074C61.8379 24.2003 60.9692 24.5312 59.8936 24.5726C58.7767 24.5726 57.8666 24.283 57.3288 23.2488C56.8324 22.2973 56.336 21.3045 55.8809 20.3117C55.4673 19.4843 55.5086 18.657 55.9637 17.871C56.1291 17.54 56.336 17.2091 56.3774 16.8781C56.4601 16.4645 56.336 16.1335 55.9637 15.968C55.55 15.7612 55.2191 15.9267 55.0122 16.2576C54.0194 17.7469 53.5643 19.3188 54.4331 21.0563C54.9295 22.0491 55.4259 23.0833 55.9223 24.0762C56.6256 25.3586 57.7011 26.0618 59.149 26.1032C59.5627 26.1032 59.9764 26.1032 60.39 26.1032C61.7138 26.1032 62.7066 25.4827 63.4513 24.4485C63.6581 24.1589 63.7408 23.8279 64.1132 23.7038C64.4027 24.2416 64.32 24.8208 64.2373 25.3172C64.1132 26.0618 64.1545 26.7651 64.1132 27.4683C63.989 27.6338 63.8236 27.7165 63.6581 27.7993C63.2858 28.0475 63.1617 28.3784 63.2858 28.7921C63.3272 28.8748 63.3272 28.9576 63.3685 28.9989C64.3614 30.4882 64.0304 31.8947 63.2444 33.3426C62.9135 33.9217 62.6239 34.5422 62.3343 35.1628C61.5897 36.8588 58.1148 36.8588 57.3288 35.2041C56.8738 34.2113 56.336 33.2598 55.8809 32.267C55.5086 31.3983 55.5086 30.5295 55.9637 29.6608C56.1291 29.3299 56.2946 28.9989 56.3774 28.668C56.4601 28.2957 56.2946 28.0061 55.9223 27.8406C55.5914 27.6752 55.2604 27.7579 55.095 28.0475C54.2262 29.3712 53.6057 30.7364 54.2262 32.3497C54.764 33.6735 55.3845 34.9973 56.1292 36.1969C56.791 37.3139 57.8666 37.9344 59.2317 37.9758C60.0591 37.9758 60.8865 37.8517 61.6724 38.0171C61.3829 39.3409 60.7624 40.5406 60.2246 41.7816C59.4799 43.4363 58.6526 45.0083 57.7011 46.5389C57.6598 46.6217 57.5357 46.7044 57.4529 46.7871C57.1633 46.7044 57.0806 46.4148 56.9565 46.208C56.6256 45.5875 56.3774 44.9669 56.0464 44.3878C55.5086 43.4777 55.55 42.5262 56.005 41.5748C56.1292 41.2852 56.2946 41.037 56.4187 40.7061C56.5428 40.2924 56.4601 39.9201 56.0878 39.7132C55.6741 39.5064 55.3018 39.6305 55.095 40.0028C54.1849 41.5334 53.6471 43.1054 54.5572 44.8015C55.1363 45.9184 55.6327 47.0767 56.2533 48.1936C56.336 48.3591 56.4187 48.4832 56.336 48.6487C55.4673 50.0138 54.4331 51.2962 53.3989 52.5373C52.2406 53.9438 50.9168 55.2262 49.593 56.4672C48.021 57.9151 46.3663 59.2389 44.5875 60.4385C44.422 60.5626 44.2152 60.5626 44.0497 60.6454C43.4706 60.149 43.7188 59.5285 43.8843 58.9907C44.0084 58.577 44.2979 58.2047 44.422 57.791C44.5875 57.3359 44.5875 56.8809 44.0911 56.6741C43.5947 56.4259 43.2637 56.7154 43.0155 57.1291C42.3123 58.3702 41.7331 59.6526 42.3123 61.1418C42.395 61.3073 42.4364 61.5141 42.2709 61.6796C42.1054 62.3001 41.4435 62.3415 41.0299 62.6724C40.7403 62.8792 40.4093 63.0033 40.0784 63.1688C39.9957 63.4584 39.6647 63.5825 39.4579 63.748C37.4309 64.7822 35.3211 65.6509 33.1286 66.3955C32.7977 66.5196 32.4667 66.6437 32.1358 66.4369C31.8876 66.0232 32.1771 65.6923 32.3012 65.32C32.384 65.0717 32.5081 64.8235 32.6322 64.5753C32.839 64.1203 32.8804 63.7066 32.384 63.4584C31.9703 63.2516 31.4739 63.417 31.2257 63.9134C30.812 64.7408 30.3983 65.5682 30.3156 66.5196C30.3156 66.7265 30.3569 66.9333 30.1501 67.0988Z" fill="#B4AF4C"/>
<path d="M64.1958 23.7038C63.0375 26.6823 59.5626 26.8064 57.3701 25.855C56.8323 25.6067 56.3359 25.1931 56.0877 24.6967C55.3017 23.166 54.3089 21.6768 53.8952 19.9393C53.5229 18.4087 54.2675 17.2091 55.0121 16.0094C55.2603 15.6371 55.674 15.5543 56.129 15.8026C56.5427 16.0508 56.7496 16.4231 56.6255 16.9195C56.5014 17.2504 56.3772 17.6227 56.1704 17.9123C55.6326 18.781 55.674 19.6084 56.129 20.4771C56.5841 21.4286 57.0391 22.3387 57.5355 23.2901C57.9906 24.1589 58.7766 24.4484 59.728 24.4484C60.7622 24.4484 61.7137 24.3243 62.2101 23.2901C62.7479 22.2146 63.2857 21.0976 63.7821 19.9807C64.0303 19.4429 63.9889 18.8224 63.7821 18.2846C63.658 17.9537 63.4925 17.6641 63.3271 17.3745C62.872 16.4231 63.0375 16.0094 64.113 15.6371C64.7749 16.3403 65.3955 17.085 65.8505 17.9537C66.3469 20.1462 65.0231 21.8423 64.1958 23.7038Z" fill="#89853A"/>
<path d="M8.80428 15.6371C9.71437 16.1335 9.92121 16.5058 9.38343 17.3745C8.55607 18.6983 8.72154 19.9393 9.46616 21.2218C9.83847 21.8836 10.128 22.5869 10.5004 23.2488C10.9968 24.2416 11.8655 24.4484 12.8997 24.4484C13.8925 24.4484 14.7199 24.2002 15.2163 23.2488C15.6713 22.3387 16.1264 21.4286 16.5814 20.5185C16.9951 19.6498 17.0365 18.781 16.5814 17.9537C16.416 17.6641 16.2919 17.3332 16.1678 17.0436C15.9196 16.4644 16.2091 16.0921 16.6642 15.8439C17.1606 15.5543 17.6156 15.7612 17.8638 16.1749C18.898 17.8296 19.3945 19.567 18.3603 21.47C17.8225 22.4214 17.4088 23.4142 16.9124 24.3243C16.2091 25.6067 15.0922 26.3514 13.603 26.3514C12.4033 26.3927 11.1622 26.5168 10.0867 25.6895C9.5489 25.2758 9.09385 24.8621 8.80428 24.2416C8.26649 23.0833 7.68734 21.925 7.14956 20.7667C6.73588 19.9393 6.73588 19.0706 6.98409 18.2019C7.43914 17.2504 8.05965 16.3817 8.80428 15.6371Z" fill="#89853A"/>
<path d="M33.9145 6.82573C33.5008 5.46059 33.0871 4.05408 32.177 2.89578C32.0529 2.39936 31.6806 2.06842 31.391 1.61337C30.936 0.910117 31.2669 0.330966 32.0943 0.289599C32.4666 0.289599 32.8389 0.330966 33.1698 0.289599C34.7832 -0.0413447 35.6519 0.868749 36.3138 2.15115C36.3965 2.31663 36.5207 2.4821 36.6034 2.64757C37.1412 3.97134 37.4721 5.29511 37.4721 6.70162C37.8031 7.36351 37.679 8.0254 37.6376 8.68728C37.6376 8.72865 37.6376 8.77002 37.5962 8.81139C37.348 9.55601 36.6861 9.63874 36.0656 9.68011C35.4037 9.72148 34.5764 9.92832 34.204 9.14233C33.8317 8.43907 33.7076 7.65308 33.9145 6.82573Z" fill="#313322"/>
<path d="M0.530765 41.3679C2.35095 41.3265 2.76463 41.0369 3.46789 39.2995C3.75746 38.6376 4.0884 37.9757 4.41935 37.3138C4.83303 36.5278 4.91576 35.7419 4.41935 34.9559C4.21251 34.6663 4.12977 34.294 3.9643 33.963C3.67473 33.3425 4.00567 32.9288 4.54345 32.6806C5.1226 32.4324 5.45355 32.722 5.70175 33.177C6.2809 34.294 6.90142 35.4109 6.61185 36.7347C6.57048 36.9415 6.57048 37.107 6.48774 37.3138C5.86722 38.7617 5.24671 40.2096 4.41935 41.5747C3.71609 42.733 1.85454 43.6018 0.654869 43.064C0.654869 42.5676 0.44803 41.9884 0.530765 41.3679Z" fill="#8A863A"/>
<path d="M72.2211 43.1468C71.0628 43.6846 69.284 42.8158 68.7049 41.9885C67.5879 40.2097 66.471 38.4308 66.1814 36.2797C66.0987 35.7419 66.2642 35.2455 66.471 34.7491C66.6365 34.2941 66.8847 33.7976 67.0915 33.3426C67.3811 32.7634 67.8775 32.5152 68.3739 32.7634C68.9944 33.053 69.2426 33.5081 68.8703 34.1286C67.9189 35.6592 68.0844 37.1071 69.0358 38.5549C69.3254 38.9686 69.4909 39.465 69.6563 39.9201C70.1941 41.1198 71.1042 41.5334 72.3452 41.4507C72.3452 41.4921 72.3452 41.5334 72.3452 41.6162C72.2211 41.9057 72.3866 42.2367 72.2211 42.5263C72.2625 42.6504 72.2211 42.8986 72.2211 43.1468Z" fill="#89863A"/>
<path d="M71.6834 31.4396C69.6564 31.4396 68.4567 30.2399 67.7121 28.4611C67.3812 27.6751 66.9675 26.8891 66.5952 26.1031C65.8919 24.5725 66.1815 22.3386 67.2984 21.139C67.4225 21.0149 67.5466 20.9321 67.7535 20.9321C68.1258 21.4285 68.4154 21.9663 68.6222 22.5455C68.7877 22.9178 68.6636 23.2487 68.5395 23.5797C68.2913 24.1588 68.3326 24.7793 68.6222 25.3171C69.0359 26.1031 69.4082 26.8477 69.7391 27.6751C70.0287 28.4197 70.5665 28.9575 71.2284 29.3712C71.4352 30.0744 71.6421 30.7363 71.6834 31.4396Z" fill="#8A863A"/>
<path d="M5.12255 20.8909C5.45349 20.9322 5.61896 21.1804 5.74307 21.4287C6.7359 23.2075 7.02547 24.9863 5.86717 26.8478C5.32939 27.7166 4.99845 28.7508 4.4193 29.6195C3.67467 30.8192 2.55774 31.3983 1.10986 31.3983C1.15123 30.6951 1.3167 30.0332 1.60628 29.3713C2.39227 28.9162 2.80595 28.1716 3.17826 27.3443C3.46783 26.6824 3.84014 26.0205 4.17109 25.3172C4.46066 24.6967 4.58477 24.0348 4.25382 23.3729C4.08835 23.0834 4.08835 22.7524 4.21246 22.4628C4.50203 21.9664 4.79161 21.3873 5.12255 20.8909Z" fill="#8A863A"/>
<path d="M62.4585 13.7755C62.2103 14.3546 61.6312 14.3133 61.1761 14.396C59.4387 14.6442 57.7426 14.6442 56.4188 13.1963C56.212 12.9481 56.0465 12.6999 55.8811 12.4103C55.3019 11.2107 54.7228 10.0524 54.185 8.8527C53.9368 8.31492 53.8127 7.73577 53.854 7.15662C54.7641 7.52893 55.5501 8.06671 56.3361 8.64586C56.8739 9.26638 57.1635 10.011 57.453 10.7556C57.9908 12.038 58.9423 12.4517 60.2661 12.369C60.5143 12.369 60.8038 12.2862 61.052 12.4103C61.5898 12.7827 62.0035 13.2791 62.4585 13.7755Z" fill="#8A863A"/>
<path d="M18.7327 7.28076C19.105 7.69444 18.8154 8.14949 18.6913 8.5218C18.1122 10.011 17.4503 11.4589 16.5815 12.8241C15.8783 13.8996 14.8027 14.4374 13.5203 14.4788C12.6516 14.5201 11.7829 14.5615 10.9141 14.2306C10.6659 14.1478 10.4591 14.1065 10.4177 13.7755C10.8728 13.2791 11.2865 12.7413 11.8656 12.4104C12.1552 12.2449 12.4448 12.369 12.693 12.369C13.7685 12.369 14.6786 12.0794 15.175 10.9625C15.506 10.2179 15.8369 9.43189 16.4161 8.77001C17.1193 8.14949 17.9053 7.73581 18.7327 7.28076Z" fill="#8A863A"/>
<path d="M69.0772 54.1093C68.3326 53.6542 68.0844 52.8682 67.7121 52.165C67.3398 51.4203 67.0088 50.6343 66.6365 49.8484C66.0574 48.6073 66.0574 47.3663 66.6365 46.1666C66.8434 45.7529 67.0088 45.3806 67.2157 45.0083C67.4639 44.5533 67.7948 44.3464 68.2912 44.5533C68.7876 44.7601 69.2013 45.091 68.9531 45.7529C68.7876 46.1666 68.6222 46.5803 68.4153 46.9526C68.043 47.5731 68.0017 48.1936 68.2912 48.8555C68.7876 49.9725 69.3668 51.0067 69.9046 52.1236C69.7805 52.7855 69.4082 53.4474 69.0772 54.1093Z" fill="#8A863A"/>
<path d="M2.97144 52.0408C3.67469 50.9652 4.08837 49.7242 4.66752 48.6073C4.87436 48.1936 4.79162 47.6558 4.58478 47.2007C4.37794 46.7871 4.1711 46.3734 3.96426 45.9597C3.71606 45.3392 3.9229 44.8428 4.50205 44.5946C5.03983 44.3464 5.41214 44.6359 5.70172 45.091C6.81865 46.8698 7.10823 48.69 5.90856 50.5929C5.37077 51.503 5.0812 52.5786 4.46068 53.4473C4.29521 53.6955 4.08837 53.9437 3.79879 54.1092C3.46785 53.4473 3.09554 52.7854 2.97144 52.0408Z" fill="#8A863A"/>
<path d="M55.1362 69.7464C54.3916 69.2914 54.2675 68.464 53.9779 67.7608C53.3987 66.1474 54.1847 64.7823 54.9294 63.4585C55.1362 63.0862 55.5912 63.1276 55.9222 63.2103C56.2945 63.293 56.5013 63.5412 56.5841 63.9135C56.6254 64.2031 56.6254 64.4927 56.46 64.7409C55.4671 66.1474 55.7567 67.4712 56.6254 68.7536C56.1704 69.1673 55.674 69.4568 55.1362 69.7464Z" fill="#8A863A"/>
<path d="M16.1264 68.6708C16.2091 68.5053 16.2918 68.2985 16.3746 68.1744C17.0364 67.1402 17.0364 66.106 16.4159 65.0304C15.8781 64.0789 15.9609 63.5412 16.5814 63.2102C17.2019 62.8793 17.657 63.1688 18.1534 64.1203C18.8566 65.4441 19.1462 66.7679 18.5671 68.2157C18.3602 68.7535 18.4843 69.4981 17.6983 69.6636C17.1605 69.4568 16.6228 69.0845 16.1264 68.6708Z" fill="#8A863A"/>
<path d="M42.726 74.4208C41.8573 73.1798 41.5677 71.8974 42.1883 70.4495C42.3951 69.9531 42.6019 69.4153 42.8915 68.9189C43.1811 68.4639 43.5948 68.2157 44.1326 68.5052C44.6703 68.7948 44.8358 69.2912 44.5876 69.829C44.4221 70.2013 44.2567 70.5736 44.0912 70.9459C43.7189 71.6906 43.8016 72.3938 44.1739 73.0971C44.3394 73.3866 44.629 73.6348 44.4635 74.0072C43.8843 74.2554 43.3466 74.4208 42.726 74.4208Z" fill="#8A863A"/>
<path d="M27.8336 73.9658C28.1646 73.2626 28.7023 72.6007 28.5369 71.732C28.4541 71.1114 28.0405 70.5737 27.8336 69.9945C27.5854 69.3326 27.7509 68.7948 28.33 68.5466C28.9506 68.2571 29.3642 68.6294 29.6124 69.1258C30.3571 70.615 30.9776 72.0629 30.1089 73.7176C29.9434 74.0486 29.7779 74.2968 29.3642 74.2554C28.8264 74.2554 28.33 74.1313 27.8336 73.9658Z" fill="#8A863A"/>
<path d="M71.1871 29.4126C70.4839 29.3712 70.1115 28.9162 69.822 28.337C69.2842 27.2615 68.7878 26.1859 68.2914 25.1103C68.0431 24.6139 68.0845 24.0761 68.2914 23.5383C68.4155 23.2074 68.5809 22.8765 68.5809 22.5042C69.7392 24.6966 70.608 27.0132 71.1871 29.4126Z" fill="#A5A046"/>
<path d="M4.25375 22.5042C4.29511 22.711 4.25375 22.9178 4.33648 23.0833C4.957 24.0761 4.66743 24.9862 4.17101 25.8963C3.71596 26.7237 3.30228 27.5924 2.88861 28.4198C2.6404 28.9575 2.22672 29.2885 1.6062 29.3712C2.26809 27.0133 3.17818 24.738 4.25375 22.5042Z" fill="#B4AF4C"/>
<path d="M61.0105 12.4104C60.2245 12.6586 59.4385 12.6586 58.6525 12.4104C58.1561 12.2449 57.7424 11.8726 57.4942 11.3762C57.0805 10.4661 56.5427 9.63872 56.2532 8.68726C58.032 9.72145 59.5626 11.0039 61.0105 12.4104Z" fill="#B4AF4C"/>
<path d="M16.4161 8.77002C16.0851 9.80422 15.5887 10.797 14.9682 11.7071C14.389 12.5759 13.3962 12.6586 12.4034 12.5759C12.1965 12.5759 12.0311 12.4931 11.8242 12.4518C13.2307 11.0453 14.7613 9.84558 16.4161 8.77002Z" fill="#B4AF4C"/>
<path d="M52.1991 71.3597C51.62 71.0701 51.0408 69.6636 51.2477 69.0844C51.4959 68.4225 52.1991 68.2571 52.7369 68.7535C53.2747 69.2499 53.4815 69.9118 53.647 70.615C53.2333 70.9046 52.7369 71.1528 52.1991 71.3597Z" fill="#8A863A"/>
<path d="M19.9323 68.4226C20.1805 68.4226 20.4287 68.4226 20.6356 68.4226C21.3388 69.0018 21.4216 69.3741 20.9665 70.2014C20.7597 70.5324 20.8011 71.0288 20.346 71.1943C19.7669 70.9461 19.2291 70.6978 18.7327 70.3255C18.8568 69.5395 19.0636 68.7536 19.9323 68.4226Z" fill="#8A863A"/>
<path d="M19.9322 68.4224C19.2704 68.8775 19.1463 69.6635 18.7739 70.3254C18.443 70.1185 18.1121 69.9531 17.7397 69.7462C18.2775 69.4153 18.1534 68.6707 18.6085 68.2983C19.0222 68.5879 19.4772 68.3397 19.9322 68.4224Z" fill="#A5A046"/>
<path d="M66.3885 58.9079C66.3471 58.0391 67.1744 56.674 67.8777 56.4258C67.5054 57.3359 66.9676 58.1219 66.3885 58.9079Z" fill="#8F8B40"/>
<path d="M4.99854 56.4258C5.32948 56.4258 5.57769 56.5913 5.70179 56.8808C5.99137 57.5013 6.44641 58.0805 6.48778 58.8251C5.86726 58.0805 5.37085 57.2945 4.99854 56.4258Z" fill="#908C41"/>
<path d="M72.2627 42.4435C72.2627 42.154 72.1386 41.823 72.3868 41.5334C72.3868 41.823 72.4282 42.154 72.2627 42.4435Z" fill="#A5A046"/>
<path d="M59.9764 59.9421C61.3002 60.1903 62.0448 59.4457 62.5412 58.3701C62.9135 57.5014 63.3686 56.674 63.7409 55.8053C64.1546 54.8538 63.865 53.9437 63.4099 53.075C63.2031 52.7027 62.9135 52.3718 63.2031 51.8753C63.5754 51.2135 64.5269 51.1307 64.9406 51.7926C65.9747 53.5301 66.4298 55.2675 65.2715 57.1291C64.7337 58.0392 64.4028 59.032 63.9064 59.9421C62.8308 61.8864 60.6383 62.1346 59.0249 61.9691C57.3289 61.7623 56.1706 60.8108 55.55 59.2388C55.0123 57.9564 54.1849 56.7981 53.9367 55.433C53.6471 53.9437 54.3504 52.7441 55.0536 51.5444C55.3432 51.1307 55.9224 51.2135 56.336 51.503C56.7497 51.7512 56.8738 52.1649 56.6256 52.6613C56.4188 53.075 56.2533 53.4887 56.0465 53.9437C55.7569 54.647 55.7982 55.3089 56.1292 55.9708C56.5429 56.7981 56.9565 57.6255 57.3289 58.4942C57.8253 59.6111 58.694 60.1075 59.9764 59.9421Z" fill="#89853A"/>
<path d="M56.2947 48.6901C55.3846 47.0767 54.4331 45.4634 53.9367 43.6432C53.523 42.154 54.309 40.9129 55.0123 39.7133C55.2605 39.2996 55.8396 39.2582 56.2533 39.5478C56.667 39.8374 56.8325 40.251 56.6256 40.7475C56.4601 41.0784 56.2947 41.4093 56.1292 41.7403C55.7569 42.5676 55.7155 43.3536 56.1706 44.181C56.6256 45.0497 57.0393 45.9184 57.4943 46.7872C57.8667 47.6145 58.4872 48.0282 59.3973 48.1109C60.6383 48.1937 61.7966 48.0696 62.4171 46.7458C62.7067 46.1667 62.9135 45.5048 63.2445 44.967C64.1546 43.6018 64.1132 42.3194 63.2858 40.9543C62.9549 40.3751 63.1204 39.7546 63.6168 39.5064C64.1546 39.2582 64.651 39.4651 65.0233 40.0028C66.1402 41.823 66.3057 43.6846 65.1474 45.5461C64.4441 46.6631 64.1959 47.9868 63.2031 48.9383C62.0862 49.9725 60.7624 50.1793 59.3559 50.0966C58.1149 50.0552 57.1634 49.5175 56.2947 48.6901Z" fill="#89853A"/>
<path d="M30.15 67.0988C30.0259 65.8164 30.6051 64.7409 31.1429 63.6653C31.4324 63.0862 31.9702 63.0034 32.508 63.2516C33.0458 63.4998 33.1285 63.9963 32.8803 64.534C32.5907 65.1132 32.2598 65.6923 32.1771 66.3542C32.4666 67.5953 33.1699 68.6708 33.6249 69.8291C34.3282 71.4838 35.652 72.063 37.3894 71.4838C37.8031 71.3597 38.0927 71.0702 38.2995 70.6978C38.92 69.6223 39.4164 68.464 39.9129 67.3471C40.2852 66.4783 39.8301 65.651 39.4578 64.8236C39.251 64.4099 39.0028 63.9962 39.4578 63.5826C39.5819 63.3344 39.8301 63.2516 40.037 63.1275C40.7402 63.0448 41.1125 63.3757 41.4435 63.9962C42.3949 65.7337 42.4363 67.4298 41.4021 69.1672C40.8229 70.1187 40.5747 71.1943 39.9129 72.1044C39.1682 73.1386 38.1754 73.635 36.9757 73.8004C35.5692 73.9659 34.1627 73.8004 33.0044 72.8076C32.508 72.3526 32.1357 71.8148 31.8875 71.2356C31.3497 69.8705 30.5223 68.5881 30.15 67.0988Z" fill="#89853A"/>
<path d="M61.7139 38.0171C60.3487 38.2239 58.9836 38.3894 57.6185 37.8102C56.9979 37.5207 56.4188 37.107 56.1292 36.5692C55.2605 34.9972 54.2677 33.4666 53.8954 31.6878C53.5644 30.2399 54.2677 28.9989 55.0537 27.8406C55.3019 27.4269 55.7983 27.3855 56.212 27.7165C56.5843 28.0061 56.8325 28.337 56.5843 28.8334C56.4602 29.123 56.3361 29.4539 56.1706 29.7435C55.6742 30.6122 55.7155 31.5223 56.1706 32.3911C56.5843 33.2598 57.0393 34.1285 57.453 34.9972C57.9908 36.0728 58.9009 36.2796 60.0178 36.2796C61.052 36.2796 61.7966 35.9487 62.2517 34.9972C62.7481 33.963 63.2445 32.9288 63.6995 31.8946C63.9478 31.3982 63.9064 30.9018 63.7409 30.4054C63.6168 29.9917 63.41 29.6194 63.2445 29.2057C62.7895 28.2129 63.079 27.7165 64.1546 27.5096C64.9406 27.7578 65.0647 28.5438 65.3956 29.123C66.0575 30.4054 66.0575 31.7292 65.3956 33.0529C64.982 33.8803 64.5269 34.7077 64.1546 35.535C63.6995 36.6933 62.9136 37.562 61.7139 38.0171Z" fill="#89853A"/>
<path d="M42.2708 61.6797C41.4848 59.9836 42.0226 58.4116 42.8913 56.9224C43.1809 56.4259 43.8014 56.1777 44.2565 56.4673C44.7529 56.7569 44.9184 57.2533 44.6701 57.7911C44.5047 58.1634 44.2978 58.5357 44.1324 58.908C43.8428 59.4872 43.8428 60.0663 44.0496 60.6455C44.546 61.6797 45.0425 62.7139 45.5389 63.7481C45.9526 64.6168 46.6144 65.0718 47.6486 65.0305C47.9796 65.0305 48.2692 65.0305 48.6001 65.0305C49.3861 65.0305 49.9652 64.6995 50.2962 63.9963C50.7926 62.9621 51.289 61.8865 51.8268 60.8523C52.1991 60.1077 52.1164 59.4044 51.7441 58.7012C51.5372 58.2875 51.2476 57.8738 51.2476 57.336C51.2476 56.7983 51.4959 56.5087 51.9923 56.3846C52.4473 56.2605 52.7783 56.4259 53.0265 56.8396C54.1848 58.6598 54.433 60.5214 53.2747 62.4657C52.861 63.1689 52.4887 63.9135 52.1577 64.6995C51.289 66.6852 49.1379 67.223 47.3177 67.0161C45.4148 66.8093 44.2565 65.7751 43.5118 64.079C43.0982 63.293 42.6845 62.507 42.2708 61.6797Z" fill="#89853A"/>
<path d="M33.9146 6.82578C33.9973 7.4463 34.1214 8.06682 34.2041 8.68733C34.2041 8.81144 34.2041 8.93554 34.2869 9.05964C34.7833 9.887 35.6106 9.51469 36.2725 9.47332C36.8517 9.43196 37.4722 9.30785 37.4308 8.48049C37.3895 7.90134 37.4308 7.32219 37.4308 6.74304C38.4237 7.03262 39.4579 6.94988 40.4093 7.19809C41.5263 7.4463 42.6018 7.73587 43.636 8.27365C45.994 9.51469 46.0354 11.0453 43.8429 12.4932C43.3051 13.1137 42.6018 13.3619 41.7745 13.3619C39.5406 13.9411 37.3067 14.1893 34.9901 14.1065C33.5422 14.0652 32.0944 13.7756 30.6879 13.5274C29.8605 13.4446 29.0331 13.4033 28.454 12.7C28.0403 12.3277 27.5439 11.9968 27.1302 11.5831C26.427 10.7971 26.427 10.0111 27.1302 9.26648C28.1644 8.14955 29.5709 7.73587 30.9774 7.36356C31.9703 7.11535 32.9631 6.99125 33.9146 6.82578Z" fill="#42452E"/>
<path d="M12.6928 48.1109C14.4303 48.1109 14.8439 47.8213 15.4645 46.4148C15.754 45.7116 16.1263 45.0083 16.4986 44.305C17.0364 43.3536 16.9537 42.4435 16.4986 41.5334C16.3745 41.2438 16.2091 40.9543 16.1263 40.6647C15.9609 40.1683 16.1263 39.7546 16.5814 39.5064C17.0364 39.2995 17.5328 39.3409 17.8224 39.7959C18.8566 41.4507 19.3944 43.1881 18.3188 45.091C17.9052 45.8357 17.5742 46.663 17.2019 47.449C16.2091 49.5174 14.4716 50.3448 12.1137 50.0552C10.2107 49.8483 9.0938 48.8142 8.39054 47.1181C7.93549 45.9598 7.1495 44.9256 6.85993 43.6432C6.52899 42.1126 7.23224 40.9129 7.97686 39.7132C8.22507 39.2995 8.80422 39.2995 9.2179 39.5891C9.63158 39.8787 9.83842 40.2924 9.54884 40.7888C9.38337 41.1197 9.2179 41.4507 9.05243 41.7816C8.68012 42.609 8.63875 43.395 9.09379 44.2223C9.54884 45.1324 9.92115 46.0839 10.4589 46.9526C10.9554 47.8627 11.7827 48.2764 12.6928 48.1109Z" fill="#89853A"/>
<path d="M36.3554 61.9692C34.1629 61.9692 32.6736 61.1832 31.8463 59.2803C31.3498 58.0806 30.6466 57.005 30.2743 55.764C29.7779 54.192 30.5225 52.8682 31.3085 51.5858C31.5567 51.1308 32.0945 51.2135 32.5081 51.4204C32.8805 51.6272 33.1287 51.9581 32.9632 52.4546C32.7564 52.9923 32.5495 53.5301 32.3013 54.0679C32.0531 54.6057 32.0945 55.1435 32.3427 55.6813C32.7977 56.6327 33.2941 57.5842 33.7078 58.577C34.3283 59.9835 35.4866 60.0249 36.769 59.9835C37.8032 59.9421 38.3824 59.4044 38.7547 58.4943C39.0856 57.7083 39.4993 56.9637 39.8716 56.219C40.3267 55.3503 40.4094 54.4816 39.913 53.5715C39.7475 53.2819 39.6648 52.951 39.4993 52.62C39.2925 52.1236 39.4166 51.7513 39.8303 51.5031C40.2853 51.2549 40.8231 51.2135 41.1127 51.7099C42.0641 53.1992 42.726 54.7712 41.8573 56.55C41.3609 57.5842 40.9058 58.6184 40.368 59.6526C39.4993 61.2659 38.0928 62.0519 36.3554 61.9692Z" fill="#89863A"/>
<path d="M12.8998 59.9422C14.1822 60.1076 14.9682 59.5285 15.4646 58.3702C15.8369 57.4601 16.2919 56.5914 16.7056 55.7226C17.0366 55.0607 17.0366 54.3575 16.6642 53.6956C16.4574 53.3233 16.2919 52.9096 16.1265 52.4959C15.9196 51.9168 16.2092 51.5858 16.6642 51.2963C17.1193 51.0481 17.5743 51.2135 17.8225 51.5858C18.8154 53.2406 19.4359 54.978 18.319 56.8396C17.6571 57.9151 17.3675 59.1562 16.5815 60.1904C15.5059 61.6796 13.934 61.9278 12.2379 61.8451C10.2936 61.721 9.09391 60.604 8.39066 58.8666C7.89424 57.6669 7.14962 56.5914 6.86005 55.2676C6.73594 54.6471 6.81868 54.0679 6.98415 53.4888C7.14962 52.8682 7.48057 52.2891 7.77014 51.7099C8.05972 51.1722 8.63887 51.0067 9.13528 51.2963C9.6317 51.5858 9.83854 52.0409 9.54896 52.5787C9.38349 52.9096 9.30075 53.2406 9.09391 53.5715C8.68023 54.3161 8.7216 55.0607 9.05255 55.8054C9.50759 56.7982 10.004 57.791 10.5004 58.7425C11.0382 59.7767 11.8656 60.0663 12.8998 59.9422Z" fill="#89863A"/>
<path d="M12.8169 38.1412C10.7072 38.3066 9.34203 37.3966 8.51467 35.535C7.93552 34.294 7.14953 33.0943 6.85995 31.7291C6.52901 30.2399 7.23226 28.9989 8.01825 27.7992C8.26646 27.3855 8.76288 27.3442 9.17656 27.6751C9.59024 27.9647 9.83844 28.337 9.59024 28.8748C9.46613 29.1643 9.34203 29.4539 9.17656 29.7435C8.68014 30.6122 8.72151 31.5223 9.17656 32.391C9.6316 33.3011 10.0453 34.1699 10.5003 35.08C10.9967 36.1141 11.9068 36.321 12.941 36.321C13.9339 36.321 14.7612 36.0314 15.2163 35.08C15.6713 34.1699 16.1264 33.3011 16.54 32.391C16.9537 31.5223 17.0365 30.6122 16.54 29.7435C16.3746 29.4539 16.2505 29.123 16.1264 28.792C15.9609 28.2542 16.1677 27.8406 16.6641 27.5924C17.1606 27.3442 17.5742 27.551 17.8224 27.9233C18.8566 29.578 19.3944 31.3155 18.3602 33.2184C17.9465 33.9217 17.5742 34.6663 17.2433 35.4523C16.3332 37.3966 14.9267 38.3894 12.8169 38.1412Z" fill="#89853A"/>
<path d="M30.1502 43.1053C30.1915 41.7402 30.7293 40.706 31.3085 39.7545C31.598 39.2995 32.0945 39.2995 32.5495 39.5477C32.9632 39.7545 33.0873 40.1268 32.9632 40.5819C32.9218 40.7887 32.8391 40.9956 32.715 41.2024C31.8876 42.4021 32.0117 43.519 32.7564 44.7187C33.17 45.3806 33.4182 46.1252 33.7492 46.8284C34.3283 48.1108 35.4453 48.1522 36.6449 48.1108C37.5964 48.0695 38.2169 47.6144 38.6306 46.7871C38.9202 46.1665 39.2097 45.5047 39.5821 44.8841C40.4094 43.5604 40.4094 42.278 39.5821 40.9956C39.3752 40.6646 39.2511 40.375 39.458 39.9614C39.6648 39.589 39.9544 39.4236 40.3267 39.3822C40.699 39.3822 41.0299 39.5477 41.2368 39.8786C42.271 41.6574 42.6433 43.4776 41.485 45.3806C40.7817 46.5389 40.4508 47.904 39.458 48.8968C38.3824 50.0138 37.0172 50.1379 35.5694 50.0551C33.5423 49.931 32.384 48.69 31.6394 46.9525C31.1844 45.9597 30.7293 44.9669 30.3156 43.974C30.1502 43.6845 30.1088 43.3122 30.1502 43.1053Z" fill="#89853A"/>
<path d="M36.2312 38.1826C33.7905 38.1826 32.6736 37.3966 31.7221 35.1627C31.3084 34.2113 30.812 33.3425 30.4397 32.3911C29.7364 30.695 30.5224 29.2471 31.3498 27.882C31.598 27.4683 32.053 27.3856 32.5081 27.6338C32.9218 27.882 33.1286 28.2543 32.9631 28.7507C32.7977 29.2057 32.6322 29.6194 32.384 30.0331C32.0117 30.7363 32.0117 31.3982 32.384 32.1015C32.839 33.053 33.2941 34.0458 33.7905 34.9972C34.2042 35.7832 34.8661 36.2383 35.7761 36.2796C36.8517 36.321 37.9273 36.321 38.5064 35.2041C39.0442 34.2113 39.4993 33.1357 39.9957 32.1429C40.4094 31.3155 40.2852 30.5295 39.9129 29.7849C39.7888 29.5367 39.6647 29.2885 39.5406 29.0816C39.251 28.4611 39.4165 27.9647 39.9543 27.6751C40.4507 27.4269 40.9471 27.5924 41.2781 28.2129C42.1882 29.8263 42.6432 31.4396 41.6918 33.2184C41.1126 34.294 40.6576 35.4109 40.0784 36.4865C39.3752 37.6448 38.1341 38.1826 36.2312 38.1826Z" fill="#89853A"/>
<path d="M24.524 65.0304C25.8064 65.1958 26.5924 64.5753 27.0888 63.4584C27.5025 62.5483 27.9576 61.6382 28.3712 60.7695C28.6608 60.1489 28.6608 59.5698 28.3712 58.9493C28.1644 58.4942 27.9576 58.0806 27.7921 57.6255C27.5853 57.0877 27.8335 56.7154 28.2885 56.4672C28.7849 56.219 29.1986 56.3845 29.4882 56.7981C30.5224 58.4942 31.0602 60.2317 29.9019 62.1346C29.4054 62.962 29.0745 63.8307 28.6608 64.6994C27.7507 66.6023 25.8478 67.2229 23.8208 67.0574C21.8765 66.8919 20.7595 65.8164 20.0149 64.1203C19.6426 63.2102 19.1462 62.3001 18.7325 61.4314C18.2775 60.3972 18.3602 59.363 18.7739 58.3288C18.9394 57.9151 19.1462 57.5428 19.353 57.1291C19.6012 56.6327 19.9322 56.219 20.5941 56.4258C21.2146 56.6327 21.4214 57.1705 21.2146 57.8323C21.0905 58.2047 20.8837 58.5356 20.7182 58.8665C20.3459 59.5284 20.3459 60.1489 20.6768 60.8108C21.1319 61.6796 21.5455 62.5483 21.9179 63.4584C22.3729 64.658 23.2416 65.1958 24.524 65.0304Z" fill="#89853A"/>
<path d="M36.2313 26.31C34.1215 26.4755 32.715 25.5654 31.8876 23.6624C31.3498 22.4214 30.6052 21.3458 30.2329 20.0221C29.8192 18.4501 30.5639 17.209 31.3498 16.0094C31.5981 15.5957 32.0945 15.513 32.5081 15.8025C32.9218 16.0507 33.0873 16.4644 32.9218 16.9195C32.7977 17.2504 32.6736 17.6227 32.4668 17.9123C31.9704 18.7397 32.0117 19.567 32.4254 20.3944C32.9218 21.3458 33.3769 22.2973 33.8733 23.2488C34.3283 24.1175 35.1143 24.3657 36.0658 24.3657C37.0586 24.3657 37.9687 24.2416 38.5065 23.2488C39.0856 22.1318 39.5821 21.0149 40.1198 19.898C40.368 19.3188 40.2853 18.6983 40.0371 18.1191C39.8716 17.7468 39.7062 17.4159 39.5407 17.0849C39.2925 16.5058 39.458 16.0094 39.9957 15.7612C40.5749 15.4716 40.9886 15.7198 41.2781 16.2162C42.271 17.8709 42.726 19.5256 41.6505 21.3458C41.1127 22.2146 40.7817 23.2074 40.3267 24.1175C39.4166 25.7722 38.0514 26.4755 36.2313 26.31Z" fill="#89853A"/>
<path d="M47.9797 31.4397C45.6631 31.6465 44.2152 30.3641 43.4292 28.4198C43.1396 27.6752 42.7673 26.9719 42.395 26.2687C41.4022 24.4071 42.0641 22.7938 43.0155 21.2218C43.2637 20.8081 43.7601 20.6426 44.2152 20.9322C44.6289 21.2218 44.9598 21.5941 44.6702 22.1733C44.6289 22.2974 44.5875 22.3801 44.5048 22.5042C43.7188 23.7866 43.7601 24.9863 44.5461 26.2687C44.9184 26.8478 45.1253 27.5097 45.4148 28.1302C45.8285 29.0817 46.5732 29.5367 47.566 29.5781C48.7243 29.6608 49.7585 29.454 50.3376 28.2957C50.834 27.2615 51.2891 26.2273 51.8269 25.1931C52.2406 24.3658 51.8682 23.6211 51.5787 22.9179C51.4132 22.5456 51.2064 22.256 51.165 21.8423C51.165 21.3873 51.3305 21.0977 51.7028 20.9322C52.1165 20.7667 52.4888 20.8081 52.737 21.1804C53.7712 22.5456 54.3503 24.283 53.6471 25.9377C53.2334 26.8892 52.7783 27.7993 52.3233 28.7094C51.4959 30.5709 50.0894 31.6465 47.9797 31.4397Z" fill="#89853A"/>
<path d="M47.8969 55.1021C45.7871 55.3089 44.3806 54.3161 43.5532 52.4545C43.1395 51.5031 42.6845 50.593 42.2295 49.6829C41.8571 48.8555 41.6503 47.9868 41.9812 47.0767C42.2295 46.4148 42.519 45.7116 42.85 45.0497C43.0982 44.5533 43.5946 44.3051 44.1324 44.5946C44.6702 44.8842 44.9184 45.2979 44.6288 45.9184C44.422 46.3321 44.2565 46.7458 44.0496 47.2008C43.8014 47.7386 43.8014 48.2764 44.0083 48.8142C44.5047 49.8897 45.0011 50.9653 45.5389 52.0409C45.9112 52.8268 46.5731 53.2405 47.4832 53.2405C47.8141 53.2405 48.1037 53.2405 48.4346 53.2405C49.1793 53.2405 49.8411 52.9509 50.1721 52.2477C50.7512 51.0894 51.3304 49.9311 51.8682 48.7728C52.1578 48.1523 51.9923 47.4904 51.6613 46.9112C51.4545 46.4562 51.1236 46.0425 51.1649 45.5047C51.2063 45.0497 51.3718 44.7187 51.8682 44.5946C52.3232 44.4705 52.6542 44.636 52.861 44.9669C53.8952 46.663 54.4743 48.4005 53.3574 50.3034C52.9437 50.9653 52.6542 51.7099 52.3646 52.4132C51.4959 54.3161 50.048 55.3089 47.8969 55.1021Z" fill="#89863A"/>
<path d="M24.4413 55.102C22.3315 55.3502 20.9664 54.3574 20.139 52.4545C19.7254 51.503 19.229 50.5515 18.8153 49.6001C18.0293 47.904 18.6498 46.3734 19.5185 44.9255C19.7667 44.4705 20.2218 44.2636 20.7596 44.5946C21.2973 44.9255 21.4215 45.4633 21.1319 45.9183C20.0563 47.4903 20.4286 48.9796 21.3387 50.4688C21.6283 50.9652 21.8765 51.503 22.1247 52.0408C22.497 52.8268 23.1589 53.1991 23.9863 53.1991C24.524 53.1991 25.1032 53.2818 25.641 53.075C26.1788 52.9095 26.5924 52.5786 26.8406 52.0822C27.3371 51.048 27.8335 49.9724 28.3299 48.9382C28.6608 48.2763 28.5781 47.6144 28.2472 46.9525C28.0403 46.5802 27.8335 46.2079 27.7094 45.8356C27.5025 45.2978 27.7507 44.76 28.3299 44.5532C28.8677 44.3464 29.24 44.6359 29.4882 45.0496C30.6051 46.8284 30.9361 48.6073 29.7364 50.5102C29.4055 51.048 29.1572 51.7099 28.909 52.289C28.0817 54.2747 26.6752 55.3916 24.4413 55.102Z" fill="#89853A"/>
<path d="M47.9383 43.2709C45.8285 43.4363 44.3807 42.4849 43.5533 40.5406C43.0155 39.2582 42.1882 38.0585 41.94 36.652C41.8159 35.9488 42.0227 35.3696 42.1882 34.7491C42.3536 34.2527 42.6018 33.7563 42.85 33.3012C43.0983 32.8048 43.5119 32.5152 44.0911 32.7221C44.7116 32.9703 44.8771 33.4253 44.6289 34.0872C44.4634 34.4595 44.2979 34.8318 44.1325 35.2041C43.8015 35.866 43.8015 36.4865 44.1325 37.1484C44.6289 38.1413 45.0839 39.1341 45.539 40.1269C45.9526 40.9543 46.6145 41.3679 47.5246 41.3679C48.6002 41.4093 49.7171 41.4093 50.2963 40.251C50.8754 39.1341 51.3718 38.0171 51.9096 36.9002C52.3233 36.0315 51.8269 35.2869 51.4959 34.5422C51.0823 33.508 51.1236 33.0116 51.7441 32.7221C52.3233 32.4325 52.8611 32.8462 53.3161 33.7563C54.1849 35.4523 54.2262 37.0657 53.192 38.7204C52.8197 39.2996 52.6129 39.9614 52.3233 40.582C51.4959 42.4849 50.0894 43.4363 47.9383 43.2709Z" fill="#89853A"/>
<path d="M24.4828 31.4396C22.3317 31.6051 20.9252 30.6122 20.0565 28.7093C19.6014 27.7578 19.1464 26.8064 18.7327 25.8549C18.2363 24.6966 18.3604 23.5797 18.8154 22.4628C18.9809 22.0904 19.1877 21.7181 19.3532 21.3458C19.6014 20.808 20.0565 20.6012 20.5942 20.808C21.1734 21.0562 21.2975 21.5527 21.132 22.0904C21.0079 22.5041 20.7597 22.8764 20.5529 23.2901C20.2219 23.9106 20.2219 24.5311 20.5115 25.193C21.0079 26.1859 21.4216 27.1787 21.918 28.1715C22.4558 29.2885 23.4073 29.6194 24.5656 29.5367C25.5998 29.4539 26.3857 29.1644 26.8408 28.1302C27.2131 27.2201 27.7095 26.3927 28.1232 25.524C28.5369 24.738 28.6196 23.952 28.1232 23.166C27.9164 22.8764 27.8336 22.5041 27.6682 22.1732C27.3786 21.5113 27.7095 21.0976 28.2059 20.8494C28.7023 20.6012 29.1574 20.8908 29.447 21.3458C30.4812 23.1246 30.7707 24.9448 29.6538 26.8477C29.2401 27.5924 28.9506 28.3784 28.5369 29.1644C27.7509 30.8191 26.3857 31.6051 24.4828 31.4396Z" fill="#89853A"/>
<path d="M24.4826 43.2708C22.3315 43.4363 20.9663 42.4848 20.139 40.6646C19.6839 39.6718 19.2289 38.7203 18.7738 37.7689C18.0292 36.1555 18.6497 34.3353 19.6012 33.0529C19.8908 32.6392 20.3458 32.4738 20.8422 32.8047C21.2973 33.0943 21.38 33.5493 21.2145 34.0458C21.0491 34.5008 20.8422 34.9558 20.6354 35.3695C20.3044 35.99 20.3872 36.5278 20.6768 37.107C21.1318 38.0998 21.6282 39.0926 22.0833 40.0855C22.6624 41.3679 23.738 41.492 24.9377 41.4506C25.9718 41.4092 26.5924 40.9128 27.0474 40.0027C27.4611 39.134 27.8334 38.2653 28.2885 37.4379C28.7021 36.6106 28.7849 35.8246 28.2885 34.9972C28.0816 34.7076 27.9989 34.3353 27.8334 34.0044C27.5852 33.3425 27.9161 32.9702 28.4539 32.7633C28.9917 32.5565 29.3226 32.8047 29.5709 33.2598C30.1914 34.4181 30.7705 35.535 30.5223 36.9001C30.4809 37.0242 30.4809 37.1897 30.4396 37.3138C29.7363 38.9272 29.1158 40.5819 28.0816 41.9884C27.0888 43.1053 25.8064 43.4363 24.4826 43.2708Z" fill="#89853A"/>
<path d="M39.4992 63.5825C39.3337 63.9962 39.4164 64.3685 39.6233 64.7408C40.3679 65.9819 40.4506 67.1815 39.6233 68.4226C39.1268 69.2086 38.92 70.16 38.3409 70.946C37.9685 71.4838 37.5135 71.732 36.893 71.732C36.562 71.732 36.2725 71.6906 35.9415 71.732C34.8246 71.8561 34.1213 71.3183 33.6663 70.3255C33.2112 69.374 32.7562 68.3812 32.3011 67.4297C32.1357 67.0574 32.1357 66.6851 32.177 66.3128C33.5835 66.1473 34.8246 65.4854 36.107 64.989C37.2653 64.6167 38.3822 64.0789 39.4992 63.5825Z" fill="#A5A046"/>
<path d="M41.8159 13.3204C42.5192 13.0309 43.1811 12.7413 43.8843 12.4517C43.8843 12.6999 43.8429 12.9481 43.967 13.155C44.5048 14.2305 44.9599 15.3475 45.539 16.423C46.0768 17.4159 47.1937 17.8295 48.4348 17.6641C49.4276 17.54 50.0481 17.0435 50.4618 16.1335C50.7928 15.3888 51.1237 14.6028 51.5787 13.8996C52.1993 12.9068 52.1165 11.9139 51.5787 10.9625C51.4133 10.6315 51.2064 10.3419 51.2064 9.92827C51.1651 9.39048 51.4133 9.10091 51.9097 8.93544C52.3647 8.81133 52.737 8.93544 52.9853 9.34912C53.9781 11.0866 54.4745 12.8654 53.3576 14.7683C52.9025 15.5129 52.5302 16.3403 52.1993 17.1263C51.6201 18.4501 50.6273 19.2774 49.1794 19.4843C47.7315 19.6911 46.2836 19.6911 45.0012 18.6983C44.2153 18.0777 43.8016 17.209 43.3879 16.3403C42.8501 15.3475 42.3123 14.3133 41.8159 13.3204Z" fill="#89853A"/>
<path d="M28.5367 12.6172C29.2399 12.9895 30.0259 13.1964 30.7705 13.4446C30.3569 13.4032 30.3155 13.7341 30.1914 13.9823C29.5295 15.4302 28.9504 16.9195 27.9989 18.1605C27.337 19.0706 26.3442 19.5256 25.2272 19.567C22.0419 19.7739 20.925 18.8224 19.6839 16.0921C19.4357 15.5543 19.1875 14.9752 18.898 14.4374C18.1947 13.1136 18.2361 11.7898 18.8566 10.4661C19.0221 10.1765 19.1462 9.84556 19.3116 9.55598C19.6012 8.97683 20.0149 8.76999 20.6354 9.0182C21.2973 9.26641 21.2973 9.80419 21.0905 10.342C20.9664 10.7143 20.7595 11.0866 20.5527 11.4589C20.2217 12.0794 20.2217 12.6999 20.5527 13.3618C21.0491 14.3547 21.5041 15.3475 21.9592 16.3403C22.4556 17.3745 23.3657 17.7468 24.4826 17.7055C25.4755 17.6641 26.3855 17.4159 26.8406 16.3403C27.2956 15.2234 27.8748 14.1892 28.3712 13.1136C28.4953 12.9482 28.4953 12.7827 28.5367 12.6172Z" fill="#89853A"/>
</svg>
