<svg width="18" height="18" viewBox="0 0 18 18" fill="none" xmlns="http://www.w3.org/2000/svg">
<circle cx="9" cy="9" r="8.5" stroke="#0200CD"/>
<path d="M12.2 6H5.8C5.36 6 5.004 6.35 5.004 6.77778L5 11.4444C5 11.8722 5.36 12.2222 5.8 12.2222H12.2C12.64 12.2222 13 11.8722 13 11.4444V6.77778C13 6.35 12.64 6 12.2 6ZM12.04 7.65278L9.212 9.37167C9.084 9.44944 8.916 9.44944 8.788 9.37167L5.96 7.65278C5.91989 7.63089 5.88477 7.60131 5.85676 7.56584C5.82874 7.53037 5.80842 7.48975 5.79703 7.44642C5.78564 7.4031 5.7834 7.35797 5.79046 7.31379C5.79752 7.2696 5.81373 7.22726 5.83811 7.18934C5.86249 7.15142 5.89453 7.1187 5.93229 7.09316C5.97005 7.06763 6.01275 7.04981 6.0578 7.04078C6.10285 7.03176 6.14931 7.03171 6.19438 7.04065C6.23945 7.04958 6.28219 7.06732 6.32 7.09278L9 8.72222L11.68 7.09278C11.7178 7.06732 11.7605 7.04958 11.8056 7.04065C11.8507 7.03171 11.8972 7.03176 11.9422 7.04078C11.9873 7.04981 12.0299 7.06763 12.0677 7.09316C12.1055 7.1187 12.1375 7.15142 12.1619 7.18934C12.1863 7.22726 12.2025 7.2696 12.2095 7.31379C12.2166 7.35797 12.2144 7.4031 12.203 7.44642C12.1916 7.48975 12.1713 7.53037 12.1432 7.56584C12.1152 7.60131 12.0801 7.63089 12.04 7.65278Z" fill="#0200CD"/>
</svg>
