<svg width="24" height="24" viewBox="0 0 24 24" fill="none" xmlns="http://www.w3.org/2000/svg">
<g id="noto-v1:strawberry" clip-path="url(#clip0_868_934)">
<path id="Vector" d="M15.8943 1.5769C15.8943 1.5769 17.4131 2.5519 18.8662 3.6919C20.0718 4.6369 21.2212 5.74315 21.5137 6.08065L21.8156 7.81503L20.2293 9.62253L16.5187 9.08253L13.6312 6.3244L12.7424 4.13628L13.3762 2.51815L15.8943 1.5769Z" fill="#757F3F"/>
<path id="Vector_2" d="M22.0557 9.32441C21.1202 9.82909 20.0737 10.0927 19.0107 10.0913C15.4594 10.0913 12.5813 7.21316 12.5813 3.66191C12.5813 3.05441 12.6713 2.46941 12.8288 1.91254C11.8013 1.71379 10.7551 1.61254 9.72757 1.66129C3.2832 1.96691 0.275696 8.91941 0.245696 14.5519C0.226946 17.7563 0.315071 22.4738 4.17945 23.4375C7.48882 24.2644 11.1338 24.1482 14.3607 23.0288C18.8776 21.4632 22.9951 17.2313 22.6782 12.1688C22.6219 11.2707 22.4044 10.2525 22.0557 9.32441Z" fill="#DB4437"/>
<path id="Vector_3" d="M6.34865 7.17374C5.7899 7.51499 5.1524 7.46061 4.91427 7.06874C4.68177 6.66936 4.94427 6.07124 5.4974 5.72999C6.0524 5.39436 6.69365 5.44124 6.92615 5.83874C7.1624 6.23624 6.89802 6.83811 6.34865 7.17374ZM4.99865 11.8556C4.80927 12.4819 4.29365 12.8644 3.85677 12.7275C3.41615 12.5831 3.21552 11.9606 3.40677 11.3381C3.59802 10.7194 4.11177 10.3294 4.55052 10.4737C4.9874 10.6162 5.19177 11.2387 4.99865 11.8556ZM9.55115 11.6475C9.15177 12.165 8.53677 12.3431 8.17677 12.06C7.81677 11.7675 7.84865 11.115 8.24615 10.6012C8.64365 10.0894 9.26052 9.90561 9.62052 10.1944C9.97865 10.4812 9.94677 11.1375 9.55115 11.6475ZM4.58052 17.3869C4.50552 18.0375 4.06865 18.5062 3.6149 18.45C3.15552 18.3862 2.84802 17.8106 2.92115 17.1656C2.99802 16.5206 3.43115 16.0462 3.89052 16.11C4.34615 16.1681 4.65552 16.7456 4.58052 17.3869ZM17.863 15.6375C17.6361 16.2506 17.8124 16.8675 18.2436 17.0231C18.6786 17.175 19.2186 16.8037 19.4455 16.1944C19.6668 15.5831 19.498 14.9644 19.0611 14.8106C18.6243 14.6587 18.0861 15.03 17.863 15.6375ZM13.7549 18.5794C13.1549 18.84 12.8324 19.3931 13.018 19.8131C13.2111 20.2331 13.8543 20.3625 14.4505 20.1056C15.0449 19.845 15.3749 19.2919 15.1799 18.8719C14.9886 18.45 14.3474 18.3187 13.7549 18.5794ZM12.883 13.8862C12.4143 14.3419 12.3074 14.9737 12.6299 15.2981C12.9599 15.6244 13.6049 15.5194 14.0718 15.0675C14.5349 14.6137 14.6493 13.98 14.3193 13.6556C13.993 13.3294 13.3461 13.4362 12.883 13.8862ZM7.78677 15.2625C7.35552 15.7537 7.2974 16.3912 7.64615 16.6912C7.99865 16.9894 8.63615 16.8356 9.06552 16.3462C9.49302 15.8569 9.55677 15.2175 9.20052 14.9194C8.85177 14.6212 8.21427 14.7769 7.78677 15.2625ZM7.81115 19.9275C7.17365 20.0737 6.75552 20.5594 6.8624 21.0056C6.97677 21.4537 7.5824 21.6975 8.21615 21.5512C8.84802 21.4031 9.27177 20.9194 9.1574 20.4712C9.04865 20.0231 8.43927 19.7794 7.81115 19.9275Z" fill="white"/>
<path id="Vector_4" d="M21.5118 6.08056C21.3974 6.15743 21.283 6.23056 21.178 6.30743C20.713 6.63181 20.3324 7.02181 19.9105 7.39868C19.753 7.53743 19.5655 7.70243 19.3724 7.78118C19.0649 7.90868 18.6899 7.67993 18.6805 7.34806C18.6749 7.07431 18.853 6.81556 19.0012 6.59806C19.1905 6.32243 19.4118 6.09931 19.6349 5.85931C19.9012 5.57618 20.1768 5.34181 20.4637 5.11868C20.4599 5.11493 20.4543 5.11306 20.4505 5.10931C20.6943 4.90493 20.9812 4.71931 21.2643 4.52806C21.5137 4.34993 21.7574 4.16618 21.9749 3.93743C22.0255 3.88493 22.0987 3.80806 22.1793 3.73493C22.3068 3.57181 22.4118 3.39181 22.4755 3.18368C22.738 2.29493 22.2018 1.30681 21.523 0.746181C20.5555 -0.050694 19.2918 0.324306 18.403 1.05556C18.058 1.34056 17.7205 1.65556 17.3924 1.98181C16.8805 2.53306 16.4043 3.11806 15.8887 3.66931C15.673 3.90368 15.388 4.28806 15.0318 4.25056C14.7787 4.22431 14.6062 4.08556 14.5499 3.82493C14.4543 3.39368 14.7918 2.92493 15.0299 2.59681C15.283 2.25181 15.5812 1.94618 15.8549 1.61993C15.868 1.60681 15.8774 1.59181 15.8905 1.58056C14.7824 0.823056 13.5862 0.238056 12.1387 0.076806C11.2124 -0.026319 9.92429 0.022431 9.03929 0.337431C8.51617 0.523056 8.61554 0.772431 8.90992 1.13993C9.22679 1.53368 11.308 3.22681 11.0249 3.79118C10.8224 4.19618 10.3874 4.40431 9.97679 4.60118C9.80054 4.68556 9.62992 4.76806 9.47804 4.86368C8.99617 5.16931 8.35117 5.51993 8.16179 6.10306C7.97804 6.67118 9.35804 6.79118 9.67117 6.82868C10.3837 6.91868 11.1374 6.88681 11.8349 7.08181C12.6862 7.31806 12.6674 7.58243 12.4949 8.39056C12.4012 8.83306 12.2549 9.29806 12.2099 9.74806C12.1705 10.1681 12.1218 10.7193 12.2662 11.1168C12.658 12.1856 15.4387 9.99931 16.0987 10.2674C16.9068 10.5974 17.0362 13.8918 18.1218 13.6312C18.3899 13.5674 18.688 13.1249 18.8212 12.9018C19.1474 12.3524 19.363 11.7618 19.5618 11.1581C19.7362 10.6237 20.0474 10.5112 20.5443 10.7737C21.0974 11.0681 21.5943 11.4412 22.0518 11.8631C22.4643 12.2399 22.7287 12.8174 23.278 13.0256C23.4918 12.8006 23.5874 12.2981 23.6474 11.9981C24.103 9.78181 23.0324 7.67243 21.5118 6.08056Z" fill="#BDCF46"/>
</g>
<defs>
<clipPath id="clip0_868_934">
<rect width="24" height="24" fill="white"/>
</clipPath>
</defs>
</svg>
