<svg width="24" height="26" viewBox="0 0 24 26" fill="none" xmlns="http://www.w3.org/2000/svg">
<g id="Group 316">
<path id="Vector" d="M19.9457 22.051C19.0682 22.9294 18.0635 23.6706 16.9652 24.2495C16.6087 24.4351 16.2423 24.606 15.8706 24.7575C14.3983 25.3503 12.826 25.6554 11.2389 25.6565C9.62178 25.6586 8.02022 25.3411 6.52619 24.7224C5.03216 24.1037 3.6751 23.1958 2.53298 22.051C-2.2768 17.2413 0.40787 12.1285 5.21528 7.31872C7.98138 4.54978 12.4489 1.56213 15.9379 2.25804C17.1522 2.49995 16.6731 -0.257629 18.9781 0.464785C21.3432 1.20613 19.0481 2.63723 19.3521 3.72938C19.5111 4.3003 19.3473 4.08727 19.9462 4.635C20.5966 5.22959 21.0113 5.80762 21.4464 6.44766C24.6902 11.2338 24.1921 17.8093 19.9462 22.0463L19.9457 22.051Z" fill="#D22F27"/>
<path id="Vector_2" d="M6.49628 18.0034C2.75923 19.2457 1.67703 17.8032 1.77976 16.6765C1.46021 10.8678 13.9462 1.20566 16.1854 4.24018C17.902 5.55008 16.087 10.7826 12.2571 14.6124C10.3659 16.1614 8.44528 17.1575 6.4958 18.002L6.49628 18.0034Z" fill="white" stroke="white" stroke-width="2" stroke-miterlimit="10" stroke-linecap="round" stroke-linejoin="round"/>
<path id="Vector_3" d="M10.577 5.72325C11.3127 5.83497 11.6147 5.65129 11.8897 5.44868M8.16264 7.49378C8.89831 7.6055 9.20034 7.42182 9.47539 7.21921M5.82403 9.72351C6.55969 9.83523 6.86173 9.65155 7.13677 9.44894M8.42775 9.4442C9.16341 9.55593 9.46545 9.37225 9.74049 9.16963M4.21445 11.9296C4.95012 12.0413 5.25215 11.8576 5.5272 11.655M6.96966 11.7686C7.70533 11.8803 8.00736 11.6967 8.28241 11.494M2.19775 15.4186C2.93342 15.5303 3.23545 15.3466 3.5105 15.144M4.20972 13.7427C4.94539 13.8544 5.24742 13.6708 5.52247 13.4681M14.1796 5.43921C14.7216 5.94906 15.0748 5.96942 15.4157 5.95901M14.0281 7.32809C14.5702 7.83794 14.9233 7.8583 15.2642 7.84789M11.68 8.0524C12.2221 8.56225 12.5752 8.58261 12.9161 8.57219M12.4753 10.2111C13.0174 10.721 13.3706 10.7413 13.7114 10.7309M10.0421 10.926C10.5841 11.4358 10.9373 11.4562 11.2781 11.4458M10.3734 13.0705C10.9155 13.5803 11.2686 13.6007 11.6095 13.5903M7.82179 13.6196C8.36384 14.1295 8.717 14.1498 9.05785 14.1394M7.43833 15.5369C7.98038 16.0468 8.33354 16.0671 8.67439 16.0567M4.89615 15.9109C5.4382 16.4208 5.79136 16.4411 6.13221 16.4307M3.27711 17.2601C3.81916 17.77 4.17232 17.7903 4.51317 17.7799" stroke="#D22F27" stroke-width="2" stroke-linecap="round" stroke-linejoin="round"/>
</g>
</svg>
