<svg width="34" height="35" viewBox="0 0 34 35" fill="none" xmlns="http://www.w3.org/2000/svg">
<path d="M33.5 17.5C33.5 26.9026 26.0991 34.5 17 34.5C7.90087 34.5 0.5 26.9026 0.5 17.5C0.5 8.0974 7.90087 0.5 17 0.5C26.0991 0.5 33.5 8.0974 33.5 17.5Z" stroke="#0200CD"/>
<path fill-rule="evenodd" clip-rule="evenodd" d="M21.2414 25.9976C19.9432 25.9525 16.264 25.4724 12.4109 21.8349C8.55871 18.1966 8.05115 14.7234 8.00247 13.4968C7.93035 11.6274 9.44671 9.81163 11.1984 9.10253C11.4093 9.01652 11.6403 8.98378 11.8687 9.00751C12.0971 9.03124 12.315 9.11062 12.5011 9.23788C13.9435 10.2305 14.9388 11.7321 15.7934 12.9128C15.9815 13.1722 16.0619 13.4879 16.0193 13.7996C15.9768 14.1114 15.8142 14.3975 15.5627 14.6034L13.8038 15.8369C13.7188 15.8948 13.659 15.9799 13.6354 16.0764C13.6119 16.1728 13.6262 16.274 13.6758 16.3613C14.0742 17.0448 14.7828 18.0629 15.5942 18.8291C16.4065 19.5952 17.5352 20.3086 18.3096 20.7274C18.4067 20.7789 18.521 20.7933 18.629 20.7676C18.737 20.742 18.8304 20.6782 18.8902 20.5895L20.0351 18.944C20.2456 18.68 20.5561 18.5031 20.9016 18.4504C21.2471 18.3977 21.6008 18.4733 21.8886 18.6614C23.1571 19.4905 24.6374 20.4141 25.721 21.7242C25.8667 21.9012 25.9594 22.1119 25.9894 22.3343C26.0194 22.5567 25.9855 22.7826 25.8914 22.9884C25.1368 24.6509 23.2274 26.0665 21.2414 25.9976Z" fill="#0200CD"/>
</svg>
