<svg width="67" height="67" viewBox="0 0 67 67" fill="none" xmlns="http://www.w3.org/2000/svg">
<g clip-path="url(#clip0_2312_469)">
<path d="M66.5661 35.3774C66.4217 36.677 66.2773 37.8322 65.9885 39.1317C64.1114 49.0951 58.9131 56.6037 50.2493 61.9464C44.6178 65.4119 38.5532 66.8559 31.9109 66.5671C22.5252 66.1339 14.7278 62.3796 8.37431 55.3041C3.60922 49.9615 0.865687 43.7524 0.2881 36.8214C-0.433882 26.4248 2.88724 17.3279 10.2515 9.81924C15.1609 4.90975 21.2256 1.87742 28.1566 0.722252C29.3118 0.577856 30.3226 0.433459 31.4778 0.289062C32.7773 0.289062 34.0769 0.289062 35.3765 0.289062C35.5209 0.289062 35.6653 0.433459 35.8097 0.433459C41.0079 0.866649 45.773 2.31061 50.2493 5.05415C58.7687 10.2524 64.1114 17.9054 65.9885 27.8688C66.2773 29.1684 66.2773 30.3235 66.5661 31.6231C66.5661 32.7783 66.5661 34.0779 66.5661 35.3774ZM64.4002 33.5003C64.4002 16.4615 50.5381 2.59941 33.4993 2.59941C16.4605 2.59941 2.59845 16.4615 2.45405 33.5003C2.45405 50.5391 16.3161 64.5455 33.3549 64.5455C50.5381 64.4011 64.4002 50.5391 64.4002 33.5003Z" fill="#B1F540" stroke="#B1F540" stroke-width="0.721983" stroke-miterlimit="10"/>
<path d="M34.5102 51.1165C34.5102 51.9829 34.5102 52.7049 34.5102 53.5713C34.5102 54.1489 34.077 54.4377 33.4994 54.4377C32.9218 54.4377 32.633 54.1489 32.4886 53.7157C32.3442 53.4269 32.3442 53.1381 32.3442 52.8493C32.3442 52.2717 32.3442 51.6941 32.3442 51.2609C31.0447 50.9721 29.8895 50.8277 28.7343 50.3946C25.8464 49.3838 23.3916 47.7954 22.0921 44.7631C21.6589 43.8967 21.5145 42.8859 21.3701 41.8752C21.2257 41.1532 21.8033 40.72 22.3809 40.72C22.9585 40.72 23.536 41.0088 23.536 41.7308C23.6804 44.6187 25.4132 46.3514 27.7235 47.651C29.1675 48.373 30.7559 48.8062 32.3442 48.9506C32.3442 44.1855 32.3442 39.4204 32.3442 34.6553C31.3335 34.5109 30.4671 34.3665 29.4563 34.0777C26.5684 33.3558 24.258 31.9118 22.6697 29.4571C20.6481 26.2803 21.0813 22.526 23.6804 19.7825C25.9908 17.4721 28.7343 16.317 31.911 15.8838C32.0554 15.8838 32.1998 15.8838 32.3442 15.8838C32.3442 15.4506 32.3442 14.873 32.3442 14.4398C32.3442 14.151 32.3442 13.8622 32.3442 13.429C32.4886 12.8514 32.9218 12.4183 33.355 12.5627C33.9326 12.5627 34.3658 12.8514 34.3658 13.429C34.3658 14.0066 34.3658 14.5842 34.3658 15.1618C34.3658 15.4506 34.3658 15.595 34.3658 15.7394C35.9541 16.1726 37.5425 16.4614 38.9865 17.0389C41.5856 18.0497 43.6072 19.6381 44.7623 22.2372C45.1955 23.1036 45.3399 24.1144 45.4843 25.1252C45.6287 25.8471 45.0511 26.2803 44.4735 26.2803C43.896 26.2803 43.3184 25.9915 43.3184 25.2696C43.174 22.3816 41.4412 20.6489 39.1309 19.3493C37.6869 18.6273 36.2429 18.1941 34.5102 18.0497C34.5102 18.3385 34.5102 18.4829 34.5102 18.6273C34.5102 22.9592 34.5102 27.2911 34.5102 31.7674C34.5102 32.345 34.6546 32.4894 35.2322 32.4894C38.1201 32.7782 40.8636 33.7889 43.0296 35.9549C46.6395 39.5648 46.3507 44.6187 42.5964 47.9398C40.4304 49.817 38.2645 50.6833 34.5102 51.1165ZM32.3442 18.0497C29.8895 18.3385 27.7235 19.0605 25.8464 20.5045C22.9585 22.8148 22.6697 26.4247 25.1244 29.0239C27.0016 31.0454 29.4563 31.9118 32.1998 32.2006C32.3442 27.5799 32.3442 22.8148 32.3442 18.0497ZM34.6546 48.9506C37.1093 48.6618 39.2753 47.9398 41.1524 46.4958C43.896 44.1855 44.3291 40.72 41.8744 38.1208C41.2968 37.3989 40.4304 36.8213 39.5641 36.3881C38.1201 35.5217 36.3873 35.0885 34.5102 34.9441C34.6546 39.4204 34.6546 44.1855 34.6546 48.9506Z" fill="#B1F540" stroke="#B1F540" stroke-width="0.721983" stroke-miterlimit="10"/>
</g>
<defs>
<clipPath id="clip0_2312_469">
<rect width="67" height="67" fill="white"/>
</clipPath>
</defs>
</svg>
