<svg width="74" height="70" viewBox="0 0 74 70" fill="none" xmlns="http://www.w3.org/2000/svg">
<g id="Group 340">
<path id="Vector 110" d="M18.48 49.52V68" stroke="#B1F540" stroke-width="2.0625" stroke-linecap="round"/>
<path id="Vector 111" d="M10.5596 58.3198C10.9116 58.3198 21.2662 58.3198 26.3996 58.3198" stroke="#B1F540" stroke-width="2.0625" stroke-linecap="round"/>
<path id="Ellipse 122" d="M36.8088 31.2353C36.8088 41.3052 28.7837 49.4393 18.92 49.4393C9.05632 49.4393 1.03125 41.3052 1.03125 31.2353C1.03125 21.1653 9.05632 13.0312 18.92 13.0312C28.7837 13.0312 36.8088 21.1653 36.8088 31.2353Z" stroke="#B1F540" stroke-width="2.0625"/>
<path id="Ellipse 123" d="M63.2082 31.2353C63.2082 41.3052 55.1831 49.4393 45.3194 49.4393C35.4557 49.4393 27.4307 41.3052 27.4307 31.2353C27.4307 21.1653 35.4557 13.0312 45.3194 13.0312C55.1831 13.0312 63.2082 21.1653 63.2082 31.2353Z" stroke="#B1F540" stroke-width="2.0625"/>
<path id="Vector 109" d="M57.1997 17.4L72.5997 2" stroke="#B1F540" stroke-width="2.0625"/>
<path id="Vector 112" d="M62.0396 2H72.5996V11.68" stroke="#B1F540" stroke-width="2.0625" stroke-linecap="round" stroke-linejoin="round"/>
</g>
</svg>
