<svg width="34" height="35" viewBox="0 0 34 35" fill="none" xmlns="http://www.w3.org/2000/svg">
<path d="M33.5 17.5C33.5 26.9026 26.0991 34.5 17 34.5C7.90087 34.5 0.5 26.9026 0.5 17.5C0.5 8.0974 7.90087 0.5 17 0.5C26.0991 0.5 33.5 8.0974 33.5 17.5Z" stroke="#0200CD"/>
<path d="M24.2 11H9.8C8.81 11 8.009 11.7312 8.009 12.625L8 22.375C8 23.2687 8.81 24 9.8 24H24.2C25.19 24 26 23.2687 26 22.375V12.625C26 11.7312 25.19 11 24.2 11ZM23.84 14.4531L17.477 18.0444C17.189 18.2069 16.811 18.2069 16.523 18.0444L10.16 14.4531C10.0698 14.4074 9.99073 14.3456 9.9277 14.2715C9.86467 14.1974 9.81896 14.1125 9.79332 14.022C9.76768 13.9315 9.76265 13.8372 9.77854 13.7449C9.79443 13.6526 9.8309 13.5641 9.88575 13.4849C9.9406 13.4056 10.0127 13.3373 10.0977 13.2839C10.1826 13.2306 10.2787 13.1934 10.38 13.1745C10.4814 13.1556 10.586 13.1555 10.6874 13.1742C10.7888 13.1929 10.8849 13.2299 10.97 13.2831L17 16.6875L23.03 13.2831C23.1151 13.2299 23.2112 13.1929 23.3126 13.1742C23.414 13.1555 23.5186 13.1556 23.62 13.1745C23.7213 13.1934 23.8174 13.2306 23.9023 13.2839C23.9873 13.3373 24.0594 13.4056 24.1142 13.4849C24.1691 13.5641 24.2056 13.6526 24.2215 13.7449C24.2373 13.8372 24.2323 13.9315 24.2067 14.022C24.181 14.1125 24.1353 14.1974 24.0723 14.2715C24.0093 14.3456 23.9302 14.4074 23.84 14.4531Z" fill="#0200CD"/>
</svg>
