<svg width="82" height="82" viewBox="0 0 82 82" fill="none" xmlns="http://www.w3.org/2000/svg">
<circle cx="41" cy="41" r="40.25" stroke="#FF9700" stroke-width="1.5"/>
<path d="M38.5488 19.5498C39.1981 19.1892 39.9285 19 40.6711 19C41.4138 19 42.1442 19.1892 42.7934 19.5498L59.2188 28.6728C59.5593 28.8622 59.8431 29.1391 60.0406 29.475C60.2381 29.8109 60.3423 30.1934 60.3422 30.5831V48.5821C60.3421 49.3617 60.1334 50.1269 59.738 50.7987C59.3425 51.4705 58.7747 52.0243 58.0932 52.4027L42.7934 60.905C42.1442 61.2656 41.4138 61.4548 40.6711 61.4548C39.9285 61.4548 39.1981 61.2656 38.5488 60.905L23.2491 52.4027C22.5679 52.0244 22.0002 51.471 21.6048 50.7996C21.2094 50.1283 21.0006 49.3635 21 48.5843V30.5831C21 30.1934 21.1041 29.8109 21.3017 29.475C21.4992 29.1391 21.7829 28.8622 22.1234 28.6728L38.5488 19.5498Z" stroke="#FF9700" stroke-width="1.26401" stroke-linecap="round" stroke-linejoin="round"/>
<path d="M30.8356 23.8337L50.5068 34.7621V42.412M27.5571 40.9432L34.1142 44.5977" stroke="#FF9700" stroke-width="1.26401" stroke-linecap="round" stroke-linejoin="round"/>
<path d="M21 29.2979L40.6711 40.2263M40.6711 40.2263L60.3422 29.2979M40.6711 40.2263V62.0831" stroke="#FF9700" stroke-width="1.26401" stroke-linejoin="round"/>
</svg>
