<svg width="34" height="35" viewBox="0 0 34 35" fill="none" xmlns="http://www.w3.org/2000/svg">
<path d="M33.5 17.5C33.5 26.9026 26.0991 34.5 17 34.5C7.90087 34.5 0.5 26.9026 0.5 17.5C0.5 8.0974 7.90087 0.5 17 0.5C26.0991 0.5 33.5 8.0974 33.5 17.5Z" stroke="#0200CD"/>
<g clip-path="url(#clip0_1722_359)">
<path d="M17.3023 26.575C19.0391 24.4434 23 19.277 23 16.375C23 12.8555 20.0885 10 16.5 10C12.9115 10 10 12.8555 10 16.375C10 19.277 13.9609 24.4434 15.6977 26.575C16.1141 27.083 16.8859 27.083 17.3023 26.575ZM16.5 14.25C17.0746 14.25 17.6257 14.4739 18.0321 14.8724C18.4384 15.2709 18.6667 15.8114 18.6667 16.375C18.6667 16.9386 18.4384 17.4791 18.0321 17.8776C17.6257 18.2761 17.0746 18.5 16.5 18.5C15.9254 18.5 15.3743 18.2761 14.9679 17.8776C14.5616 17.4791 14.3333 16.9386 14.3333 16.375C14.3333 15.8114 14.5616 15.2709 14.9679 14.8724C15.3743 14.4739 15.9254 14.25 16.5 14.25Z" fill="#0200CD"/>
</g>
<defs>
<clipPath id="clip0_1722_359">
<rect width="13" height="17" fill="white" transform="translate(10 10)"/>
</clipPath>
</defs>
</svg>
