<svg width="87" height="84" viewBox="0 0 87 84" fill="none" xmlns="http://www.w3.org/2000/svg">
<path d="M41.5114 65.64C42.2722 67.7324 43.0965 69.7613 43.4135 71.9805C43.7306 74.2631 43.9208 76.6091 42.9697 78.8282C42.7161 79.5257 42.3357 80.0963 41.8284 80.667C39.2288 80.9206 36.8828 80.35 35.1075 78.321C34.0296 77.1163 33.9662 76.6091 34.727 75.2141C35.9317 72.9316 37.4535 70.8392 39.6092 69.3175C40.0531 69.0005 40.7505 68.62 40.2433 67.986C39.736 67.3519 39.2288 67.8592 38.7216 68.1762C36.5024 69.7613 34.8539 71.7903 33.6492 74.1997C32.8249 75.8482 32.6981 75.9116 30.8593 75.658C27.8159 75.2141 25.7869 73.2486 24.075 70.9026C23.758 70.4588 23.8848 69.9515 24.075 69.5077C24.9627 67.2885 26.104 65.1962 27.8159 63.4842C28.0695 63.2306 28.3231 63.0404 28.5134 62.7868C28.767 62.4697 28.8304 62.1527 28.5768 61.7723C28.2597 61.4553 27.9427 61.5187 27.6257 61.7089C27.3721 61.8357 27.1819 62.0259 26.9916 62.2161C25.5967 63.611 24.4554 65.1962 23.5678 66.9715C23.5044 67.1617 23.3776 67.3519 23.2507 67.5421C22.8069 68.2396 22.6167 68.2396 22.2363 67.4787C21.9192 66.9081 21.6656 66.3374 21.4754 65.7668C19.8903 61.7723 17.4175 58.3484 14.1838 55.5586C13.6132 55.0514 13.5498 54.6075 13.9302 53.9735C15.8958 51.0568 16.9102 47.8232 17.6077 44.3993C17.7345 43.8287 17.9247 43.1312 17.1639 42.941C16.3396 42.7508 16.3396 43.5116 16.2128 44.0823C15.5787 47.0623 14.6911 49.9156 13.1693 52.5786C12.4085 53.8467 12.2183 53.9735 10.9502 53.1492C9.23824 52.0713 7.39949 51.3105 5.68756 50.296C3.46838 48.9011 1.75645 47.0623 1.1858 44.4627C0.995585 43.7019 0.93218 42.941 1.31261 42.1801C1.62964 40.912 2.4539 40.0244 3.27817 39.0733C5.87777 36.0933 10.3161 35.269 13.8668 36.9809C15.0715 37.5516 16.2762 38.249 17.6077 38.5661C17.9881 38.6929 18.3686 38.8831 18.749 38.6929C20.3341 38.9465 21.9192 39.3903 23.6946 39.5171C22.5533 38.7563 22.1729 37.8052 22.4899 36.6005C22.5533 36.4737 22.4265 36.3469 22.3631 36.1567C22.6167 35.903 22.9337 35.9665 23.2507 36.0299C25.0895 36.0933 26.9282 35.9664 28.767 36.1567C30.0985 36.3469 31.2398 36.8541 32.064 37.8052C33.2687 39.2001 34.727 39.8976 36.5658 39.8342C36.8828 40.1512 36.8828 40.5316 36.9462 40.912C37.2632 42.941 37.8973 44.8432 38.9752 46.6185C40.6871 49.4083 40.7505 52.4517 40.0531 55.5586C39.8629 56.3829 39.6092 56.5097 38.6582 56.3195C36.3122 55.7488 33.9662 55.7488 31.6202 56.4463C31.3666 56.5097 30.9862 56.6999 30.7959 56.3829C30.6057 56.1292 30.7959 55.8122 30.9227 55.5586C32.0006 53.0858 32.3811 50.4862 32.3811 47.8232C32.3811 47.1257 32.2543 46.4283 32.1908 45.7308C32.1274 45.287 31.9372 44.8432 31.43 44.9066C30.8593 44.97 30.8593 45.4138 30.8593 45.8576C30.9227 47.7598 31.0496 49.6619 30.6691 51.5641C30.4155 53.0858 29.9083 54.5441 29.084 55.8756C28.3865 57.0803 27.3721 57.5876 25.9772 57.4607C25.7869 57.4607 25.5967 57.3973 25.4065 57.3973C25.1529 57.3973 24.8359 57.2705 24.7725 57.5876C24.7091 57.9046 25.0261 57.968 25.2163 58.0314C26.9282 58.7288 28.7036 58.9191 30.5423 59.1093C31.8738 59.2995 33.2053 59.4897 34.5368 59.8067C37.4535 60.5042 39.6726 62.2161 41.3212 64.6889C41.448 65.0693 41.5748 65.323 41.5114 65.64Z" fill="#E7C081"/>
<path d="M41.5112 65.64C39.6091 62.3429 36.7558 60.4408 32.9515 59.8067C30.3519 59.4263 27.6889 59.3629 25.1527 58.4118C25.0259 58.3484 24.8991 58.285 24.7089 58.285C24.3285 58.2216 24.0748 57.968 24.1383 57.5875C24.2651 57.2071 24.6455 57.0803 25.0259 57.1437C27.6255 57.6509 28.1962 57.1437 29.4643 54.2271C30.6056 51.5641 30.5422 48.7742 30.3519 45.9844C30.2885 45.2236 30.5422 44.6529 31.1762 44.6529C31.9371 44.6529 32.1907 45.0967 32.2541 45.7942C32.6979 49.4717 32.2541 53.0224 30.6056 56.5096C31.7468 56.1926 32.7613 55.939 33.7758 55.8122C35.4877 55.5586 37.0729 55.8122 38.658 56.1926C39.4189 56.3828 39.5457 56.1292 39.6725 55.4952C40.3699 52.1981 40.0529 49.1547 38.2142 46.238C37.0729 44.3993 36.5656 42.1801 36.3754 39.9609C36.8827 39.8341 37.4533 39.7073 37.9605 39.5171C38.4678 39.3269 38.5312 39.7707 38.5312 40.0877C38.7848 42.4337 39.6091 44.5261 40.7504 46.5551C42.2087 49.1547 42.4623 52.0079 41.8282 54.7977C41.4478 56.4462 41.7014 57.4607 43.2866 58.285C44.3644 58.8556 45.1253 59.9335 45.8862 60.8846C47.8517 63.6744 50.5147 65.5766 53.685 66.9081C54.3824 67.1617 54.6995 67.0983 55.0165 66.4008C55.9676 64.1817 56.1578 61.8991 56.031 59.5531C55.9042 57.7777 55.5871 56.0024 55.1433 54.2905C54.9531 53.6564 54.6995 53.4028 54.002 53.3394C52.4803 53.2126 50.9586 52.959 49.4368 52.5151C49.1198 52.4517 48.8028 52.3883 48.4858 52.1347C48.2322 51.9445 47.9785 51.7543 48.0419 51.3738C48.1053 50.9934 48.359 50.93 48.676 50.8666C49.8807 50.613 51.1488 50.7398 52.3535 50.4862C53.1143 50.3594 53.8118 50.1691 54.5093 49.9155C56.4748 49.1547 57.8697 47.8232 58.4404 45.7308C58.5672 45.1601 58.6306 45.1602 59.0744 45.287C59.7719 47.95 59.6451 50.613 58.8842 53.276C58.694 53.7198 58.3135 53.6564 57.9331 53.593C57.4893 53.5296 57.4259 53.7832 57.4259 54.1637C57.4893 54.6075 57.6161 55.0513 57.6795 55.4952C58.377 58.7922 58.6306 62.0893 57.7429 65.4498C57.6161 66.0204 57.3625 66.5276 57.1723 67.0983C56.8552 67.9226 56.9186 68.0494 57.8063 68.2396C59.8353 68.6834 61.8642 68.6834 63.9566 68.6834C66.8098 68.6834 69.5996 68.0494 72.3261 67.3519C73.4039 67.0983 73.4673 66.9715 73.4673 65.8302C73.4673 65.3864 73.4039 64.9425 73.3405 64.4987C73.3405 63.8012 73.7844 63.2306 74.4184 63.1672C74.9891 63.1038 75.5597 63.5476 75.6865 64.1817C75.8133 64.6255 75.8133 65.0693 75.8767 65.5132C75.9401 65.957 76.1304 66.1472 76.6376 65.957C79.364 64.8157 81.9636 63.5476 83.8024 61.0748C84.69 59.8701 85.1973 58.4752 85.4509 57.0169C85.5143 56.6365 85.4509 56.0658 85.9581 55.8756C86.9092 58.602 87.4164 61.4552 86.4654 64.3085C85.5777 67.0349 83.6121 68.937 81.2028 70.3953C78.2227 72.1073 74.9891 72.9949 71.6286 73.4388C69.7264 73.6924 67.8877 74.0728 65.9856 74.263C56.7284 74.9605 48.5492 72.6145 41.7014 66.0838C41.8282 65.8936 41.638 65.7668 41.5112 65.64Z" fill="#B67D4E"/>
<path d="M1.24912 42.2435C0.932096 46.6185 3.5317 49.0913 7.01898 50.93C8.5407 51.7543 10.0624 52.5151 11.5207 53.4028C12.0914 53.7198 12.2816 53.593 12.5986 53.1492C14.374 50.4228 15.2616 47.4427 15.9591 44.3359C16.0225 44.0189 16.0859 43.7018 16.1493 43.3848C16.2761 42.941 16.6565 42.624 17.1004 42.7508C17.5442 42.8142 17.9246 43.1312 17.9246 43.7018C17.988 44.5895 17.671 45.3504 17.4808 46.1746C16.7833 49.0913 15.7689 51.8811 14.0569 54.3539C13.8033 54.7343 13.6765 55.0513 14.1203 55.4318C17.7344 58.4118 20.2706 62.0893 21.9192 66.4642C22.046 66.7179 22.1094 66.9715 22.2362 67.2251C22.363 67.5421 22.5532 67.7957 22.7434 68.2396C23.5043 66.7179 24.2017 65.323 25.1528 64.0549C25.7869 63.294 26.4209 62.4697 27.1184 61.8357C27.6256 61.3918 28.1328 61.0748 28.7035 61.6455C29.2107 62.2161 28.9571 62.7233 28.4499 63.2306C26.4209 65.0693 25.1528 67.3519 24.1383 69.8247C24.0115 70.1417 23.8213 70.3954 24.0749 70.7758C25.5966 72.9316 27.372 74.7703 30.0984 75.4043C30.2252 75.4043 30.352 75.4678 30.4788 75.4678C32.5712 75.7214 32.5712 75.7214 33.5223 73.8826C34.7904 71.4732 36.5023 69.4443 38.7849 67.8592C39.1019 67.6689 39.3555 67.4787 39.7994 67.4787C40.2432 67.4787 40.4334 67.7957 40.6236 68.1128C40.8138 68.62 40.5602 68.937 40.1798 69.1907C39.4189 69.8247 38.5947 70.3954 37.8972 71.0928C36.5023 72.5511 35.4878 74.1997 34.5368 76.0384C34.2831 76.5456 34.3465 76.9895 34.6636 77.4967C35.9951 79.5257 37.9606 80.4133 40.3066 80.5402C40.8138 80.5402 41.3211 80.3499 41.7649 80.7304C39.4823 83.33 35.9951 83.9006 32.6346 82.1887C32.064 81.8717 31.5567 81.7448 30.8593 81.8083C29.0839 81.9985 27.3086 81.8082 25.5966 81.1108C23.2507 80.2231 21.7289 78.5746 21.0949 76.1652C19.7634 71.2196 17.9246 66.4642 15.7055 61.8357C15.5152 61.4552 15.325 61.0748 15.0714 60.5042C14.4374 63.1038 13.4863 65.323 12.028 67.3519C11.0769 68.6834 9.8088 69.5077 8.09686 69.5077C5.37045 69.5077 3.34149 67.4787 3.34149 64.7523C3.34149 62.8502 3.5317 60.948 3.40489 59.0459C3.21468 55.622 2.58063 52.3883 0.868691 49.3449C-0.209194 47.3159 -0.272599 45.2236 0.615071 43.0678C0.805286 42.7508 0.868691 42.3703 1.24912 42.2435Z" fill="#B67D4E"/>
<path d="M86.2118 55.8757C86.0216 56.6999 85.8947 57.5242 85.6411 58.2851C84.8169 61.1383 82.8513 63.1038 80.3785 64.5622C79.1738 65.2596 77.9057 65.8303 76.6376 66.3375C76.1938 66.5277 75.9402 66.4643 75.9402 65.8937C75.9402 65.3864 75.8768 64.8158 75.7499 64.3085C75.6231 63.6745 75.3061 63.2307 74.6721 63.3575C74.038 63.4843 73.7844 63.9915 73.8478 64.6256C74.1014 67.7958 74.4184 67.0984 71.7554 67.7958C69.2192 68.4933 66.6196 69.0005 63.9566 69.0005C61.8008 69.0005 59.6451 68.9371 57.4893 68.3665C56.8553 68.2397 56.7284 67.986 57.0455 67.4154C58.06 65.1328 58.4404 62.7234 58.377 60.314C58.3136 58.2217 57.9965 56.1927 57.4259 54.1637C57.1723 53.3395 57.4893 53.2127 58.1868 53.4029C58.5038 53.4663 58.8208 53.5297 59.1378 53.3395C60.3425 53.7833 61.5472 53.4029 62.7519 53.2127C65.1613 52.8956 67.5073 52.1982 69.7899 51.5007C70.8044 52.642 71.3116 54.0369 71.9456 55.4318C72.0725 55.7489 72.1993 56.0659 72.3261 56.3195C72.5163 56.6999 72.8333 56.9536 73.2772 56.7633C73.721 56.6365 73.721 56.1927 73.6576 55.8757C73.5308 55.1782 73.2137 54.5442 72.9601 53.9101C72.6431 53.2127 72.3261 52.5786 71.9456 51.9446C71.7554 51.6275 71.5018 51.3739 71.6286 50.9301C73.9746 50.0424 76.3206 49.2816 78.9202 49.7888C82.4075 50.4862 84.8169 52.5152 86.2118 55.8757Z" fill="#E7C081"/>
<path d="M21.1583 27.597C19.6366 28.0408 18.4319 27.4068 17.354 26.5191C15.8957 25.3778 15.1983 23.7927 15.0715 22.0808C14.7544 16.0573 15.8957 10.4142 19.1928 5.27843C21.2851 2.04478 24.2652 0.269439 28.1329 0.0792236C31.9372 1.0303 33.9662 3.6299 33.9662 7.68782C34.0296 12.4432 32.9517 16.8181 30.5423 20.8761C30.2887 21.2565 30.035 21.6369 29.7814 22.0174C28.0061 24.4902 25.7869 26.2655 22.9337 27.3434C22.363 27.597 21.7924 27.7238 21.1583 27.597Z" fill="#FEEC80"/>
<path d="M59.2013 45.3503C59.0745 45.2869 58.8843 45.2235 58.8843 45.4772C58.3771 48.5206 56.1579 49.8521 53.4949 50.613C52.0366 50.9934 50.5783 50.93 49.1199 51.1202C48.8029 51.1836 48.3591 51.0568 48.3591 51.5006C48.2957 51.9445 48.7395 52.0079 48.9931 52.1347C50.7051 52.6419 52.4804 53.0224 54.3192 53.0858C54.8898 53.1492 55.2068 53.276 55.397 53.91C56.0311 56.4462 56.4749 58.9824 56.4115 61.582C56.3481 63.4842 55.9677 65.2595 55.1434 66.9715C54.8264 67.6055 54.5094 67.4153 54.0655 67.2251C50.5783 65.8302 47.725 63.7378 45.5693 60.631C44.6182 59.2994 43.4135 58.285 42.0186 57.5241C41.5113 57.2071 41.3845 57.0169 41.5748 56.3828C42.2722 53.4028 42.399 50.3593 41.1943 47.4427C40.6237 46.0478 39.6726 44.8431 39.2288 43.3848C38.9117 42.3069 38.5947 41.229 38.5313 40.0243C38.5313 39.7707 38.4679 39.5171 38.1509 39.4537C39.9262 38.5026 41.7016 37.6783 43.6037 36.9809C46.6471 38.883 48.4225 41.6729 49.1199 45.0967C49.2468 45.604 49.3102 46.1112 49.437 46.6184C49.5638 46.9355 49.8174 47.1891 50.1978 47.1257C50.5783 47.0623 50.6417 46.8087 50.7051 46.4916C50.7685 46.238 50.7051 45.921 50.7051 45.6674C50.071 42.2435 48.6761 39.2635 45.9497 36.9809C45.7595 36.8541 45.5693 36.6639 45.5059 36.4102C49.1199 35.4592 52.2902 36.4736 55.0166 38.8196C57.0456 40.595 58.4405 42.7507 59.2013 45.3503Z" fill="#E7C081"/>
<path d="M59.5817 7.81461C62.8154 6.03927 66.1758 4.96138 69.9167 5.65884C70.9312 5.84905 71.9457 6.22948 72.6431 7.11715C73.4674 8.13163 73.5308 9.33633 73.2772 10.541C72.8967 12.4432 71.8823 14.0917 70.6776 15.55C67.3805 19.7347 63.386 22.8416 58.1234 24.2365C57.3625 24.4267 56.6017 24.6169 55.7774 24.6169C55.6506 24.6169 55.7774 24.6169 55.714 24.6169C55.3336 24.5535 54.7629 24.7437 54.5727 24.2999C54.3825 23.9195 54.8263 23.6025 55.0799 23.2854C57.5527 19.9884 58.694 16.1841 59.2013 12.1261C59.3281 11.0483 59.4549 9.90697 59.3915 8.76568C59.3281 8.44866 59.3915 8.13163 59.5817 7.81461Z" fill="#FEEC7F"/>
<path d="M35.8682 27.0264C35.678 27.0264 35.4878 27.0264 35.2976 26.8995C35.1707 26.5825 35.4878 26.3923 35.678 26.2655C38.5946 23.7293 40.2431 20.3688 41.3844 16.7547C42.0819 14.599 42.5257 12.4432 42.5257 10.224C42.5257 7.3708 41.8917 4.70779 39.9261 2.55202C39.7993 2.42521 39.6725 2.2984 39.6725 2.10819C41.7649 0.649872 44.1109 0.332847 46.5836 0.523062C50.3245 1.53754 51.7195 5.46865 51.339 9.01933C50.8318 13.2675 49.3735 17.1352 46.9641 20.6224C45.4424 22.6514 43.667 24.4268 41.3844 25.6314C39.9261 26.3923 38.4044 27.0898 36.6925 27.0898C36.3754 27.0898 36.1218 26.8361 35.8682 27.0264Z" fill="#FEEC7F"/>
<path d="M39.6725 1.98145C41.5113 3.56657 42.3356 5.65894 42.5892 8.00492C43.2232 14.2186 41.2577 19.7348 37.5802 24.6804C36.9461 25.5047 36.1219 26.1388 35.361 26.8996C34.1563 26.8362 33.332 26.0119 32.5078 25.2511C32.3176 24.8707 32.698 24.6804 32.8882 24.4268C33.8393 23.2221 34.727 22.0174 35.2976 20.5591C36.6291 18.2131 37.2632 15.6135 37.6436 12.9505C38.0874 10.2241 38.2142 7.43428 37.1997 4.77127C37.1363 4.51765 37.0729 4.32743 37.1997 4.07381C37.9606 3.31295 38.6581 2.48869 39.6725 1.98145Z" fill="#EEC560"/>
<path d="M37.1364 4.01034C38.2777 6.73675 38.2777 9.52657 37.8973 12.3798C37.5803 14.8526 36.9462 17.262 36.0586 19.5446C35.8683 19.9884 35.7415 20.3688 35.3611 20.6859C34.9807 21.1931 34.3466 21.2565 33.776 21.4467C32.7615 21.7637 31.6836 22.0174 30.6691 22.1442C30.2887 22.2076 29.9083 22.271 29.5912 21.954C31.8738 18.6569 33.1419 15.0428 33.5858 11.1117C33.9028 8.5755 34.0296 6.0393 32.7615 3.62991C31.8738 1.98137 30.5423 0.90349 28.767 0.39625C28.5134 0.332845 28.3231 0.26944 28.1329 0.0792251C29.5912 -0.0475849 30.9862 -0.0475854 32.4445 0.26944C34.5368 0.840085 36.0586 2.10819 37.1364 4.01034Z" fill="#E7C081"/>
<path d="M58.1235 23.9829C64.2104 22.3344 68.7122 18.4667 72.0092 13.2041C73.2139 11.3019 73.6578 9.27296 72.6433 7.11719C74.4186 8.06826 75.3063 9.65339 75.7501 11.5555C76.0672 13.0139 75.7501 14.3454 75.1161 15.6769C72.9603 20.1152 69.6632 23.4757 65.2883 25.8217C64.9079 25.9485 64.5274 26.0119 64.147 26.1387C62.2449 26.3923 60.5329 26.0753 58.9478 24.9974C58.5674 24.7438 58.1235 24.4902 58.1235 23.9829Z" fill="#E7C082"/>
<path d="M46.7105 20.4956C48.7394 17.4522 50.1344 14.1551 50.7684 10.541C51.339 7.62438 51.2756 4.77115 49.2467 2.36176C48.7394 1.72771 48.1054 1.22047 47.3445 0.903444C47.0275 0.776634 46.7105 0.71323 46.5203 0.396205C49.6271 0.3328 52.3535 1.22047 54.1289 3.94688C55.2702 5.72222 55.5238 7.81459 55.3336 9.90696C55.3336 10.224 55.2702 10.4776 55.2702 10.7946C55.5238 11.0482 55.397 11.3653 55.3336 11.6823C54.8897 14.2819 54.1289 16.7547 52.9876 19.1641C52.7974 19.6079 52.5437 20.0518 52.0999 20.3054C50.5782 20.9394 48.9931 21.1296 47.4079 20.7492C47.1543 20.7492 46.9007 20.7492 46.7105 20.4956Z" fill="#E7C081"/>
<path d="M46.7105 20.4956C48.5493 20.876 50.388 20.7492 52.1634 20.1786C52.417 20.559 52.1 20.8126 51.9732 21.0663C51.4659 22.0173 50.8319 22.8416 50.071 23.7927C52.0366 24.1731 53.8753 24.4267 55.7775 24.2999C56.6017 24.2999 57.2992 24.0463 58.1234 23.9195C59.3915 25.3778 61.1035 25.885 62.9422 25.885C63.3226 25.885 63.7031 25.885 64.0835 25.885C64.2737 25.8216 64.5273 25.6314 64.5907 26.0753C60.1524 28.231 55.7775 28.1676 51.4025 25.885C50.7685 25.568 50.1978 25.1242 49.6906 24.5535C49.4369 24.2365 49.2467 24.2365 48.9931 24.5535C48.5493 24.9974 48.1054 25.4412 47.5982 25.885C45.8229 27.4702 43.7305 27.9774 41.3845 27.6604C39.9262 27.4702 38.5313 27.3434 37.073 27.1531C36.9462 26.8995 36.5023 27.3434 36.5657 26.8361C40.1798 26.3923 43.033 24.5535 45.379 21.9539C45.8863 21.5101 46.3301 20.9394 46.7105 20.4956Z" fill="#B67D4E"/>
<path d="M55.8408 24.2999C54.8264 24.6804 53.7485 24.4267 52.734 24.4267C51.9731 24.4267 51.2123 24.2365 50.4514 24.1097C49.8808 24.0463 49.6905 23.9195 50.1344 23.3489C50.9586 22.3344 51.7195 21.3199 52.2267 20.1152C53.7485 17.579 54.5727 14.7892 55.1434 11.8725C55.2068 11.4921 55.2702 11.1751 55.3336 10.7947C56.7285 9.65337 58.06 8.51208 59.6451 7.75122C59.7719 11.2385 59.2647 14.599 58.1868 17.8326C57.426 20.1152 56.2847 22.2076 54.5727 24.2365C55.08 24.2999 55.4604 24.2999 55.8408 24.2999Z" fill="#EEC560"/>
<path d="M29.5278 21.954C31.5567 21.954 33.4589 21.2566 35.2976 20.6859C35.1074 21.8906 34.2832 22.7149 33.6491 23.7294C33.2687 24.3 32.8248 24.7438 32.4444 25.2511C30.8593 27.0264 28.8937 27.8507 26.4843 27.7873C25.026 27.7239 23.5043 27.7873 22.046 27.7873C21.729 27.7873 21.3485 27.9141 21.1583 27.5971C24.5822 26.8996 27.1818 24.934 29.2742 22.2076C29.3376 22.1442 29.4644 22.0174 29.5278 21.954Z" fill="#B67D4E"/>
<path d="M45.4424 36.4103C48.4224 38.5026 49.9441 41.4827 50.705 44.97C50.8318 45.4138 50.8318 45.921 50.8952 46.3649C50.9586 46.9355 50.6416 47.3793 50.0075 47.4427C49.4369 47.5062 49.1199 47.1257 49.0565 46.5551C48.8028 45.0968 48.4858 43.575 47.8518 42.2435C46.9641 40.3414 45.696 38.8197 43.9841 37.5516C43.7938 37.4248 43.4768 37.2979 43.5402 36.9809C44.1743 36.8541 44.8083 36.6639 45.4424 36.4103Z" fill="#B67D4E"/>
<path d="M71.5652 50.9301C72.3894 52.4518 73.2771 53.9735 73.8478 55.622C74.1648 56.5097 73.7844 57.0803 72.9601 57.0803C72.6431 57.0803 72.326 56.9535 72.1992 56.6365C71.5652 54.7978 70.5507 53.1492 69.7264 51.4373C70.3605 51.2471 70.9311 50.9935 71.5652 50.9301Z" fill="#B77D4E"/>
<path d="M22.2995 36.2834C22.6165 36.2834 22.9336 36.2834 22.6799 36.7907C22.1727 37.932 22.6799 38.7562 23.631 39.3269C23.7578 39.3903 24.0114 39.4537 23.948 39.7073C23.948 39.7707 23.7578 39.8975 23.6944 39.8975C21.9825 39.5805 20.2071 39.7073 18.6854 38.8196C19.5097 37.4881 20.7144 36.6005 22.2995 36.2834Z" fill="#B77D4E"/>
<path d="M36.6291 26.8995C36.8194 27.0263 37.0096 27.0897 37.1364 27.2165C36.6926 27.2799 36.2487 27.1531 35.8683 27.0263C36.0585 26.7727 36.3755 26.8361 36.6291 26.8995Z" fill="#DEBB69"/>
<path d="M64.6542 26.0753C64.5274 25.885 64.2738 25.9484 64.147 25.885C64.464 25.568 64.9078 25.7582 65.2883 25.6948C65.098 25.9484 64.9078 26.0118 64.6542 26.0753Z" fill="#C99A6D"/>
<path d="M8.28713 39.8976C8.79437 40.0244 9.2382 40.2146 9.2382 40.8487C9.2382 41.4193 8.85777 41.7997 8.28713 41.8631C7.71648 41.9265 7.39946 41.4827 7.33605 40.9755C7.27265 40.4682 7.58967 40.0244 8.28713 39.8976Z" fill="#B77E4F"/>
<path d="M8.28713 47.8232C7.65308 47.7598 7.33606 47.3794 7.33606 46.8087C7.33606 46.2381 7.77989 45.8577 8.35054 45.9211C8.85778 45.9211 9.23821 46.3015 9.23821 46.8721C9.23821 47.5062 8.79437 47.6964 8.28713 47.8232Z" fill="#B77E4F"/>
<path d="M73.8477 61.4552C73.2771 61.3284 72.8333 61.0114 72.8967 60.4407C72.9601 59.9335 73.2137 59.4262 73.8477 59.4896C74.4184 59.553 74.7988 59.8701 74.7988 60.4407C74.7988 61.0748 74.355 61.3284 73.8477 61.4552Z" fill="#B87F4F"/>
<path d="M64.4006 62.9136C64.2738 63.3575 64.0835 63.8013 63.5129 63.8013C62.9423 63.8013 62.4984 63.4209 62.5618 62.7868C62.6252 62.2162 62.9423 61.8992 63.5129 61.8992C64.0201 61.8992 64.4006 62.2162 64.4006 62.9136Z" fill="#B77E4F"/>
</svg>
