<svg width="25" height="24" viewBox="0 0 25 24" fill="none" xmlns="http://www.w3.org/2000/svg">
<path d="M12.3232 7.9501L13.3053 6.8787C13.5607 6.60012 13.8639 6.37914 14.1975 6.22837C14.5312 6.0776 14.8888 6 15.2499 6C15.6111 6 15.9687 6.0776 16.3023 6.22837C16.636 6.37914 16.9392 6.60012 17.1945 6.8787C17.4499 7.15728 17.6525 7.48801 17.7907 7.852C17.9289 8.21598 18 8.6061 18 9.00008C18 9.39405 17.9289 9.78417 17.7907 10.1482C17.6525 10.5121 17.4499 10.8429 17.1945 11.1215L15.2303 13.2643C14.9749 13.5429 14.6718 13.7639 14.3381 13.9146C14.0045 14.0654 13.6468 14.143 13.2857 14.143C12.9245 14.143 12.5669 14.0654 12.2333 13.9146C11.8996 13.7639 11.5965 13.5429 11.3411 13.2643C11.2371 13.1423 11.1804 12.9811 11.1831 12.8146C11.1857 12.648 11.2474 12.4891 11.3552 12.3711C11.4634 12.2535 11.6091 12.1862 11.7617 12.1833C11.9144 12.1804 12.0622 12.2422 12.1739 12.3557C12.3198 12.5153 12.493 12.6419 12.6838 12.7283C12.8746 12.8147 13.0791 12.8592 13.2857 12.8592C13.4923 12.8592 13.6968 12.8147 13.8876 12.7283C14.0783 12.6419 14.2516 12.5153 14.3975 12.3557L16.3617 10.2129C16.6422 9.8881 16.7957 9.45686 16.7896 9.01066C16.7835 8.56445 16.6183 8.13839 16.3291 7.82284C16.0398 7.5073 15.6493 7.32709 15.2402 7.32044C14.8312 7.3138 14.4359 7.48124 14.1382 7.78725L13.1561 8.85865C13.0443 8.97214 12.8965 9.03394 12.7439 9.03107C12.5912 9.02819 12.4455 8.96086 12.3374 8.84322C12.2295 8.72528 12.1678 8.56633 12.1652 8.39978C12.1625 8.23322 12.2192 8.07204 12.3232 7.9501ZM8.63831 16.2127C8.78415 16.3723 8.95742 16.499 9.1482 16.5854C9.33897 16.6718 9.54351 16.7162 9.75007 16.7162C9.95663 16.7162 10.1612 16.6718 10.3519 16.5854C10.5427 16.499 10.716 16.3723 10.8618 16.2127L11.8439 15.1413C11.9557 15.0279 12.1035 14.9661 12.2561 14.9689C12.4088 14.9718 12.5545 15.0391 12.6626 15.1568C12.7705 15.2747 12.8322 15.4337 12.8348 15.6002C12.8375 15.7668 12.7808 15.928 12.6768 16.0499L11.6947 17.1213C11.4393 17.3999 11.1361 17.6209 10.8025 17.7716C10.4688 17.9224 10.1112 18 9.75007 18C9.02071 18 8.32122 17.6839 7.80548 17.1213C7.28974 16.5587 7 15.7956 7 14.9999C7 14.2043 7.28974 13.4412 7.80548 12.8785L9.76971 10.7357C10.0251 10.4571 10.3282 10.2361 10.6619 10.0854C10.9955 9.93459 11.3532 9.85698 11.7143 9.85698C12.0755 9.85698 12.4331 9.93459 12.7667 10.0854C13.1004 10.2361 13.4035 10.4571 13.6589 10.7357C13.7629 10.8577 13.8196 11.0189 13.8169 11.1854C13.8143 11.352 13.7526 11.5109 13.6448 11.6289C13.5366 11.7465 13.3909 11.8138 13.2383 11.8167C13.0856 11.8196 12.9378 11.7578 12.8261 11.6443C12.6802 11.4847 12.507 11.3581 12.3162 11.2717C12.1254 11.1853 11.9209 11.1408 11.7143 11.1408C11.5077 11.1408 11.3032 11.1853 11.1124 11.2717C10.9217 11.3581 10.7484 11.4847 10.6025 11.6443L8.63831 13.7871C8.49202 13.9462 8.37595 14.1352 8.29676 14.3433C8.21756 14.5515 8.17679 14.7746 8.17679 14.9999C8.17679 15.2253 8.21756 15.4484 8.29676 15.6565C8.37595 15.8646 8.49202 16.0537 8.63831 16.2127Z" fill="#0200CD"/>
<path d="M24.5 12C24.5 18.3322 19.1469 23.5 12.5 23.5C5.85315 23.5 0.5 18.3322 0.5 12C0.5 5.66777 5.85315 0.5 12.5 0.5C19.1469 0.5 24.5 5.66777 24.5 12Z" stroke="#0200CD"/>
</svg>
