<svg width="25" height="24" viewBox="0 0 25 24" fill="none" xmlns="http://www.w3.org/2000/svg">
<path d="M24.5 12C24.5 18.3322 19.1469 23.5 12.5 23.5C5.85315 23.5 0.5 18.3322 0.5 12C0.5 5.66777 5.85315 0.5 12.5 0.5C19.1469 0.5 24.5 5.66777 24.5 12Z" stroke="#0200CD"/>
<path d="M8.72823 7.33393C8.72805 7.68753 8.58415 8.02658 8.32821 8.27649C8.07226 8.5264 7.72522 8.6667 7.36343 8.66652C7.00165 8.66634 6.65475 8.5257 6.39906 8.27554C6.14336 8.02539 5.99982 7.6862 6 7.33259C6.00018 6.97899 6.14407 6.63994 6.40002 6.39003C6.65597 6.14012 7.00301 5.99982 7.3648 6C7.72658 6.00018 8.07348 6.14081 8.32917 6.39097C8.58486 6.64113 8.72841 6.98032 8.72823 7.33393ZM8.76915 9.6538H6.04092V18H8.76915V9.6538ZM13.0797 9.6538H10.3652V18H13.0525V13.6202C13.0525 11.1804 16.3059 10.9537 16.3059 13.6202V18H19V12.7136C19 8.60052 14.1847 8.75385 13.0525 10.7737L13.0797 9.6538Z" fill="#0200CD"/>
</svg>
