<svg width="25" height="25" viewBox="0 0 25 25" fill="none" xmlns="http://www.w3.org/2000/svg">
<g id="twemoji:mango">
<path id="Vector" d="M18.3193 2.45755C18.6548 2.43047 19.1936 2.00269 19.4749 2.04436C19.7561 2.08603 20.5673 2.79297 20.6346 2.93533C20.702 3.07769 20.1923 3.75339 20.1166 3.96311C20.0409 4.17283 19.6721 4.12908 19.0679 3.58603C18.4645 3.04297 18.3193 2.45755 18.3193 2.45755Z" fill="#009345"/>
<path id="Vector_2" d="M8.54159 2.17986C11.6978 0.332635 16.3659 0.366664 18.0451 1.77708C19.168 2.72014 20.0881 3.44444 21.152 3.86805C22.5562 4.42639 23.7159 6.05833 24.218 7.60694C24.8992 9.70625 25.3846 16.3424 18.6423 20.4653C14.3138 23.1125 6.38117 24.1896 5.47492 23.7451C4.79159 23.4097 2.2659 22.2937 0.839508 19.2639C-0.58688 16.234 -0.919519 7.71597 8.54159 2.17986Z" fill="#F9CD32"/>
<path id="Vector_3" d="M12.0339 1.81041C15.6791 0.781242 18.4027 3.29374 16.7208 3.47221C13.6937 3.79374 10.4603 6.92291 7.95339 9.28819C3.3527 13.6285 2.31103 18.8368 1.70339 17.9687C0.714504 16.5562 0.683948 11.616 4.17631 7.28402C7.66867 2.95208 10.4985 2.24444 12.0339 1.81041Z" fill="#F9CD32"/>
<path id="Vector_4" d="M19.6324 2.97095C21.1421 3.45498 23.0956 6.14039 23.0658 8.39525C22.9866 14.4057 20.1963 16.723 20.1963 16.723C20.1963 16.723 18.4248 10.2473 18.6887 7.89039C18.8817 6.16956 19.8317 5.69178 20.0019 4.71748C20.1609 3.81123 19.6324 2.97095 19.6324 2.97095Z" fill="#009345"/>
</g>
</svg>
