<svg width="18" height="18" viewBox="0 0 18 18" fill="none" xmlns="http://www.w3.org/2000/svg">
<circle cx="9" cy="9" r="8.5" stroke="#0200CD"/>
<g clip-path="url(#clip0_1607_907)">
<path d="M9.27248 12.8C10.1037 11.7969 11.9996 9.36562 11.9996 8C11.9996 6.34375 10.606 5 8.88845 5C7.17086 5 5.77734 6.34375 5.77734 8C5.77734 9.36562 7.67318 11.7969 8.50443 12.8C8.70373 13.0391 9.07318 13.0391 9.27248 12.8ZM8.88845 7C9.16349 7 9.42727 7.10536 9.62175 7.29289C9.81623 7.48043 9.92549 7.73478 9.92549 8C9.92549 8.26522 9.81623 8.51957 9.62175 8.70711C9.42727 8.89464 9.16349 9 8.88845 9C8.61342 9 8.34964 8.89464 8.15516 8.70711C7.96068 8.51957 7.85142 8.26522 7.85142 8C7.85142 7.73478 7.96068 7.48043 8.15516 7.29289C8.34964 7.10536 8.61342 7 8.88845 7Z" fill="#0200CD"/>
</g>
<defs>
<clipPath id="clip0_1607_907">
<rect width="6.22222" height="8" fill="white" transform="translate(5.77734 5)"/>
</clipPath>
</defs>
</svg>
