<svg width="35" height="35" viewBox="0 0 35 35" fill="none" xmlns="http://www.w3.org/2000/svg">
<path d="M17.5002 17.4998C18.3022 17.4998 18.9891 17.214 19.5608 16.6423C20.1325 16.0707 20.4178 15.3843 20.4168 14.5832C20.4168 13.7811 20.131 13.0942 19.5593 12.5225C18.9877 11.9509 18.3013 11.6655 17.5002 11.6665C16.6981 11.6665 16.0112 11.9523 15.4395 12.524C14.8679 13.0957 14.5825 13.7821 14.5835 14.5832C14.5835 15.3853 14.8693 16.0721 15.441 16.6438C16.0127 17.2155 16.6991 17.5008 17.5002 17.4998ZM17.5002 32.0832C13.587 28.7533 10.6645 25.6607 8.73266 22.8053C6.80086 19.9498 5.83447 17.3064 5.8335 14.8748C5.8335 11.229 7.00648 8.32449 9.35245 6.1613C11.6984 3.9981 14.4143 2.9165 17.5002 2.9165C20.587 2.9165 23.3034 3.9981 25.6493 6.1613C27.9953 8.32449 29.1678 11.229 29.1668 14.8748C29.1668 17.3054 28.2004 19.9489 26.2677 22.8053C24.3349 25.6616 21.4124 28.7543 17.5002 32.0832Z" fill="#0200CD"/>
</svg>
