<svg width="29" height="30" viewBox="0 0 29 30" fill="none" xmlns="http://www.w3.org/2000/svg">
<g id="fluent-emoji-flat:avocado">
<g id="Group">
<path id="Vector" d="M23.1818 18.924C23.3268 17.2112 22.8827 15.5528 24.0971 14.3384L24.8493 13.5862C25.8764 12.5566 26.4533 11.1617 26.4533 9.70744C26.4533 8.25315 25.8764 6.85824 24.8493 5.82869L23.1637 4.14307L21.9493 5.35744C20.599 5.39369 19.2577 5.92838 18.2246 6.9615L18.0343 7.14275C16.822 8.35486 15.2203 9.09954 13.5121 9.24525C11.2465 9.43557 9.12587 10.4234 7.51274 12.0365C6.23479 13.3123 5.34907 14.9275 4.9604 16.691C4.57173 18.4544 4.69639 20.2923 5.31962 21.9871L4.70337 22.6034L7.01431 24.9143C7.89302 25.7935 8.93636 26.491 10.0847 26.9668C11.2331 27.4427 12.4639 27.6876 13.707 27.6876C14.95 27.6876 16.1809 27.4427 17.3292 26.9668C18.4776 26.491 19.5209 25.7935 20.3996 24.9143C22.0037 23.3103 22.9915 21.1896 23.1818 18.924Z" fill="#44911B"/>
<path id="Vector_2" d="M18.7231 2.3125C17.0556 2.3125 15.4788 2.965 14.3006 4.14313L14.1375 4.31532C13.2766 5.17625 12.1256 5.71094 10.9022 5.81969C8.55502 6.01907 6.35283 7.04313 4.69439 8.70157C3.77872 9.61239 3.05259 10.6956 2.55794 11.8887C2.0633 13.0817 1.80995 14.361 1.81252 15.6525C1.81252 18.2806 2.83658 20.7456 4.69439 22.6034C6.55221 24.4613 9.01721 25.4853 11.6453 25.4853C14.2735 25.4853 16.7385 24.4613 18.5963 22.6034C20.2547 20.945 21.2878 18.7338 21.4872 16.3956C21.5885 15.1727 22.1218 14.0258 22.9916 13.1603L23.1638 12.9881C23.7456 12.4082 24.2069 11.7189 24.5211 10.9598C24.8352 10.2008 24.9961 9.38711 24.9944 8.56563C24.9944 6.89813 24.3419 5.32125 23.1638 4.14313C21.9844 2.96889 20.3874 2.31052 18.7231 2.3125Z" fill="#008463"/>
<path id="Vector_3" d="M22.04 12.2179L22.2122 12.0457C23.1348 11.1226 23.6531 9.87085 23.6531 8.56571C23.6531 7.26056 23.1348 6.00883 22.2122 5.08571C21.2891 4.16307 20.0373 3.64478 18.7322 3.64478C17.427 3.64478 16.1753 4.16307 15.2522 5.08571L15.08 5.25789C13.992 6.3464 12.5536 7.01425 11.02 7.14289C8.98647 7.31446 7.07939 8.20058 5.63688 9.64414C4.8482 10.4325 4.22257 11.3684 3.79572 12.3986C3.36887 13.4288 3.14917 14.5329 3.14917 15.648C3.14917 16.7632 3.36887 17.8673 3.79572 18.8975C4.22257 19.9277 4.8482 20.8636 5.63688 21.652C6.4252 22.4406 7.36117 23.0663 8.39134 23.4931C9.42151 23.92 10.5257 24.1397 11.6408 24.1397C12.7559 24.1397 13.8601 23.92 14.8902 23.4931C15.9204 23.0663 16.8564 22.4406 17.6447 21.652C19.0883 20.2094 19.9744 18.3024 20.1459 16.2688C20.2819 14.7463 20.9525 13.3054 22.04 12.2179Z" fill="#C3EF3C"/>
<path id="Vector_4" d="M12.044 19.2504C13.092 19.2504 14.097 18.8341 14.838 18.0931C15.579 17.3521 15.9953 16.3471 15.9953 15.2991C15.9953 14.2512 15.579 13.2462 14.838 12.5052C14.097 11.7642 13.092 11.3479 12.044 11.3479C10.9961 11.3479 9.99107 11.7642 9.25007 12.5052C8.50906 13.2462 8.09277 14.2512 8.09277 15.2991C8.09277 16.3471 8.50906 17.3521 9.25007 18.0931C9.99107 18.8341 10.9961 19.2504 12.044 19.2504Z" fill="#6D4534"/>
</g>
</g>
</svg>
