<svg width="171" height="171" viewBox="0 0 171 171" fill="none" xmlns="http://www.w3.org/2000/svg">
<path d="M170.742 76.7001C168.642 82.7001 165.642 88.4 165.042 94.8C164.542 100.2 161.842 104.4 157.342 107.4C154.442 109.4 151.542 111.5 149.042 114C144.942 113.8 140.842 113.9 136.842 112.8C133.142 111.8 130.342 109.5 127.942 106.6C125.342 103.5 122.342 101 119.042 98.9C117.142 97.7001 115.342 96.3 113.742 94.6C112.042 92.9 111.042 90.8 110.142 88.6C109.342 86.6 108.842 84.6 108.042 82.6C107.842 82.1 107.742 81.6001 108.042 81.2001C108.342 80.9 108.742 80.9 109.142 80.8C111.742 80.6001 113.242 79.1001 114.042 76.8C114.742 74.9 115.542 73 115.242 70.8C114.942 68.2001 113.842 66 111.842 64.4C110.242 63.2 109.642 61.7 110.242 59.7C110.542 58.7 110.742 57.7 110.342 56.6C109.642 54.7 108.242 53.5 106.342 53.4C104.042 53.2 102.142 54.2001 101.142 56.3C100.842 56.9 100.842 57.8 100.042 58.1C99.2419 57.9 99.3419 57.2 99.3419 56.6C98.9419 53.4 98.4419 50.2 97.4419 47.1C95.5419 41.8 96.4419 36.8 98.7419 31.9C100.442 28.4 101.442 24.7 101.842 20.9C102.542 15 105.242 10.4 110.142 7.10005C112.842 5.30005 115.442 3.20005 117.842 1.10005C119.042 0.700048 120.142 1.20005 121.342 1.20005C123.342 1.10005 125.342 1.50005 127.342 1.60005C131.942 1.90005 135.742 4.00005 138.542 7.40005C141.842 11.3 145.742 14.5 149.942 17.2C153.842 19.7 156.542 23.1 157.842 27.6C159.242 32.5 161.442 36.9 164.542 40.9C167.342 44.7 168.742 48.9 168.442 53.7C168.242 58.5 168.442 63.2001 170.042 67.8C170.442 69 170.242 70.3 170.642 71.5C170.742 73.3 170.742 75.0001 170.742 76.7001Z" fill="#C87B48"/>
<path d="M108.042 81.3C108.942 83.8 109.742 86.3 110.642 88.8C112.042 92.7 114.842 95.5 118.242 97.7C121.942 100.2 125.542 102.8 128.442 106.4C132.442 111.5 137.942 113.3 144.242 113.3C145.842 113.3 147.542 113.3 149.042 114C144.042 119.7 137.842 121.1 130.642 119.3C126.942 118.4 123.142 118.3 119.442 118.1C114.942 117.8 110.942 116.3 107.942 112.9C104.142 108.7 100.042 105 95.2419 102C93.8419 101.2 92.6419 100.1 91.6419 98.8C90.3419 98.1 89.5419 96.9 88.9419 95.6C88.2419 94 87.5419 92.4 87.1419 90.8C85.9419 86.5 83.6419 82.8 81.0419 79.2C78.3419 75.4 76.8419 71.3 77.1419 66.6C77.3419 64 77.1419 61.4 77.3419 58.8C76.6419 56 76.0419 53.1 75.2419 50.3C74.2419 46.5 74.6419 43 76.1419 39.4C77.6419 35.8 79.2419 32.3 79.8419 28.4C80.1419 26.5 80.5419 24.7 80.8419 22.8C81.5419 19 83.5419 16 86.6419 13.8C90.8419 10.7 94.8419 7.6 98.6419 4C100.742 2 103.242 0.8 105.942 0C107.842 0 109.742 0 111.642 0C113.142 0.3 114.642 0.3 116.142 0.5C116.842 0.6 117.542 0.6 117.942 1.4C115.542 4.2 112.442 6.1 109.442 8.3C105.142 11.4 102.942 15.6 102.242 20.7C101.742 25.1 100.442 29.3 98.5419 33.4C97.4419 35.7 96.7419 38.2 96.5419 40.7C96.4419 42.8 96.9419 45 97.5419 47C98.5419 50.4 99.3419 53.9 99.5419 57.5C99.5419 57.7 99.7419 57.9 99.8419 58.1C100.042 58.4 100.042 58.7 99.8419 59.1C98.6419 62.1 99.2419 65 100.642 67.8C100.742 69.5 101.642 70.8 102.442 72.2C103.042 73.1 103.742 73.9 104.042 74.9C103.642 77.8 104.642 79.9 107.442 81.1C107.742 81 107.942 81.1 108.042 81.3Z" fill="#C06D35"/>
<path d="M91.342 108.3C92.242 112.6 92.342 116.8 90.442 120.8C90.042 121.6 89.642 122.5 89.242 123.3C86.942 127.2 85.442 131.4 84.742 135.9C84.042 141.2 81.442 145.4 77.342 148.7C73.942 151.4 70.942 154.6 68.642 158.3C65.242 163.8 59.942 166.1 53.842 166.9C52.742 167 51.642 167.3 50.642 167.5C47.742 164.9 44.342 162.9 40.842 161.2C35.742 158.6 32.242 154.8 30.742 149.3C29.442 144.6 27.442 140.2 24.942 136.1C22.442 132 21.642 127.6 22.642 122.8C22.642 122.6 22.742 122.4 22.942 122.2C23.642 121.8 24.242 122.2 24.842 122.4C26.742 123 28.442 122.7 29.942 121.2C30.342 120.8 30.642 120.5 31.042 120.2C34.842 117.2 35.942 112.8 34.142 108.3C33.442 106.6 33.542 105.1 34.742 103.7C35.442 102.9 36.142 102.1 36.242 101C36.442 99.1 35.942 97.4 34.242 96.4C32.442 95.3 30.542 95.2 28.742 96.4C26.842 97.6 25.342 99.2 24.142 101.2C23.842 101.7 23.642 102.3 23.142 102.7C22.242 102.6 22.442 102 22.542 101.5C22.742 100.3 23.042 99.2 23.542 98.2C26.742 92.5 28.942 86.4 30.042 79.9C30.742 76.1 32.842 72.9 35.842 70.6C40.042 67.3 43.342 63.2 46.442 58.9C49.042 55.2 52.542 52.8 57.042 51.9C59.042 51.5 61.042 50.7 63.142 51.1C65.042 52.4 66.942 53.7 68.842 55C69.842 58.1 70.142 61.2 69.942 64.4C69.342 72 71.542 78.7 76.142 84.6C78.142 87.1 79.342 90 80.342 93.1C81.442 96.5 82.642 99.9 84.942 102.6C86.642 104.8 88.642 106.9 91.342 108.3Z" fill="#CE8B5D"/>
<path d="M62.9419 51.1001C61.0419 51.5001 59.2419 52.0001 57.3419 52.3001C52.4419 53.1001 48.8419 55.9001 46.1419 59.9001C43.4419 63.9001 40.3419 67.5001 36.4419 70.5001C32.5419 73.6001 30.4419 77.8001 29.7419 82.7001C29.1419 87.2001 27.5419 91.3001 25.4419 95.2001C24.3419 97.2001 23.3419 99.3001 22.8419 101.7C22.7419 102.1 22.5419 102.4 23.0419 102.7C23.2419 102.9 23.3419 103.2 23.2419 103.5C22.5419 105.7 23.0419 107.8 23.5419 109.9C23.4419 111 23.8419 112 23.8419 113.1C23.7419 114 23.1419 114.6 22.6419 115.2C21.0419 117.4 21.0419 118.9 22.5419 121.2C22.7419 121.6 23.1419 121.9 22.9419 122.4C23.1419 124.6 22.3419 126.8 22.7419 129C23.2419 132 24.4419 134.7 26.0419 137.2C28.6419 141.2 30.1419 145.6 31.4419 150.2C32.8419 155.2 36.1419 158.5 40.6419 160.8C43.9419 162.5 47.2419 164.4 50.2419 166.7C50.6419 167 51.0419 167.2 50.6419 167.7C47.3419 168.5 44.1419 169.8 40.7419 170.5C37.3419 171.2 34.0419 170.9 31.1419 169C25.8419 165.6 20.5419 162.2 15.0419 159C11.8419 157.2 9.94195 154.2 9.04195 150.7C7.54195 145.3 5.34195 140.3 2.44195 135.5C0.141946 131.8 -0.358054 127.6 0.441946 123.3C1.34195 118.3 1.14195 113.4 0.341946 108.4C-0.358054 104.4 -0.0580539 100.6 1.94195 97.1001C4.54195 92.0001 6.64195 86.6001 7.54195 80.9001C8.14195 76.8001 10.3419 73.4001 13.5419 70.8001C17.5419 67.5001 20.9419 63.8001 23.8419 59.5001C26.7419 55.1001 31.0419 52.7001 36.2419 52.0001C41.2419 51.3001 45.9419 49.5001 50.8419 48.3001C55.2419 47.2001 59.3419 48.2001 62.9419 51.1001Z" fill="#C87C48"/>
<path d="M91.342 108.3C90.942 109.5 90.342 108.4 90.242 108.3C86.142 105.2 82.742 101.5 80.942 96.5C79.742 93.3 79.042 89.9 77.142 87C75.642 84.8 74.242 82.6 72.742 80.3C70.442 76.7 69.442 72.6 69.242 68.3C69.142 64.8 69.542 61.3 68.942 57.9C68.742 56.9 67.742 56 68.642 55C71.442 56.6 74.342 58.1 77.142 59.7C77.442 59.4 77.142 59 77.342 58.7C77.842 59.3 77.542 60 77.642 60.6C77.942 64.7 77.042 68.8 78.242 72.8C78.642 74.3 79.342 75.8 80.242 77C84.242 82.3 86.942 88.2 88.942 94.4C89.442 96.1 90.642 97.4 91.642 98.7C90.642 98.7 91.042 99.5 91.042 99.9C90.742 102.8 91.042 105.5 91.342 108.3Z" fill="#C87C48"/>
<path d="M108.042 81.3C104.442 80.3 103.042 77.9 104.042 74.6C103.842 74.3 103.742 73.9 103.842 73.5C104.142 72.1 103.342 71.2 102.342 70.5C101.442 69.9 100.842 69.1 100.742 68C98.6419 64.8 98.4419 61.4 100.042 58C100.642 56 101.342 54.3 103.442 53.4C105.442 52.6 107.442 52.6 109.042 54C110.542 55.3 111.442 56.9 110.742 59C109.942 61.3 110.642 62.9 112.642 64.6C115.442 66.9 116.642 71 115.142 75.1C114.942 75.6 114.742 76.1 114.542 76.6C113.242 80.2 111.742 81.3 108.042 81.3Z" fill="#AE5B32"/>
<path d="M117.642 41.9C117.642 41.8 117.642 41.3 117.842 40.7C118.342 38.9 117.942 37.6 116.342 36.3C113.342 33.9 112.242 30.6 113.042 26.8C113.442 25.1 113.942 23.5 114.742 22C115.942 19.6 119.342 18.5 121.742 19.6C124.042 20.6 125.442 23.4 124.442 26C123.842 27.8 124.142 29 125.542 30.1C127.842 32 129.242 34.3 129.542 37.3C129.642 38.2 129.542 39.1 129.342 39.9C128.942 41.8 128.342 43.6 127.242 45.3C126.042 47.2 123.542 48.1 121.442 47.5C118.742 46.5 117.642 45.2 117.642 41.9Z" fill="#AE5B32"/>
<path d="M139.642 64.9999C143.042 64.9999 145.442 67.8999 144.542 71.0999C143.942 73.3999 144.142 74.7999 146.142 76.3999C149.642 79.1999 150.442 84.0999 148.442 88.1999C147.842 89.4 147.642 90.6999 146.642 91.6999C145.042 93.0999 143.342 93.6999 141.342 93.1999C139.242 92.5999 137.942 91.1999 137.542 89.0999C137.342 87.9999 137.742 86.9999 137.942 85.9999C138.142 84.5999 138.042 83.4999 136.742 82.4999C133.042 79.6999 131.842 75.2999 133.342 70.8999C133.642 70.0999 134.042 69.2999 134.342 68.3999C135.242 65.8999 137.042 64.8999 139.642 64.9999Z" fill="#AE5B32"/>
<path d="M100.642 68C101.242 68.9 101.842 69.7 102.742 70.3C104.342 71.3 104.642 72.9 103.942 74.7C102.742 73.2 101.642 71.6 100.842 69.8C100.742 69.3 100.142 68.7 100.642 68Z" fill="#C77A47"/>
<path d="M23.242 110C22.042 107.6 22.0419 105.1 22.9419 102.6C24.0419 99.4 26.3419 97.3 29.0419 95.6C30.6419 94.7 33.8419 94.9 35.5419 97C36.9419 98.8 37.0419 101.1 35.6419 103.1C35.4419 103.5 35.1419 103.8 34.8419 104.1C33.7419 105.3 33.6419 106.5 34.3419 107.9C36.4419 112.6 35.2419 117.5 31.1419 120.6C30.1419 121.4 29.4419 122.4 28.142 122.9C26.242 123.5 24.6419 122.7 23.0419 122.2C20.3419 118.8 20.3419 117.6 22.9419 114.1C23.2419 113.7 23.442 113.3 23.742 112.9C23.842 112 23.142 111 23.242 110Z" fill="#C06D35"/>
<path d="M56.1419 120.3C58.6419 120.3 60.2419 121.1 61.2419 123.1C62.2419 125.1 61.8419 127 60.5419 128.5C59.0419 130.2 58.7419 131.7 59.7419 134C61.4419 137.8 60.5419 141.5 57.6419 144.5C56.7419 145.5 55.7419 146.4 54.7419 147.2C52.3419 149.2 48.9419 148.2 47.3419 146.5C45.5419 144.7 45.6419 141.8 47.6419 139.6C49.0419 138 49.1419 136.7 48.3419 134.8C46.6419 131 47.7419 125.6 51.5419 122.9C53.0419 121.8 54.2419 119.9 56.1419 120.3Z" fill="#C06D35"/>
<path d="M48.542 93.3C48.342 92.1 49.142 90.8 50.142 89.8C51.542 88.4 51.442 87 50.742 85.4C49.542 82.8 49.542 80.1 50.642 77.5C51.742 74.8 53.842 72.8 56.242 71.3C58.542 69.8 61.542 70.7 63.242 72.8C64.742 74.7 64.742 77.1 62.742 79.3C61.342 80.9 61.142 82.2 62.142 84C64.142 88 62.442 93.4 59.042 95.9C58.442 96.4 57.942 97 57.342 97.5C55.442 99 53.442 99 51.442 98C49.442 97.2 48.642 95.7 48.542 93.3Z" fill="#C06D35"/>
<path d="M23.242 110C23.442 111 24.542 111.9 23.542 113C23.142 112.1 22.842 111.1 23.242 110Z" fill="#CB8454"/>
</svg>
