<svg width="29" height="28" viewBox="0 0 29 28" fill="none" xmlns="http://www.w3.org/2000/svg">
<g id="twemoji:pineapple">
<path id="Vector" d="M14.5875 7.49233C14.8029 4.92022 12.8997 3.82122 12.8997 3.82122C15.3878 3.90911 16.7061 6.01922 16.7061 6.01922C17.291 5.00811 15.9704 2.89877 15.0191 2.34888C17.5065 2.43677 17.8736 3.99777 17.8736 3.99777C19.0426 1.97477 18.6747 0.414551 18.6747 0.414551C19.5466 0.917773 20.049 2.058 20.3399 3.14611L22.1428 1.06944C22.3217 1.88144 22.0207 3.53811 21.6971 4.92644C24.0732 3.53422 26.2884 4.80977 26.2884 4.80977C23.2161 5.73377 22.0495 7.75599 22.0495 7.75599C22.0495 7.75599 25.1201 6.83277 26.4408 8.94288C24.4209 8.87133 22.9408 9.33099 21.8861 9.89955C22.7907 10.1243 24.3322 9.71599 25.2734 10.9659C25.2734 10.9659 22.786 10.878 22.2781 11.7864C23.9675 12.264 25.0587 13.5372 25.0587 13.5372C21.6194 12.901 17.963 14.8353 17.963 14.8353L13.2038 12.0882C14.0041 8.50499 11.1489 6.85611 11.1489 6.85611C13.2676 5.38222 14.5875 7.49233 14.5875 7.49233Z" fill="#5C913B"/>
<path id="Vector_2" d="M5.78381 17.7956C3.8487 21.147 4.83648 25.34 7.99036 27.1608C11.1443 28.9816 15.2696 27.741 17.2039 24.3904L18.4398 22.2491C20.3749 18.8969 19.3864 14.7055 16.2333 12.8847C13.0794 11.0639 8.95403 12.3037 7.0197 15.6551L5.78381 17.7956Z" fill="#FFAC33"/>
<path id="Vector_3" d="M5.00448 19.7276C5.17171 19.05 5.4341 18.3996 5.78381 17.7956L5.92848 17.5444V17.5452L7.44592 16.9012L6.96059 15.7571L7.01892 15.6552C8.59392 12.9252 11.6234 11.5975 14.3969 12.1816L15.0331 13.6796L16.4985 13.0574C19.0496 14.7078 20.0506 17.9722 19.0356 20.9347L18.2531 21.2668L18.565 22.0026C18.5223 22.0843 18.4857 22.1675 18.4383 22.2476L17.2024 24.3888C16.6896 25.2773 15.9958 26.0481 15.1661 26.6514L14.988 26.233L13.4706 26.877L13.7226 27.4712C13.2084 27.6842 12.6701 27.8336 12.1196 27.9161L11.9524 27.5217L10.8611 27.9845C9.95479 27.9475 9.06744 27.7131 8.26103 27.2977L8.27426 27.2923L7.63026 25.7748L6.70548 26.1668C6.30096 25.7651 5.95201 25.311 5.66792 24.8166L6.9847 24.2566L6.3407 22.7392L5.04415 23.2891C4.89559 22.7446 4.81004 22.1792 4.79837 21.6036L5.6967 21.2225L5.0527 19.7051L5.00448 19.7276ZM9.83603 14.0942L8.31937 14.739L8.96337 16.2556L10.4808 15.6116L9.83603 14.0942ZM9.60737 17.7738L10.2514 19.2905L11.7688 18.6473L11.1248 17.1298L9.60737 17.7738ZM12.8717 12.8062L11.3543 13.4502L11.999 14.9684L13.5165 14.3244L12.8717 12.8062ZM14.1597 15.8411L12.6423 16.4851L13.2863 18.0025L14.8029 17.3585L14.1597 15.8411ZM17.1946 14.5538L15.6779 15.1978L16.3219 16.7137L17.8386 16.0697L17.1946 14.5538ZM19.1266 19.1062L18.4826 17.588L16.9651 18.232L17.6099 19.7502L19.1266 19.1062ZM15.863 24.0723L17.3805 23.4291L16.7365 21.9116L15.219 22.5556L15.863 24.0723ZM16.0925 20.3934L15.4477 18.876L13.9303 19.5192L14.575 21.0374L16.0925 20.3934ZM12.8289 25.3603L14.3456 24.7163L13.7016 23.1996L12.1849 23.8444L12.8289 25.3603ZM13.0576 21.6814L12.4136 20.1632L10.8961 20.808L11.5401 22.3262L13.0576 21.6814ZM9.79326 26.6498L11.3107 26.0058L10.6667 24.4884L9.14926 25.1324L9.79326 26.6498ZM8.50448 23.6134L10.0211 22.9702L9.37715 21.452L7.86048 22.096L8.50448 23.6134ZM7.21648 20.5793L8.73392 19.9353L8.08992 18.4186L6.57248 19.0618L7.21648 20.5793Z" fill="#FFCC4D"/>
</g>
</svg>
