<svg width="51" height="59" viewBox="0 0 51 59" fill="none" xmlns="http://www.w3.org/2000/svg">
<g id="Group 319">
<path id="Vector" d="M38.2424 8.04622L38.2425 8.04625L38.2451 8.04442C40.2513 6.66787 42.793 5.71 45.7715 5.06991C47.7983 4.64203 48.9034 4.53858 49.5362 4.56448C49.8507 4.57735 50.0421 4.622 50.1693 4.67072C50.277 4.71198 50.343 4.75702 50.4133 4.80501C50.4213 4.81046 50.4293 4.81595 50.4375 4.82148C50.5876 4.97335 50.7022 5.11521 50.7687 5.24862C50.8352 5.38191 50.8488 5.49589 50.8131 5.60311L50.8056 5.62578L50.8047 5.64965C50.4849 14.095 48.1409 19.5967 44.1497 22.2308C42.1507 23.4965 40.0465 23.9184 38.364 23.9184C36.9912 23.9184 35.8314 23.7065 35.0978 23.4963L35.0133 23.4721L34.9453 23.5278C33.7449 24.5128 30.3951 27.6649 30.61 34.4824V34.5869C30.61 34.7643 30.6129 35.4756 30.6173 36.5451C30.6262 38.7061 30.6411 42.3294 30.6501 45.9635C30.6568 48.6802 30.6601 51.4034 30.6551 53.5277C30.6501 55.6578 30.6366 57.1735 30.6106 57.4861L30.61 57.4861V57.5C30.61 58.1579 30.1504 58.6182 29.4955 58.6182H29.4949H29.4942H29.4936H29.493H29.4924H29.4918H29.4912H29.4905H29.4899H29.4893H29.4887H29.4881H29.4875H29.4869H29.4864H29.4858H29.4852H29.4846H29.484H29.4834H29.4829H29.4823H29.4817H29.4811H29.4806H29.48H29.4794H29.4789H29.4783H29.4778H29.4772H29.4767H29.4761H29.4756H29.475H29.4745H29.4739H29.4734H29.4729H29.4723H29.4718H29.4713H29.4708H29.4702H29.4697H29.4692H29.4687H29.4682H29.4676H29.4671H29.4666H29.4661H29.4656H29.4651H29.4646H29.4641H29.4636H29.4631H29.4626H29.4621H29.4617H29.4612H29.4607H29.4602H29.4597H29.4593H29.4588H29.4583H29.4578H29.4574H29.4569H29.4564H29.456H29.4555H29.4551H29.4546H29.4542H29.4537H29.4533H29.4528H29.4524H29.4519H29.4515H29.451H29.4506H29.4502H29.4497H29.4493H29.4489H29.4485H29.448H29.4476H29.4472H29.4468H29.4464H29.4459H29.4455H29.4451H29.4447H29.4443H29.4439H29.4435H29.4431H29.4427H29.4423H29.4419H29.4415H29.4411H29.4407H29.4403H29.44H29.4396H29.4392H29.4388H29.4384H29.4381H29.4377H29.4373H29.4369H29.4366H29.4362H29.4359H29.4355H29.4351H29.4348H29.4344H29.4341H29.4337H29.4334H29.433H29.4327H29.4323H29.432H29.4316H29.4313H29.4309H29.4306H29.4303H29.4299H29.4296H29.4293H29.429H29.4286H29.4283H29.428H29.4277H29.4273H29.427H29.4267H29.4264H29.4261H29.4258H29.4255H29.4252H29.4248H29.4245H29.4242H29.4239H29.4236H29.4233H29.4231H29.4228H29.4225H29.4222H29.4219H29.4216H29.4213H29.421H29.4208H29.4205H29.4202H29.4199H29.4196H29.4194H29.4191H29.4188H29.4186H29.4183H29.418H29.4178H29.4175H29.4172H29.417H29.4167H29.4165H29.4162H29.416H29.4157H29.4155H29.4152H29.415H29.4147H29.4145H29.4142H29.414H29.4137H29.4135H29.4133H29.413H29.4128H29.4126H29.4123H29.4121H29.4119H29.4117H29.4114H29.4112H29.411H29.4108H29.4106H29.4103H29.4101H29.4099H29.4097H29.4095H29.4093H29.4091H29.4089H29.4087H29.4084H29.4082H29.408H29.4078H29.4076H29.4074H29.4072H29.4071H29.4069H29.4067H29.4065H29.4063H29.4061H29.4059H29.4057H29.4055H29.4054H29.4052H29.405H29.4048H29.4046H29.4045H29.4043H29.4041H29.4039H29.4038H29.4036H29.4034H29.4033H29.4031H29.4029H29.4028H29.4026H29.4025H29.4023H29.4021H29.402H29.4018H29.4017H29.4015H29.4014H29.4012H29.4011H29.4009H29.4008H29.4006H29.4005H29.4003H29.4002H29.4H29.3999H29.3998H29.3996H29.3995H29.3994H29.3992H29.3991H29.399H29.3988H29.3987H29.3986H29.3984H29.3983H29.3982H29.3981H29.3979H29.3978H29.3977H29.3976H29.3975H29.3973H29.3972H29.3971H29.397H29.3969H29.3968H29.3966H29.3965H29.3964H29.3963H29.3962H29.3961H29.396H29.3959H29.3958H29.3957H29.3956H29.3955H29.3954H29.3953H29.3952H29.3951H29.395H29.3949H29.3948H29.3947H29.3946H29.3945H29.3944H29.3944H29.3943H29.3942H29.3941H29.394H29.3939H29.3938H29.3937H29.3937H29.3936H29.3935H29.3934H29.3933H29.3933H29.3932H29.3931H29.393H29.393H29.3929H29.3928H29.3927H29.3927H29.3926H29.3925H29.3925H29.3924H29.3923H29.3923H29.3922H29.3921H29.3921H29.392H29.3919H29.3919H29.3918H29.3918H29.3917H29.3916H29.3916H29.3915H29.3915H29.3914H29.3914H29.3913H29.3913H29.3912H29.3912H29.3911H29.3911H29.391H29.391H29.3909H29.3909H29.3908H29.3908H29.3907H29.3907H29.3906H29.3906H29.3905H29.3905H29.3905H29.3904H29.3904H29.3903H29.3903H29.3903H29.3902H29.3902H29.3901H29.3901H29.3901H29.39H29.39H29.39H29.3899H29.3899H29.3899H29.3898H29.3898H29.3898H29.3897H29.3897H29.3896H29.3896H29.3895H29.3895H29.3894H29.3894H29.3893H29.3893H29.3892H29.3892H29.3892H29.3891H29.3891H29.3891H29.389H29.389H29.389H29.3889H29.3889H29.3889H29.3888H29.3888H29.3888H29.3887H29.3887H29.3887H29.3886C29.2212 58.6182 29.1005 58.5882 29.012 58.5418C28.9251 58.4964 28.8599 58.4303 28.8098 58.3417C28.7045 58.1553 28.6677 57.8732 28.6677 57.5V57.4648V57.4296V57.3944V57.3591V57.3238V57.2885V57.2531V57.2177V57.1822V57.1468V57.1113V57.0757V57.0401V57.0046V56.9689V56.9333V56.8976V56.8618V56.8261V56.7903V56.7545V56.7187V56.6828V56.6469V56.6109V56.575V56.539V56.503V56.4669V56.4309V56.3948V56.3586V56.3225V56.2863V56.2501V56.2139V56.1776V56.1413V56.105V56.0687V56.0323V55.9959V55.9595V55.9231V55.8866V55.8501V55.8136V55.7771V55.7405V55.7039V55.6673V55.6307V55.594V55.5574V55.5207V55.484V55.4472V55.4105V55.3737V55.3369V55.3V55.2632V55.2263V55.1895V55.1525V55.1156V55.0787V55.0417V55.0047V54.9677V54.9307V54.8937V54.8566V54.8195V54.7824V54.7453V54.7082V54.6711V54.6339V54.5967V54.5595V54.5223V54.4851V54.4478V54.4106V54.3733V54.336V54.2987V54.2614V54.224V54.1867V54.1493V54.112V54.0746V54.0372V53.9998V53.9623V53.9249V53.8874V53.85V53.8125V53.775V53.7375V53.7V53.6625V53.6249V53.5874V53.5498V53.5123V53.4747V53.4371V53.3995V53.3619V53.3243V53.2867V53.249V53.2114V53.1737V53.1361V53.0984V53.0608V53.0231V52.9854V52.9477V52.91V52.8723V52.8346V52.7969V52.7592V52.7214V52.6837V52.646V52.6082V52.5705V52.5327V52.495V52.4572V52.4194V52.3817V52.3439V52.3061V52.2683V52.2306V52.1928V52.155V52.1172V52.0794V52.0416V52.0038V51.9661V51.9283V51.8905V51.8527V51.8149V51.7771V51.7393V51.7015V51.6637V51.6259V51.5881V51.5503V51.5126V51.4748V51.437V51.3992V51.3614V51.3237V51.2859V51.2481V51.2104V51.1726V51.1348V51.0971V51.0593V51.0216V50.9839V50.9461V50.9084V50.8707V50.833V50.7952V50.7575V50.7198V50.6821V50.6445V50.6068V50.5691V50.5314V50.4938V50.4561V50.4185V50.3809V50.3432V50.3056V50.268V50.2304V50.1928V50.1553V50.1177V50.0801V50.0426V50.005V49.9675V49.93V49.8925V49.855V49.8175V49.7801V49.7426V49.7052V49.6677V49.6303V49.5929V49.5555V49.5181V49.4808V49.4434V49.4061V49.3688V49.3315V49.2942V49.2569V49.2196V49.1824V49.1451V49.1079V49.0707V49.0335V48.9964V48.9592V48.9221V48.885V48.8479V48.8108V48.7737V48.7367V48.6997V48.6627V48.6257V48.5887V48.5518V48.5148V48.4779V48.441V48.4042V48.3673V48.3305V48.2937V48.2569V48.2201V48.1834V48.1467V48.11V48.0733V48.0366V48V47.9634V47.9268V47.8902V47.8537V47.8172V47.7807V47.7442V47.7078V47.6714V47.635V47.5986V47.5623V47.5259V47.4897V47.4534V47.4171V47.3809V47.3447V47.3086V47.2725V47.2363V47.2003V47.1642V47.1282V47.0922V47.0562V47.0203V46.9844V46.9485V46.9127V46.8769V46.8411V46.8053V46.7696V46.7339V46.6982V46.6626V46.627V46.5914V46.5559V46.5203V46.4849V46.4494V46.414V46.3786V46.3433V46.308V46.2727V46.2374V46.2022V46.167V46.1319V46.0968V46.0617V46.0267V45.9916V45.9567V45.9217V45.8868V45.852V45.8172V45.7824V45.7476V45.7129V45.6782V45.6436V45.609V45.5744V45.5399V45.5054V45.4709V45.4365V45.4021V45.3678V45.3335V45.2993V45.265V45.2309V45.1967V45.1626V45.1286V45.0946V45.0606V45.0267V44.9928V44.9589V44.9251V44.8914V44.8576V44.824V44.7903V44.7567V44.7232V44.6897V44.6562V44.6228V44.5894V44.5561V44.5228V44.4896V44.4564V44.4232V44.3901V44.3571V44.3241V44.2911V44.2582V44.2253V44.1925V44.1597V44.127V44.0943V44.0617V44.0291V43.9966V43.9641V43.9317V43.8993V43.8669V43.8346V43.8024V43.7702V43.7381V43.706V43.6739V43.6419V43.61V43.5781V43.5463V43.5145V43.4828V43.4511V43.4195V43.3879V43.3564V43.3249V43.2935V43.2621V43.2308V43.1996V43.1684V43.1372V43.1061V43.0751V43.0441V43.0132V42.9823V42.9515V42.9208V42.8901V42.8594V42.8288V42.7983V42.7678V42.7374V42.707V42.6767V42.6465V42.6163V42.5862V42.5561V42.5261V42.4962V42.4663V42.4364V42.4067V42.3769V42.3473V42.3177V42.2882V42.2587V42.2293V42.1999V42.1707V42.1414V42.1123V42.0832V42.0541V42.0252V41.9963V41.9674V41.9386V41.9099V41.8812V41.8526V41.8241V41.7956V41.7672V41.7389V41.7106V41.6824V41.6543V41.6262V41.5982V41.5703V41.5424V41.5146V41.4869V41.4592V41.4316V41.404V41.3766V41.3492V41.3218V41.2946V41.2674V41.2402V41.2132V41.1862V41.1593V41.1324V41.1056V41.0789V41.0523V41.0257V40.9992V40.9728V40.9464V40.9201V40.8939V40.8678V40.8417V40.8157V40.7898V40.7639V40.7382V40.7125V40.6868V40.6613V40.6358V40.6104V40.5851V40.5598V40.5346V40.5095V40.4845V40.4595V40.4346V40.4098V40.3851V40.3605V40.3359V40.3114V40.287V40.2626V40.2383V40.2142V40.19V40.166V40.1421V40.1182V40.0944V40.0707V40.047V40.0235V40.0028C28.9178 32.7401 27.8969 28.7523 26.7083 26.5082C26.1131 25.3843 25.4767 24.6997 24.9403 24.2619C24.6725 24.0433 24.4314 23.8878 24.2365 23.7708C24.1708 23.7314 24.109 23.6956 24.0544 23.664C24.0291 23.6494 24.0054 23.6356 23.9836 23.6229C23.9116 23.5807 23.861 23.5495 23.8264 23.5235L23.7458 23.4629L23.6545 23.5056C22.0689 24.2477 19.9562 24.8828 17.6352 24.8828H17.6333H17.6314H17.6296H17.6277H17.6258H17.624H17.6221H17.6202H17.6184H17.6165H17.6147H17.6128H17.611H17.6091H17.6073H17.6055H17.6036H17.6018H17.5999H17.5981H17.5963H17.5945H17.5926H17.5908H17.589H17.5872H17.5854H17.5835H17.5817H17.5799H17.5781H17.5763H17.5745H17.5727H17.5709H17.5691H17.5673H17.5655H17.5638H17.562H17.5602H17.5584H17.5566H17.5549H17.5531H17.5513H17.5495H17.5478H17.546H17.5442H17.5425H17.5407H17.539H17.5372H17.5355H17.5337H17.532H17.5302H17.5285H17.5267H17.525H17.5233H17.5215H17.5198H17.5181H17.5163H17.5146H17.5129H17.5112H17.5094H17.5077H17.506H17.5043H17.5026H17.5009H17.4992H17.4975H17.4958H17.4941H17.4924H17.4907H17.489H17.4873H17.4856H17.4839H17.4822H17.4805H17.4788H17.4772H17.4755H17.4738H17.4721H17.4705H17.4688H17.4671H17.4654H17.4638H17.4621H17.4605H17.4588H17.4571H17.4555H17.4538H17.4522H17.4505H17.4489H17.4472H17.4456H17.444H17.4423H17.4407H17.4391H17.4374H17.4358H17.4342H17.4325H17.4309H17.4293H17.4277H17.426H17.4244H17.4228H17.4212H17.4196H17.418H17.4164H17.4148H17.4131H17.4115H17.4099H17.4083H17.4067H17.4051H17.4036H17.402H17.4004H17.3988H17.3972H17.3956H17.394H17.3924H17.3909H17.3893H17.3877H17.3861H17.3846H17.383H17.3814H17.3799H17.3783H17.3767H17.3752H17.3736H17.372H17.3705H17.3689H17.3674H17.3658H17.3643H17.3627H17.3612H17.3596H17.3581H17.3565H17.355H17.3535H17.3519H17.3504H17.3489H17.3473H17.3458H17.3443H17.3427H17.3412H17.3397H17.3382H17.3366H17.3351H17.3336H17.3321H17.3306H17.3291H17.3276H17.326H17.3245H17.323H17.3215H17.32H17.3185H17.317H17.3155H17.314H17.3125H17.311H17.3095H17.308H17.3066H17.3051H17.3036H17.3021H17.3006H17.2991H17.2976H17.2962H17.2947H17.2932H17.2917H17.2903H17.2888H17.2873H17.2859H17.2844H17.2829H17.2815H17.28H17.2785H17.2771H17.2756H17.2741H17.2727H17.2712H17.2698H17.2683H17.2669H17.2654H17.264H17.2625H17.2611H17.2596H17.2582H17.2568H17.2553H17.2539H17.2524H17.251H17.2496H17.2481H17.2467H17.2453H17.2438H17.2424H17.241H17.2396H17.2381H17.2367H17.2353H17.2339H17.2325H17.231H17.2296H17.2282H17.2268H17.2254H17.224H17.2226H17.2212H17.2197H17.2183H17.2169H17.2155H17.2141H17.2127H17.2113H17.2099H17.2085H17.2071H17.2057H17.2043H17.2029H17.2015H17.2002H17.1988H17.1974H17.196H17.1946H17.1932H17.1918H17.1904H17.1891H17.1877H17.1863H17.1849H17.1835H17.1822H17.1808H17.1794H17.178H17.1767H17.1753H17.1739H17.1726H17.1712H17.1698H17.1685H17.1671H17.1657H17.1644H17.163H17.1616H17.1603H17.1589H17.1576H17.1562H17.1549H17.1535H17.1521H17.1508H17.1494H17.1481H17.1467H17.1454H17.144H17.1427H17.1413H17.14H17.1387H17.1373H17.136H17.1346H17.1333H17.132H17.1306H17.1293H17.1279H17.1266H17.1253H17.1239H17.1226H17.1213H17.1199H17.1186H17.1173H17.1159H17.1146H17.1133H17.112H17.1106H17.1093H17.108H17.1067H17.1053H17.104H17.1027H17.1014H17.1001H17.0987H17.0974H17.0961H17.0948H17.0935H17.0922H17.0909H17.0895H17.0882H17.0869H17.0856H17.0843H17.083H17.0817H17.0804H17.0791H17.0778H17.0765H17.0751H17.0738H17.0725H17.0712H17.0699H17.0686H17.0673H17.066H17.0647H17.0634H17.0621H17.0608H17.0595H17.0582H17.0569H17.0557H17.0544H17.0531H17.0518H17.0505H17.0492H17.0479H17.0466H17.0453H17.044H17.0427H17.0415H17.0402H17.0389H17.0376H17.0363H17.035H17.0337H17.0325H17.0312H17.0299H17.0286H17.0273H17.026H17.0248H17.0235H17.0222H17.0209H17.0196H17.0184H17.0171H17.0158H17.0145H17.0133H17.012H17.0107H17.0094H17.0082H17.0069H17.0056H17.0043H17.0031H17.0018H17.0005H16.9992H16.998H16.9967H16.9954H16.9942H16.9929H16.9916H16.9904H16.9891H16.9878H16.9866H16.9853H16.984H16.9828H16.9815H16.9802H16.979H16.9777H16.9764H16.9752H16.9739H16.9726H16.9714H16.9701H16.9689H16.9676H16.9663H16.9651H16.9638H16.9625H16.9613H16.96H16.9588H16.9575H16.9562H16.955H16.9537H16.9525H16.9512H16.95H16.9487H16.9474H16.9462H16.9449H16.9437H16.9424H16.9412H16.9399H16.9386H16.9374H16.9361H16.9349H16.9336H16.9324H16.9311H16.9299H16.9286H16.9273H16.9261H16.9248H16.9236H16.9223H16.9211H16.9198H16.9186H16.9173H16.9161H16.9148H16.9135H16.9123H16.911H16.9098H16.9085H16.9073H16.906H16.9048H16.9035H16.9023H16.901H16.8998H16.8985H16.8973H16.896H16.8948H16.8935H16.8923H16.891H16.891C12.1485 24.67 7.81502 21.9216 4.84772 17.3524C3.04316 14.4779 1.6613 11.0684 0.810296 7.12202C0.808056 7.11079 0.805453 7.09779 0.802508 7.08307C0.734386 6.74274 0.483626 5.48996 0.318251 4.2015C0.231783 3.52781 0.169328 2.8493 0.167688 2.2886C0.166868 2.00808 0.181317 1.76163 0.214093 1.56225C0.24761 1.35837 0.297331 1.22333 0.353001 1.14889L0.353208 1.14904L0.35836 1.1413C0.522605 0.894231 0.871137 0.788201 1.2833 0.787531C12.4875 1.32321 19.997 4.31894 23.3698 9.70953L23.3698 9.70954L23.3713 9.7119C26.325 14.2608 25.5893 19.2394 25.0584 21.4757L25.033 21.5824L25.1207 21.6484C25.9554 22.2762 27.7491 23.859 29.0179 27.2522L29.1685 27.6548L29.3303 27.2565C30.4926 24.3955 32.1818 22.703 33.2333 21.8595L33.3242 21.7865L33.2874 21.6758C32.8621 20.3961 32.4429 18.8135 32.5477 17.1316L32.5478 17.131C32.7578 13.5501 34.859 10.2729 38.2424 8.04622ZM6.80971 16.0339L6.8097 16.0339L6.81064 16.0354C9.39708 19.926 13.0735 22.3208 17.0908 22.539C18.7268 22.6481 20.7822 22.2113 22.718 21.4563L22.7956 21.4261L22.8184 21.3461C23.2491 19.8341 24.2279 15.1646 21.5156 11.0295C18.5853 6.45922 12.2092 3.88227 2.79456 3.23855L2.58297 3.22408L2.61774 3.4333C2.69357 3.88954 2.78289 4.40002 2.86645 4.87763C2.90078 5.07383 2.93414 5.26448 2.9652 5.44355C3.01861 5.75156 3.06517 6.02507 3.09836 6.2347C3.13281 6.45235 3.14972 6.58337 3.14972 6.62036V6.63739L3.15314 6.65407C3.90455 10.3141 5.19364 13.549 6.80971 16.0339ZM35.7516 21.2573L35.7831 21.333L35.8622 21.3547C37.0519 21.68 40.2125 22.2311 42.946 20.3672C46.0029 18.287 47.8257 13.8262 48.4678 7.27963L48.4883 7.07082L48.2801 7.09691C47.8476 7.15113 47.3895 7.23225 47.0282 7.29934C46.9398 7.31577 46.8581 7.33118 46.7838 7.34518C46.7048 7.36008 46.6342 7.37339 46.5728 7.38466C46.5138 7.3955 46.4657 7.40399 46.4296 7.40973C46.3997 7.41448 46.3847 7.41619 46.3795 7.41678C46.3775 7.41701 46.377 7.41707 46.3777 7.41707H46.3578L46.3385 7.42172C43.6561 8.06731 41.3926 8.93041 39.5549 10.1229L39.5549 10.1228L39.5517 10.125C36.8456 11.9704 35.2095 14.5851 34.9913 17.4298L34.9908 17.4298V17.4427C34.9908 18.5334 35.2079 19.9486 35.7516 21.2573Z" fill="#FF9700" stroke="#FF9700" stroke-width="0.33531"/>
</g>
</svg>
