<svg width="557" height="785" viewBox="0 0 557 785" fill="none" xmlns="http://www.w3.org/2000/svg">
<path d="M291.323 353H287.676V335.964L282.476 337.707V334.66L290.869 331.599H291.323V353ZM312.622 344.064C312.622 346.271 312.334 348.054 311.758 349.411C311.182 350.759 310.371 351.745 309.326 352.37C308.281 352.985 307.051 353.293 305.635 353.293C304.238 353.293 303.008 352.985 301.943 352.37C300.889 351.745 300.068 350.759 299.482 349.411C298.896 348.054 298.604 346.271 298.604 344.064V340.534C298.604 338.317 298.892 336.54 299.468 335.202C300.054 333.864 300.874 332.893 301.929 332.287C302.983 331.682 304.209 331.379 305.605 331.379C307.021 331.379 308.252 331.682 309.297 332.287C310.352 332.893 311.167 333.864 311.743 335.202C312.329 336.54 312.622 338.317 312.622 340.534V344.064ZM308.989 339.992C308.989 338.596 308.857 337.482 308.594 336.652C308.34 335.822 307.959 335.227 307.451 334.865C306.953 334.494 306.338 334.309 305.605 334.309C304.893 334.309 304.282 334.494 303.774 334.865C303.276 335.227 302.896 335.822 302.632 336.652C302.368 337.482 302.236 338.596 302.236 339.992V344.577C302.236 345.974 302.368 347.097 302.632 347.946C302.905 348.796 303.296 349.416 303.804 349.807C304.312 350.188 304.922 350.378 305.635 350.378C306.367 350.378 306.982 350.188 307.48 349.807C307.979 349.416 308.354 348.796 308.608 347.946C308.862 347.097 308.989 345.974 308.989 344.577V339.992ZM329.702 344.064C329.702 346.271 329.414 348.054 328.838 349.411C328.262 350.759 327.451 351.745 326.406 352.37C325.361 352.985 324.131 353.293 322.715 353.293C321.318 353.293 320.088 352.985 319.023 352.37C317.969 351.745 317.148 350.759 316.562 349.411C315.977 348.054 315.684 346.271 315.684 344.064V340.534C315.684 338.317 315.972 336.54 316.548 335.202C317.134 333.864 317.954 332.893 319.009 332.287C320.063 331.682 321.289 331.379 322.686 331.379C324.102 331.379 325.332 331.682 326.377 332.287C327.432 332.893 328.247 333.864 328.823 335.202C329.409 336.54 329.702 338.317 329.702 340.534V344.064ZM326.069 339.992C326.069 338.596 325.938 337.482 325.674 336.652C325.42 335.822 325.039 335.227 324.531 334.865C324.033 334.494 323.418 334.309 322.686 334.309C321.973 334.309 321.362 334.494 320.854 334.865C320.356 335.227 319.976 335.822 319.712 336.652C319.448 337.482 319.316 338.596 319.316 339.992V344.577C319.316 345.974 319.448 347.097 319.712 347.946C319.985 348.796 320.376 349.416 320.884 349.807C321.392 350.188 322.002 350.378 322.715 350.378C323.447 350.378 324.062 350.188 324.561 349.807C325.059 349.416 325.435 348.796 325.688 347.946C325.942 347.097 326.069 345.974 326.069 344.577V339.992ZM332.69 335.773C332.69 334.963 332.866 334.226 333.218 333.562C333.579 332.897 334.097 332.365 334.771 331.965C335.444 331.564 336.26 331.364 337.217 331.364C338.193 331.364 339.019 331.564 339.692 331.965C340.366 332.365 340.879 332.897 341.23 333.562C341.582 334.226 341.758 334.963 341.758 335.773V336.901C341.758 337.692 341.582 338.42 341.23 339.084C340.879 339.748 340.366 340.28 339.692 340.681C339.028 341.081 338.213 341.281 337.246 341.281C336.279 341.281 335.454 341.081 334.771 340.681C334.097 340.28 333.579 339.748 333.218 339.084C332.866 338.42 332.69 337.692 332.69 336.901V335.773ZM335.21 336.901C335.21 337.282 335.283 337.644 335.43 337.985C335.576 338.317 335.801 338.591 336.104 338.806C336.406 339.011 336.787 339.113 337.246 339.113C337.705 339.113 338.081 339.011 338.374 338.806C338.667 338.591 338.882 338.317 339.019 337.985C339.165 337.644 339.238 337.282 339.238 336.901V335.773C339.238 335.383 339.165 335.017 339.019 334.675C338.872 334.333 338.647 334.06 338.345 333.854C338.052 333.64 337.676 333.532 337.217 333.532C336.768 333.532 336.392 333.64 336.089 333.854C335.796 334.06 335.576 334.333 335.43 334.675C335.283 335.017 335.21 335.383 335.21 335.773V336.901ZM342.959 347.771C342.959 346.97 343.135 346.237 343.486 345.573C343.848 344.909 344.365 344.377 345.039 343.977C345.713 343.576 346.528 343.376 347.485 343.376C348.472 343.376 349.297 343.576 349.961 343.977C350.635 344.377 351.147 344.909 351.499 345.573C351.851 346.237 352.026 346.97 352.026 347.771V348.913C352.026 349.714 351.851 350.446 351.499 351.11C351.157 351.774 350.649 352.307 349.976 352.707C349.312 353.107 348.491 353.308 347.515 353.308C346.548 353.308 345.723 353.107 345.039 352.707C344.365 352.307 343.848 351.774 343.486 351.11C343.135 350.446 342.959 349.714 342.959 348.913V347.771ZM345.464 348.913C345.464 349.294 345.542 349.655 345.698 349.997C345.864 350.339 346.099 350.612 346.401 350.817C346.714 351.022 347.085 351.125 347.515 351.125C348.013 351.125 348.403 351.022 348.687 350.817C348.979 350.612 349.189 350.344 349.316 350.012C349.453 349.67 349.521 349.304 349.521 348.913V347.771C349.521 347.185 349.351 346.667 349.009 346.218C348.677 345.769 348.169 345.544 347.485 345.544C346.812 345.544 346.304 345.769 345.962 346.218C345.63 346.667 345.464 347.185 345.464 347.771V348.913ZM337.979 351.389L336.133 350.334L346.548 333.664L348.394 334.719L337.979 351.389ZM366.191 353H362.559V337.15H365.972L366.191 340.534V353ZM364.375 344.519C364.385 342.985 364.653 341.647 365.181 340.505C365.708 339.353 366.445 338.459 367.393 337.824C368.34 337.18 369.443 336.857 370.703 336.857C371.729 336.857 372.617 337.053 373.369 337.443C374.121 337.824 374.707 338.449 375.127 339.318C375.547 340.178 375.757 341.335 375.757 342.79V353H372.109V342.761C372.109 342.028 372.002 341.447 371.787 341.018C371.582 340.588 371.27 340.285 370.85 340.109C370.439 339.924 369.937 339.831 369.341 339.831C368.735 339.831 368.198 339.953 367.729 340.197C367.271 340.432 366.875 340.764 366.543 341.193C366.221 341.623 365.972 342.121 365.796 342.688C365.63 343.254 365.547 343.859 365.547 344.504L364.375 344.519ZM388.223 342.292C388.223 341.472 387.993 340.817 387.534 340.329C387.085 339.841 386.401 339.597 385.483 339.597C384.937 339.597 384.458 339.694 384.048 339.89C383.638 340.075 383.32 340.329 383.096 340.651C382.871 340.974 382.759 341.34 382.759 341.75H379.126C379.126 340.9 379.395 340.104 379.932 339.362C380.469 338.61 381.226 338.005 382.202 337.546C383.188 337.087 384.351 336.857 385.688 336.857C386.88 336.857 387.939 337.058 388.867 337.458C389.795 337.858 390.522 338.464 391.05 339.274C391.587 340.085 391.855 341.101 391.855 342.321V349.309C391.855 350.051 391.909 350.705 392.017 351.271C392.124 351.838 392.275 352.331 392.471 352.751V353H388.75C388.584 352.619 388.452 352.126 388.354 351.521C388.267 350.915 388.223 350.324 388.223 349.748V342.292ZM388.779 345.588H386.289C385 345.588 384.028 345.827 383.374 346.306C382.729 346.774 382.407 347.414 382.407 348.225C382.407 348.85 382.622 349.372 383.052 349.792C383.481 350.202 384.087 350.407 384.868 350.407C385.581 350.407 386.201 350.266 386.729 349.982C387.266 349.689 387.686 349.333 387.988 348.913C388.291 348.483 388.447 348.083 388.457 347.712L389.614 349.338C389.497 349.738 389.297 350.168 389.014 350.627C388.74 351.076 388.374 351.506 387.915 351.916C387.466 352.316 386.929 352.648 386.304 352.912C385.688 353.166 384.971 353.293 384.15 353.293C383.115 353.293 382.192 353.088 381.382 352.678C380.571 352.268 379.932 351.706 379.463 350.993C379.004 350.271 378.774 349.46 378.774 348.562C378.774 346.882 379.404 345.593 380.664 344.694C381.924 343.796 383.711 343.347 386.025 343.347H388.75L388.779 345.588ZM402.871 339.831H393.877V337.15H402.871V339.831ZM400.059 333.269V348.532C400.059 349.021 400.127 349.392 400.264 349.646C400.4 349.89 400.596 350.056 400.85 350.144C401.104 350.231 401.396 350.275 401.729 350.275C401.973 350.275 402.207 350.261 402.432 350.231C402.656 350.202 402.837 350.173 402.974 350.144V352.941C402.681 353.039 402.339 353.122 401.948 353.19C401.567 353.259 401.118 353.293 400.601 353.293C399.79 353.293 399.067 353.146 398.433 352.854C397.808 352.561 397.314 352.087 396.953 351.433C396.602 350.769 396.426 349.89 396.426 348.796V333.269H400.059ZM415.044 337.15H418.677V353H415.249L415.044 349.25V337.15ZM416.758 345.91C416.758 347.336 416.548 348.605 416.128 349.719C415.708 350.822 415.054 351.696 414.165 352.341C413.276 352.976 412.124 353.293 410.708 353.293C409.146 353.293 407.881 352.834 406.914 351.916C405.947 350.998 405.464 349.489 405.464 347.39V337.15H409.097V347.419C409.097 348.151 409.209 348.732 409.434 349.162C409.668 349.582 409.976 349.88 410.356 350.056C410.737 350.231 411.157 350.319 411.616 350.319C412.603 350.319 413.379 350.129 413.945 349.748C414.521 349.357 414.932 348.83 415.176 348.166C415.42 347.502 415.542 346.76 415.542 345.939L416.758 345.91ZM425.884 353H422.251V337.15H425.708L425.884 340.256V353ZM430.659 340.49C430.435 340.451 430.195 340.422 429.941 340.402C429.697 340.383 429.453 340.373 429.209 340.373C428.408 340.373 427.739 340.52 427.202 340.812C426.675 341.096 426.274 341.506 426.001 342.043C425.728 342.57 425.566 343.195 425.518 343.918L424.683 343.933C424.683 342.595 424.858 341.394 425.21 340.329C425.562 339.265 426.089 338.42 426.792 337.795C427.495 337.17 428.374 336.857 429.429 336.857C429.634 336.857 429.863 336.877 430.117 336.916C430.371 336.955 430.562 336.999 430.688 337.048L430.659 340.49ZM441.514 342.292C441.514 341.472 441.284 340.817 440.825 340.329C440.376 339.841 439.692 339.597 438.774 339.597C438.228 339.597 437.749 339.694 437.339 339.89C436.929 340.075 436.611 340.329 436.387 340.651C436.162 340.974 436.05 341.34 436.05 341.75H432.417C432.417 340.9 432.686 340.104 433.223 339.362C433.76 338.61 434.517 338.005 435.493 337.546C436.479 337.087 437.642 336.857 438.979 336.857C440.171 336.857 441.23 337.058 442.158 337.458C443.086 337.858 443.813 338.464 444.341 339.274C444.878 340.085 445.146 341.101 445.146 342.321V349.309C445.146 350.051 445.2 350.705 445.308 351.271C445.415 351.838 445.566 352.331 445.762 352.751V353H442.041C441.875 352.619 441.743 352.126 441.646 351.521C441.558 350.915 441.514 350.324 441.514 349.748V342.292ZM442.07 345.588H439.58C438.291 345.588 437.319 345.827 436.665 346.306C436.021 346.774 435.698 347.414 435.698 348.225C435.698 348.85 435.913 349.372 436.343 349.792C436.772 350.202 437.378 350.407 438.159 350.407C438.872 350.407 439.492 350.266 440.02 349.982C440.557 349.689 440.977 349.333 441.279 348.913C441.582 348.483 441.738 348.083 441.748 347.712L442.905 349.338C442.788 349.738 442.588 350.168 442.305 350.627C442.031 351.076 441.665 351.506 441.206 351.916C440.757 352.316 440.22 352.648 439.595 352.912C438.979 353.166 438.262 353.293 437.441 353.293C436.406 353.293 435.483 353.088 434.673 352.678C433.862 352.268 433.223 351.706 432.754 350.993C432.295 350.271 432.065 349.46 432.065 348.562C432.065 346.882 432.695 345.593 433.955 344.694C435.215 343.796 437.002 343.347 439.316 343.347H442.041L442.07 345.588ZM452.69 353H449.058V330.5H452.69V353Z" fill="black"/>
<path d="M293.315 472.492C293.315 471.916 293.193 471.428 292.949 471.027C292.715 470.617 292.271 470.241 291.616 469.899C290.962 469.548 290.02 469.182 288.789 468.801C287.783 468.498 286.851 468.151 285.991 467.761C285.142 467.37 284.399 466.921 283.765 466.413C283.13 465.896 282.632 465.3 282.271 464.626C281.919 463.942 281.743 463.156 281.743 462.268C281.743 461.105 282.065 460.085 282.71 459.206C283.354 458.317 284.248 457.624 285.391 457.126C286.533 456.628 287.856 456.379 289.36 456.379C290.962 456.379 292.339 456.672 293.491 457.258C294.644 457.834 295.527 458.615 296.143 459.602C296.768 460.588 297.08 461.687 297.08 462.897H293.301C293.301 462.224 293.154 461.623 292.861 461.096C292.578 460.559 292.144 460.144 291.558 459.851C290.972 459.548 290.225 459.396 289.316 459.396C288.467 459.396 287.759 459.523 287.192 459.777C286.626 460.031 286.206 460.373 285.933 460.803C285.659 461.232 285.522 461.721 285.522 462.268C285.522 462.785 285.688 463.244 286.021 463.645C286.353 464.045 286.855 464.411 287.529 464.743C288.203 465.065 289.043 465.378 290.049 465.681C291.631 466.14 292.944 466.677 293.989 467.292C295.034 467.907 295.811 468.635 296.318 469.475C296.836 470.314 297.095 471.311 297.095 472.463C297.095 473.664 296.782 474.704 296.157 475.583C295.532 476.452 294.648 477.121 293.506 477.59C292.363 478.059 291.021 478.293 289.478 478.293C288.452 478.293 287.441 478.156 286.445 477.883C285.449 477.6 284.546 477.18 283.735 476.623C282.935 476.057 282.29 475.349 281.802 474.499C281.323 473.649 281.084 472.648 281.084 471.496H284.863C284.863 472.18 284.98 472.761 285.215 473.239C285.449 473.718 285.776 474.113 286.196 474.426C286.616 474.729 287.104 474.948 287.661 475.085C288.228 475.222 288.833 475.29 289.478 475.29C290.327 475.29 291.035 475.173 291.602 474.938C292.168 474.694 292.593 474.362 292.876 473.942C293.169 473.522 293.315 473.039 293.315 472.492ZM303.862 478H300.229V462.15H303.862V478ZM299.995 458.005C299.995 457.448 300.176 456.989 300.537 456.628C300.898 456.257 301.401 456.071 302.046 456.071C302.69 456.071 303.198 456.257 303.569 456.628C303.94 456.989 304.126 457.448 304.126 458.005C304.126 458.552 303.94 459.011 303.569 459.382C303.198 459.743 302.69 459.924 302.046 459.924C301.401 459.924 300.898 459.743 300.537 459.382C300.176 459.011 299.995 458.552 299.995 458.005ZM311.289 478H307.656V462.15H311.069L311.289 465.534V478ZM309.473 469.519C309.482 467.985 309.751 466.647 310.278 465.505C310.806 464.353 311.543 463.459 312.49 462.824C313.438 462.18 314.541 461.857 315.801 461.857C316.826 461.857 317.715 462.053 318.467 462.443C319.219 462.824 319.805 463.449 320.225 464.318C320.645 465.178 320.854 466.335 320.854 467.79V478H317.207V467.761C317.207 467.028 317.1 466.447 316.885 466.018C316.68 465.588 316.367 465.285 315.947 465.109C315.537 464.924 315.034 464.831 314.438 464.831C313.833 464.831 313.296 464.953 312.827 465.197C312.368 465.432 311.973 465.764 311.641 466.193C311.318 466.623 311.069 467.121 310.894 467.688C310.728 468.254 310.645 468.859 310.645 469.504L309.473 469.519ZM335.532 484.094H331.899V462.15H335.254L335.532 465.197V484.094ZM345.815 470.222C345.815 471.765 345.576 473.146 345.098 474.367C344.629 475.578 343.936 476.535 343.018 477.238C342.109 477.941 340.996 478.293 339.678 478.293C338.35 478.293 337.246 477.971 336.367 477.326C335.498 476.672 334.819 475.773 334.331 474.631C333.843 473.488 333.506 472.185 333.32 470.72V469.68C333.506 468.117 333.843 466.755 334.331 465.593C334.819 464.421 335.498 463.508 336.367 462.854C337.236 462.189 338.325 461.857 339.634 461.857C340.972 461.857 342.1 462.194 343.018 462.868C343.936 463.542 344.629 464.484 345.098 465.695C345.576 466.906 345.815 468.312 345.815 469.914V470.222ZM342.183 469.914C342.183 468.967 342.061 468.107 341.816 467.336C341.582 466.564 341.201 465.954 340.674 465.505C340.156 465.056 339.478 464.831 338.638 464.831C338.032 464.831 337.51 464.934 337.07 465.139C336.631 465.334 336.26 465.612 335.957 465.974C335.664 466.335 335.435 466.765 335.269 467.263C335.103 467.751 334.985 468.288 334.917 468.874V471.525C335.034 472.229 335.229 472.873 335.503 473.459C335.776 474.045 336.167 474.514 336.675 474.865C337.192 475.207 337.856 475.378 338.667 475.378C339.507 475.378 340.186 475.144 340.703 474.675C341.221 474.196 341.597 473.571 341.831 472.8C342.065 472.019 342.183 471.159 342.183 470.222V469.914ZM352.407 478H348.774V462.15H352.231L352.407 465.256V478ZM357.183 465.49C356.958 465.451 356.719 465.422 356.465 465.402C356.221 465.383 355.977 465.373 355.732 465.373C354.932 465.373 354.263 465.52 353.726 465.812C353.198 466.096 352.798 466.506 352.524 467.043C352.251 467.57 352.09 468.195 352.041 468.918L351.206 468.933C351.206 467.595 351.382 466.394 351.733 465.329C352.085 464.265 352.612 463.42 353.315 462.795C354.019 462.17 354.897 461.857 355.952 461.857C356.157 461.857 356.387 461.877 356.641 461.916C356.895 461.955 357.085 461.999 357.212 462.048L357.183 465.49ZM366.426 478.293C364.854 478.293 363.496 477.956 362.354 477.282C361.211 476.599 360.332 475.681 359.717 474.528C359.102 473.366 358.794 472.067 358.794 470.632V470.031C358.794 468.381 359.106 466.945 359.731 465.725C360.356 464.494 361.211 463.542 362.295 462.868C363.389 462.194 364.624 461.857 366.001 461.857C367.524 461.857 368.789 462.189 369.795 462.854C370.801 463.508 371.553 464.421 372.051 465.593C372.549 466.755 372.798 468.103 372.798 469.636V471.203H360.537V468.581H369.209V468.303C369.189 467.688 369.072 467.111 368.857 466.574C368.643 466.037 368.301 465.603 367.832 465.271C367.373 464.938 366.758 464.772 365.986 464.772C365.215 464.772 364.565 464.992 364.038 465.432C363.511 465.861 363.11 466.472 362.837 467.263C362.563 468.044 362.427 468.967 362.427 470.031V470.632C362.427 471.53 362.593 472.336 362.925 473.049C363.257 473.762 363.74 474.328 364.375 474.748C365.01 475.158 365.767 475.363 366.646 475.363C367.495 475.363 368.247 475.197 368.901 474.865C369.565 474.533 370.137 474.055 370.615 473.43L372.52 475.334C372.021 476.086 371.27 476.77 370.264 477.385C369.268 477.99 367.988 478.293 366.426 478.293ZM384.37 473.679C384.37 473.347 384.282 473.044 384.106 472.771C383.94 472.497 383.613 472.243 383.125 472.009C382.637 471.774 381.919 471.56 380.972 471.364C379.849 471.13 378.857 470.817 377.998 470.427C377.148 470.036 376.484 469.533 376.006 468.918C375.537 468.303 375.303 467.551 375.303 466.662C375.303 465.803 375.547 465.012 376.035 464.289C376.533 463.557 377.241 462.971 378.159 462.531C379.087 462.082 380.181 461.857 381.44 461.857C382.769 461.857 383.911 462.082 384.868 462.531C385.825 462.971 386.558 463.571 387.065 464.333C387.583 465.085 387.842 465.939 387.842 466.896H384.209C384.209 466.271 383.975 465.725 383.506 465.256C383.047 464.777 382.354 464.538 381.426 464.538C380.85 464.538 380.366 464.631 379.976 464.816C379.595 465.002 379.307 465.241 379.111 465.534C378.926 465.827 378.833 466.149 378.833 466.501C378.833 466.843 378.926 467.141 379.111 467.395C379.307 467.648 379.634 467.873 380.093 468.068C380.562 468.264 381.216 468.449 382.056 468.625C383.267 468.879 384.312 469.201 385.19 469.592C386.069 469.973 386.743 470.48 387.212 471.115C387.69 471.74 387.93 472.536 387.93 473.503C387.93 474.431 387.661 475.256 387.124 475.979C386.597 476.701 385.85 477.268 384.883 477.678C383.926 478.088 382.793 478.293 381.484 478.293C380.029 478.293 378.804 478.034 377.808 477.517C376.812 476.999 376.055 476.34 375.537 475.539C375.029 474.729 374.775 473.889 374.775 473.02H378.276C378.315 473.645 378.491 474.147 378.804 474.528C379.126 474.909 379.526 475.188 380.005 475.363C380.493 475.529 381.001 475.612 381.528 475.612C382.153 475.612 382.671 475.529 383.081 475.363C383.501 475.197 383.818 474.973 384.033 474.689C384.258 474.396 384.37 474.06 384.37 473.679ZM398.008 478.293C396.436 478.293 395.078 477.956 393.936 477.282C392.793 476.599 391.914 475.681 391.299 474.528C390.684 473.366 390.376 472.067 390.376 470.632V470.031C390.376 468.381 390.688 466.945 391.313 465.725C391.938 464.494 392.793 463.542 393.877 462.868C394.971 462.194 396.206 461.857 397.583 461.857C399.106 461.857 400.371 462.189 401.377 462.854C402.383 463.508 403.135 464.421 403.633 465.593C404.131 466.755 404.38 468.103 404.38 469.636V471.203H392.119V468.581H400.791V468.303C400.771 467.688 400.654 467.111 400.439 466.574C400.225 466.037 399.883 465.603 399.414 465.271C398.955 464.938 398.34 464.772 397.568 464.772C396.797 464.772 396.147 464.992 395.62 465.432C395.093 465.861 394.692 466.472 394.419 467.263C394.146 468.044 394.009 468.967 394.009 470.031V470.632C394.009 471.53 394.175 472.336 394.507 473.049C394.839 473.762 395.322 474.328 395.957 474.748C396.592 475.158 397.349 475.363 398.228 475.363C399.077 475.363 399.829 475.197 400.483 474.865C401.147 474.533 401.719 474.055 402.197 473.43L404.102 475.334C403.604 476.086 402.852 476.77 401.846 477.385C400.85 477.99 399.57 478.293 398.008 478.293ZM410.737 478H407.104V462.15H410.562L410.737 465.256V478ZM415.513 465.49C415.288 465.451 415.049 465.422 414.795 465.402C414.551 465.383 414.307 465.373 414.062 465.373C413.262 465.373 412.593 465.52 412.056 465.812C411.528 466.096 411.128 466.506 410.854 467.043C410.581 467.57 410.42 468.195 410.371 468.918L409.536 468.933C409.536 467.595 409.712 466.394 410.063 465.329C410.415 464.265 410.942 463.42 411.646 462.795C412.349 462.17 413.228 461.857 414.282 461.857C414.487 461.857 414.717 461.877 414.971 461.916C415.225 461.955 415.415 461.999 415.542 462.048L415.513 465.49ZM427.07 462.15H430.835L425.356 478H423.013L423.247 475.129L427.07 462.15ZM424.272 475.173L424.448 478H422.119L416.597 462.15H420.376L424.272 475.173ZM441.631 467.292C441.631 466.472 441.401 465.817 440.942 465.329C440.493 464.841 439.81 464.597 438.892 464.597C438.345 464.597 437.866 464.694 437.456 464.89C437.046 465.075 436.729 465.329 436.504 465.651C436.279 465.974 436.167 466.34 436.167 466.75H432.534C432.534 465.9 432.803 465.104 433.34 464.362C433.877 463.61 434.634 463.005 435.61 462.546C436.597 462.087 437.759 461.857 439.097 461.857C440.288 461.857 441.348 462.058 442.275 462.458C443.203 462.858 443.931 463.464 444.458 464.274C444.995 465.085 445.264 466.101 445.264 467.321V474.309C445.264 475.051 445.317 475.705 445.425 476.271C445.532 476.838 445.684 477.331 445.879 477.751V478H442.158C441.992 477.619 441.86 477.126 441.763 476.521C441.675 475.915 441.631 475.324 441.631 474.748V467.292ZM442.188 470.588H439.697C438.408 470.588 437.437 470.827 436.782 471.306C436.138 471.774 435.815 472.414 435.815 473.225C435.815 473.85 436.03 474.372 436.46 474.792C436.89 475.202 437.495 475.407 438.276 475.407C438.989 475.407 439.609 475.266 440.137 474.982C440.674 474.689 441.094 474.333 441.396 473.913C441.699 473.483 441.855 473.083 441.865 472.712L443.022 474.338C442.905 474.738 442.705 475.168 442.422 475.627C442.148 476.076 441.782 476.506 441.323 476.916C440.874 477.316 440.337 477.648 439.712 477.912C439.097 478.166 438.379 478.293 437.559 478.293C436.523 478.293 435.601 478.088 434.79 477.678C433.979 477.268 433.34 476.706 432.871 475.993C432.412 475.271 432.183 474.46 432.183 473.562C432.183 471.882 432.812 470.593 434.072 469.694C435.332 468.796 437.119 468.347 439.434 468.347H442.158L442.188 470.588ZM452.529 478H448.896V462.15H452.31L452.529 465.534V478ZM450.713 469.519C450.723 467.985 450.991 466.647 451.519 465.505C452.046 464.353 452.783 463.459 453.73 462.824C454.678 462.18 455.781 461.857 457.041 461.857C458.066 461.857 458.955 462.053 459.707 462.443C460.459 462.824 461.045 463.449 461.465 464.318C461.885 465.178 462.095 466.335 462.095 467.79V478H458.447V467.761C458.447 467.028 458.34 466.447 458.125 466.018C457.92 465.588 457.607 465.285 457.188 465.109C456.777 464.924 456.274 464.831 455.679 464.831C455.073 464.831 454.536 464.953 454.067 465.197C453.608 465.432 453.213 465.764 452.881 466.193C452.559 466.623 452.31 467.121 452.134 467.688C451.968 468.254 451.885 468.859 451.885 469.504L450.713 469.519ZM473.008 464.831H464.014V462.15H473.008V464.831ZM470.195 458.269V473.532C470.195 474.021 470.264 474.392 470.4 474.646C470.537 474.89 470.732 475.056 470.986 475.144C471.24 475.231 471.533 475.275 471.865 475.275C472.109 475.275 472.344 475.261 472.568 475.231C472.793 475.202 472.974 475.173 473.11 475.144V477.941C472.817 478.039 472.476 478.122 472.085 478.19C471.704 478.259 471.255 478.293 470.737 478.293C469.927 478.293 469.204 478.146 468.569 477.854C467.944 477.561 467.451 477.087 467.09 476.433C466.738 475.769 466.562 474.89 466.562 473.796V458.269H470.195ZM482.705 478.293C481.133 478.293 479.775 477.956 478.633 477.282C477.49 476.599 476.611 475.681 475.996 474.528C475.381 473.366 475.073 472.067 475.073 470.632V470.031C475.073 468.381 475.386 466.945 476.011 465.725C476.636 464.494 477.49 463.542 478.574 462.868C479.668 462.194 480.903 461.857 482.28 461.857C483.804 461.857 485.068 462.189 486.074 462.854C487.08 463.508 487.832 464.421 488.33 465.593C488.828 466.755 489.077 468.103 489.077 469.636V471.203H476.816V468.581H485.488V468.303C485.469 467.688 485.352 467.111 485.137 466.574C484.922 466.037 484.58 465.603 484.111 465.271C483.652 464.938 483.037 464.772 482.266 464.772C481.494 464.772 480.845 464.992 480.317 465.432C479.79 465.861 479.39 466.472 479.116 467.263C478.843 468.044 478.706 468.967 478.706 470.031V470.632C478.706 471.53 478.872 472.336 479.204 473.049C479.536 473.762 480.02 474.328 480.654 474.748C481.289 475.158 482.046 475.363 482.925 475.363C483.774 475.363 484.526 475.197 485.181 474.865C485.845 474.533 486.416 474.055 486.895 473.43L488.799 475.334C488.301 476.086 487.549 476.77 486.543 477.385C485.547 477.99 484.268 478.293 482.705 478.293ZM500.649 473.679C500.649 473.347 500.562 473.044 500.386 472.771C500.22 472.497 499.893 472.243 499.404 472.009C498.916 471.774 498.198 471.56 497.251 471.364C496.128 471.13 495.137 470.817 494.277 470.427C493.428 470.036 492.764 469.533 492.285 468.918C491.816 468.303 491.582 467.551 491.582 466.662C491.582 465.803 491.826 465.012 492.314 464.289C492.812 463.557 493.521 462.971 494.438 462.531C495.366 462.082 496.46 461.857 497.72 461.857C499.048 461.857 500.19 462.082 501.147 462.531C502.104 462.971 502.837 463.571 503.345 464.333C503.862 465.085 504.121 465.939 504.121 466.896H500.488C500.488 466.271 500.254 465.725 499.785 465.256C499.326 464.777 498.633 464.538 497.705 464.538C497.129 464.538 496.646 464.631 496.255 464.816C495.874 465.002 495.586 465.241 495.391 465.534C495.205 465.827 495.112 466.149 495.112 466.501C495.112 466.843 495.205 467.141 495.391 467.395C495.586 467.648 495.913 467.873 496.372 468.068C496.841 468.264 497.495 468.449 498.335 468.625C499.546 468.879 500.591 469.201 501.47 469.592C502.349 469.973 503.022 470.48 503.491 471.115C503.97 471.74 504.209 472.536 504.209 473.503C504.209 474.431 503.94 475.256 503.403 475.979C502.876 476.701 502.129 477.268 501.162 477.678C500.205 478.088 499.072 478.293 497.764 478.293C496.309 478.293 495.083 478.034 494.087 477.517C493.091 476.999 492.334 476.34 491.816 475.539C491.309 474.729 491.055 473.889 491.055 473.02H494.556C494.595 473.645 494.771 474.147 495.083 474.528C495.405 474.909 495.806 475.188 496.284 475.363C496.772 475.529 497.28 475.612 497.808 475.612C498.433 475.612 498.95 475.529 499.36 475.363C499.78 475.197 500.098 474.973 500.312 474.689C500.537 474.396 500.649 474.06 500.649 473.679Z" fill="black"/>
<path d="M295.557 599H284.863V595.968H295.557V599ZM285.918 599H282.139V577.672H285.918V599ZM301.899 599H298.267V583.15H301.899V599ZM298.032 579.005C298.032 578.448 298.213 577.989 298.574 577.628C298.936 577.257 299.438 577.071 300.083 577.071C300.728 577.071 301.235 577.257 301.606 577.628C301.978 577.989 302.163 578.448 302.163 579.005C302.163 579.552 301.978 580.011 301.606 580.382C301.235 580.743 300.728 580.924 300.083 580.924C299.438 580.924 298.936 580.743 298.574 580.382C298.213 580.011 298.032 579.552 298.032 579.005ZM314.585 594.679C314.585 594.347 314.497 594.044 314.321 593.771C314.155 593.497 313.828 593.243 313.34 593.009C312.852 592.774 312.134 592.56 311.187 592.364C310.063 592.13 309.072 591.817 308.213 591.427C307.363 591.036 306.699 590.533 306.221 589.918C305.752 589.303 305.518 588.551 305.518 587.662C305.518 586.803 305.762 586.012 306.25 585.289C306.748 584.557 307.456 583.971 308.374 583.531C309.302 583.082 310.396 582.857 311.655 582.857C312.983 582.857 314.126 583.082 315.083 583.531C316.04 583.971 316.772 584.571 317.28 585.333C317.798 586.085 318.057 586.939 318.057 587.896H314.424C314.424 587.271 314.189 586.725 313.721 586.256C313.262 585.777 312.568 585.538 311.641 585.538C311.064 585.538 310.581 585.631 310.19 585.816C309.81 586.002 309.521 586.241 309.326 586.534C309.141 586.827 309.048 587.149 309.048 587.501C309.048 587.843 309.141 588.141 309.326 588.395C309.521 588.648 309.849 588.873 310.308 589.068C310.776 589.264 311.431 589.449 312.271 589.625C313.481 589.879 314.526 590.201 315.405 590.592C316.284 590.973 316.958 591.48 317.427 592.115C317.905 592.74 318.145 593.536 318.145 594.503C318.145 595.431 317.876 596.256 317.339 596.979C316.812 597.701 316.064 598.268 315.098 598.678C314.141 599.088 313.008 599.293 311.699 599.293C310.244 599.293 309.019 599.034 308.022 598.517C307.026 597.999 306.27 597.34 305.752 596.539C305.244 595.729 304.99 594.889 304.99 594.02H308.491C308.53 594.645 308.706 595.147 309.019 595.528C309.341 595.909 309.741 596.188 310.22 596.363C310.708 596.529 311.216 596.612 311.743 596.612C312.368 596.612 312.886 596.529 313.296 596.363C313.716 596.197 314.033 595.973 314.248 595.689C314.473 595.396 314.585 595.06 314.585 594.679ZM328.545 585.831H319.551V583.15H328.545V585.831ZM325.732 579.269V594.532C325.732 595.021 325.801 595.392 325.938 595.646C326.074 595.89 326.27 596.056 326.523 596.144C326.777 596.231 327.07 596.275 327.402 596.275C327.646 596.275 327.881 596.261 328.105 596.231C328.33 596.202 328.511 596.173 328.647 596.144V598.941C328.354 599.039 328.013 599.122 327.622 599.19C327.241 599.259 326.792 599.293 326.274 599.293C325.464 599.293 324.741 599.146 324.106 598.854C323.481 598.561 322.988 598.087 322.627 597.433C322.275 596.769 322.1 595.89 322.1 594.796V579.269H325.732ZM330.171 590.929C330.171 589.386 330.464 588.009 331.05 586.798C331.636 585.587 332.476 584.63 333.569 583.927C334.673 583.214 335.996 582.857 337.539 582.857C339.102 582.857 340.435 583.214 341.538 583.927C342.642 584.63 343.481 585.587 344.058 586.798C344.644 588.009 344.937 589.386 344.937 590.929V591.236C344.937 592.77 344.644 594.146 344.058 595.367C343.481 596.578 342.642 597.535 341.538 598.238C340.444 598.941 339.121 599.293 337.568 599.293C336.016 599.293 334.688 598.941 333.584 598.238C332.48 597.535 331.636 596.578 331.05 595.367C330.464 594.146 330.171 592.77 330.171 591.236V590.929ZM333.804 591.236C333.804 592.174 333.936 593.033 334.199 593.814C334.463 594.586 334.868 595.206 335.415 595.675C335.972 596.144 336.689 596.378 337.568 596.378C338.438 596.378 339.146 596.144 339.692 595.675C340.249 595.206 340.654 594.586 340.908 593.814C341.172 593.033 341.304 592.174 341.304 591.236V590.929C341.304 590.001 341.172 589.146 340.908 588.365C340.654 587.584 340.249 586.959 339.692 586.49C339.136 586.012 338.418 585.772 337.539 585.772C336.67 585.772 335.957 586.012 335.4 586.49C334.854 586.959 334.448 587.584 334.185 588.365C333.931 589.146 333.804 590.001 333.804 590.929V591.236ZM358.999 605.094H355.366V583.15H358.721L358.999 586.197V605.094ZM369.282 591.222C369.282 592.765 369.043 594.146 368.564 595.367C368.096 596.578 367.402 597.535 366.484 598.238C365.576 598.941 364.463 599.293 363.145 599.293C361.816 599.293 360.713 598.971 359.834 598.326C358.965 597.672 358.286 596.773 357.798 595.631C357.31 594.488 356.973 593.185 356.787 591.72V590.68C356.973 589.117 357.31 587.755 357.798 586.593C358.286 585.421 358.965 584.508 359.834 583.854C360.703 583.189 361.792 582.857 363.101 582.857C364.438 582.857 365.566 583.194 366.484 583.868C367.402 584.542 368.096 585.484 368.564 586.695C369.043 587.906 369.282 589.312 369.282 590.914V591.222ZM365.649 590.914C365.649 589.967 365.527 589.107 365.283 588.336C365.049 587.564 364.668 586.954 364.141 586.505C363.623 586.056 362.944 585.831 362.104 585.831C361.499 585.831 360.977 585.934 360.537 586.139C360.098 586.334 359.727 586.612 359.424 586.974C359.131 587.335 358.901 587.765 358.735 588.263C358.569 588.751 358.452 589.288 358.384 589.874V592.525C358.501 593.229 358.696 593.873 358.97 594.459C359.243 595.045 359.634 595.514 360.142 595.865C360.659 596.207 361.323 596.378 362.134 596.378C362.974 596.378 363.652 596.144 364.17 595.675C364.688 595.196 365.063 594.571 365.298 593.8C365.532 593.019 365.649 592.159 365.649 591.222V590.914ZM381.133 588.292C381.133 587.472 380.903 586.817 380.444 586.329C379.995 585.841 379.312 585.597 378.394 585.597C377.847 585.597 377.368 585.694 376.958 585.89C376.548 586.075 376.23 586.329 376.006 586.651C375.781 586.974 375.669 587.34 375.669 587.75H372.036C372.036 586.9 372.305 586.104 372.842 585.362C373.379 584.61 374.136 584.005 375.112 583.546C376.099 583.087 377.261 582.857 378.599 582.857C379.79 582.857 380.85 583.058 381.777 583.458C382.705 583.858 383.433 584.464 383.96 585.274C384.497 586.085 384.766 587.101 384.766 588.321V595.309C384.766 596.051 384.819 596.705 384.927 597.271C385.034 597.838 385.186 598.331 385.381 598.751V599H381.66C381.494 598.619 381.362 598.126 381.265 597.521C381.177 596.915 381.133 596.324 381.133 595.748V588.292ZM381.689 591.588H379.199C377.91 591.588 376.938 591.827 376.284 592.306C375.64 592.774 375.317 593.414 375.317 594.225C375.317 594.85 375.532 595.372 375.962 595.792C376.392 596.202 376.997 596.407 377.778 596.407C378.491 596.407 379.111 596.266 379.639 595.982C380.176 595.689 380.596 595.333 380.898 594.913C381.201 594.483 381.357 594.083 381.367 593.712L382.524 595.338C382.407 595.738 382.207 596.168 381.924 596.627C381.65 597.076 381.284 597.506 380.825 597.916C380.376 598.316 379.839 598.648 379.214 598.912C378.599 599.166 377.881 599.293 377.061 599.293C376.025 599.293 375.103 599.088 374.292 598.678C373.481 598.268 372.842 597.706 372.373 596.993C371.914 596.271 371.685 595.46 371.685 594.562C371.685 592.882 372.314 591.593 373.574 590.694C374.834 589.796 376.621 589.347 378.936 589.347H381.66L381.689 591.588ZM392.075 599H388.442V583.15H391.899L392.075 586.256V599ZM396.851 586.49C396.626 586.451 396.387 586.422 396.133 586.402C395.889 586.383 395.645 586.373 395.4 586.373C394.6 586.373 393.931 586.52 393.394 586.812C392.866 587.096 392.466 587.506 392.192 588.043C391.919 588.57 391.758 589.195 391.709 589.918L390.874 589.933C390.874 588.595 391.05 587.394 391.401 586.329C391.753 585.265 392.28 584.42 392.983 583.795C393.687 583.17 394.565 582.857 395.62 582.857C395.825 582.857 396.055 582.877 396.309 582.916C396.562 582.955 396.753 582.999 396.88 583.048L396.851 586.49ZM407.705 588.292C407.705 587.472 407.476 586.817 407.017 586.329C406.567 585.841 405.884 585.597 404.966 585.597C404.419 585.597 403.94 585.694 403.53 585.89C403.12 586.075 402.803 586.329 402.578 586.651C402.354 586.974 402.241 587.34 402.241 587.75H398.608C398.608 586.9 398.877 586.104 399.414 585.362C399.951 584.61 400.708 584.005 401.685 583.546C402.671 583.087 403.833 582.857 405.171 582.857C406.362 582.857 407.422 583.058 408.35 583.458C409.277 583.858 410.005 584.464 410.532 585.274C411.069 586.085 411.338 587.101 411.338 588.321V595.309C411.338 596.051 411.392 596.705 411.499 597.271C411.606 597.838 411.758 598.331 411.953 598.751V599H408.232C408.066 598.619 407.935 598.126 407.837 597.521C407.749 596.915 407.705 596.324 407.705 595.748V588.292ZM408.262 591.588H405.771C404.482 591.588 403.511 591.827 402.856 592.306C402.212 592.774 401.89 593.414 401.89 594.225C401.89 594.85 402.104 595.372 402.534 595.792C402.964 596.202 403.569 596.407 404.351 596.407C405.063 596.407 405.684 596.266 406.211 595.982C406.748 595.689 407.168 595.333 407.471 594.913C407.773 594.483 407.93 594.083 407.939 593.712L409.097 595.338C408.979 595.738 408.779 596.168 408.496 596.627C408.223 597.076 407.856 597.506 407.397 597.916C406.948 598.316 406.411 598.648 405.786 598.912C405.171 599.166 404.453 599.293 403.633 599.293C402.598 599.293 401.675 599.088 400.864 598.678C400.054 598.268 399.414 597.706 398.945 596.993C398.486 596.271 398.257 595.46 398.257 594.562C398.257 592.882 398.887 591.593 400.146 590.694C401.406 589.796 403.193 589.347 405.508 589.347H408.232L408.262 591.588ZM428.989 596.378C429.556 596.378 430.068 596.266 430.527 596.041C430.986 595.807 431.353 595.489 431.626 595.089C431.899 594.688 432.051 594.229 432.08 593.712H435.508C435.479 594.757 435.171 595.699 434.585 596.539C433.999 597.379 433.223 598.048 432.256 598.546C431.289 599.044 430.21 599.293 429.019 599.293C427.407 599.293 426.064 598.937 424.99 598.224C423.926 597.501 423.13 596.539 422.603 595.338C422.075 594.127 421.812 592.789 421.812 591.324V590.826C421.812 589.361 422.075 588.028 422.603 586.827C423.13 585.616 423.926 584.654 424.99 583.941C426.064 583.219 427.407 582.857 429.019 582.857C430.298 582.857 431.416 583.111 432.373 583.619C433.34 584.117 434.097 584.815 434.644 585.714C435.19 586.612 435.479 587.662 435.508 588.863H432.08C432.051 588.297 431.909 587.779 431.655 587.311C431.411 586.842 431.06 586.471 430.601 586.197C430.151 585.914 429.609 585.772 428.975 585.772C428.037 585.772 427.31 586.017 426.792 586.505C426.284 586.993 425.933 587.623 425.737 588.395C425.542 589.166 425.444 589.977 425.444 590.826V591.324C425.444 592.184 425.537 592.999 425.723 593.771C425.918 594.542 426.274 595.172 426.792 595.66C427.31 596.139 428.042 596.378 428.989 596.378ZM437.515 590.929C437.515 589.386 437.808 588.009 438.394 586.798C438.979 585.587 439.819 584.63 440.913 583.927C442.017 583.214 443.34 582.857 444.883 582.857C446.445 582.857 447.778 583.214 448.882 583.927C449.985 584.63 450.825 585.587 451.401 586.798C451.987 588.009 452.28 589.386 452.28 590.929V591.236C452.28 592.77 451.987 594.146 451.401 595.367C450.825 596.578 449.985 597.535 448.882 598.238C447.788 598.941 446.465 599.293 444.912 599.293C443.359 599.293 442.031 598.941 440.928 598.238C439.824 597.535 438.979 596.578 438.394 595.367C437.808 594.146 437.515 592.77 437.515 591.236V590.929ZM441.147 591.236C441.147 592.174 441.279 593.033 441.543 593.814C441.807 594.586 442.212 595.206 442.759 595.675C443.315 596.144 444.033 596.378 444.912 596.378C445.781 596.378 446.489 596.144 447.036 595.675C447.593 595.206 447.998 594.586 448.252 593.814C448.516 593.033 448.647 592.174 448.647 591.236V590.929C448.647 590.001 448.516 589.146 448.252 588.365C447.998 587.584 447.593 586.959 447.036 586.49C446.479 586.012 445.762 585.772 444.883 585.772C444.014 585.772 443.301 586.012 442.744 586.49C442.197 586.959 441.792 587.584 441.528 588.365C441.274 589.146 441.147 590.001 441.147 590.929V591.236ZM458.828 599H455.195V583.15H458.608L458.828 586.534V599ZM457.012 590.519C457.021 588.985 457.29 587.647 457.817 586.505C458.345 585.353 459.082 584.459 460.029 583.824C460.977 583.18 462.08 582.857 463.34 582.857C464.365 582.857 465.254 583.053 466.006 583.443C466.758 583.824 467.344 584.449 467.764 585.318C468.184 586.178 468.394 587.335 468.394 588.79V599H464.746V588.761C464.746 588.028 464.639 587.447 464.424 587.018C464.219 586.588 463.906 586.285 463.486 586.109C463.076 585.924 462.573 585.831 461.978 585.831C461.372 585.831 460.835 585.953 460.366 586.197C459.907 586.432 459.512 586.764 459.18 587.193C458.857 587.623 458.608 588.121 458.433 588.688C458.267 589.254 458.184 589.859 458.184 590.504L457.012 590.519ZM480.815 594.679C480.815 594.347 480.728 594.044 480.552 593.771C480.386 593.497 480.059 593.243 479.57 593.009C479.082 592.774 478.364 592.56 477.417 592.364C476.294 592.13 475.303 591.817 474.443 591.427C473.594 591.036 472.93 590.533 472.451 589.918C471.982 589.303 471.748 588.551 471.748 587.662C471.748 586.803 471.992 586.012 472.48 585.289C472.979 584.557 473.687 583.971 474.604 583.531C475.532 583.082 476.626 582.857 477.886 582.857C479.214 582.857 480.356 583.082 481.313 583.531C482.271 583.971 483.003 584.571 483.511 585.333C484.028 586.085 484.287 586.939 484.287 587.896H480.654C480.654 587.271 480.42 586.725 479.951 586.256C479.492 585.777 478.799 585.538 477.871 585.538C477.295 585.538 476.812 585.631 476.421 585.816C476.04 586.002 475.752 586.241 475.557 586.534C475.371 586.827 475.278 587.149 475.278 587.501C475.278 587.843 475.371 588.141 475.557 588.395C475.752 588.648 476.079 588.873 476.538 589.068C477.007 589.264 477.661 589.449 478.501 589.625C479.712 589.879 480.757 590.201 481.636 590.592C482.515 590.973 483.188 591.48 483.657 592.115C484.136 592.74 484.375 593.536 484.375 594.503C484.375 595.431 484.106 596.256 483.569 596.979C483.042 597.701 482.295 598.268 481.328 598.678C480.371 599.088 479.238 599.293 477.93 599.293C476.475 599.293 475.249 599.034 474.253 598.517C473.257 597.999 472.5 597.34 471.982 596.539C471.475 595.729 471.221 594.889 471.221 594.02H474.722C474.761 594.645 474.937 595.147 475.249 595.528C475.571 595.909 475.972 596.188 476.45 596.363C476.938 596.529 477.446 596.612 477.974 596.612C478.599 596.612 479.116 596.529 479.526 596.363C479.946 596.197 480.264 595.973 480.479 595.689C480.703 595.396 480.815 595.06 480.815 594.679ZM496.929 583.15H500.562V599H497.134L496.929 595.25V583.15ZM498.643 591.91C498.643 593.336 498.433 594.605 498.013 595.719C497.593 596.822 496.938 597.696 496.05 598.341C495.161 598.976 494.009 599.293 492.593 599.293C491.03 599.293 489.766 598.834 488.799 597.916C487.832 596.998 487.349 595.489 487.349 593.39V583.15H490.981V593.419C490.981 594.151 491.094 594.732 491.318 595.162C491.553 595.582 491.86 595.88 492.241 596.056C492.622 596.231 493.042 596.319 493.501 596.319C494.487 596.319 495.264 596.129 495.83 595.748C496.406 595.357 496.816 594.83 497.061 594.166C497.305 593.502 497.427 592.76 497.427 591.939L498.643 591.91ZM507.769 599H504.121V583.15H507.549L507.769 586.388V599ZM505.938 590.519C505.938 589.044 506.172 587.73 506.641 586.578C507.119 585.426 507.827 584.518 508.765 583.854C509.702 583.189 510.869 582.857 512.266 582.857C513.701 582.857 514.883 583.292 515.811 584.161C516.738 585.03 517.202 586.456 517.202 588.438V599H513.569V588.775C513.569 588.033 513.452 587.447 513.218 587.018C512.993 586.588 512.671 586.285 512.251 586.109C511.841 585.924 511.348 585.831 510.771 585.831C510.117 585.831 509.561 585.953 509.102 586.197C508.652 586.432 508.286 586.764 508.003 587.193C507.72 587.623 507.51 588.121 507.373 588.688C507.246 589.254 507.183 589.859 507.183 590.504L505.938 590.519ZM515.269 590.006C515.278 588.707 515.518 587.516 515.986 586.432C516.455 585.348 517.148 584.483 518.066 583.839C518.984 583.185 520.117 582.857 521.465 582.857C522.539 582.857 523.462 583.058 524.233 583.458C525.005 583.849 525.601 584.479 526.021 585.348C526.44 586.207 526.65 587.35 526.65 588.775V599H523.003V588.746C523.003 587.975 522.886 587.379 522.651 586.959C522.427 586.529 522.104 586.236 521.685 586.08C521.274 585.914 520.786 585.831 520.22 585.831C519.683 585.831 519.209 585.929 518.799 586.124C518.398 586.319 518.062 586.593 517.788 586.944C517.524 587.286 517.319 587.691 517.173 588.16C517.036 588.619 516.968 589.117 516.968 589.654L515.269 590.006ZM534.106 599H530.474V583.15H534.106V599ZM530.239 579.005C530.239 578.448 530.42 577.989 530.781 577.628C531.143 577.257 531.646 577.071 532.29 577.071C532.935 577.071 533.442 577.257 533.813 577.628C534.185 577.989 534.37 578.448 534.37 579.005C534.37 579.552 534.185 580.011 533.813 580.382C533.442 580.743 532.935 580.924 532.29 580.924C531.646 580.924 531.143 580.743 530.781 580.382C530.42 580.011 530.239 579.552 530.239 579.005ZM541.577 599H537.944V583.15H541.401L541.577 586.256V599ZM546.353 586.49C546.128 586.451 545.889 586.422 545.635 586.402C545.391 586.383 545.146 586.373 544.902 586.373C544.102 586.373 543.433 586.52 542.896 586.812C542.368 587.096 541.968 587.506 541.694 588.043C541.421 588.57 541.26 589.195 541.211 589.918L540.376 589.933C540.376 588.595 540.552 587.394 540.903 586.329C541.255 585.265 541.782 584.42 542.485 583.795C543.188 583.17 544.067 582.857 545.122 582.857C545.327 582.857 545.557 582.877 545.811 582.916C546.064 582.955 546.255 582.999 546.382 583.048L546.353 586.49Z" fill="black"/>
<path d="M237 369C250.807 369 262 357.583 262 343.5C262 329.417 250.807 318 237 318C223.193 318 212 329.417 212 343.5C212 357.583 223.193 369 237 369Z" fill="#0200CD"/>
<path d="M238 275L238 635L238 785" stroke="#0200CD" stroke-width="3"/>
<path d="M77.1144 185.222L77.1144 185.222L77.1126 185.219C75.7939 183.297 74.8763 180.862 74.2631 178.009C73.8532 176.067 73.7541 175.008 73.7789 174.402C73.7912 174.101 73.834 173.918 73.8807 173.796C73.9202 173.693 73.9633 173.629 74.0093 173.562C74.0145 173.554 74.0198 173.547 74.0251 173.539C74.1706 173.395 74.3065 173.285 74.4343 173.221C74.562 173.158 74.6712 173.145 74.7739 173.179L74.7956 173.186L74.8185 173.187C82.909 173.493 88.1796 175.739 90.7031 179.562C91.9156 181.477 92.3197 183.493 92.3197 185.105C92.3197 186.42 92.1167 187.531 91.9154 188.234L91.8922 188.315L91.9456 188.38C92.8891 189.53 95.9089 192.739 102.44 192.533L102.54 192.533C102.881 192.533 103.228 192.522 103.584 192.511C104.319 192.488 105.089 192.464 105.914 192.533L105.914 192.533L105.928 192.533C106.558 192.533 106.999 192.974 106.999 193.601L106.999 193.602L106.999 193.602L106.999 193.603L106.999 193.603L106.999 193.604L106.999 193.605L106.999 193.605L106.999 193.606L106.999 193.606L106.999 193.607L106.999 193.608L106.999 193.608L106.999 193.609L106.999 193.609L106.999 193.61L106.999 193.61L106.999 193.611L106.999 193.611L106.999 193.612L106.999 193.613L106.999 193.613L106.999 193.614L106.999 193.614L106.999 193.615L106.999 193.615L106.999 193.616L106.999 193.616L106.999 193.617L106.999 193.617L106.999 193.618L106.999 193.619L106.999 193.619L106.999 193.62L106.999 193.62L106.999 193.621L106.999 193.621L106.999 193.622L106.999 193.622L106.999 193.623L106.999 193.623L106.999 193.624L106.999 193.624L106.999 193.625L106.999 193.625L106.999 193.626L106.999 193.626L106.999 193.627L106.999 193.627L106.999 193.628L106.999 193.628L106.999 193.629L106.999 193.629L106.999 193.63L106.999 193.63L106.999 193.631L106.999 193.631L106.999 193.632L106.999 193.632L106.999 193.633L106.999 193.633L106.999 193.633L106.999 193.634L106.999 193.634L106.999 193.635L106.999 193.635L106.999 193.636L106.999 193.636L106.999 193.637L106.999 193.637L106.999 193.638L106.999 193.638L106.999 193.638L106.999 193.639L106.999 193.639L106.999 193.64L106.999 193.64L106.999 193.641L106.999 193.641L106.999 193.642L106.999 193.642L106.999 193.642L106.999 193.643L106.999 193.643L106.999 193.644L106.999 193.644L106.999 193.644L106.999 193.645L106.999 193.645L106.999 193.646L106.999 193.646L106.999 193.647L106.999 193.647L106.999 193.647L106.999 193.648L106.999 193.648L106.999 193.649L106.999 193.649L106.999 193.649L106.999 193.65L106.999 193.65L106.999 193.65L106.999 193.651L106.999 193.651L106.999 193.652L106.999 193.652L106.999 193.652L106.999 193.653L106.999 193.653L106.999 193.654L106.999 193.654L106.999 193.654L106.999 193.655L106.999 193.655L106.999 193.655L106.999 193.656L106.999 193.656L106.999 193.656L106.999 193.657L106.999 193.657L106.999 193.657L106.999 193.658L106.999 193.658L106.999 193.659L106.999 193.659L106.999 193.659L106.999 193.66L106.999 193.66L106.999 193.66L106.999 193.661L106.999 193.661L106.999 193.661L106.999 193.662L106.999 193.662L106.999 193.662L106.999 193.663L106.999 193.663L106.999 193.663L106.999 193.664L106.999 193.664L106.999 193.664L106.999 193.664L106.999 193.665L106.999 193.665L106.999 193.665L106.999 193.666L106.999 193.666L106.999 193.666L106.999 193.667L106.999 193.667L106.999 193.667L106.999 193.668L106.999 193.668L106.999 193.668L106.999 193.668L106.999 193.669L106.999 193.669L106.999 193.669L106.999 193.67L106.999 193.67L106.999 193.67L106.999 193.67L106.999 193.671L106.999 193.671L106.999 193.671L106.999 193.672L106.999 193.672L106.999 193.672L106.999 193.672L106.999 193.673L106.999 193.673L106.999 193.673L106.999 193.673L106.999 193.674L106.999 193.674L106.999 193.674L106.999 193.674L106.999 193.675L106.999 193.675L106.999 193.675L106.999 193.676L106.999 193.676L106.999 193.676L106.999 193.676L106.999 193.677L106.999 193.677L106.999 193.677L106.999 193.677L106.999 193.677L106.999 193.678L106.999 193.678L106.999 193.678L106.999 193.678L106.999 193.679L106.999 193.679L106.999 193.679L106.999 193.679L106.999 193.68L106.999 193.68L106.999 193.68L106.999 193.68L106.999 193.68L106.999 193.681L106.999 193.681L106.999 193.681L106.999 193.681L106.999 193.682L106.999 193.682L106.999 193.682L106.999 193.682L106.999 193.682L106.999 193.683L106.999 193.683L106.999 193.683L106.999 193.683L106.999 193.683L106.999 193.684L106.999 193.684L106.999 193.684L106.999 193.684L106.999 193.684L106.999 193.685L106.999 193.685L106.999 193.685L106.999 193.685L106.999 193.685L106.999 193.686L106.999 193.686L106.999 193.686L106.999 193.686L106.999 193.686L106.999 193.686L106.999 193.687L106.999 193.687L106.999 193.687L106.999 193.687L106.999 193.687L106.999 193.688L106.999 193.688L106.999 193.688L106.999 193.688L106.999 193.688L106.999 193.688L106.999 193.689L106.999 193.689L106.999 193.689L106.999 193.689L106.999 193.689L106.999 193.689L106.999 193.69L106.999 193.69L106.999 193.69L106.999 193.69L106.999 193.69L106.999 193.69L106.999 193.69L106.999 193.691L106.999 193.691L106.999 193.691L106.999 193.691L106.999 193.691L106.999 193.691L106.999 193.692L106.999 193.692L106.999 193.692L106.999 193.692L106.999 193.692L106.999 193.692L106.999 193.692L106.999 193.692L106.999 193.693L106.999 193.693L106.999 193.693L106.999 193.693L106.999 193.693L106.999 193.693L106.999 193.693L106.999 193.694L106.999 193.694L106.999 193.694L106.999 193.694L106.999 193.694L106.999 193.694L106.999 193.694L106.999 193.694L106.999 193.695L106.999 193.695L106.999 193.695L106.999 193.695L106.999 193.695L106.999 193.695L106.999 193.695L106.999 193.695L106.999 193.695L106.999 193.696L106.999 193.696L106.999 193.696L106.999 193.696L106.999 193.696L106.999 193.696L106.999 193.696L106.999 193.696L106.999 193.696L106.999 193.696L106.999 193.697L106.999 193.697L106.999 193.697L106.999 193.697L106.999 193.697L106.999 193.697L106.999 193.697L106.999 193.697L106.999 193.697L106.999 193.697L106.999 193.698L106.999 193.698L106.999 193.698L106.999 193.698L106.999 193.698L106.999 193.698L106.999 193.698L106.999 193.698L106.999 193.698L106.999 193.698L106.999 193.698L106.999 193.698L106.999 193.699L106.999 193.699L106.999 193.699L106.999 193.699L106.999 193.699L106.999 193.699L106.999 193.699L106.999 193.699L106.999 193.699L106.999 193.699L106.999 193.699L106.999 193.699L106.999 193.699L106.999 193.699L106.999 193.7L106.999 193.7L106.999 193.7L106.999 193.7L106.999 193.7L106.999 193.7L106.999 193.7L106.999 193.7L106.999 193.7L106.999 193.7L106.999 193.7L106.999 193.7L106.999 193.7L106.999 193.7L106.999 193.7L106.999 193.7L106.999 193.701L106.999 193.701L106.999 193.701L106.999 193.701L106.999 193.701L106.999 193.701L106.999 193.701L106.999 193.701L106.999 193.701L106.999 193.701L106.999 193.701L106.999 193.701L106.999 193.701L106.999 193.701L106.999 193.701L106.999 193.701L106.999 193.701L106.999 193.701L106.999 193.701L106.999 193.701L106.999 193.702L106.999 193.702L106.999 193.702L106.999 193.702L106.999 193.702L106.999 193.702L106.999 193.702L106.999 193.702L106.999 193.702L106.999 193.702L106.999 193.702L106.999 193.702L106.999 193.702L106.999 193.702L106.999 193.702L106.999 193.702L106.999 193.702L106.999 193.702L106.999 193.702L106.999 193.702L106.999 193.702L106.999 193.702L106.999 193.702L106.999 193.702L106.999 193.702L106.999 193.702L106.999 193.702L106.999 193.702L106.999 193.703L106.999 193.703L106.999 193.703L106.999 193.703L106.999 193.703L106.999 193.703L106.999 193.703L106.999 193.703L106.999 193.703L106.999 193.703L106.999 193.703L106.999 193.703L106.999 193.703L106.999 193.703L106.999 193.703L106.999 193.703L106.999 193.703L106.999 193.703L106.999 193.703L106.999 193.703L106.999 193.703L106.999 193.703L106.999 193.703L106.999 193.703L106.999 193.703L106.999 193.703C106.999 194.313 106.474 194.77 105.828 194.771C95.9245 194.361 92.5896 198.17 91.9414 199.032L91.8834 199.109L91.9243 199.197C92.6352 200.716 93.2436 202.74 93.2436 204.963L93.2436 204.965L93.2436 204.967L93.2436 204.968L93.2436 204.97L93.2436 204.972L93.2436 204.974L93.2436 204.976L93.2436 204.977L93.2436 204.979L93.2436 204.981L93.2436 204.983L93.2436 204.985L93.2436 204.986L93.2436 204.988L93.2436 204.99L93.2436 204.992L93.2436 204.993L93.2436 204.995L93.2436 204.997L93.2436 204.999L93.2436 205L93.2436 205.002L93.2436 205.004L93.2436 205.006L93.2436 205.007L93.2436 205.009L93.2436 205.011L93.2436 205.013L93.2436 205.014L93.2436 205.016L93.2436 205.018L93.2436 205.019L93.2436 205.021L93.2436 205.023L93.2436 205.025L93.2436 205.026L93.2436 205.028L93.2436 205.03L93.2436 205.032L93.2436 205.033L93.2436 205.035L93.2436 205.037L93.2436 205.038L93.2436 205.04L93.2436 205.042L93.2436 205.043L93.2436 205.045L93.2436 205.047L93.2436 205.049L93.2436 205.05L93.2436 205.052L93.2436 205.054L93.2436 205.055L93.2436 205.057L93.2436 205.059L93.2436 205.06L93.2436 205.062L93.2436 205.064L93.2436 205.065L93.2436 205.067L93.2436 205.069L93.2436 205.07L93.2436 205.072L93.2436 205.074L93.2436 205.075L93.2436 205.077L93.2436 205.079L93.2436 205.08L93.2436 205.082L93.2436 205.084L93.2436 205.085L93.2436 205.087L93.2436 205.088L93.2436 205.09L93.2436 205.092L93.2436 205.093L93.2436 205.095L93.2436 205.097L93.2436 205.098L93.2436 205.1L93.2436 205.102L93.2436 205.103L93.2436 205.105L93.2436 205.106L93.2436 205.108L93.2436 205.11L93.2436 205.111L93.2436 205.113L93.2436 205.114L93.2436 205.116L93.2436 205.118L93.2436 205.119L93.2436 205.121L93.2436 205.123L93.2436 205.124L93.2436 205.126L93.2436 205.127L93.2436 205.129L93.2436 205.13L93.2436 205.132L93.2436 205.134L93.2436 205.135L93.2436 205.137L93.2436 205.138L93.2436 205.14L93.2436 205.142L93.2436 205.143L93.2436 205.145L93.2436 205.146L93.2436 205.148L93.2436 205.149L93.2436 205.151L93.2436 205.153L93.2436 205.154L93.2436 205.156L93.2436 205.157L93.2436 205.159L93.2436 205.16L93.2436 205.162L93.2436 205.163L93.2436 205.165L93.2436 205.167L93.2436 205.168L93.2436 205.17L93.2436 205.171L93.2436 205.173L93.2436 205.174L93.2436 205.176L93.2436 205.177L93.2436 205.179L93.2436 205.18L93.2436 205.182L93.2436 205.183L93.2436 205.185L93.2436 205.187L93.2436 205.188L93.2436 205.19L93.2436 205.191L93.2436 205.193L93.2436 205.194L93.2436 205.196L93.2436 205.197L93.2436 205.199L93.2436 205.2L93.2436 205.202L93.2436 205.203L93.2436 205.205L93.2436 205.206L93.2436 205.208L93.2436 205.209L93.2436 205.211L93.2436 205.212L93.2436 205.214L93.2436 205.215L93.2436 205.217L93.2436 205.218L93.2436 205.22L93.2436 205.221L93.2436 205.223L93.2436 205.224L93.2436 205.226L93.2436 205.227L93.2436 205.229L93.2436 205.23L93.2436 205.232L93.2436 205.233L93.2436 205.234L93.2436 205.236L93.2436 205.237L93.2436 205.239L93.2436 205.24L93.2436 205.242L93.2436 205.243L93.2436 205.245L93.2436 205.246L93.2436 205.248L93.2436 205.249L93.2436 205.251L93.2436 205.252L93.2436 205.253L93.2436 205.255L93.2436 205.256L93.2436 205.258L93.2436 205.259L93.2436 205.261L93.2436 205.262L93.2436 205.264L93.2436 205.265L93.2436 205.266L93.2436 205.268L93.2436 205.269L93.2436 205.271L93.2436 205.272L93.2436 205.274L93.2436 205.275L93.2436 205.276L93.2436 205.278L93.2436 205.279L93.2436 205.281L93.2436 205.282L93.2436 205.284L93.2436 205.285L93.2436 205.286L93.2436 205.288L93.2436 205.289L93.2436 205.291L93.2436 205.292L93.2436 205.294L93.2436 205.295L93.2436 205.296L93.2436 205.298L93.2436 205.299L93.2436 205.301L93.2436 205.302L93.2436 205.303L93.2436 205.305L93.2436 205.306L93.2436 205.308L93.2436 205.309L93.2436 205.31L93.2436 205.312L93.2436 205.313L93.2436 205.315L93.2436 205.316L93.2436 205.317L93.2436 205.319L93.2436 205.32L93.2436 205.321L93.2436 205.323L93.2436 205.324L93.2436 205.326L93.2436 205.327L93.2436 205.328L93.2436 205.33L93.2436 205.331L93.2436 205.333L93.2436 205.334L93.2436 205.335L93.2436 205.337L93.2436 205.338L93.2436 205.339L93.2436 205.341L93.2436 205.342L93.2436 205.343L93.2436 205.345L93.2436 205.346L93.2436 205.348L93.2436 205.349L93.2436 205.35L93.2436 205.352L93.2436 205.353L93.2436 205.354L93.2436 205.356L93.2436 205.357L93.2436 205.358L93.2436 205.36L93.2436 205.361L93.2436 205.362L93.2436 205.364L93.2436 205.365L93.2436 205.366L93.2436 205.368L93.2436 205.369L93.2436 205.37L93.2436 205.372L93.2436 205.373L93.2436 205.375L93.2436 205.376L93.2436 205.377L93.2436 205.379L93.2436 205.38L93.2436 205.381L93.2436 205.383L93.2436 205.384L93.2436 205.385L93.2436 205.386L93.2436 205.388L93.2436 205.389L93.2436 205.39L93.2436 205.392L93.2436 205.393L93.2436 205.394L93.2436 205.396L93.2436 205.397L93.2436 205.398L93.2436 205.4L93.2436 205.401L93.2436 205.402L93.2436 205.404L93.2436 205.405L93.2436 205.406L93.2436 205.408L93.2436 205.409L93.2436 205.41L93.2436 205.412L93.2436 205.413L93.2436 205.414L93.2436 205.415L93.2436 205.417L93.2436 205.418L93.2436 205.419L93.2436 205.421L93.2436 205.422L93.2436 205.423L93.2436 205.425L93.2436 205.426L93.2436 205.427L93.2436 205.428L93.2436 205.43L93.2436 205.431L93.2436 205.432L93.2436 205.434L93.2436 205.435L93.2436 205.436L93.2436 205.437L93.2436 205.439L93.2436 205.44L93.2436 205.441L93.2436 205.443L93.2436 205.444L93.2436 205.445L93.2436 205.446L93.2436 205.448L93.2436 205.449L93.2436 205.45L93.2436 205.452L93.2436 205.453L93.2436 205.454L93.2436 205.455L93.2436 205.457L93.2436 205.458L93.2436 205.459L93.2436 205.461L93.2436 205.462L93.2436 205.463L93.2436 205.464L93.2436 205.466L93.2436 205.467L93.2436 205.468L93.2436 205.469L93.2436 205.471L93.2436 205.472L93.2436 205.473L93.2436 205.474L93.2436 205.476L93.2436 205.477L93.2436 205.478L93.2436 205.48L93.2436 205.481L93.2436 205.482L93.2436 205.483L93.2436 205.485L93.2436 205.486L93.2436 205.487L93.2436 205.488L93.2436 205.49L93.2436 205.491L93.2436 205.492L93.2436 205.493L93.2436 205.495L93.2436 205.496L93.2436 205.497L93.2436 205.498L93.2436 205.5L93.2436 205.501L93.2436 205.502L93.2436 205.503L93.2436 205.505L93.2436 205.506L93.2436 205.507L93.2436 205.508L93.2436 205.51L93.2436 205.511L93.2436 205.512L93.2436 205.513L93.2436 205.515L93.2436 205.516L93.2436 205.517L93.2436 205.518L93.2436 205.52L93.2436 205.521L93.2436 205.522L93.2436 205.523L93.2436 205.524L93.2436 205.526L93.2436 205.527L93.2436 205.528L93.2436 205.529L93.2436 205.531L93.2436 205.532L93.2436 205.533L93.2436 205.534L93.2436 205.536L93.2436 205.537L93.2436 205.538L93.2436 205.539L93.2436 205.541L93.2436 205.542L93.2436 205.543L93.2436 205.544L93.2436 205.545L93.2436 205.547L93.2436 205.548L93.2436 205.549L93.2436 205.55L93.2436 205.552L93.2436 205.553L93.2436 205.554L93.2436 205.555L93.2436 205.556L93.2436 205.558L93.2436 205.559L93.2436 205.56L93.2436 205.561L93.2436 205.563L93.2436 205.564L93.2436 205.565L93.2436 205.566L93.2436 205.567L93.2436 205.569L93.2436 205.57L93.2436 205.571L93.2436 205.572L93.2436 205.574L93.2436 205.575L93.2436 205.576L93.2436 205.577L93.2436 205.578L93.2436 205.58L93.2436 205.581L93.2436 205.582L93.2436 205.583L93.2436 205.584L93.2436 205.586L93.2436 205.587L93.2436 205.588L93.2436 205.589L93.2436 205.591L93.2436 205.592L93.2436 205.593L93.2436 205.594L93.2436 205.595L93.2436 205.597L93.2436 205.598L93.2436 205.599L93.2436 205.6L93.2436 205.601L93.2436 205.603L93.2436 205.604L93.2436 205.605L93.2436 205.606L93.2436 205.607L93.2436 205.609L93.2436 205.61L93.2436 205.611L93.2436 205.612L93.2436 205.614L93.2436 205.615L93.2436 205.616L93.2436 205.617L93.2436 205.618L93.2436 205.62L93.2436 205.621L93.2436 205.622L93.2436 205.623L93.2436 205.624L93.2436 205.626L93.2436 205.627L93.2436 205.628L93.2436 205.629L93.2436 205.63L93.2436 205.632L93.2436 205.633L93.2436 205.634L93.2436 205.635L93.2436 205.636L93.2436 205.638L93.2436 205.639L93.2436 205.64L93.2436 205.641L93.2436 205.642L93.2436 205.644L93.2436 205.645L93.2436 205.646L93.2436 205.647L93.2436 205.648L93.2436 205.65L93.2436 205.651L93.2436 205.652L93.2436 205.653L93.2436 205.654L93.2436 205.656L93.2436 205.657L93.2436 205.658L93.2436 205.659L93.2436 205.66L93.2436 205.662L93.2436 205.663L93.2436 205.664L93.2436 205.665L93.2436 205.666L93.2436 205.668L93.2436 205.669L93.2436 205.67L93.2436 205.671L93.2436 205.672L93.2436 205.674L93.2436 205.675L93.2436 205.676L93.2436 205.676C93.0398 210.219 90.4069 214.371 86.0296 217.213C83.2759 218.942 80.0096 220.266 76.229 221.081C76.2182 221.083 76.2058 221.086 76.1917 221.089C75.8656 221.154 74.6655 221.394 73.4312 221.553C72.7858 221.635 72.1358 221.695 71.5986 221.697C71.3299 221.698 71.0938 221.684 70.9028 221.652C70.7075 221.62 70.5781 221.573 70.5068 221.519L70.5069 221.519L70.4995 221.514C70.2628 221.357 70.1613 221.023 70.1606 220.628C70.6738 209.895 73.5437 202.701 78.7078 199.469L78.7078 199.469L78.7101 199.468C83.0678 196.638 87.8373 197.343 89.9797 197.852L90.0819 197.876L90.1451 197.792C90.7465 196.992 92.2629 195.274 95.5135 194.059L95.8992 193.914L95.5177 193.759C92.7768 192.646 91.1554 191.028 90.3473 190.02L90.2774 189.933L90.1714 189.968C88.9454 190.376 87.4293 190.777 85.8181 190.677L85.8175 190.677C82.387 190.476 79.2475 188.463 77.1144 185.222ZM84.7665 215.334L84.7665 215.334L84.7679 215.333C88.4951 212.855 90.7893 209.333 90.9983 205.485C91.1028 203.917 90.6843 201.948 89.9611 200.094L89.9321 200.02L89.8555 199.998C88.4071 199.585 83.9336 198.647 79.9722 201.246C75.594 204.053 73.1253 210.161 72.5087 219.18L72.4948 219.383L72.6952 219.35C73.1323 219.277 73.6214 219.191 74.0789 219.111C74.2669 219.078 74.4495 219.047 74.621 219.017C74.9161 218.966 75.1781 218.921 75.379 218.889C75.5875 218.856 75.713 218.84 75.7484 218.84L75.7647 218.84L75.7807 218.837C79.2869 218.117 82.3859 216.882 84.7665 215.334ZM89.7704 187.608L89.843 187.578L89.8637 187.502C90.1754 186.362 90.7034 183.334 88.9177 180.715C86.9248 177.787 82.6515 176.041 76.38 175.426L76.1799 175.406L76.2049 175.606C76.2569 176.02 76.3346 176.459 76.3989 176.805C76.4146 176.89 76.4294 176.968 76.4428 177.039C76.4571 177.115 76.4698 177.182 76.4806 177.241C76.491 177.298 76.4991 177.344 76.5046 177.378C76.5109 177.418 76.5116 177.43 76.5116 177.428L76.5116 177.447L76.5161 177.466C77.1346 180.035 77.9614 182.204 79.1038 183.964L79.1037 183.964L79.1058 183.967C80.8736 186.56 83.3785 188.127 86.1038 188.336L86.1037 188.337L86.1161 188.337C87.161 188.337 88.5167 188.129 89.7704 187.608Z" fill="#0200CD" stroke="#0200CD" stroke-width="0.321224"/>
<path d="M229.222 732.045L229.222 732.045L229.219 732.047C227.297 733.365 224.862 734.283 222.009 734.896C220.067 735.306 219.008 735.405 218.402 735.38C218.101 735.368 217.918 735.325 217.796 735.279C217.693 735.239 217.629 735.196 217.562 735.15C217.554 735.145 217.547 735.139 217.539 735.134C217.395 734.989 217.285 734.853 217.221 734.725C217.158 734.597 217.145 734.488 217.179 734.385L217.186 734.364L217.187 734.341C217.493 726.25 219.739 720.98 223.562 718.456C225.477 717.244 227.493 716.839 229.105 716.839C230.42 716.839 231.531 717.042 232.234 717.244L232.315 717.267L232.38 717.214C233.53 716.27 236.739 713.25 236.533 706.719L236.533 706.619C236.533 706.278 236.522 705.931 236.511 705.575C236.488 704.84 236.464 704.07 236.533 703.245L236.533 703.245L236.533 703.232C236.533 702.601 236.974 702.16 237.601 702.16L237.602 702.16L237.602 702.16L237.603 702.16L237.603 702.16L237.604 702.16L237.605 702.16L237.605 702.16L237.606 702.16L237.606 702.16L237.607 702.16L237.608 702.16L237.608 702.16L237.609 702.16L237.609 702.16L237.61 702.16L237.61 702.16L237.611 702.16L237.611 702.16L237.612 702.16L237.613 702.16L237.613 702.16L237.614 702.16L237.614 702.16L237.615 702.16L237.615 702.16L237.616 702.16L237.616 702.16L237.617 702.16L237.617 702.16L237.618 702.16L237.619 702.16L237.619 702.16L237.62 702.16L237.62 702.16L237.621 702.16L237.621 702.16L237.622 702.16L237.622 702.16L237.623 702.16L237.623 702.16L237.624 702.16L237.624 702.16L237.625 702.16L237.625 702.16L237.626 702.16L237.626 702.16L237.627 702.16L237.627 702.16L237.628 702.16L237.628 702.16L237.629 702.16L237.629 702.16L237.63 702.16L237.63 702.16L237.631 702.16L237.631 702.16L237.632 702.16L237.632 702.16L237.633 702.16L237.633 702.16L237.633 702.16L237.634 702.16L237.634 702.16L237.635 702.16L237.635 702.16L237.636 702.16L237.636 702.16L237.637 702.16L237.637 702.16L237.638 702.16L237.638 702.16L237.638 702.16L237.639 702.16L237.639 702.16L237.64 702.16L237.64 702.16L237.641 702.16L237.641 702.16L237.642 702.16L237.642 702.16L237.642 702.16L237.643 702.16L237.643 702.16L237.644 702.16L237.644 702.16L237.644 702.16L237.645 702.16L237.645 702.16L237.646 702.16L237.646 702.16L237.647 702.16L237.647 702.16L237.647 702.16L237.648 702.16L237.648 702.16L237.649 702.16L237.649 702.16L237.649 702.16L237.65 702.16L237.65 702.16L237.65 702.16L237.651 702.16L237.651 702.16L237.652 702.16L237.652 702.16L237.652 702.16L237.653 702.16L237.653 702.16L237.654 702.16L237.654 702.16L237.654 702.16L237.655 702.16L237.655 702.16L237.655 702.16L237.656 702.16L237.656 702.16L237.656 702.16L237.657 702.16L237.657 702.16L237.657 702.16L237.658 702.16L237.658 702.16L237.659 702.16L237.659 702.16L237.659 702.16L237.66 702.16L237.66 702.16L237.66 702.16L237.661 702.16L237.661 702.16L237.661 702.16L237.662 702.16L237.662 702.16L237.662 702.16L237.663 702.16L237.663 702.16L237.663 702.16L237.664 702.16L237.664 702.16L237.664 702.16L237.664 702.16L237.665 702.16L237.665 702.16L237.665 702.16L237.666 702.16L237.666 702.16L237.666 702.16L237.667 702.16L237.667 702.16L237.667 702.16L237.668 702.16L237.668 702.16L237.668 702.16L237.668 702.16L237.669 702.16L237.669 702.16L237.669 702.16L237.67 702.16L237.67 702.16L237.67 702.16L237.67 702.16L237.671 702.16L237.671 702.16L237.671 702.16L237.672 702.16L237.672 702.16L237.672 702.16L237.672 702.16L237.673 702.16L237.673 702.16L237.673 702.16L237.673 702.16L237.674 702.16L237.674 702.16L237.674 702.16L237.674 702.16L237.675 702.16L237.675 702.16L237.675 702.16L237.676 702.16L237.676 702.16L237.676 702.16L237.676 702.16L237.677 702.16L237.677 702.16L237.677 702.16L237.677 702.16L237.677 702.16L237.678 702.16L237.678 702.16L237.678 702.16L237.678 702.16L237.679 702.16L237.679 702.16L237.679 702.16L237.679 702.16L237.68 702.16L237.68 702.16L237.68 702.16L237.68 702.16L237.68 702.16L237.681 702.16L237.681 702.16L237.681 702.16L237.681 702.16L237.682 702.16L237.682 702.16L237.682 702.16L237.682 702.16L237.682 702.16L237.683 702.16L237.683 702.16L237.683 702.16L237.683 702.16L237.683 702.16L237.684 702.16L237.684 702.16L237.684 702.16L237.684 702.16L237.684 702.16L237.685 702.16L237.685 702.16L237.685 702.16L237.685 702.16L237.685 702.16L237.686 702.16L237.686 702.16L237.686 702.16L237.686 702.16L237.686 702.16L237.686 702.16L237.687 702.16L237.687 702.16L237.687 702.16L237.687 702.16L237.687 702.16L237.688 702.16L237.688 702.16L237.688 702.16L237.688 702.16L237.688 702.16L237.688 702.16L237.689 702.16L237.689 702.16L237.689 702.16L237.689 702.16L237.689 702.16L237.689 702.16L237.69 702.16L237.69 702.16L237.69 702.16L237.69 702.16L237.69 702.16L237.69 702.16L237.69 702.16L237.691 702.16L237.691 702.16L237.691 702.16L237.691 702.16L237.691 702.16L237.691 702.16L237.692 702.16L237.692 702.16L237.692 702.16L237.692 702.16L237.692 702.16L237.692 702.16L237.692 702.16L237.692 702.16L237.693 702.16L237.693 702.16L237.693 702.16L237.693 702.16L237.693 702.16L237.693 702.16L237.693 702.16L237.694 702.16L237.694 702.16L237.694 702.16L237.694 702.16L237.694 702.16L237.694 702.16L237.694 702.16L237.694 702.16L237.694 702.16L237.695 702.16L237.695 702.16L237.695 702.16L237.695 702.16L237.695 702.16L237.695 702.16L237.695 702.16L237.695 702.16L237.696 702.16L237.696 702.16L237.696 702.16L237.696 702.16L237.696 702.16L237.696 702.16L237.696 702.16L237.696 702.16L237.696 702.16L237.696 702.16L237.697 702.16L237.697 702.16L237.697 702.16L237.697 702.16L237.697 702.16L237.697 702.16L237.697 702.16L237.697 702.16L237.697 702.16L237.697 702.16L237.697 702.16L237.698 702.16L237.698 702.16L237.698 702.16L237.698 702.16L237.698 702.16L237.698 702.16L237.698 702.16L237.698 702.16L237.698 702.16L237.698 702.16L237.698 702.16L237.699 702.16L237.699 702.16L237.699 702.16L237.699 702.16L237.699 702.16L237.699 702.16L237.699 702.16L237.699 702.16L237.699 702.16L237.699 702.16L237.699 702.16L237.699 702.16L237.699 702.16L237.699 702.16L237.7 702.16L237.7 702.16L237.7 702.16L237.7 702.16L237.7 702.16L237.7 702.16L237.7 702.16L237.7 702.16L237.7 702.16L237.7 702.16L237.7 702.16L237.7 702.16L237.7 702.16L237.7 702.16L237.7 702.16L237.7 702.16L237.701 702.16L237.701 702.16L237.701 702.16L237.701 702.16L237.701 702.16L237.701 702.16L237.701 702.16L237.701 702.16L237.701 702.16L237.701 702.16L237.701 702.16L237.701 702.16L237.701 702.16L237.701 702.16L237.701 702.16L237.701 702.16L237.701 702.16L237.701 702.16L237.701 702.16L237.701 702.16L237.701 702.16L237.702 702.16L237.702 702.16L237.702 702.16L237.702 702.16L237.702 702.16L237.702 702.16L237.702 702.16L237.702 702.16L237.702 702.16L237.702 702.16L237.702 702.16L237.702 702.16L237.702 702.16L237.702 702.16L237.702 702.16L237.702 702.16L237.702 702.16L237.702 702.16L237.702 702.16L237.702 702.16L237.702 702.16L237.702 702.16L237.702 702.16L237.702 702.16L237.702 702.16L237.702 702.16L237.702 702.16L237.703 702.16L237.703 702.16L237.703 702.16L237.703 702.16L237.703 702.16L237.703 702.16L237.703 702.16L237.703 702.16L237.703 702.16L237.703 702.16L237.703 702.16L237.703 702.16L237.703 702.16L237.703 702.16L237.703 702.16L237.703 702.16L237.703 702.16L237.703 702.16L237.703 702.16L237.703 702.16L237.703 702.16L237.703 702.16L237.703 702.16L237.703 702.16L237.703 702.16L237.703 702.16C238.313 702.16 238.77 702.685 238.771 703.331C238.361 713.235 242.17 716.57 243.032 717.218L243.109 717.276L243.197 717.235C244.716 716.524 246.74 715.916 248.963 715.916L248.965 715.916L248.967 715.916L248.968 715.916L248.97 715.916L248.972 715.916L248.974 715.916L248.976 715.916L248.977 715.916L248.979 715.916L248.981 715.916L248.983 715.916L248.985 715.916L248.986 715.916L248.988 715.916L248.99 715.916L248.992 715.916L248.993 715.916L248.995 715.916L248.997 715.916L248.999 715.916L249 715.916L249.002 715.916L249.004 715.916L249.006 715.916L249.007 715.916L249.009 715.916L249.011 715.916L249.013 715.916L249.014 715.916L249.016 715.916L249.018 715.916L249.019 715.916L249.021 715.916L249.023 715.916L249.025 715.916L249.026 715.916L249.028 715.916L249.03 715.916L249.032 715.916L249.033 715.916L249.035 715.916L249.037 715.916L249.038 715.916L249.04 715.916L249.042 715.916L249.043 715.916L249.045 715.916L249.047 715.916L249.049 715.916L249.05 715.916L249.052 715.916L249.054 715.916L249.055 715.916L249.057 715.916L249.059 715.916L249.06 715.916L249.062 715.916L249.064 715.916L249.065 715.916L249.067 715.916L249.069 715.916L249.07 715.916L249.072 715.916L249.074 715.916L249.075 715.916L249.077 715.916L249.079 715.916L249.08 715.916L249.082 715.916L249.084 715.916L249.085 715.916L249.087 715.916L249.088 715.916L249.09 715.916L249.092 715.916L249.093 715.916L249.095 715.916L249.097 715.916L249.098 715.916L249.1 715.916L249.102 715.916L249.103 715.916L249.105 715.916L249.106 715.916L249.108 715.916L249.11 715.916L249.111 715.916L249.113 715.916L249.114 715.916L249.116 715.916L249.118 715.916L249.119 715.916L249.121 715.916L249.123 715.916L249.124 715.916L249.126 715.916L249.127 715.916L249.129 715.916L249.13 715.916L249.132 715.916L249.134 715.916L249.135 715.916L249.137 715.916L249.138 715.916L249.14 715.916L249.142 715.916L249.143 715.916L249.145 715.916L249.146 715.916L249.148 715.916L249.149 715.916L249.151 715.916L249.153 715.916L249.154 715.916L249.156 715.916L249.157 715.916L249.159 715.916L249.16 715.916L249.162 715.916L249.163 715.916L249.165 715.916L249.167 715.916L249.168 715.916L249.17 715.916L249.171 715.916L249.173 715.916L249.174 715.916L249.176 715.916L249.177 715.916L249.179 715.916L249.18 715.916L249.182 715.916L249.183 715.916L249.185 715.916L249.187 715.916L249.188 715.916L249.19 715.916L249.191 715.916L249.193 715.916L249.194 715.916L249.196 715.916L249.197 715.916L249.199 715.916L249.2 715.916L249.202 715.916L249.203 715.916L249.205 715.916L249.206 715.916L249.208 715.916L249.209 715.916L249.211 715.916L249.212 715.916L249.214 715.916L249.215 715.916L249.217 715.916L249.218 715.916L249.22 715.916L249.221 715.916L249.223 715.916L249.224 715.916L249.226 715.916L249.227 715.916L249.229 715.916L249.23 715.916L249.232 715.916L249.233 715.916L249.234 715.916L249.236 715.916L249.237 715.916L249.239 715.916L249.24 715.916L249.242 715.916L249.243 715.916L249.245 715.916L249.246 715.916L249.248 715.916L249.249 715.916L249.251 715.916L249.252 715.916L249.253 715.916L249.255 715.916L249.256 715.916L249.258 715.916L249.259 715.916L249.261 715.916L249.262 715.916L249.264 715.916L249.265 715.916L249.266 715.916L249.268 715.916L249.269 715.916L249.271 715.916L249.272 715.916L249.274 715.916L249.275 715.916L249.276 715.916L249.278 715.916L249.279 715.916L249.281 715.916L249.282 715.916L249.284 715.916L249.285 715.916L249.286 715.916L249.288 715.916L249.289 715.916L249.291 715.916L249.292 715.916L249.294 715.916L249.295 715.916L249.296 715.916L249.298 715.916L249.299 715.916L249.301 715.916L249.302 715.916L249.303 715.916L249.305 715.916L249.306 715.916L249.308 715.916L249.309 715.916L249.31 715.916L249.312 715.916L249.313 715.916L249.315 715.916L249.316 715.916L249.317 715.916L249.319 715.916L249.32 715.916L249.321 715.916L249.323 715.916L249.324 715.916L249.326 715.916L249.327 715.916L249.328 715.916L249.33 715.916L249.331 715.916L249.333 715.916L249.334 715.916L249.335 715.916L249.337 715.916L249.338 715.916L249.339 715.916L249.341 715.916L249.342 715.916L249.343 715.916L249.345 715.916L249.346 715.916L249.348 715.916L249.349 715.916L249.35 715.916L249.352 715.916L249.353 715.916L249.354 715.916L249.356 715.916L249.357 715.916L249.358 715.916L249.36 715.916L249.361 715.916L249.362 715.916L249.364 715.916L249.365 715.916L249.366 715.916L249.368 715.916L249.369 715.916L249.37 715.916L249.372 715.916L249.373 715.916L249.375 715.916L249.376 715.916L249.377 715.916L249.379 715.916L249.38 715.916L249.381 715.916L249.383 715.916L249.384 715.916L249.385 715.916L249.386 715.916L249.388 715.916L249.389 715.916L249.39 715.916L249.392 715.916L249.393 715.916L249.394 715.916L249.396 715.916L249.397 715.916L249.398 715.916L249.4 715.916L249.401 715.916L249.402 715.916L249.404 715.916L249.405 715.916L249.406 715.916L249.408 715.916L249.409 715.916L249.41 715.916L249.412 715.916L249.413 715.916L249.414 715.916L249.415 715.916L249.417 715.916L249.418 715.916L249.419 715.916L249.421 715.916L249.422 715.916L249.423 715.916L249.425 715.916L249.426 715.916L249.427 715.916L249.428 715.916L249.43 715.916L249.431 715.916L249.432 715.916L249.434 715.916L249.435 715.916L249.436 715.916L249.437 715.916L249.439 715.916L249.44 715.916L249.441 715.916L249.443 715.916L249.444 715.916L249.445 715.916L249.446 715.916L249.448 715.916L249.449 715.916L249.45 715.916L249.452 715.916L249.453 715.916L249.454 715.916L249.455 715.916L249.457 715.916L249.458 715.916L249.459 715.916L249.461 715.916L249.462 715.916L249.463 715.916L249.464 715.916L249.466 715.916L249.467 715.916L249.468 715.916L249.469 715.916L249.471 715.916L249.472 715.916L249.473 715.916L249.474 715.916L249.476 715.916L249.477 715.916L249.478 715.916L249.48 715.916L249.481 715.916L249.482 715.916L249.483 715.916L249.485 715.916L249.486 715.916L249.487 715.916L249.488 715.916L249.49 715.916L249.491 715.916L249.492 715.916L249.493 715.916L249.495 715.916L249.496 715.916L249.497 715.916L249.498 715.916L249.5 715.916L249.501 715.916L249.502 715.916L249.503 715.916L249.505 715.916L249.506 715.916L249.507 715.916L249.508 715.916L249.51 715.916L249.511 715.916L249.512 715.916L249.513 715.916L249.515 715.916L249.516 715.916L249.517 715.916L249.518 715.916L249.52 715.916L249.521 715.916L249.522 715.916L249.523 715.916L249.524 715.916L249.526 715.916L249.527 715.916L249.528 715.916L249.529 715.916L249.531 715.916L249.532 715.916L249.533 715.916L249.534 715.916L249.536 715.916L249.537 715.916L249.538 715.916L249.539 715.916L249.541 715.916L249.542 715.916L249.543 715.916L249.544 715.916L249.545 715.916L249.547 715.916L249.548 715.916L249.549 715.916L249.55 715.916L249.552 715.916L249.553 715.916L249.554 715.916L249.555 715.916L249.556 715.916L249.558 715.916L249.559 715.916L249.56 715.916L249.561 715.916L249.563 715.916L249.564 715.916L249.565 715.916L249.566 715.916L249.567 715.916L249.569 715.916L249.57 715.916L249.571 715.916L249.572 715.916L249.574 715.916L249.575 715.916L249.576 715.916L249.577 715.916L249.578 715.916L249.58 715.916L249.581 715.916L249.582 715.916L249.583 715.916L249.584 715.916L249.586 715.916L249.587 715.916L249.588 715.916L249.589 715.916L249.591 715.916L249.592 715.916L249.593 715.916L249.594 715.916L249.595 715.916L249.597 715.916L249.598 715.916L249.599 715.916L249.6 715.916L249.601 715.916L249.603 715.916L249.604 715.916L249.605 715.916L249.606 715.916L249.607 715.916L249.609 715.916L249.61 715.916L249.611 715.916L249.612 715.916L249.614 715.916L249.615 715.916L249.616 715.916L249.617 715.916L249.618 715.916L249.62 715.916L249.621 715.916L249.622 715.916L249.623 715.916L249.624 715.916L249.626 715.916L249.627 715.916L249.628 715.916L249.629 715.916L249.63 715.916L249.632 715.916L249.633 715.916L249.634 715.916L249.635 715.916L249.636 715.916L249.638 715.916L249.639 715.916L249.64 715.916L249.641 715.916L249.642 715.916L249.644 715.916L249.645 715.916L249.646 715.916L249.647 715.916L249.648 715.916L249.65 715.916L249.651 715.916L249.652 715.916L249.653 715.916L249.654 715.916L249.656 715.916L249.657 715.916L249.658 715.916L249.659 715.916L249.66 715.916L249.662 715.916L249.663 715.916L249.664 715.916L249.665 715.916L249.666 715.916L249.668 715.916L249.669 715.916L249.67 715.916L249.671 715.916L249.672 715.916L249.674 715.916L249.675 715.916L249.676 715.916L249.676 715.916C254.219 716.119 258.371 718.752 261.213 723.13C262.942 725.883 264.266 729.15 265.081 732.93C265.083 732.941 265.086 732.953 265.089 732.967C265.154 733.294 265.394 734.494 265.553 735.728C265.635 736.373 265.695 737.023 265.697 737.561C265.698 737.829 265.684 738.065 265.652 738.256C265.62 738.452 265.573 738.581 265.519 738.652L265.519 738.652L265.514 738.66C265.357 738.896 265.023 738.998 264.628 738.999C253.895 738.485 246.701 735.616 243.469 730.451L243.469 730.451L243.468 730.449C240.638 726.091 241.343 721.322 241.852 719.18L241.876 719.077L241.792 719.014C240.992 718.413 239.274 716.896 238.059 713.646L237.914 713.26L237.759 713.642C236.646 716.382 235.028 718.004 234.02 718.812L233.933 718.882L233.968 718.988C234.376 720.214 234.777 721.73 234.677 723.341L234.677 723.342C234.476 726.772 232.463 729.912 229.222 732.045ZM259.334 724.393L259.334 724.393L259.333 724.391C256.855 720.664 253.333 718.37 249.485 718.161C247.917 718.056 245.948 718.475 244.094 719.198L244.02 719.227L243.998 719.304C243.585 720.752 242.647 725.226 245.246 729.187C248.053 733.565 254.161 736.034 263.18 736.651L263.383 736.664L263.35 736.464C263.277 736.027 263.191 735.538 263.111 735.08C263.078 734.892 263.047 734.71 263.017 734.538C262.966 734.243 262.921 733.981 262.889 733.78C262.856 733.572 262.84 733.446 262.84 733.411L262.84 733.394L262.837 733.378C262.117 729.872 260.882 726.773 259.334 724.393ZM231.608 719.389L231.578 719.316L231.502 719.295C230.362 718.984 227.334 718.456 224.715 720.242C221.787 722.234 220.041 726.508 219.426 732.779L219.406 732.979L219.606 732.954C220.02 732.902 220.459 732.825 220.805 732.76C220.89 732.745 220.968 732.73 221.039 732.716C221.115 732.702 221.182 732.689 221.241 732.679C221.298 732.668 221.344 732.66 221.378 732.655C221.418 732.648 221.43 732.648 221.428 732.648L221.447 732.648L221.466 732.643C224.035 732.025 226.204 731.198 227.964 730.055L227.964 730.055L227.967 730.053C230.56 728.286 232.127 725.781 232.336 723.055L232.337 723.055L232.337 723.043C232.337 721.998 232.129 720.642 231.608 719.389Z" fill="#0200CD" stroke="#0200CD" stroke-width="0.321224"/>
<path d="M1.99998 3.49056e-07L1.99997 164.415C1.99997 180.431 14.9837 193.415 31 193.415L209 193.415C225.016 193.415 238 206.399 238 222.415L238 311" stroke="#0200CD" stroke-width="3"/>
<path d="M236.993 311C219.331 311 205 325.331 205 342.993C205 360.656 219.331 374.987 236.993 374.987C254.656 374.987 268.987 360.656 268.987 342.993C268.987 325.331 254.669 311 236.993 311ZM236.993 371.682C221.186 371.682 208.318 358.814 208.318 343.007C208.318 327.199 221.186 314.318 236.993 314.318C252.801 314.318 265.669 327.186 265.669 342.993C265.669 358.801 252.814 371.682 236.993 371.682Z" fill="#0200CD"/>
<path d="M237 495C250.807 495 262 483.583 262 469.5C262 455.417 250.807 444 237 444C223.193 444 212 455.417 212 469.5C212 483.583 223.193 495 237 495Z" fill="#0200CD"/>
<path d="M236.993 437C219.331 437 205 451.331 205 468.993C205 486.656 219.331 500.987 236.993 500.987C254.656 500.987 268.987 486.656 268.987 468.993C268.987 451.331 254.669 437 236.993 437ZM236.993 497.682C221.186 497.682 208.318 484.814 208.318 469.007C208.318 453.199 221.186 440.318 236.993 440.318C252.801 440.318 265.669 453.186 265.669 468.993C265.669 484.801 252.814 497.682 236.993 497.682Z" fill="#0200CD"/>
<path d="M237 615C250.807 615 262 603.583 262 589.5C262 575.417 250.807 564 237 564C223.193 564 212 575.417 212 589.5C212 603.583 223.193 615 237 615Z" fill="#0200CD"/>
<path d="M236.993 557C219.331 557 205 571.331 205 588.993C205 606.656 219.331 620.987 236.993 620.987C254.656 620.987 268.987 606.656 268.987 588.993C268.987 571.331 254.669 557 236.993 557ZM236.993 617.682C221.186 617.682 208.318 604.814 208.318 589.007C208.318 573.199 221.186 560.318 236.993 560.318C252.801 560.318 265.669 573.186 265.669 588.993C265.669 604.801 252.814 617.682 236.993 617.682Z" fill="#0200CD"/>
<circle cx="236" cy="343" r="16" fill="#0200CD"/>
<path d="M238.797 333.68C239.023 334.626 239.009 335.641 238.759 336.576C238.533 335.63 238.547 334.615 238.797 333.68ZM243.788 338.658L241.747 339.271C241.797 339.108 241.863 338.95 241.944 338.8L241.283 338.445L241.944 338.8C242.109 338.491 242.334 338.219 242.606 337.997C242.877 337.776 243.189 337.611 243.525 337.511L243.528 337.51L245.566 336.899C245.308 337.711 244.668 338.387 243.792 338.657C243.791 338.657 243.79 338.658 243.788 338.658ZM234.112 339.144L232.08 338.534C232.079 338.534 232.078 338.534 232.077 338.533C231.199 338.265 230.558 337.59 230.299 336.777L232.331 337.387C232.331 337.387 232.331 337.387 232.331 337.387C232.332 337.387 232.332 337.387 232.332 337.387C233.01 337.591 233.58 338.056 233.916 338.68C233.996 338.829 234.062 338.985 234.112 339.144ZM230.688 342.75C231.569 343.013 232.212 343.693 232.466 344.509L230.423 343.896C229.547 343.627 228.906 342.95 228.649 342.138L230.687 342.749L230.688 342.75ZM242.613 343.823C242.614 343.823 242.615 343.823 242.616 343.822L244.648 343.213C244.39 344.025 243.75 344.701 242.874 344.971L240.832 345.584C241.087 344.772 241.728 344.094 242.613 343.823Z" fill="white" stroke="white" stroke-width="3"/>
<path d="M231.403 350.849C232.318 350.077 233.828 349.34 237.094 349.062C239.781 349.338 240.989 350.049 241.76 350.804C242.104 351.14 242.37 351.493 242.655 351.872C242.706 351.939 242.758 352.008 242.81 352.077C242.918 352.218 243.029 352.361 243.148 352.504H237.099L229.926 352.504C230.038 352.371 230.143 352.239 230.247 352.11C230.253 352.101 230.26 352.093 230.266 352.085C230.612 351.651 230.942 351.238 231.403 350.849Z" fill="white" stroke="white"/>
<path d="M249.085 460.363C249.072 460.149 248.981 459.947 248.83 459.795C248.678 459.644 248.476 459.553 248.262 459.54C242.601 459.212 238.055 460.934 236.102 464.158C234.811 466.289 234.813 468.879 236.084 471.349C235.362 472.208 234.833 473.214 234.534 474.296L232.755 472.516C233.61 470.729 233.577 468.867 232.645 467.321C231.197 464.939 227.865 463.656 223.727 463.904C223.513 463.917 223.311 464.008 223.159 464.159C223.008 464.311 222.917 464.513 222.905 464.727C222.661 468.865 223.939 472.197 226.322 473.641C227.11 474.122 228.016 474.376 228.939 474.375C229.833 474.364 230.714 474.152 231.516 473.755L234.25 476.489V479.625C234.25 479.857 234.342 480.08 234.506 480.244C234.67 480.408 234.893 480.5 235.125 480.5C235.357 480.5 235.58 480.408 235.744 480.244C235.908 480.08 236 479.857 236 479.625V476.399C235.996 475.007 236.47 473.656 237.342 472.571C238.467 473.159 239.716 473.474 240.985 473.49C242.213 473.494 243.418 473.159 244.467 472.521C247.691 470.57 249.417 466.024 249.085 460.363ZM231.413 471.175L228.743 468.506C228.578 468.349 228.357 468.262 228.129 468.265C227.901 468.268 227.683 468.36 227.522 468.522C227.36 468.683 227.268 468.901 227.265 469.129C227.262 469.357 227.349 469.577 227.506 469.743L230.176 472.413C229.125 472.761 228.105 472.674 227.229 472.144C225.551 471.128 224.602 468.722 224.625 465.625C227.721 465.598 230.128 466.551 231.144 468.229C231.674 469.105 231.761 470.125 231.413 471.175ZM243.56 471.026C242.094 471.913 240.372 471.981 238.622 471.245L244.494 465.371C244.658 465.207 244.751 464.985 244.751 464.753C244.751 464.52 244.659 464.298 244.495 464.134C244.331 463.969 244.108 463.877 243.876 463.877C243.644 463.877 243.421 463.969 243.257 464.133L237.384 470C236.644 468.25 236.711 466.526 237.602 465.062C239.127 462.546 242.743 461.146 247.373 461.252C247.478 465.881 246.078 469.501 243.56 471.026Z" fill="white"/>
<path d="M243.261 478.063C243.099 478.063 242.945 477.988 242.847 477.857L241.517 476.1C241.475 476.045 241.445 475.983 241.428 475.918C241.411 475.852 241.407 475.783 241.416 475.716C241.426 475.648 241.448 475.583 241.483 475.524C241.517 475.466 241.563 475.414 241.617 475.373C241.671 475.332 241.733 475.302 241.799 475.285C241.865 475.267 241.934 475.263 242.002 475.273C242.069 475.282 242.134 475.304 242.193 475.339C242.252 475.374 242.303 475.419 242.344 475.474L243.22 476.629L245.421 473.095C245.494 472.979 245.61 472.896 245.744 472.864C245.878 472.833 246.019 472.857 246.136 472.93C246.379 473.081 246.454 473.401 246.302 473.644L243.701 477.818C243.657 477.89 243.596 477.95 243.523 477.992C243.451 478.035 243.369 478.059 243.284 478.063C243.276 478.063 243.269 478.063 243.261 478.063Z" fill="#074DFF"/>
<path d="M231.432 579C231.193 579 231 579.193 231 579.432V586.135C231 586.45 231.243 586.765 231.535 587.031C232.089 587.534 232.539 588.193 232.523 588.941C232.424 593.741 231.768 596.561 231.768 598.027C231.768 598.82 231.768 599.613 232.536 600.405C233.304 601.198 233.304 601.198 234.072 600.405C234.84 599.613 234.84 598.82 234.84 598.027C234.84 596.561 234.184 593.741 234.085 588.941C234.069 588.193 234.519 587.534 235.073 587.031C235.365 586.765 235.608 586.45 235.608 586.135V579.432C235.608 579.193 235.415 579 235.176 579C234.937 579 234.744 579.193 234.744 579.432V583.253C234.744 583.531 234.518 583.757 234.24 583.757C233.962 583.757 233.736 583.531 233.736 583.253V579.432C233.736 579.193 233.543 579 233.304 579C233.065 579 232.872 579.193 232.872 579.432V583.253C232.872 583.531 232.646 583.757 232.368 583.757C232.09 583.757 231.864 583.531 231.864 583.253V579.432C231.864 579.193 231.671 579 231.432 579ZM241.178 579.699C240.917 579.221 240.236 578.922 240.013 579.419C239.928 579.61 239.928 579.793 239.928 579.793C239.928 579.793 239.928 579.793 239.928 579.793V593.261C239.928 593.266 239.932 593.27 239.937 593.27C239.943 593.27 239.947 593.275 239.946 593.28C239.726 595.544 239.448 597.077 239.448 598.027C239.448 598.82 239.448 599.613 240.216 600.405C240.984 601.198 240.984 601.198 241.752 600.405C242.52 599.613 242.52 598.82 242.52 598.027C242.52 596.992 242.194 595.28 241.964 592.669C241.937 592.364 241.985 592.058 242.09 591.77C242.603 590.354 243 588.641 243 586.928C243 584.903 242.103 581.385 241.178 579.699Z" fill="white"/>
</svg>
