<svg width="63" height="101" viewBox="0 0 63 101" fill="none" xmlns="http://www.w3.org/2000/svg">
<g id="Group 318">
<path id="Vector" d="M47.1157 9.14946L47.1157 9.14949L47.119 9.14723C49.5907 7.45129 52.722 6.27116 56.3917 5.48255C58.8887 4.95539 60.2503 4.82794 61.0299 4.85985C61.4173 4.87571 61.6531 4.93072 61.8098 4.99075C61.9425 5.04158 62.0238 5.09707 62.1104 5.15619C62.1203 5.16291 62.1302 5.16968 62.1402 5.17649C62.3252 5.36359 62.4664 5.53837 62.5484 5.70273C62.6303 5.86695 62.647 6.00738 62.603 6.13948L62.5938 6.1674L62.5926 6.19681C62.1986 16.6017 59.3108 23.38 54.3935 26.6252C51.9308 28.1846 49.3383 28.7044 47.2654 28.7044C45.5741 28.7044 44.1451 28.4433 43.2414 28.1843L43.1373 28.1545L43.0535 28.2232C41.5746 29.4367 37.4475 33.3202 37.7123 41.7195V41.8467C37.3586 69.1118 37.2146 83.1076 37.1426 90.4852C37.1346 91.3014 37.1275 92.0366 37.1212 92.6996C37.0697 98.0358 37.0633 98.7031 37.0055 99.3987L37.0048 99.4073V99.4158C37.0048 100.226 36.4385 100.793 35.6316 100.793H35.6309H35.6301H35.6293H35.6286H35.6278H35.6271H35.6263H35.6256H35.6248H35.6241H35.6233H35.6226H35.6219H35.6211H35.6204H35.6197H35.619H35.6182H35.6175H35.6168H35.6161H35.6154H35.6147H35.614H35.6133H35.6126H35.6119H35.6112H35.6105H35.6098H35.6091H35.6085H35.6078H35.6071H35.6064H35.6058H35.6051H35.6045H35.6038H35.6031H35.6025H35.6018H35.6012H35.6005H35.5999H35.5993H35.5986H35.598H35.5973H35.5967H35.5961H35.5955H35.5948H35.5942H35.5936H35.593H35.5924H35.5918H35.5912H35.5906H35.59H35.5894H35.5888H35.5882H35.5876H35.587H35.5864H35.5858H35.5853H35.5847H35.5841H35.5835H35.583H35.5824H35.5819H35.5813H35.5807H35.5802H35.5796H35.5791H35.5785H35.578H35.5774H35.5769H35.5764H35.5758H35.5753H35.5748H35.5742H35.5737H35.5732H35.5727H35.5721H35.5716H35.5711H35.5706H35.5701H35.5696H35.5691H35.5686H35.5681H35.5676H35.5671H35.5666H35.5661H35.5656H35.5652H35.5647H35.5642H35.5637H35.5632H35.5628H35.5623H35.5618H35.5614H35.5609H35.5604H35.56H35.5595H35.5591H35.5586H35.5582H35.5577H35.5573H35.5568H35.5564H35.556H35.5555H35.5551H35.5547H35.5542H35.5538H35.5534H35.553H35.5526H35.5521H35.5517H35.5513H35.5509H35.5505H35.5501H35.5497H35.5493H35.5489H35.5485H35.5481H35.5477H35.5473H35.5469H35.5465H35.5461H35.5458H35.5454H35.545H35.5446H35.5443H35.5439H35.5435H35.5431H35.5428H35.5424H35.5421H35.5417H35.5413H35.541H35.5406H35.5403H35.5399H35.5396H35.5392H35.5389H35.5386H35.5382H35.5379H35.5375H35.5372H35.5369H35.5365H35.5362H35.5359H35.5356H35.5352H35.5349H35.5346H35.5343H35.534H35.5337H35.5334H35.5331H35.5327H35.5324H35.5321H35.5318H35.5315H35.5312H35.5309H35.5307H35.5304H35.5301H35.5298H35.5295H35.5292H35.5289H35.5287H35.5284H35.5281H35.5278H35.5276H35.5273H35.527H35.5267H35.5265H35.5262H35.526H35.5257H35.5254H35.5252H35.5249H35.5247H35.5244H35.5242H35.5239H35.5237H35.5234H35.5232H35.5229H35.5227H35.5225H35.5222H35.522H35.5218H35.5215H35.5213H35.5211H35.5208H35.5206H35.5204H35.5202H35.52H35.5197H35.5195H35.5193H35.5191H35.5189H35.5187H35.5185H35.5183H35.518H35.5178H35.5176H35.5174H35.5172H35.517H35.5168H35.5166H35.5165H35.5163H35.5161H35.5159H35.5157H35.5155H35.5153H35.5151H35.515H35.5148H35.5146H35.5144H35.5142H35.5141H35.5139H35.5137H35.5136H35.5134H35.5132H35.5131H35.5129H35.5127H35.5126H35.5124H35.5122H35.5121H35.5119H35.5118H35.5116H35.5115H35.5113H35.5112H35.511H35.5109H35.5107H35.5106H35.5104H35.5103H35.5102H35.51H35.5099H35.5097H35.5096H35.5095H35.5093H35.5092H35.5091H35.509H35.5088H35.5087H35.5086H35.5084H35.5083H35.5082H35.5081H35.508H35.5078H35.5077H35.5076H35.5075H35.5074H35.5073H35.5072H35.507H35.5069H35.5068H35.5067H35.5066H35.5065H35.5064H35.5063H35.5062H35.5061H35.506H35.5059H35.5058H35.5057H35.5056H35.5055H35.5054H35.5053H35.5053H35.5052H35.5051H35.505H35.5049H35.5048H35.5047H35.5047H35.5046H35.5045H35.5044H35.5043H35.5042H35.5042H35.5041H35.504H35.5039H35.5039H35.5038H35.5037H35.5037H35.5036H35.5035H35.5034H35.5034H35.5033H35.5032H35.5032H35.5031H35.5031H35.503H35.5029H35.5029H35.5028H35.5028H35.5027H35.5026H35.5026H35.5025H35.5024H35.5023H35.5022H35.5021H35.502H35.5019H35.5018H35.5017H35.5017H35.5016H35.5015H35.5014H35.5013H35.5013H35.5012H35.5011H35.5011H35.501H35.5009H35.5009H35.5008H35.5007H35.5006H35.5006H35.5005H35.5005H35.5004H35.5003H35.5003H35.5002H35.5002H35.5001H35.5C35.2933 100.793 35.153 100.756 35.0555 100.702C34.9609 100.649 34.8922 100.572 34.8406 100.465C34.7295 100.234 34.7066 99.8859 34.7066 99.4158C34.7066 85.0645 34.8315 73.2116 34.9565 63.6608C34.9879 61.2629 35.0193 59.01 35.0487 56.8989C35.1364 50.6025 35.2066 45.5684 35.2066 41.7162C35.2066 32.6462 29.9887 28.6946 29.3547 28.2178L29.2555 28.1432L29.143 28.1958C27.1894 29.1101 24.5865 29.8925 21.727 29.8925H21.7247H21.7224H21.7201H21.7178H21.7155H21.7132H21.7109H21.7086H21.7063H21.704H21.7017H21.6995H21.6972H21.6949H21.6926H21.6904H21.6881H21.6858H21.6836H21.6813H21.6791H21.6768H21.6746H21.6723H21.6701H21.6678H21.6656H21.6634H21.6611H21.6589H21.6567H21.6545H21.6522H21.65H21.6478H21.6456H21.6434H21.6412H21.639H21.6368H21.6346H21.6324H21.6302H21.628H21.6258H21.6237H21.6215H21.6193H21.6171H21.6149H21.6128H21.6106H21.6084H21.6063H21.6041H21.602H21.5998H21.5977H21.5955H21.5934H21.5912H21.5891H21.587H21.5848H21.5827H21.5806H21.5784H21.5763H21.5742H21.5721H21.57H21.5678H21.5657H21.5636H21.5615H21.5594H21.5573H21.5552H21.5531H21.551H21.5489H21.5468H21.5448H21.5427H21.5406H21.5385H21.5364H21.5344H21.5323H21.5302H21.5282H21.5261H21.524H21.522H21.5199H21.5179H21.5158H21.5138H21.5117H21.5097H21.5076H21.5056H21.5036H21.5015H21.4995H21.4975H21.4955H21.4934H21.4914H21.4894H21.4874H21.4854H21.4833H21.4813H21.4793H21.4773H21.4753H21.4733H21.4713H21.4693H21.4673H21.4653H21.4633H21.4614H21.4594H21.4574H21.4554H21.4534H21.4515H21.4495H21.4475H21.4455H21.4436H21.4416H21.4397H21.4377H21.4357H21.4338H21.4318H21.4299H21.4279H21.426H21.424H21.4221H21.4202H21.4182H21.4163H21.4144H21.4124H21.4105H21.4086H21.4066H21.4047H21.4028H21.4009H21.399H21.397H21.3951H21.3932H21.3913H21.3894H21.3875H21.3856H21.3837H21.3818H21.3799H21.378H21.3761H21.3742H21.3723H21.3705H21.3686H21.3667H21.3648H21.3629H21.3611H21.3592H21.3573H21.3554H21.3536H21.3517H21.3498H21.348H21.3461H21.3443H21.3424H21.3406H21.3387H21.3369H21.335H21.3332H21.3313H21.3295H21.3276H21.3258H21.3239H21.3221H21.3203H21.3184H21.3166H21.3148H21.313H21.3111H21.3093H21.3075H21.3057H21.3039H21.302H21.3002H21.2984H21.2966H21.2948H21.293H21.2912H21.2894H21.2876H21.2858H21.284H21.2822H21.2804H21.2786H21.2768H21.275H21.2732H21.2715H21.2697H21.2679H21.2661H21.2643H21.2625H21.2608H21.259H21.2572H21.2555H21.2537H21.2519H21.2501H21.2484H21.2466H21.2449H21.2431H21.2413H21.2396H21.2378H21.2361H21.2343H21.2326H21.2308H21.2291H21.2273H21.2256H21.2239H21.2221H21.2204H21.2186H21.2169H21.2152H21.2134H21.2117H21.21H21.2082H21.2065H21.2048H21.2031H21.2013H21.1996H21.1979H21.1962H21.1945H21.1927H21.191H21.1893H21.1876H21.1859H21.1842H21.1825H21.1808H21.1791H21.1774H21.1757H21.174H21.1723H21.1706H21.1689H21.1672H21.1655H21.1638H21.1621H21.1604H21.1587H21.157H21.1553H21.1537H21.152H21.1503H21.1486H21.1469H21.1453H21.1436H21.1419H21.1402H21.1386H21.1369H21.1352H21.1335H21.1319H21.1302H21.1285H21.1269H21.1252H21.1236H21.1219H21.1202H21.1186H21.1169H21.1153H21.1136H21.112H21.1103H21.1087H21.107H21.1054H21.1037H21.1021H21.1004H21.0988H21.0971H21.0955H21.0938H21.0922H21.0906H21.0889H21.0873H21.0856H21.084H21.0824H21.0807H21.0791H21.0775H21.0758H21.0742H21.0726H21.071H21.0693H21.0677H21.0661H21.0645H21.0628H21.0612H21.0596H21.058H21.0564H21.0547H21.0531H21.0515H21.0499H21.0483H21.0467H21.0451H21.0434H21.0418H21.0402H21.0386H21.037H21.0354H21.0338H21.0322H21.0306H21.029H21.0274H21.0258H21.0242H21.0226H21.021H21.0194H21.0178H21.0162H21.0146H21.013H21.0114H21.0098H21.0082H21.0066H21.005H21.0034H21.0019H21.0003H20.9987H20.9971H20.9955H20.9939H20.9923H20.9907H20.9892H20.9876H20.986H20.9844H20.9828H20.9813H20.9797H20.9781H20.9765H20.9749H20.9734H20.9718H20.9702H20.9686H20.9671H20.9655H20.9639H20.9623H20.9608H20.9592H20.9576H20.9561H20.9545H20.9529H20.9513H20.9498H20.9482H20.9466H20.9451H20.9435H20.9419H20.9404H20.9388H20.9372H20.9357H20.9341H20.9326H20.931H20.9294H20.9279H20.9263H20.9248H20.9232H20.9216H20.9201H20.9185H20.917H20.9154H20.9138H20.9123H20.9107H20.9092H20.9076H20.9061H20.9045H20.903H20.9014H20.8998H20.8983H20.8967H20.8952H20.8936H20.8921H20.8905H20.889H20.8874H20.8859H20.8843H20.8828H20.8812H20.8797H20.8781H20.8766H20.875H20.8735H20.8719H20.8704H20.8688H20.8673H20.8657H20.8642H20.8626H20.8611H20.8596H20.858H20.8565H20.8549H20.8534H20.8518H20.8503H20.8487H20.8472H20.8456H20.8441H20.8426H20.841H20.8395H20.8379H20.8364H20.8348H20.8333H20.8317H20.8302H20.8287H20.8271H20.8256H20.824H20.8225H20.8209H20.8194H20.8179H20.8163H20.8148H20.8132H20.8117H20.8101H20.8101C14.9672 29.6304 9.62832 26.2443 5.97253 20.6149C3.74926 17.0735 2.04677 12.8729 0.998304 8.01081C0.995544 7.99697 0.992337 7.98095 0.988709 7.96283C0.90478 7.54352 0.595838 6.00007 0.392094 4.41265C0.285563 3.58265 0.208616 2.74671 0.206596 2.05592C0.205585 1.7103 0.223387 1.40668 0.263768 1.16103C0.305062 0.909847 0.36632 0.743471 0.434907 0.651763L0.435161 0.651953L0.441508 0.642406C0.643863 0.338016 1.07326 0.207385 1.58106 0.206559C15.3849 0.866527 24.6368 4.55735 28.7922 11.1987L28.7921 11.1987L28.794 11.2016C32.4331 16.8059 31.5267 22.9397 30.8726 25.6949L30.8413 25.8264L30.9494 25.9077C31.9777 26.6811 34.1875 28.6313 35.7508 32.8117L35.9363 33.3077L36.1356 32.8171C37.5676 29.2922 39.6488 27.207 40.9442 26.1678L41.0563 26.0778L41.011 25.9415C40.4869 24.3648 39.9705 22.415 40.0996 20.3429L40.0997 20.3422C40.3585 15.9303 42.9472 11.8927 47.1157 9.14946ZM8.38972 18.9905L8.39087 18.9923C11.5775 23.7857 16.1069 26.7362 21.0564 27.0049C23.0719 27.1393 25.6042 26.6011 27.9892 25.671L28.0847 25.6338L28.1128 25.5352C28.6435 23.6725 29.8494 17.9195 26.5078 12.8249C22.8976 7.19422 15.0421 4.01936 3.44297 3.22627L3.18228 3.20845L3.22512 3.46621C3.31854 4.02831 3.42859 4.65723 3.53154 5.24566C3.57384 5.48739 3.61494 5.72228 3.6532 5.94289C3.71901 6.32237 3.77637 6.65935 3.81725 6.91761C3.8597 7.18576 3.88053 7.34718 3.88053 7.39275V7.41373L3.88475 7.43429C4.8105 11.9435 6.3987 15.929 8.38972 18.9905ZM44.0469 25.4258L44.0857 25.5191L44.1831 25.5458C45.6488 25.9467 49.5429 26.6256 52.9105 24.3292C56.6768 21.7663 58.9225 16.2706 59.7136 8.20499L59.7388 7.94773L59.4823 7.97988C58.9494 8.04668 58.385 8.14662 57.94 8.22927C57.831 8.24952 57.7303 8.26851 57.6387 8.28577C57.5414 8.30411 57.4545 8.32051 57.3789 8.33439C57.3062 8.34774 57.247 8.3582 57.2025 8.36527C57.1657 8.37112 57.1471 8.37324 57.1407 8.37397C57.1383 8.37424 57.1377 8.37432 57.1385 8.37432H57.114L57.0901 8.38005C53.7854 9.17543 50.9967 10.2388 48.7327 11.7079L48.7326 11.7079L48.7287 11.7106C45.3947 13.9841 43.3791 17.2055 43.1102 20.7103L43.1096 20.7182V20.7261C43.1096 22.0699 43.377 23.8135 44.0469 25.4258Z" fill="#FF9700" stroke="#FF9700" stroke-width="0.413111"/>
</g>
</svg>
