<svg width="31" height="32" viewBox="0 0 31 32" fill="none" xmlns="http://www.w3.org/2000/svg">
<g id="twemoji:banana" clip-path="url(#clip0_902_1048)">
<path id="Vector" d="M24.1111 2.22216C26.4223 1.06655 28.4167 5.6666 26.6944 13.4166C25.742 17.7024 22.3889 21.1666 18.9444 23.7499C15.5 26.3333 9.47221 22.8888 12.9167 19.4444C16.3611 15.9999 19.8055 13.4166 21.5278 8.24993C22.6507 4.88127 22.3889 3.08327 24.1111 2.22216Z" fill="#FFE8B6"/>
<path id="Vector_2" d="M26.6944 7.38899C26.6944 9.97233 25.8333 15.139 23.25 18.5834C20.6667 22.0279 17.2222 22.889 19.8056 19.4446C22.3889 16.0001 24.1111 13.4168 24.9722 9.97233C25.8333 6.52788 26.6944 3.94455 26.6944 7.38899Z" fill="#FFD983"/>
<path id="Vector_3" d="M18.9444 17.7221C18.6895 18.2319 19.9493 14.4215 16.3611 12.5554C14.6526 11.6668 7.74997 13.4165 12.9166 13.4165C15.5 13.4165 16.3611 15.1388 14.6389 16.861C14.412 17.0863 14.2302 17.3529 14.1033 17.6463C13.7442 17.9443 13.3515 18.2569 12.9166 18.5832C10.9679 20.0445 7.88775 22.2231 4.30553 24.611C1.7222 26.3332 0.861084 27.1943 0.861084 28.0554C0.861084 30.6388 8.61108 30.6388 12.9166 28.9165C17.2222 27.1943 21.5278 22.8888 21.5278 22.8888L24.9722 19.4443C22.3889 15.9999 18.9444 17.7221 18.9444 17.7221Z" fill="#FFCC4D"/>
<path id="Vector_4" d="M18.9445 17.7222C18.9445 17.7222 20.4876 13.6501 16.3611 11.6945C12.8805 10.0446 9.47225 10.8334 6.88892 12.5556C4.30558 14.2778 5.16669 16 4.30558 16.8611C3.44447 17.7222 5.16669 18.5834 6.88892 16.8611C8.61114 15.1389 14.0499 12.646 16.3611 13.4167C18.9445 14.2778 18.0834 15.9992 18.9445 17.7222Z" fill="#FFE8B6"/>
<path id="Vector_5" d="M22.3888 30.6389H18.9444C17.2222 30.6389 16.3611 31.5 15.4999 31.5C14.6388 31.5 13.7777 29.7778 15.4999 29.7778C17.2222 29.7778 18.9444 29.7778 19.8055 28.9167C20.6666 28.0556 24.1111 30.6389 22.3888 30.6389Z" fill="#A6D388"/>
<path id="Vector_6" d="M15.5 31.5001C15.9756 31.5001 16.3611 31.1145 16.3611 30.6389C16.3611 30.1634 15.9756 29.7778 15.5 29.7778C15.0244 29.7778 14.6389 30.1634 14.6389 30.6389C14.6389 31.1145 15.0244 31.5001 15.5 31.5001Z" fill="#3E721D"/>
<path id="Vector_7" d="M27.7346 24.6112C27.7346 24.6112 24.1111 30.6389 22.3889 30.6389H18.9444C17.2222 30.6389 18.9444 29.7778 19.8055 28.9167C20.6666 28.0556 24.1111 28.9167 24.1111 23.7501C24.1111 21.1667 27.7346 24.6112 27.7346 24.6112Z" fill="#FFCC4D"/>
<path id="Vector_8" d="M22.3889 16.8611C24.9722 16.8611 29.2778 19.4444 28.4167 24.6111C27.5556 29.7778 24.1111 30.6389 22.3889 30.6389H20.6667C18.9445 30.6389 19.8056 29.7778 20.6667 28.9166C21.5278 28.0555 24.1111 28.9166 24.1111 23.75C24.1111 21.1666 20.6667 17.7222 18.9445 17.7222C18.9445 17.7222 20.6667 16.8611 22.3889 16.8611Z" fill="#FFE8B6"/>
<path id="Vector_9" d="M14.6389 18.5833C17.2222 18.5833 18.9444 19.4444 17.2222 21.1666C15.8608 22.528 12.0555 25.4721 8.61107 26.3333C5.16663 27.1944 1.72219 27.1944 4.30552 25.4721C6.88885 23.7499 12.7134 18.5833 14.6389 18.5833Z" fill="#FFD983"/>
<path id="Vector_10" d="M1.7222 27.1943C2.58331 27.1943 2.58331 27.1943 2.58331 27.7687C2.58331 28.3422 2.58331 28.9166 1.7222 28.9166C0.861084 28.9166 0.861084 27.7687 0.861084 27.7687C0.861084 27.7687 0.861084 27.1943 1.7222 27.1943Z" fill="#C1694F"/>
</g>
<defs>
<clipPath id="clip0_902_1048">
<rect width="31" height="31" fill="white" transform="translate(0 0.5)"/>
</clipPath>
</defs>
</svg>
