<svg width="94" height="94" viewBox="0 0 94 94" fill="none" xmlns="http://www.w3.org/2000/svg">
<g id="Group">
<path id="Vector" d="M0.102951 76.3646C0.772132 75.7469 1.44131 75.1292 2.11049 74.563C2.5223 74.4601 2.7282 74.7689 2.9341 74.9748C10.9643 81.7181 20.1784 85.8361 30.525 87.3804C32.0177 87.5863 33.5105 87.7922 35.0548 87.8437C35.4151 87.9466 35.7754 87.9466 36.1358 87.9466C43.8056 88.1525 51.1666 86.9171 58.3217 84.1374C64.1899 81.8725 69.4404 78.6296 74.1761 74.5115C79.8899 69.5184 84.4712 63.6502 87.7142 56.804C89.3099 53.5095 90.5453 50.0092 91.4719 46.4574C91.5749 46.1486 91.6263 45.7882 91.8322 45.5308C92.3985 45.4794 92.6558 45.7368 92.6044 46.303C92.5529 48.362 91.9867 50.3181 91.4719 52.2741C90.4424 56.1863 89.0011 59.944 87.0965 63.5473C85.2948 66.9961 83.1329 70.2391 80.6621 73.2761C79.0148 75.2837 77.2647 77.1368 75.3601 78.887C72.6319 81.3578 69.6978 83.5712 66.5578 85.4758C60.9984 88.8217 54.9758 91.0866 48.6443 92.3735C47.1515 92.6824 45.6587 92.9912 44.1659 92.9912C43.8571 93.1456 43.4968 92.9912 43.1879 93.1457C42.8791 93.2486 42.5187 93.0427 42.2614 93.3516C41.9525 93.3516 41.6437 93.3516 41.3348 93.3516C41.0259 93.1971 40.7171 93.1971 40.4082 93.3516C38.7095 93.3516 37.0109 93.3516 35.3122 93.3516C35.0548 93.1971 34.8489 93.1971 34.5915 93.3516C34.3341 93.3516 34.1282 93.3516 33.8709 93.3516C32.0692 93.0942 30.2161 93.0942 28.4145 92.7853C21.6712 91.4984 15.3397 89.182 9.47149 85.5788C6.28001 83.6227 3.34591 81.3063 0.56623 78.8355C0.308853 78.6296 0.154426 78.3207 0 78.0119C0.102951 77.4456 0.102951 76.9309 0.102951 76.3646Z" fill="#8AD56B"/>
<path id="Vector_2" d="M40.5627 93.3C40.8716 93.0426 41.1805 93.0426 41.4893 93.3C41.1805 93.3 40.8716 93.3 40.5627 93.3Z" fill="#93D976"/>
<path id="Vector_3" d="M34.746 93.3C35.0033 93.0426 35.2092 93.0426 35.4666 93.3C35.2092 93.3 35.0033 93.3 34.746 93.3Z" fill="#ADE298"/>
<path id="Vector_4" d="M8.49341 68.1801C12.2511 64.4224 15.9574 60.6647 19.7151 56.9069C36.5475 40.0745 53.38 23.242 70.2125 6.40951C70.4184 6.20361 70.6758 5.99771 70.8817 5.79181C71.345 5.74033 71.6023 6.04919 71.8597 6.30656C78.6545 13.5646 82.824 22.1095 84.1624 31.9413C84.5227 34.3607 84.7801 36.8315 84.6771 39.2509C84.6771 39.6112 84.8315 40.1259 84.2653 40.3318C83.802 39.5597 84.3168 38.6846 84.1624 37.9125C84.2138 40.4863 83.5961 43.06 82.9269 45.5823C81.0223 52.3771 77.7794 58.3997 73.1466 63.7017C67.3299 70.2391 60.2263 74.8719 51.8358 77.4457C46.3794 79.1443 40.82 79.6591 35.2092 79.3503C29.6498 79.0414 24.3479 77.6516 19.2518 75.3352C15.7515 73.7394 12.56 71.6804 9.52292 69.364C9.11111 69.0037 8.64783 68.6948 8.49341 68.1801Z" fill="#FE4755"/>
<path id="Vector_5" d="M84.3169 40.3318C84.5743 39.1994 84.4713 38.0154 84.4199 36.883C84.111 31.1692 83.03 25.6613 80.7651 20.4108C78.5517 15.1603 75.4631 10.4761 71.4995 6.35802C71.2936 6.15212 71.0362 5.94622 70.8303 5.79179C72.632 3.99015 74.3822 2.23999 76.1838 0.438345C76.8015 -0.179361 77.7795 -0.127885 78.3458 0.48982C85.2435 7.79934 89.7733 16.2928 92.0382 26.0731C92.8618 29.6764 93.3251 33.3312 93.3766 37.0374C93.2222 39.4567 93.0677 41.8246 92.553 44.1925C92.45 44.7072 92.45 45.222 91.9353 45.5823C91.2146 48.9282 90.0822 52.0682 88.7438 55.2082C86.8907 59.5837 84.3684 63.5987 81.4858 67.305C79.4268 69.9302 77.0589 72.2466 74.5881 74.5115C72.3231 76.5706 69.8523 78.3722 67.2785 79.9679C61.8736 83.3138 56.0569 85.6302 49.8284 86.9686C45.2985 87.9466 40.7687 88.307 36.1359 88.204C35.7756 87.9466 35.3637 88.2555 35.0549 88.0496C29.9073 87.8437 24.9657 86.7627 20.127 85.1155C14.1044 83.005 8.5965 79.9679 3.70634 75.9014C3.19158 75.4381 2.62535 75.0263 2.1106 74.563C3.34601 73.3276 4.58142 72.0922 5.76535 70.9083C6.17716 70.8568 6.38306 71.1656 6.58896 71.3715C11.4791 76.0043 17.09 79.5047 23.4729 81.6666C27.4365 83.005 31.5546 83.7771 35.7756 84.0345C44.1146 84.4978 51.9388 82.7991 59.3513 79.0414C62.9031 77.2397 66.0946 74.9748 69.0287 72.2981C73.5585 68.2315 77.0589 63.4958 79.6841 58.0394C81.8976 53.4066 83.2874 48.5679 83.8536 43.4718C83.9566 42.6997 84.0595 41.9276 84.0081 41.104C84.0595 40.7951 84.0595 40.5377 84.3169 40.3318Z" fill="#93D976"/>
<path id="Vector_6" d="M84.3168 40.3318C83.905 50.4725 80.4562 59.4807 74.0217 67.3564C68.4624 74.2027 61.5132 78.9899 53.1742 81.8725C48.0266 83.6227 42.7246 84.4978 37.2682 84.2919C25.1715 83.8801 14.6705 79.5046 5.97116 71.0112C5.91968 70.9597 5.81673 70.9082 5.76526 70.8568C6.58887 69.8787 7.51543 69.0036 8.44198 68.1286C11.2217 70.4964 14.2072 72.504 17.4502 74.1512C21.8771 76.4161 26.5613 77.8574 31.4515 78.6296C34.9004 79.1958 38.4007 79.2473 41.8496 78.9899C47.6663 78.5781 53.2771 77.0338 58.5276 74.46C61.925 72.7613 65.1165 70.7538 67.9991 68.2315C71.5509 65.143 74.6909 61.6941 77.2132 57.679C80.0958 52.9948 82.2063 48.0016 83.2873 42.6482C83.6476 40.898 83.905 39.1479 84.2139 37.3977C84.3168 38.3757 84.3168 39.3538 84.3168 40.3318Z" fill="#FB2B3A"/>
<path id="Vector_7" d="M91.9352 45.5823C92.6044 42.957 92.9647 40.2288 93.2221 37.5521C93.2221 37.3462 93.2221 37.1918 93.3765 37.0374C93.3765 38.1698 93.3765 39.3537 93.3765 40.4862C93.2221 41.001 93.428 41.5157 93.2221 41.979C93.2221 42.3908 93.1706 42.8026 93.1706 43.2144C93.0162 43.5233 93.1706 43.8836 93.0162 44.1924C92.9132 44.9131 92.9647 45.6852 92.6558 46.3544C92.5529 45.9941 92.2955 45.7367 91.9352 45.5823Z" fill="#8BD56C"/>
<path id="Vector_8" d="M93.2736 41.9791C93.2736 41.4644 93.1192 40.9496 93.428 40.4863C93.3765 41.0011 93.4795 41.5158 93.2736 41.9791Z" fill="#93D976"/>
<path id="Vector_9" d="M93.0677 44.1925C93.0677 43.8837 92.9132 43.5233 93.2221 43.2145C93.2221 43.5233 93.2736 43.8837 93.0677 44.1925Z" fill="#93D976"/>
<path id="Vector_10" d="M43.2909 93.0941C43.5997 92.8367 43.9086 92.9912 44.2689 92.9397C43.9601 93.1971 43.6512 93.1456 43.2909 93.0941Z" fill="#93D976"/>
<path id="Vector_11" d="M35.1062 88.0497C35.4665 88.1012 35.8783 87.8953 36.1872 88.2042C35.8269 88.1527 35.4151 88.3586 35.1062 88.0497Z" fill="#8CD66D"/>
<path id="Vector_12" d="M44.2174 62.6722C44.2174 64.1136 43.0849 65.349 41.5921 65.4004C40.1508 65.4519 38.8639 64.268 38.8125 62.7237C38.761 61.6942 38.9154 60.6647 39.4302 59.7381C40.1508 58.4513 41.5407 58.1939 42.6217 59.1719C43.4453 59.944 44.2174 61.6427 44.2174 62.6722Z" fill="#5B5B5B"/>
<path id="Vector_13" d="M62.5942 44.141C61.4103 43.9351 60.1234 43.4718 59.1454 42.3394C58.3217 41.4128 58.5791 40.0744 59.6601 39.4567C60.844 38.7875 62.0795 38.5302 63.4178 38.839C64.7047 39.0964 65.6313 40.4348 65.5283 41.6702C65.3739 43.0085 64.1899 44.0895 62.5942 44.141Z" fill="#5B5B5B"/>
<path id="Vector_14" d="M54.9759 57.5761C54.2552 57.5761 53.689 57.3188 53.1742 56.804C52.2992 55.9804 51.7844 54.8994 51.527 53.7155C51.2696 52.2227 52.4536 51.0902 53.9464 51.3991C55.0788 51.6565 56.1083 52.1712 56.9319 53.0463C57.7041 53.8699 57.8585 54.8479 57.4467 55.9289C57.0864 56.9584 56.0569 57.6276 54.9759 57.5761Z" fill="#5B5B5B"/>
<path id="Vector_15" d="M29.4954 62.5692C29.4439 63.8561 29.341 65.143 28.0541 65.9151C27.0246 66.5843 25.7892 66.4814 24.8626 65.6578C24.039 64.9371 23.7301 63.7017 24.1419 62.6722C24.5023 61.7456 25.0685 60.9735 25.8406 60.3558C27.4364 59.0174 29.0836 59.6351 29.4439 61.6941C29.4954 61.9515 29.4439 62.2604 29.4954 62.5692Z" fill="#5B5B5B"/>
<path id="Vector_16" d="M62.5942 29.3675C62.4398 29.3675 62.1824 29.419 61.9765 29.3675C61.1014 29.2131 60.2263 29.0072 59.8145 28.0806C59.4027 27.1541 59.763 26.4334 60.3807 25.7643C61.2558 24.7862 62.2339 23.9111 63.6752 23.9111C65.065 23.9111 66.146 24.8377 66.3519 26.2275C66.5063 27.4115 65.6827 28.7498 64.4988 29.1102C63.9325 29.3161 63.3148 29.419 62.5942 29.3675Z" fill="#5B5B5B"/>
</g>
</svg>
