<svg width="247" height="248" viewBox="0 0 247 248" fill="none" xmlns="http://www.w3.org/2000/svg">
<path d="M97.4593 94.4475L88.1128 86.4631L89.8883 84.3847L99.2349 92.369L97.4593 94.4475ZM102.401 88.6621L93.0549 80.6778L94.8418 78.5861L104.188 86.5704L102.401 88.6621ZM94.617 89.8668L92.8165 88.3287L97.2837 83.0994L99.0841 84.6375L94.617 89.8668Z" fill="#595959" fill-opacity="0.7"/>
<path d="M110.04 83.5867C109.247 84.047 108.446 84.2971 107.637 84.337C106.832 84.3611 106.085 84.1839 105.396 83.8055C104.707 83.4272 104.149 82.8715 103.724 82.1386C103.299 81.4057 103.091 80.6541 103.1 79.8837C103.114 79.0975 103.32 78.3669 103.72 77.6918C104.12 77.0168 104.692 76.4637 105.435 76.0326C106.158 75.6131 106.886 75.3988 107.618 75.3896C108.351 75.3804 109.033 75.5615 109.665 75.9331C110.307 76.2989 110.834 76.8382 111.248 77.551C111.324 77.6815 111.395 77.8279 111.463 77.9901C111.534 78.1365 111.605 78.3167 111.676 78.5308L105.375 82.2075L104.457 80.6263L109.779 77.5176L109.17 78.757C108.915 78.3411 108.649 78.0326 108.371 77.8315C108.088 77.6203 107.784 77.5143 107.462 77.5136C107.144 77.497 106.814 77.5877 106.472 77.7858C106.111 77.9955 105.844 78.2644 105.672 78.5924C105.504 78.9045 105.433 79.2548 105.457 79.6434C105.491 80.0262 105.633 80.4334 105.884 80.8651C106.134 81.2968 106.425 81.6246 106.757 81.8484C107.092 82.0564 107.45 82.1642 107.83 82.1717C108.214 82.1634 108.602 82.0456 108.994 81.8184C109.355 81.6087 109.647 81.3591 109.868 81.0697C110.083 80.7702 110.229 80.4309 110.304 80.0517L112.303 80.5826C112.186 81.214 111.933 81.7837 111.543 82.2917C111.154 82.7996 110.652 83.2313 110.04 83.5867Z" fill="#595959" fill-opacity="0.7"/>
<path d="M120.413 79.9069C119.564 80.0982 118.752 80.0849 117.977 79.8668C117.202 79.6487 116.542 79.2559 115.998 78.6884C115.454 78.1209 115.09 77.4295 114.906 76.6142C114.72 75.7876 114.752 75.0069 115.003 74.2721C115.263 73.5235 115.696 72.8845 116.302 72.3552C116.909 71.8259 117.643 71.4643 118.503 71.2704C119.149 71.125 119.763 71.1056 120.346 71.2122C120.938 71.3049 121.494 71.5249 122.012 71.8721L120.722 73.9117C120.482 73.7399 120.219 73.6324 119.936 73.5892C119.664 73.5434 119.364 73.5575 119.035 73.6315C118.661 73.7157 118.347 73.8759 118.09 74.112C117.843 74.3343 117.668 74.6118 117.564 74.9445C117.469 75.2633 117.465 75.6153 117.552 76.0003C117.639 76.3853 117.795 76.7071 118.019 76.9659C118.256 77.222 118.54 77.4019 118.873 77.5054C119.205 77.6089 119.553 77.6199 119.915 77.5382C120.255 77.4617 120.542 77.3375 120.777 77.1656C121.021 76.9798 121.215 76.7576 121.359 76.4991L123.382 77.7925C123.053 78.3424 122.644 78.7975 122.154 79.1578C121.662 79.5067 121.081 79.7564 120.413 79.9069Z" fill="#595959" fill-opacity="0.7"/>
<path d="M132.104 79.4804L132.502 74.6739C132.539 74.2343 132.429 73.87 132.174 73.5809C131.93 73.2812 131.601 73.1141 131.184 73.0796C130.895 73.0557 130.635 73.0982 130.405 73.2073C130.176 73.3047 129.988 73.4639 129.841 73.6847C129.696 73.894 129.611 74.1432 129.587 74.4324L128.605 73.8444C128.66 73.185 128.846 72.6181 129.165 72.1437C129.484 71.6692 129.903 71.3196 130.423 71.0947C130.943 70.8583 131.527 70.7669 132.175 70.8206C132.834 70.8752 133.401 71.0619 133.876 71.3807C134.351 71.688 134.702 72.0956 134.928 72.6035C135.166 73.1008 135.259 73.6676 135.206 74.3038L134.759 79.7003L132.104 79.4804ZM126.534 79.019L127.578 66.4214L130.233 66.6413L129.189 79.2389L126.534 79.019Z" fill="#595959" fill-opacity="0.7"/>
<path d="M141.22 82.4467C140.417 82.1092 139.764 81.6266 139.26 80.999C138.771 80.3652 138.47 79.6592 138.356 78.8811C138.243 78.103 138.348 77.3288 138.672 76.5584C138.996 75.788 139.473 75.1766 140.104 74.7242C140.735 74.2719 141.446 74.0041 142.237 73.9211C143.032 73.8273 143.836 73.9514 144.649 74.2934C145.462 74.6354 146.116 75.118 146.609 75.7411C147.102 76.3642 147.406 77.0648 147.519 77.8429C147.637 78.6103 147.534 79.3792 147.21 80.1496C146.886 80.92 146.407 81.5367 145.771 81.9998C145.136 82.4629 144.42 82.7413 143.625 82.8351C142.835 82.9182 142.033 82.7887 141.22 82.4467ZM142.158 80.2158C142.511 80.3643 142.853 80.4199 143.183 80.3826C143.518 80.3346 143.814 80.2008 144.07 79.9811C144.341 79.7552 144.554 79.4604 144.707 79.0966C144.86 78.7328 144.917 78.3856 144.88 78.0551C144.847 77.7139 144.729 77.4122 144.524 77.1499C144.335 76.8814 144.064 76.6728 143.711 76.5243C143.368 76.3803 143.03 76.3323 142.695 76.3803C142.364 76.4176 142.065 76.5438 141.799 76.759C141.532 76.9742 141.322 77.2637 141.169 77.6275C141.02 77.9806 140.96 78.3331 140.989 78.685C141.021 79.0262 141.138 79.3333 141.338 79.6063C141.542 79.8686 141.816 80.0718 142.158 80.2158Z" fill="#595959" fill-opacity="0.7"/>
<path d="M155.219 93.781C154.863 93.3376 154.622 92.8614 154.495 92.3522C154.369 91.8431 154.361 91.3509 154.47 90.8757C154.589 90.3933 154.828 89.9776 155.188 89.6288L157.971 87.3931C158.389 87.1166 158.851 86.9688 159.357 86.9496C159.862 86.9304 160.355 87.0335 160.834 87.2591C161.313 87.4847 161.731 87.8192 162.087 88.2625C162.589 88.8869 162.883 89.5588 162.97 90.2783C163.064 91.0069 162.962 91.7141 162.664 92.4C162.374 93.0949 161.898 93.7078 161.238 94.2385C160.577 94.7693 159.876 95.1016 159.135 95.2356C158.401 95.3785 157.689 95.3257 156.998 95.077C156.314 94.8373 155.721 94.4054 155.219 93.781ZM156.787 91.8959C157.027 92.1945 157.302 92.3979 157.612 92.506C157.929 92.6231 158.257 92.6505 158.594 92.5882C158.931 92.5258 159.249 92.3747 159.547 92.1347C159.855 91.8875 160.075 91.6061 160.209 91.2904C160.342 90.9746 160.382 90.6528 160.327 90.3248C160.288 89.9985 160.152 89.6907 159.919 89.4011C159.687 89.1116 159.412 88.9082 159.094 88.7911C158.793 88.6757 158.474 88.6492 158.137 88.7115C157.8 88.7739 157.477 88.9287 157.17 89.1759C156.871 89.4158 156.651 89.6891 156.511 89.9958C156.377 90.3115 156.334 90.637 156.38 90.9723C156.426 91.3075 156.561 91.6154 156.787 91.8959ZM149.519 92.1073L158.897 84.5712L160.566 86.6479L158.87 88.0111L156.995 88.9587L155.645 90.5578L151.166 94.1568L149.519 92.1073Z" fill="#595959" fill-opacity="0.7"/>
<path d="M159.927 102.881C159.619 102.067 159.519 101.261 159.627 100.463C159.75 99.6719 160.055 98.9674 160.541 98.3493C161.027 97.7312 161.661 97.2744 162.443 96.9789C163.224 96.6834 163.997 96.6087 164.759 96.7548C165.522 96.9009 166.205 97.232 166.81 97.748C167.425 98.2599 167.889 98.9285 168.201 99.7537C168.513 100.579 168.613 101.385 168.501 102.172C168.389 102.959 168.089 103.661 167.603 104.279C167.128 104.893 166.5 105.348 165.718 105.644C164.936 105.939 164.158 106.016 163.385 105.874C162.612 105.732 161.917 105.405 161.302 104.893C160.697 104.377 160.239 103.706 159.927 102.881ZM162.191 102.025C162.326 102.384 162.521 102.67 162.776 102.884C163.042 103.094 163.342 103.216 163.678 103.25C164.028 103.292 164.388 103.242 164.757 103.103C165.127 102.963 165.418 102.766 165.632 102.512C165.857 102.253 165.994 101.959 166.044 101.63C166.108 101.308 166.072 100.968 165.937 100.609C165.806 100.262 165.607 99.9833 165.342 99.7734C165.087 99.5594 164.79 99.4298 164.45 99.3845C164.11 99.3392 163.756 99.3863 163.387 99.5259C163.028 99.6613 162.731 99.8604 162.496 100.123C162.271 100.382 162.128 100.678 162.068 101.011C162.019 101.34 162.06 101.678 162.191 102.025Z" fill="#595959" fill-opacity="0.7"/>
<path d="M161.829 109.78L170.271 109.201L170.454 111.859L162.011 112.437L161.829 109.78ZM166.649 112.119L167.442 110.948C168.441 111.101 169.231 111.419 169.811 111.903C170.391 112.386 170.713 113.092 170.776 114.018C170.804 114.423 170.764 114.781 170.658 115.091C170.563 115.411 170.397 115.696 170.158 115.945L168.052 114.501C168.171 114.377 168.26 114.225 168.317 114.047C168.375 113.868 168.396 113.669 168.381 113.449C168.351 113.009 168.188 112.665 167.891 112.418C167.608 112.182 167.194 112.082 166.649 112.119Z" fill="#595959" fill-opacity="0.7"/>
<path d="M148.39 153.754L157.817 161.643L156.063 163.739L146.636 155.85L148.39 153.754ZM143.507 159.589L152.934 167.478L151.168 169.588L141.741 161.699L143.507 159.589ZM151.279 158.305L153.095 159.825L148.681 165.099L146.865 163.58L151.279 158.305Z" fill="#595959" fill-opacity="0.7"/>
<path d="M135.92 164.741C136.709 164.273 137.507 164.015 138.315 163.967C139.12 163.935 139.869 164.104 140.562 164.475C141.255 164.847 141.818 165.397 142.25 166.125C142.683 166.854 142.899 167.603 142.897 168.374C142.892 169.16 142.693 169.893 142.299 170.572C141.906 171.251 141.34 171.81 140.602 172.248C139.883 172.675 139.158 172.897 138.425 172.914C137.692 172.93 137.008 172.756 136.373 172.391C135.727 172.032 135.194 171.498 134.773 170.789C134.696 170.659 134.623 170.514 134.554 170.352C134.481 170.207 134.409 170.027 134.336 169.814L140.599 166.073L141.533 167.645L136.242 170.808L136.839 169.562C137.098 169.975 137.368 170.281 137.647 170.479C137.933 170.688 138.237 170.791 138.56 170.788C138.878 170.801 139.207 170.707 139.546 170.506C139.906 170.292 140.17 170.021 140.338 169.691C140.503 169.377 140.571 169.026 140.543 168.638C140.505 168.256 140.359 167.85 140.104 167.421C139.849 166.992 139.555 166.667 139.221 166.446C138.884 166.242 138.525 166.138 138.145 166.134C137.76 166.146 137.374 166.268 136.984 166.499C136.625 166.712 136.336 166.965 136.118 167.257C135.906 167.558 135.764 167.899 135.692 168.279L133.688 167.768C133.798 167.136 134.046 166.564 134.43 166.052C134.815 165.54 135.311 165.103 135.92 164.741Z" fill="#595959" fill-opacity="0.7"/>
<path d="M125.585 168.526C126.432 168.326 127.244 168.332 128.021 168.542C128.799 168.752 129.462 169.138 130.012 169.7C130.562 170.262 130.933 170.95 131.125 171.763C131.32 172.588 131.295 173.369 131.052 174.106C130.8 174.857 130.373 175.501 129.772 176.036C129.171 176.571 128.441 176.94 127.582 177.143C126.938 177.295 126.324 177.321 125.74 177.22C125.147 177.133 124.59 176.919 124.068 176.577L125.336 174.524C125.579 174.694 125.842 174.799 126.126 174.839C126.399 174.882 126.699 174.865 127.027 174.788C127.399 174.7 127.713 174.536 127.966 174.297C128.211 174.073 128.384 173.793 128.484 173.46C128.576 173.14 128.576 172.788 128.486 172.404C128.395 172.02 128.236 171.699 128.008 171.443C127.77 171.189 127.483 171.012 127.15 170.912C126.816 170.812 126.468 170.805 126.107 170.89C125.768 170.97 125.482 171.097 125.249 171.271C125.007 171.46 124.815 171.684 124.674 171.944L122.638 170.671C122.961 170.118 123.365 169.658 123.852 169.293C124.341 168.939 124.918 168.684 125.585 168.526Z" fill="#595959" fill-opacity="0.7"/>
<path d="M113.899 169.071L113.55 173.882C113.518 174.322 113.631 174.685 113.889 174.971C114.136 175.268 114.467 175.432 114.884 175.462C115.173 175.483 115.433 175.438 115.662 175.327C115.89 175.227 116.076 175.066 116.221 174.844C116.364 174.633 116.446 174.383 116.467 174.094L117.455 174.672C117.407 175.331 117.226 175.9 116.912 176.378C116.598 176.856 116.183 177.209 115.665 177.44C115.147 177.681 114.564 177.779 113.916 177.731C113.256 177.684 112.687 177.503 112.21 177.189C111.731 176.886 111.376 176.482 111.146 175.977C110.902 175.482 110.804 174.916 110.85 174.279L111.242 168.878L113.899 169.071ZM119.473 169.476L118.558 182.084L115.901 181.891L116.816 169.283L119.473 169.476Z" fill="#595959" fill-opacity="0.7"/>
<path d="M104.754 166.198C105.559 166.527 106.218 167.003 106.728 167.626C107.224 168.254 107.532 168.957 107.653 169.734C107.775 170.511 107.677 171.286 107.361 172.06C107.045 172.834 106.574 173.45 105.947 173.909C105.321 174.367 104.613 174.642 103.823 174.733C103.029 174.835 102.224 174.719 101.407 174.386C100.591 174.052 99.9325 173.576 99.4327 172.958C98.933 172.34 98.6224 171.642 98.501 170.865C98.3753 170.099 98.4705 169.329 98.7867 168.556C99.1028 167.782 99.5763 167.16 100.207 166.691C100.838 166.221 101.55 165.936 102.344 165.834C103.134 165.743 103.937 165.864 104.754 166.198ZM103.838 168.438C103.483 168.293 103.141 168.241 102.811 168.282C102.476 168.333 102.182 168.47 101.928 168.692C101.659 168.921 101.45 169.218 101.301 169.583C101.152 169.949 101.097 170.296 101.138 170.626C101.174 170.967 101.296 171.268 101.503 171.528C101.695 171.795 101.968 172 102.323 172.145C102.667 172.286 103.006 172.33 103.34 172.279C103.671 172.238 103.968 172.109 104.233 171.891C104.497 171.673 104.704 171.382 104.853 171.016C104.998 170.662 105.055 170.309 105.023 169.957C104.987 169.616 104.867 169.31 104.664 169.039C104.457 168.779 104.182 168.579 103.838 168.438Z" fill="#595959" fill-opacity="0.7"/>
<path d="M90.64 155.006C91.0007 155.446 91.2468 155.92 91.3781 156.428C91.5094 156.936 91.5228 157.428 91.418 157.904C91.3043 158.388 91.0692 158.806 90.7128 159.158L87.9532 161.422C87.5379 161.703 87.0774 161.855 86.5719 161.88C86.0664 161.904 85.573 161.806 85.0917 161.585C84.6103 161.364 84.1893 161.034 83.8285 160.594C83.3205 159.975 83.0195 159.306 82.9255 158.588C82.8241 157.86 82.9187 157.152 83.2094 156.463C83.4927 155.765 83.9619 155.147 84.617 154.61C85.2721 154.073 85.9696 153.733 86.7093 153.592C87.4417 153.441 88.1548 153.487 88.8485 153.729C89.5348 153.961 90.132 154.387 90.64 155.006ZM89.0915 156.907C88.8486 156.611 88.5714 156.411 88.2601 156.306C87.9415 156.192 87.6139 156.168 87.2775 156.233C86.9411 156.299 86.6249 156.454 86.3287 156.697C86.0236 156.947 85.8059 157.231 85.6756 157.548C85.5454 157.865 85.5094 158.187 85.5679 158.514C85.6099 158.84 85.7488 159.147 85.9844 159.434C86.22 159.721 86.4971 159.922 86.8158 160.035C87.1181 160.148 87.4375 160.171 87.7739 160.105C88.1103 160.039 88.431 159.881 88.7361 159.631C89.0323 159.388 89.2492 159.113 89.3868 158.805C89.5171 158.488 89.5575 158.162 89.508 157.827C89.4586 157.492 89.3197 157.186 89.0915 156.907ZM96.3571 156.622L87.0553 164.253L85.3656 162.194L87.0483 160.813L88.9128 159.847L90.2473 158.234L94.6895 154.59L96.3571 156.622Z" fill="#595959" fill-opacity="0.7"/>
<path d="M85.8396 145.954C86.1557 146.766 86.2638 147.571 86.1639 148.369C86.0491 149.162 85.7517 149.869 85.2719 150.492C84.7921 151.115 84.1628 151.578 83.3841 151.882C82.6054 152.185 81.834 152.268 81.07 152.13C80.306 151.991 79.6191 151.667 79.0094 151.157C78.3888 150.652 77.9183 149.988 77.5981 149.166C77.2778 148.344 77.1697 147.539 77.2737 146.751C77.3778 145.963 77.6697 145.257 78.1495 144.634C78.6185 144.015 79.2424 143.554 80.0211 143.251C80.7998 142.948 81.5766 142.863 82.3514 142.997C83.1262 143.131 83.8239 143.451 84.4445 143.957C85.0543 144.467 85.5193 145.132 85.8396 145.954ZM83.5845 146.833C83.4455 146.476 83.2475 146.192 82.9908 145.981C82.7232 145.774 82.4214 145.654 82.0854 145.623C81.7344 145.586 81.375 145.639 81.0073 145.782C80.6395 145.925 80.35 146.125 80.1386 146.382C79.9164 146.643 79.7822 146.938 79.7362 147.268C79.6751 147.59 79.7141 147.93 79.8531 148.287C79.988 148.633 80.1892 148.91 80.4568 149.117C80.7136 149.328 81.0121 149.455 81.3523 149.497C81.6925 149.539 82.0464 149.488 82.4142 149.345C82.7711 149.206 83.0661 149.003 83.2991 148.738C83.5213 148.477 83.6608 148.18 83.7177 147.846C83.7638 147.517 83.7194 147.179 83.5845 146.833Z" fill="#595959" fill-opacity="0.7"/>
<path d="M83.8675 139.076L75.4316 139.74L75.2225 137.084L83.6584 136.42L83.8675 139.076ZM79.0239 136.785L78.2434 137.964C77.2425 137.822 76.4496 137.512 75.8647 137.034C75.2798 136.556 74.951 135.854 74.878 134.928C74.8462 134.523 74.882 134.165 74.9856 133.855C75.0767 133.533 75.2404 133.246 75.4768 132.995L77.5973 134.417C77.4792 134.543 77.3922 134.696 77.3364 134.875C77.2807 135.054 77.2614 135.253 77.2788 135.473C77.3134 135.913 77.4801 136.255 77.7787 136.499C78.0649 136.733 78.48 136.828 79.0239 136.785Z" fill="#595959" fill-opacity="0.7"/>
<path d="M136.01 91.0634C123.459 86.5655 109.98 89.853 100.698 98.445L158.263 117.192C155.979 105.491 147.888 95.3201 136.01 91.0634Z" fill="#595959" fill-opacity="0.7"/>
<path d="M90.3562 133.896C93.1841 144.643 100.983 153.804 112.097 157.788C124 162.053 136.739 159.317 145.939 151.693L90.3562 133.896Z" fill="#595959" fill-opacity="0.7"/>
<path d="M146.866 58.3475C115.714 47.1831 81.8234 59.5702 64.6911 86.3L71.6447 88.9111C87.2646 65.8958 117.071 55.3481 144.427 65.1521C170.174 74.3793 186.153 98.891 185.816 124.829L192.985 127.305C194.429 97.4815 176.448 68.949 146.866 58.3475Z" fill="#595959" fill-opacity="0.7"/>
<path d="M53.6511 122.899C53.2159 151.885 71.0384 179.243 99.8406 189.565C130.358 200.502 163.504 188.837 180.948 163.228L173.454 161.277C157.466 182.724 128.741 192.274 102.27 182.787C77.0456 173.747 61.1975 150.038 60.8805 124.689L53.6511 122.899Z" fill="#595959" fill-opacity="0.7"/>
<path d="M94.9865 121.062C94.4603 122.417 93.6892 123.523 92.6734 124.382C91.6576 125.24 90.4504 125.78 89.0519 126.002C87.6626 126.226 86.1278 126.069 84.4473 125.531C82.6922 124.97 81.3068 124.089 80.2911 122.889C79.2784 121.68 78.6673 120.228 78.4579 118.535C78.2485 116.842 78.4665 114.987 79.1119 112.971L79.5108 111.724C80.1592 109.698 81.0696 108.06 82.2419 106.809C83.4235 105.561 84.7777 104.739 86.3043 104.342C87.831 103.946 89.4579 104.024 91.185 104.577C92.9029 105.126 94.2483 105.907 95.2215 106.918C96.2069 107.923 96.8469 109.075 97.1415 110.373C97.4454 111.675 97.4386 113.047 97.1211 114.489L92.7239 113.082C93.0224 111.86 92.9854 110.85 92.6132 110.051C92.2532 109.246 91.3917 108.626 90.0287 108.19C89.1231 107.9 88.3013 107.879 87.5634 108.126C86.8254 108.374 86.1592 108.912 85.5646 109.74C84.973 110.56 84.4472 111.688 83.987 113.126L83.5791 114.4C83.1279 115.81 82.8851 117.019 82.8507 118.027C82.8256 119.038 83.034 119.866 83.4757 120.512C83.9205 121.148 84.6283 121.622 85.5992 121.932C86.4488 122.204 87.1893 122.302 87.8208 122.227C88.4553 122.141 89.0009 121.884 89.4577 121.454C89.9144 121.023 90.2963 120.425 90.6033 119.659L94.9865 121.062ZM99.3391 129.989L95.0959 128.631L101.98 107.121L106.224 108.479L99.3391 129.989ZM100.171 121.409C100.631 119.971 101.272 118.772 102.095 117.81C102.926 116.851 103.873 116.192 104.935 115.832C106 115.463 107.107 115.462 108.255 115.83C109.254 116.149 110.065 116.625 110.686 117.256C111.32 117.881 111.708 118.694 111.85 119.697C112.004 120.693 111.85 121.915 111.387 123.362L108.344 132.871L104.1 131.513L107.153 121.976C107.356 121.341 107.421 120.817 107.348 120.402C107.287 119.981 107.101 119.644 106.792 119.39C106.494 119.13 106.093 118.92 105.589 118.758C105.029 118.579 104.526 118.526 104.08 118.6C103.638 118.664 103.238 118.835 102.882 119.112C102.535 119.392 102.233 119.758 101.975 120.211C101.72 120.654 101.502 121.156 101.323 121.716L100.171 121.409ZM122.652 126.319C122.87 125.638 122.876 125.043 122.668 124.534C122.46 124.025 121.988 123.652 121.25 123.416C120.83 123.282 120.444 123.235 120.091 123.276C119.738 123.318 119.44 123.444 119.198 123.655C118.958 123.856 118.779 124.143 118.659 124.517L114.43 123.163C114.717 122.267 115.243 121.54 116.008 120.982C116.777 120.415 117.716 120.067 118.828 119.939C119.939 119.811 121.153 119.958 122.469 120.379C123.646 120.755 124.632 121.292 125.427 121.99C126.226 122.677 126.765 123.503 127.043 124.467C127.321 125.431 127.269 126.511 126.886 127.706L124.86 134.035C124.574 134.932 124.398 135.657 124.333 136.213C124.278 136.772 124.286 137.279 124.356 137.733L124.28 137.971L120.023 136.609C119.955 136.114 119.973 135.528 120.076 134.851C120.189 134.177 120.351 133.508 120.564 132.845L122.652 126.319ZM122.182 129.766L120.025 129.076C118.998 128.747 118.185 128.734 117.584 129.035C116.986 129.328 116.587 129.787 116.387 130.412C116.234 130.888 116.277 131.334 116.514 131.75C116.752 132.166 117.155 132.464 117.725 132.647C118.313 132.835 118.853 132.884 119.345 132.795C119.849 132.699 120.264 132.528 120.589 132.282C120.927 132.03 121.135 131.767 121.212 131.494L121.722 133.664C121.453 133.989 121.128 134.313 120.748 134.633C120.376 134.957 119.944 135.23 119.451 135.453C118.958 135.676 118.401 135.807 117.782 135.845C117.171 135.887 116.497 135.789 115.76 135.553C114.808 135.249 114.001 134.779 113.339 134.146C112.68 133.502 112.231 132.767 111.992 131.939C111.756 131.102 111.779 130.24 112.063 129.353C112.571 127.766 113.552 126.726 115.006 126.234C116.464 125.733 118.355 125.855 120.679 126.599L122.934 127.32L122.182 129.766ZM139.73 126.212L144.156 127.629L134.237 141.158L131.562 140.302L132.645 137.206L139.73 126.212ZM133.747 137.574L132.822 140.706L130.148 139.849L129.914 123.07L134.367 124.496L133.747 137.574ZM145.482 144.757L141.239 143.399L146.088 128.247L150.331 129.605L145.482 144.757ZM147.087 124.259C147.29 123.625 147.67 123.175 148.228 122.911C148.789 122.638 149.429 122.616 150.148 122.846C150.867 123.076 151.371 123.464 151.659 124.009C151.96 124.548 152.009 125.135 151.806 125.77C151.606 126.395 151.225 126.845 150.664 127.118C150.113 127.394 149.477 127.418 148.759 127.187C148.04 126.957 147.531 126.568 147.233 126.02C146.935 125.472 146.886 124.885 147.087 124.259ZM152.862 147.119L148.633 145.766L153.482 130.614L157.459 131.887L156.676 135.202L152.862 147.119ZM153.694 138.539C154.184 137.008 154.852 135.771 155.7 134.828C156.55 133.875 157.519 133.244 158.607 132.933C159.694 132.622 160.831 132.657 162.016 133.036C162.968 133.341 163.74 133.794 164.33 134.394C164.929 134.998 165.293 135.789 165.423 136.767C165.565 137.738 165.404 138.948 164.941 140.395L161.866 150.001L157.623 148.643L160.707 139.009C160.907 138.383 160.968 137.873 160.888 137.477C160.822 137.074 160.636 136.753 160.333 136.511C160.032 136.261 159.63 136.055 159.126 135.894C158.612 135.729 158.133 135.684 157.687 135.757C157.254 135.825 156.855 135.995 156.489 136.269C156.133 136.546 155.816 136.908 155.539 137.355C155.266 137.792 155.039 138.291 154.86 138.851L153.694 138.539Z" fill="#595959" fill-opacity="0.7"/>
<path d="M146.19 125.513C146.19 125.513 149.994 132.043 157.171 123.326C157.179 123.315 155.674 122.461 155.581 122.415C154.42 121.856 153.169 121.44 151.878 121.349C150.186 121.227 148.455 121.766 147.303 123.129C146.745 123.787 146.382 124.672 146.19 125.513Z" fill="#595959" fill-opacity="0.7"/>
</svg>
