<svg width="542" height="1042" viewBox="0 0 542 1042" fill="none" xmlns="http://www.w3.org/2000/svg">
<path d="M374.5 0.5V73.5M374.5 74.5V129.5C374.5 146.069 361.069 159.5 344.5 159.5H230H32C15.4315 159.5 2 172.931 2 189.5V540C2 556.569 15.4315 570 32 570H161M374.5 74.5C375.167 72 377.4 66.9 381 66.5M374.5 74.5V73.5M381 66.5C385.117 68.1469 393.595 67.3203 394.954 51.0925C394.98 50.7868 394.727 50.5225 394.421 50.5549C390.273 50.9954 382.885 52.7539 380.5 58C379.913 59.2916 378.6 63.7 381 66.5ZM374.5 73.5C374 71.5 372.4 67.3 370 66.5M370 66.5C371 61.8333 370.5 51.4 360.5 49C358.059 48.4142 356.572 48.0191 349.058 47.5354C348.762 47.5163 348.511 47.7553 348.533 48.0515C348.839 52.1328 350.719 60.4543 355.5 64.5C362 70 367.333 67.3333 370 66.5ZM510.5 1042V600C510.5 583.431 497.069 570 480.5 570H163.5M163.5 570C161.833 570.833 158.1 572.8 156.5 576M163.5 570H161M156.5 576C159.147 582.286 159.889 595.303 137.999 597.453C137.728 597.48 137.475 597.285 137.459 597.014C137.174 592.315 139.621 582.862 143 579C146.5 575 150 574 156.5 576ZM161 570C159.667 569 156.9 566.7 156.5 565.5M156.5 565.5C158.312 561.052 157.714 551.913 141.086 550.545C140.783 550.52 140.52 550.769 140.551 551.072C141.032 555.777 143.475 564.528 150 566C151.167 566.333 154.1 566.7 156.5 565.5Z" stroke="#0200CD" stroke-width="2.2"/>
<path d="M510 688C523.807 688 535 676.583 535 662.5C535 648.417 523.807 637 510 637C496.193 637 485 648.417 485 662.5C485 676.583 496.193 688 510 688Z" fill="#0200CD"/>
<path d="M509.993 630C492.331 630 478 644.331 478 661.993C478 679.656 492.331 693.987 509.993 693.987C527.656 693.987 541.987 679.656 541.987 661.993C541.987 644.331 527.669 630 509.993 630ZM509.993 690.682C494.186 690.682 481.318 677.814 481.318 662.007C481.318 646.199 494.186 633.318 509.993 633.318C525.801 633.318 538.669 646.186 538.669 661.993C538.669 677.801 525.814 690.682 509.993 690.682Z" fill="#0200CD"/>
<path d="M511.797 652.68C512.023 653.626 512.009 654.641 511.759 655.576C511.533 654.63 511.547 653.615 511.797 652.68ZM516.788 657.658L514.747 658.27C514.797 658.108 514.863 657.95 514.944 657.799L514.283 657.445L514.944 657.799C515.109 657.491 515.334 657.218 515.606 656.997C515.877 656.776 516.189 656.611 516.525 656.511L516.528 656.51L518.566 655.898C518.308 656.71 517.668 657.387 516.792 657.657C516.791 657.657 516.79 657.657 516.788 657.658ZM507.112 658.144L505.08 657.534C505.079 657.534 505.078 657.533 505.077 657.533C504.199 657.265 503.558 656.59 503.299 655.777L505.331 656.386C505.331 656.386 505.331 656.387 505.331 656.387C505.332 656.387 505.332 656.387 505.332 656.387C506.01 656.591 506.58 657.056 506.916 657.68C506.996 657.829 507.062 657.984 507.112 658.144ZM503.688 661.749C504.569 662.013 505.212 662.693 505.466 663.509L503.423 662.896C502.547 662.627 501.906 661.95 501.649 661.138L503.687 661.749L503.688 661.749ZM515.613 662.823C515.614 662.823 515.615 662.822 515.616 662.822L517.648 662.212C517.39 663.024 516.75 663.701 515.874 663.971L513.832 664.583C514.087 663.772 514.728 663.094 515.613 662.823Z" fill="white" stroke="white" stroke-width="3"/>
<path d="M504.403 669.849C505.318 669.077 506.828 668.34 510.094 668.062C512.781 668.337 513.989 669.048 514.76 669.803C515.104 670.14 515.37 670.493 515.655 670.871C515.706 670.939 515.758 671.007 515.81 671.077C515.918 671.218 516.029 671.361 516.148 671.503H510.099L502.926 671.503C503.038 671.371 503.143 671.239 503.247 671.109C503.253 671.101 503.26 671.093 503.266 671.085C503.612 670.651 503.942 670.238 504.403 669.849Z" fill="white" stroke="white"/>
<circle cx="509.5" cy="788.5" r="29.5" fill="white"/>
<path d="M510 814C523.807 814 535 802.583 535 788.5C535 774.417 523.807 763 510 763C496.193 763 485 774.417 485 788.5C485 802.583 496.193 814 510 814Z" fill="#0200CD"/>
<path d="M509.993 756C492.331 756 478 770.331 478 787.993C478 805.656 492.331 819.987 509.993 819.987C527.656 819.987 541.987 805.656 541.987 787.993C541.987 770.331 527.669 756 509.993 756ZM509.993 816.682C494.186 816.682 481.318 803.814 481.318 788.007C481.318 772.199 494.186 759.318 509.993 759.318C525.801 759.318 538.669 772.186 538.669 787.993C538.669 803.801 525.814 816.682 509.993 816.682Z" fill="#0200CD"/>
<path d="M522.085 779.363C522.072 779.149 521.981 778.947 521.83 778.795C521.678 778.644 521.476 778.553 521.262 778.54C515.601 778.212 511.055 779.934 509.102 783.158C507.811 785.289 507.813 787.879 509.084 790.349C508.362 791.208 507.833 792.214 507.534 793.296L505.755 791.516C506.61 789.729 506.577 787.867 505.645 786.321C504.197 783.939 500.865 782.656 496.727 782.904C496.513 782.917 496.311 783.008 496.159 783.159C496.008 783.311 495.917 783.513 495.905 783.727C495.661 787.865 496.939 791.197 499.322 792.641C500.11 793.122 501.016 793.376 501.939 793.375C502.833 793.364 503.714 793.152 504.516 792.755L507.25 795.489V798.625C507.25 798.857 507.342 799.08 507.506 799.244C507.67 799.408 507.893 799.5 508.125 799.5C508.357 799.5 508.58 799.408 508.744 799.244C508.908 799.08 509 798.857 509 798.625V795.399C508.996 794.007 509.47 792.656 510.342 791.571C511.467 792.159 512.716 792.474 513.985 792.49C515.213 792.494 516.418 792.159 517.467 791.521C520.691 789.57 522.417 785.024 522.085 779.363ZM504.413 790.175L501.743 787.506C501.578 787.349 501.357 787.262 501.129 787.265C500.901 787.268 500.683 787.36 500.522 787.522C500.36 787.683 500.268 787.901 500.265 788.129C500.262 788.357 500.349 788.577 500.506 788.743L503.176 791.413C502.125 791.761 501.105 791.674 500.229 791.144C498.551 790.128 497.602 787.722 497.625 784.625C500.721 784.598 503.128 785.551 504.144 787.229C504.674 788.105 504.761 789.125 504.413 790.175ZM516.56 790.026C515.094 790.913 513.372 790.981 511.622 790.245L517.494 784.371C517.658 784.207 517.751 783.985 517.751 783.753C517.751 783.52 517.659 783.298 517.495 783.134C517.331 782.969 517.108 782.877 516.876 782.877C516.644 782.877 516.421 782.969 516.257 783.133L510.384 789C509.644 787.25 509.711 785.526 510.602 784.062C512.127 781.546 515.743 780.146 520.373 780.252C520.478 784.881 519.078 788.501 516.56 790.026Z" fill="white"/>
<circle cx="517.042" cy="794.362" r="5.06383" fill="white"/>
<path d="M516.26 797.063C516.098 797.063 515.945 796.988 515.847 796.857L514.516 795.1C514.475 795.045 514.445 794.983 514.428 794.918C514.411 794.852 514.407 794.783 514.416 794.716C514.425 794.648 514.448 794.583 514.482 794.524C514.517 794.466 514.563 794.414 514.617 794.373C514.671 794.332 514.733 794.302 514.799 794.285C514.865 794.267 514.934 794.263 515.001 794.273C515.069 794.282 515.134 794.304 515.193 794.339C515.252 794.374 515.303 794.419 515.344 794.474L516.219 795.629L518.42 792.095C518.493 791.979 518.61 791.896 518.744 791.864C518.878 791.833 519.019 791.857 519.136 791.93C519.379 792.081 519.454 792.401 519.302 792.644L516.701 796.818C516.657 796.89 516.596 796.95 516.523 796.992C516.45 797.035 516.368 797.059 516.284 797.063C516.276 797.063 516.269 797.063 516.26 797.063Z" fill="#0200CD"/>
<path d="M510 934C523.807 934 535 922.583 535 908.5C535 894.417 523.807 883 510 883C496.193 883 485 894.417 485 908.5C485 922.583 496.193 934 510 934Z" fill="#0200CD"/>
<path d="M509.993 876C492.331 876 478 890.331 478 907.993C478 925.656 492.331 939.987 509.993 939.987C527.656 939.987 541.987 925.656 541.987 907.993C541.987 890.331 527.669 876 509.993 876ZM509.993 936.682C494.186 936.682 481.318 923.814 481.318 908.007C481.318 892.199 494.186 879.318 509.993 879.318C525.801 879.318 538.669 892.186 538.669 907.993C538.669 923.801 525.814 936.682 509.993 936.682Z" fill="#0200CD"/>
<path d="M506.432 898C506.193 898 506 898.193 506 898.432V905.135C506 905.45 506.243 905.765 506.535 906.031C507.089 906.534 507.539 907.193 507.523 907.941C507.424 912.741 506.768 915.561 506.768 917.027C506.768 917.82 506.768 918.613 507.536 919.405C508.304 920.198 508.304 920.198 509.072 919.405C509.84 918.613 509.84 917.82 509.84 917.027C509.84 915.561 509.184 912.741 509.085 907.941C509.069 907.193 509.519 906.534 510.073 906.031C510.365 905.765 510.608 905.45 510.608 905.135V898.432C510.608 898.193 510.415 898 510.176 898C509.937 898 509.744 898.193 509.744 898.432V902.253C509.744 902.531 509.518 902.757 509.24 902.757C508.962 902.757 508.736 902.531 508.736 902.253V898.432C508.736 898.193 508.543 898 508.304 898C508.065 898 507.872 898.193 507.872 898.432V902.253C507.872 902.531 507.646 902.757 507.368 902.757C507.09 902.757 506.864 902.531 506.864 902.253V898.432C506.864 898.193 506.671 898 506.432 898ZM516.178 898.699C515.917 898.221 515.236 897.922 515.013 898.419C514.928 898.61 514.928 898.793 514.928 898.793C514.928 898.793 514.928 898.793 514.928 898.793V912.261C514.928 912.266 514.932 912.27 514.937 912.27C514.943 912.27 514.947 912.275 514.946 912.28C514.726 914.544 514.448 916.077 514.448 917.027C514.448 917.82 514.448 918.613 515.216 919.405C515.984 920.198 515.984 920.198 516.752 919.405C517.52 918.613 517.52 917.82 517.52 917.027C517.52 915.992 517.194 914.28 516.964 911.669C516.937 911.364 516.985 911.058 517.09 910.77C517.603 909.354 518 907.641 518 905.928C518 903.903 517.103 900.385 516.178 898.699Z" fill="white"/>
</svg>
