<svg width="1920" height="375" viewBox="0 0 1920 375" fill="none" xmlns="http://www.w3.org/2000/svg">
<path d="M1745.5 361.722L1745.5 361.722L1745.5 361.725C1746.85 363.63 1747.79 366.053 1748.44 368.899C1748.88 370.835 1748.99 371.892 1748.97 372.499C1748.96 372.8 1748.92 372.984 1748.88 373.107C1748.84 373.21 1748.8 373.274 1748.75 373.342C1748.75 373.35 1748.74 373.357 1748.74 373.365C1748.59 373.511 1748.46 373.622 1748.33 373.688C1748.2 373.753 1748.1 373.767 1747.99 373.734L1747.97 373.727L1747.95 373.727C1739.85 373.522 1734.56 371.343 1731.98 367.551C1730.75 365.651 1730.32 363.641 1730.3 362.029C1730.28 360.714 1730.47 359.6 1730.66 358.895L1730.69 358.814L1730.63 358.75C1729.67 357.611 1726.61 354.441 1720.09 354.728L1719.99 354.729C1719.65 354.734 1719.3 354.749 1718.94 354.765C1718.21 354.797 1717.44 354.831 1716.61 354.772L1716.61 354.772L1716.6 354.772C1715.97 354.78 1715.52 354.345 1715.51 353.718L1715.51 353.717L1715.51 353.717L1715.51 353.716L1715.51 353.715L1715.51 353.715L1715.51 353.714L1715.51 353.714L1715.51 353.713L1715.51 353.712L1715.51 353.712L1715.51 353.711L1715.51 353.711L1715.51 353.71L1715.51 353.71L1715.51 353.709L1715.51 353.708L1715.51 353.708L1715.51 353.707L1715.51 353.707L1715.51 353.706L1715.51 353.706L1715.51 353.705L1715.51 353.705L1715.51 353.704L1715.51 353.703L1715.51 353.703L1715.51 353.702L1715.51 353.702L1715.51 353.701L1715.51 353.701L1715.51 353.7L1715.51 353.7L1715.51 353.699L1715.51 353.699L1715.51 353.698L1715.51 353.698L1715.51 353.697L1715.51 353.697L1715.51 353.696L1715.51 353.696L1715.51 353.695L1715.51 353.695L1715.51 353.694L1715.51 353.694L1715.51 353.693L1715.51 353.693L1715.51 353.692L1715.51 353.692L1715.51 353.691L1715.51 353.691L1715.51 353.69L1715.51 353.69L1715.51 353.689L1715.51 353.689L1715.51 353.688L1715.51 353.688L1715.51 353.687L1715.51 353.687L1715.51 353.686L1715.51 353.686L1715.51 353.685L1715.51 353.685L1715.51 353.684L1715.51 353.684L1715.51 353.683L1715.51 353.683L1715.51 353.683L1715.51 353.682L1715.51 353.682L1715.51 353.681L1715.51 353.681L1715.51 353.68L1715.51 353.68L1715.51 353.679L1715.51 353.679L1715.51 353.679L1715.51 353.678L1715.51 353.678L1715.51 353.677L1715.51 353.677L1715.51 353.676L1715.51 353.676L1715.51 353.676L1715.51 353.675L1715.51 353.675L1715.51 353.674L1715.51 353.674L1715.51 353.673L1715.51 353.673L1715.51 353.673L1715.51 353.672L1715.51 353.672L1715.51 353.671L1715.51 353.671L1715.51 353.671L1715.51 353.67L1715.51 353.67L1715.51 353.669L1715.51 353.669L1715.51 353.669L1715.51 353.668L1715.51 353.668L1715.51 353.668L1715.51 353.667L1715.51 353.667L1715.51 353.666L1715.51 353.666L1715.51 353.666L1715.51 353.665L1715.51 353.665L1715.51 353.665L1715.51 353.664L1715.51 353.664L1715.51 353.663L1715.51 353.663L1715.51 353.663L1715.51 353.662L1715.51 353.662L1715.51 353.662L1715.51 353.661L1715.51 353.661L1715.51 353.661L1715.51 353.66L1715.51 353.66L1715.51 353.66L1715.51 353.659L1715.51 353.659L1715.51 353.659L1715.51 353.658L1715.51 353.658L1715.51 353.658L1715.51 353.657L1715.51 353.657L1715.51 353.657L1715.51 353.656L1715.51 353.656L1715.51 353.656L1715.51 353.655L1715.51 353.655L1715.51 353.655L1715.51 353.654L1715.51 353.654L1715.51 353.654L1715.51 353.653L1715.51 353.653L1715.51 353.653L1715.51 353.652L1715.51 353.652L1715.51 353.652L1715.51 353.652L1715.51 353.651L1715.51 353.651L1715.51 353.651L1715.51 353.65L1715.51 353.65L1715.51 353.65L1715.51 353.649L1715.51 353.649L1715.51 353.649L1715.51 353.649L1715.51 353.648L1715.51 353.648L1715.51 353.648L1715.51 353.647L1715.51 353.647L1715.51 353.647L1715.51 353.647L1715.51 353.646L1715.51 353.646L1715.51 353.646L1715.51 353.646L1715.51 353.645L1715.51 353.645L1715.51 353.645L1715.51 353.645L1715.51 353.644L1715.51 353.644L1715.51 353.644L1715.51 353.644L1715.51 353.643L1715.51 353.643L1715.51 353.643L1715.51 353.643L1715.51 353.642L1715.51 353.642L1715.51 353.642L1715.51 353.642L1715.51 353.641L1715.51 353.641L1715.51 353.641L1715.51 353.641L1715.51 353.64L1715.51 353.64L1715.51 353.64L1715.51 353.64L1715.51 353.639L1715.51 353.639L1715.51 353.639L1715.51 353.639L1715.51 353.639L1715.51 353.638L1715.51 353.638L1715.51 353.638L1715.51 353.638L1715.51 353.637L1715.51 353.637L1715.51 353.637L1715.51 353.637L1715.51 353.637L1715.51 353.636L1715.51 353.636L1715.51 353.636L1715.51 353.636L1715.51 353.636L1715.51 353.635L1715.51 353.635L1715.51 353.635L1715.51 353.635L1715.51 353.635L1715.51 353.634L1715.51 353.634L1715.51 353.634L1715.51 353.634L1715.51 353.634L1715.51 353.633L1715.51 353.633L1715.51 353.633L1715.51 353.633L1715.51 353.633L1715.51 353.632L1715.51 353.632L1715.51 353.632L1715.51 353.632L1715.51 353.632L1715.51 353.632L1715.51 353.631L1715.51 353.631L1715.51 353.631L1715.51 353.631L1715.51 353.631L1715.51 353.631L1715.51 353.63L1715.51 353.63L1715.51 353.63L1715.51 353.63L1715.51 353.63L1715.51 353.63L1715.51 353.629L1715.51 353.629L1715.51 353.629L1715.51 353.629L1715.51 353.629L1715.51 353.629L1715.51 353.628L1715.51 353.628L1715.51 353.628L1715.51 353.628L1715.51 353.628L1715.51 353.628L1715.51 353.628L1715.51 353.627L1715.51 353.627L1715.51 353.627L1715.51 353.627L1715.51 353.627L1715.51 353.627L1715.51 353.627L1715.51 353.626L1715.51 353.626L1715.51 353.626L1715.51 353.626L1715.51 353.626L1715.51 353.626L1715.51 353.626L1715.51 353.625L1715.51 353.625L1715.51 353.625L1715.51 353.625L1715.51 353.625L1715.51 353.625L1715.51 353.625L1715.51 353.625L1715.51 353.625L1715.51 353.624L1715.51 353.624L1715.51 353.624L1715.51 353.624L1715.51 353.624L1715.51 353.624L1715.51 353.624L1715.51 353.624L1715.51 353.623L1715.51 353.623L1715.51 353.623L1715.51 353.623L1715.51 353.623L1715.51 353.623L1715.51 353.623L1715.51 353.623L1715.51 353.623L1715.51 353.623L1715.51 353.622L1715.51 353.622L1715.51 353.622L1715.51 353.622L1715.51 353.622L1715.51 353.622L1715.51 353.622L1715.51 353.622L1715.51 353.622L1715.51 353.622L1715.51 353.621L1715.51 353.621L1715.51 353.621L1715.51 353.621L1715.51 353.621L1715.51 353.621L1715.51 353.621L1715.51 353.621L1715.51 353.621L1715.51 353.621L1715.51 353.621L1715.51 353.62L1715.51 353.62L1715.51 353.62L1715.51 353.62L1715.51 353.62L1715.51 353.62L1715.51 353.62L1715.51 353.62L1715.51 353.62L1715.51 353.62L1715.51 353.62L1715.51 353.62L1715.51 353.62L1715.51 353.62L1715.51 353.619L1715.51 353.619L1715.51 353.619L1715.51 353.619L1715.51 353.619L1715.51 353.619L1715.51 353.619L1715.51 353.619L1715.51 353.619L1715.51 353.619L1715.51 353.619L1715.51 353.619L1715.51 353.619L1715.51 353.619L1715.51 353.619L1715.51 353.618L1715.51 353.618L1715.51 353.618L1715.51 353.618L1715.51 353.618L1715.51 353.618L1715.51 353.618L1715.51 353.618L1715.51 353.618L1715.51 353.618L1715.51 353.618L1715.51 353.618L1715.51 353.618L1715.51 353.618L1715.51 353.618L1715.51 353.618L1715.51 353.618L1715.51 353.618L1715.51 353.618L1715.51 353.617L1715.51 353.617L1715.51 353.617L1715.51 353.617L1715.51 353.617L1715.51 353.617L1715.51 353.617L1715.51 353.617L1715.51 353.617L1715.51 353.617L1715.51 353.617L1715.51 353.617L1715.51 353.617L1715.51 353.617L1715.51 353.617L1715.51 353.617L1715.51 353.617L1715.51 353.617L1715.51 353.617L1715.51 353.617L1715.51 353.617L1715.51 353.617L1715.51 353.617L1715.51 353.617L1715.51 353.617L1715.51 353.617L1715.51 353.617L1715.51 353.616L1715.51 353.616L1715.51 353.616L1715.51 353.616L1715.51 353.616L1715.51 353.616L1715.51 353.616L1715.51 353.616L1715.51 353.616L1715.51 353.616L1715.51 353.616L1715.51 353.616L1715.51 353.616L1715.51 353.616L1715.51 353.616L1715.51 353.616L1715.51 353.616L1715.51 353.616L1715.51 353.616L1715.51 353.616L1715.51 353.616L1715.51 353.616L1715.51 353.616L1715.51 353.616L1715.51 353.616L1715.51 353.616L1715.51 353.616L1715.51 353.615L1715.51 353.615L1715.51 353.615L1715.51 353.615L1715.51 353.615C1715.51 353.005 1716.02 352.543 1716.67 352.533C1726.58 352.82 1729.87 348.968 1730.5 348.099L1730.56 348.021L1730.52 347.934C1729.79 346.424 1729.15 344.408 1729.13 342.184L1729.13 342.182L1729.13 342.181L1729.13 342.179L1729.13 342.177L1729.13 342.175L1729.13 342.173L1729.13 342.172L1729.13 342.17L1729.13 342.168L1729.13 342.166L1729.13 342.165L1729.13 342.163L1729.13 342.161L1729.13 342.159L1729.13 342.157L1729.13 342.156L1729.13 342.154L1729.13 342.152L1729.13 342.15L1729.13 342.149L1729.13 342.147L1729.13 342.145L1729.13 342.143L1729.13 342.142L1729.13 342.14L1729.13 342.138L1729.13 342.136L1729.13 342.135L1729.13 342.133L1729.13 342.131L1729.13 342.13L1729.13 342.128L1729.13 342.126L1729.13 342.124L1729.13 342.123L1729.13 342.121L1729.13 342.119L1729.13 342.118L1729.13 342.116L1729.13 342.114L1729.13 342.112L1729.13 342.111L1729.13 342.109L1729.13 342.107L1729.13 342.106L1729.13 342.104L1729.13 342.102L1729.13 342.1L1729.13 342.099L1729.13 342.097L1729.13 342.095L1729.13 342.094L1729.12 342.092L1729.12 342.09L1729.12 342.089L1729.12 342.087L1729.12 342.085L1729.12 342.084L1729.12 342.082L1729.12 342.08L1729.12 342.079L1729.12 342.077L1729.12 342.075L1729.12 342.074L1729.12 342.072L1729.12 342.07L1729.12 342.069L1729.12 342.067L1729.12 342.065L1729.12 342.064L1729.12 342.062L1729.12 342.06L1729.12 342.059L1729.12 342.057L1729.12 342.056L1729.12 342.054L1729.12 342.052L1729.12 342.051L1729.12 342.049L1729.12 342.047L1729.12 342.046L1729.12 342.044L1729.12 342.043L1729.12 342.041L1729.12 342.039L1729.12 342.038L1729.12 342.036L1729.12 342.034L1729.12 342.033L1729.12 342.031L1729.12 342.03L1729.12 342.028L1729.12 342.026L1729.12 342.025L1729.12 342.023L1729.12 342.022L1729.12 342.02L1729.12 342.018L1729.12 342.017L1729.12 342.015L1729.12 342.014L1729.12 342.012L1729.12 342.011L1729.12 342.009L1729.12 342.007L1729.12 342.006L1729.12 342.004L1729.12 342.003L1729.12 342.001L1729.12 341.999L1729.12 341.998L1729.12 341.996L1729.12 341.995L1729.12 341.993L1729.12 341.992L1729.12 341.99L1729.12 341.989L1729.12 341.987L1729.12 341.985L1729.12 341.984L1729.12 341.982L1729.12 341.981L1729.12 341.979L1729.12 341.978L1729.12 341.976L1729.12 341.975L1729.12 341.973L1729.12 341.972L1729.12 341.97L1729.12 341.968L1729.12 341.967L1729.12 341.965L1729.12 341.964L1729.12 341.962L1729.12 341.961L1729.12 341.959L1729.12 341.958L1729.12 341.956L1729.12 341.955L1729.12 341.953L1729.12 341.952L1729.12 341.95L1729.12 341.949L1729.12 341.947L1729.12 341.946L1729.12 341.944L1729.12 341.943L1729.12 341.941L1729.12 341.94L1729.12 341.938L1729.12 341.937L1729.12 341.935L1729.12 341.934L1729.12 341.932L1729.12 341.931L1729.12 341.929L1729.12 341.928L1729.12 341.926L1729.12 341.925L1729.12 341.923L1729.12 341.922L1729.12 341.92L1729.12 341.919L1729.12 341.917L1729.12 341.916L1729.12 341.914L1729.12 341.913L1729.12 341.911L1729.12 341.91L1729.12 341.908L1729.12 341.907L1729.12 341.906L1729.12 341.904L1729.12 341.903L1729.12 341.901L1729.12 341.9L1729.12 341.898L1729.12 341.897L1729.12 341.895L1729.12 341.894L1729.12 341.892L1729.12 341.891L1729.12 341.89L1729.12 341.888L1729.12 341.887L1729.12 341.885L1729.12 341.884L1729.12 341.882L1729.12 341.881L1729.12 341.879L1729.12 341.878L1729.12 341.877L1729.12 341.875L1729.12 341.874L1729.12 341.872L1729.12 341.871L1729.12 341.869L1729.12 341.868L1729.12 341.867L1729.12 341.865L1729.12 341.864L1729.12 341.862L1729.12 341.861L1729.12 341.859L1729.12 341.858L1729.12 341.857L1729.12 341.855L1729.12 341.854L1729.12 341.852L1729.12 341.851L1729.12 341.85L1729.12 341.848L1729.12 341.847L1729.12 341.845L1729.12 341.844L1729.12 341.843L1729.12 341.841L1729.12 341.84L1729.12 341.838L1729.12 341.837L1729.12 341.836L1729.12 341.834L1729.12 341.833L1729.12 341.831L1729.12 341.83L1729.12 341.829L1729.12 341.827L1729.12 341.826L1729.12 341.824L1729.12 341.823L1729.12 341.822L1729.12 341.82L1729.12 341.819L1729.12 341.818L1729.12 341.816L1729.12 341.815L1729.12 341.813L1729.12 341.812L1729.12 341.811L1729.12 341.809L1729.12 341.808L1729.12 341.807L1729.12 341.805L1729.12 341.804L1729.12 341.803L1729.12 341.801L1729.12 341.8L1729.12 341.798L1729.12 341.797L1729.12 341.796L1729.12 341.794L1729.12 341.793L1729.12 341.792L1729.12 341.79L1729.12 341.789L1729.12 341.788L1729.12 341.786L1729.12 341.785L1729.12 341.784L1729.12 341.782L1729.12 341.781L1729.12 341.78L1729.12 341.778L1729.12 341.777L1729.12 341.776L1729.12 341.774L1729.12 341.773L1729.12 341.771L1729.12 341.77L1729.12 341.769L1729.12 341.767L1729.12 341.766L1729.12 341.765L1729.12 341.764L1729.12 341.762L1729.12 341.761L1729.12 341.76L1729.12 341.758L1729.12 341.757L1729.12 341.756L1729.12 341.754L1729.12 341.753L1729.12 341.752L1729.12 341.75L1729.12 341.749L1729.12 341.748L1729.12 341.746L1729.12 341.745L1729.12 341.744L1729.12 341.742L1729.12 341.741L1729.12 341.74L1729.12 341.738L1729.12 341.737L1729.12 341.736L1729.12 341.735L1729.12 341.733L1729.12 341.732L1729.12 341.731L1729.12 341.729L1729.12 341.728L1729.12 341.727L1729.12 341.725L1729.12 341.724L1729.12 341.723L1729.12 341.722L1729.12 341.72L1729.12 341.719L1729.12 341.718L1729.12 341.716L1729.12 341.715L1729.12 341.714L1729.12 341.712L1729.12 341.711L1729.12 341.71L1729.12 341.709L1729.12 341.707L1729.12 341.706L1729.12 341.705L1729.12 341.703L1729.12 341.702L1729.12 341.701L1729.12 341.7L1729.12 341.698L1729.12 341.697L1729.12 341.696L1729.12 341.694L1729.12 341.693L1729.12 341.692L1729.12 341.691L1729.12 341.689L1729.12 341.688L1729.12 341.687L1729.12 341.686L1729.12 341.684L1729.12 341.683L1729.12 341.682L1729.12 341.68L1729.12 341.679L1729.12 341.678L1729.12 341.677L1729.12 341.675L1729.12 341.674L1729.12 341.673L1729.12 341.672L1729.12 341.67L1729.12 341.669L1729.12 341.668L1729.12 341.667L1729.12 341.665L1729.12 341.664L1729.12 341.663L1729.12 341.662L1729.12 341.66L1729.12 341.659L1729.12 341.658L1729.12 341.657L1729.12 341.655L1729.12 341.654L1729.12 341.653L1729.12 341.651L1729.12 341.65L1729.12 341.649L1729.12 341.648L1729.12 341.646L1729.12 341.645L1729.12 341.644L1729.12 341.643L1729.12 341.642L1729.12 341.64L1729.12 341.639L1729.12 341.638L1729.12 341.637L1729.12 341.635L1729.12 341.634L1729.12 341.633L1729.12 341.632L1729.12 341.63L1729.12 341.629L1729.12 341.628L1729.12 341.627L1729.12 341.625L1729.12 341.624L1729.12 341.623L1729.12 341.622L1729.12 341.62L1729.12 341.619L1729.12 341.618L1729.12 341.617L1729.12 341.615L1729.12 341.614L1729.12 341.613L1729.12 341.612L1729.12 341.611L1729.12 341.609L1729.12 341.608L1729.12 341.607L1729.12 341.606L1729.12 341.604L1729.12 341.603L1729.12 341.602L1729.12 341.601L1729.12 341.599L1729.12 341.598L1729.12 341.597L1729.12 341.596L1729.12 341.595L1729.12 341.593L1729.12 341.592L1729.12 341.591L1729.12 341.59L1729.12 341.588L1729.12 341.587L1729.12 341.586L1729.12 341.585L1729.12 341.584L1729.12 341.582L1729.12 341.581L1729.12 341.58L1729.12 341.579L1729.12 341.577L1729.12 341.576L1729.12 341.575L1729.12 341.574L1729.12 341.573L1729.12 341.571L1729.12 341.57L1729.12 341.569L1729.12 341.568L1729.12 341.567L1729.12 341.565L1729.12 341.564L1729.12 341.563L1729.12 341.562L1729.12 341.56L1729.12 341.559L1729.12 341.558L1729.12 341.557L1729.12 341.556L1729.12 341.554L1729.12 341.553L1729.12 341.552L1729.12 341.551L1729.12 341.55L1729.12 341.548L1729.12 341.547L1729.12 341.546L1729.12 341.545L1729.12 341.544L1729.12 341.542L1729.12 341.541L1729.12 341.54L1729.12 341.539L1729.12 341.537L1729.12 341.536L1729.12 341.535L1729.12 341.534L1729.12 341.533L1729.12 341.531L1729.12 341.53L1729.12 341.529L1729.12 341.528L1729.12 341.527L1729.12 341.525L1729.12 341.524L1729.12 341.523L1729.12 341.522L1729.12 341.521L1729.12 341.519L1729.12 341.518L1729.12 341.517L1729.12 341.516L1729.12 341.515L1729.12 341.513L1729.12 341.512L1729.12 341.511L1729.12 341.51L1729.12 341.509L1729.12 341.507L1729.12 341.506L1729.12 341.505L1729.12 341.504L1729.12 341.503L1729.12 341.501L1729.12 341.5L1729.12 341.499L1729.12 341.498L1729.12 341.497L1729.12 341.495L1729.12 341.494L1729.12 341.493L1729.12 341.492L1729.12 341.491L1729.12 341.489L1729.12 341.488L1729.12 341.487L1729.12 341.486L1729.12 341.485L1729.12 341.483L1729.12 341.482L1729.12 341.481L1729.12 341.48L1729.12 341.479L1729.12 341.477L1729.12 341.476L1729.12 341.475L1729.12 341.474L1729.12 341.473L1729.12 341.471L1729.12 341.471C1729.26 336.926 1731.84 332.742 1736.19 329.845C1738.92 328.081 1742.17 326.717 1745.94 325.854C1745.95 325.852 1745.96 325.849 1745.97 325.846C1746.3 325.777 1747.5 325.522 1748.73 325.348C1749.37 325.257 1750.02 325.189 1750.56 325.181C1750.83 325.177 1751.06 325.187 1751.26 325.216C1751.45 325.246 1751.58 325.292 1751.65 325.344L1751.65 325.345L1751.66 325.35C1751.9 325.504 1752.01 325.836 1752.01 326.231C1751.63 336.97 1748.85 344.2 1743.73 347.495L1743.73 347.495L1743.73 347.497C1739.41 350.381 1734.63 349.736 1732.48 349.254L1732.38 349.231L1732.31 349.316C1731.72 350.123 1730.23 351.86 1726.99 353.116L1726.61 353.265L1726.99 353.416C1729.75 354.495 1731.39 356.093 1732.21 357.09L1732.28 357.176L1732.39 357.139C1733.61 356.716 1735.12 356.296 1736.73 356.376L1736.73 356.376C1740.16 356.534 1743.33 358.508 1745.5 361.722ZM1737.47 331.708L1737.47 331.708L1737.47 331.709C1733.78 334.233 1731.53 337.784 1731.36 341.635C1731.28 343.203 1731.72 345.167 1732.47 347.012L1732.5 347.086L1732.58 347.107C1734.03 347.501 1738.51 348.383 1742.44 345.735C1746.79 342.873 1749.18 336.734 1749.68 327.708L1749.69 327.506L1749.49 327.541C1749.06 327.619 1748.57 327.711 1748.11 327.797C1747.92 327.832 1747.74 327.866 1747.57 327.898C1747.28 327.953 1747.02 328.001 1746.81 328.035C1746.61 328.071 1746.48 328.089 1746.45 328.089L1746.43 328.089L1746.41 328.093C1742.92 328.857 1739.83 330.13 1737.47 331.708ZM1732.82 359.495L1732.74 359.526L1732.72 359.602C1732.43 360.745 1731.94 363.78 1733.76 366.376C1735.78 369.279 1740.08 370.971 1746.36 371.508L1746.56 371.525L1746.53 371.326C1746.47 370.912 1746.39 370.474 1746.32 370.129C1746.31 370.045 1746.29 369.967 1746.28 369.896C1746.26 369.82 1746.25 369.753 1746.24 369.694C1746.22 369.638 1746.22 369.592 1746.21 369.557C1746.2 369.518 1746.2 369.505 1746.2 369.507L1746.2 369.488L1746.2 369.47C1745.55 366.908 1744.69 364.75 1743.53 363.004L1743.53 363.004L1743.53 363.001C1741.73 360.431 1739.2 358.895 1736.47 358.72L1736.47 358.72L1736.46 358.72C1735.42 358.733 1734.06 358.958 1732.82 359.495Z" fill="#0200CD" stroke="#0200CD" stroke-width="0.321224"/>
<path d="M174.114 205.222L174.114 205.222L174.113 205.219C172.794 203.297 171.876 200.862 171.263 198.009C170.853 196.067 170.754 195.008 170.779 194.402C170.791 194.101 170.834 193.918 170.881 193.796C170.92 193.693 170.963 193.629 171.009 193.562C171.015 193.554 171.02 193.547 171.025 193.539C171.171 193.395 171.306 193.285 171.434 193.221C171.562 193.158 171.671 193.145 171.774 193.179L171.796 193.186L171.818 193.187C179.909 193.493 185.18 195.739 187.703 199.562C188.916 201.477 189.32 203.493 189.32 205.105C189.32 206.42 189.117 207.531 188.915 208.234L188.892 208.315L188.946 208.38C189.889 209.53 192.909 212.739 199.44 212.533L199.54 212.533C199.881 212.533 200.228 212.522 200.584 212.511C201.319 212.488 202.089 212.464 202.914 212.533L202.914 212.533L202.928 212.533C203.558 212.533 203.999 212.974 203.999 213.601L203.999 213.602L203.999 213.602L203.999 213.603L203.999 213.603L203.999 213.604L203.999 213.605L203.999 213.605L203.999 213.606L203.999 213.606L203.999 213.607L203.999 213.608L203.999 213.608L203.999 213.609L203.999 213.609L203.999 213.61L203.999 213.61L203.999 213.611L203.999 213.611L203.999 213.612L203.999 213.613L203.999 213.613L203.999 213.614L203.999 213.614L203.999 213.615L203.999 213.615L203.999 213.616L203.999 213.616L203.999 213.617L203.999 213.617L203.999 213.618L203.999 213.619L203.999 213.619L203.999 213.62L203.999 213.62L203.999 213.621L203.999 213.621L203.999 213.622L203.999 213.622L203.999 213.623L203.999 213.623L203.999 213.624L203.999 213.624L203.999 213.625L203.999 213.625L203.999 213.626L203.999 213.626L203.999 213.627L203.999 213.627L203.999 213.628L203.999 213.628L203.999 213.629L203.999 213.629L203.999 213.63L203.999 213.63L203.999 213.631L203.999 213.631L203.999 213.632L203.999 213.632L203.999 213.633L203.999 213.633L203.999 213.633L203.999 213.634L203.999 213.634L203.999 213.635L203.999 213.635L203.999 213.636L203.999 213.636L203.999 213.637L203.999 213.637L203.999 213.638L203.999 213.638L203.999 213.638L203.999 213.639L203.999 213.639L203.999 213.64L203.999 213.64L203.999 213.641L203.999 213.641L203.999 213.642L203.999 213.642L203.999 213.642L203.999 213.643L203.999 213.643L203.999 213.644L203.999 213.644L203.999 213.644L203.999 213.645L203.999 213.645L203.999 213.646L203.999 213.646L203.999 213.647L203.999 213.647L203.999 213.647L203.999 213.648L203.999 213.648L203.999 213.649L203.999 213.649L203.999 213.649L203.999 213.65L203.999 213.65L203.999 213.65L203.999 213.651L203.999 213.651L203.999 213.652L203.999 213.652L203.999 213.652L203.999 213.653L203.999 213.653L203.999 213.654L203.999 213.654L203.999 213.654L203.999 213.655L203.999 213.655L203.999 213.655L203.999 213.656L203.999 213.656L203.999 213.656L203.999 213.657L203.999 213.657L203.999 213.657L203.999 213.658L203.999 213.658L203.999 213.659L203.999 213.659L203.999 213.659L203.999 213.66L203.999 213.66L203.999 213.66L203.999 213.661L203.999 213.661L203.999 213.661L203.999 213.662L203.999 213.662L203.999 213.662L203.999 213.663L203.999 213.663L203.999 213.663L203.999 213.664L203.999 213.664L203.999 213.664L203.999 213.664L203.999 213.665L203.999 213.665L203.999 213.665L203.999 213.666L203.999 213.666L203.999 213.666L203.999 213.667L203.999 213.667L203.999 213.667L203.999 213.668L203.999 213.668L203.999 213.668L203.999 213.668L203.999 213.669L203.999 213.669L203.999 213.669L203.999 213.67L203.999 213.67L203.999 213.67L203.999 213.67L203.999 213.671L203.999 213.671L203.999 213.671L203.999 213.672L203.999 213.672L203.999 213.672L203.999 213.672L203.999 213.673L203.999 213.673L203.999 213.673L203.999 213.673L203.999 213.674L203.999 213.674L203.999 213.674L203.999 213.674L203.999 213.675L203.999 213.675L203.999 213.675L203.999 213.676L203.999 213.676L203.999 213.676L203.999 213.676L203.999 213.677L203.999 213.677L203.999 213.677L203.999 213.677L203.999 213.677L203.999 213.678L203.999 213.678L203.999 213.678L203.999 213.678L203.999 213.679L203.999 213.679L203.999 213.679L203.999 213.679L203.999 213.68L203.999 213.68L203.999 213.68L203.999 213.68L203.999 213.68L203.999 213.681L203.999 213.681L203.999 213.681L203.999 213.681L203.999 213.682L203.999 213.682L203.999 213.682L203.999 213.682L203.999 213.682L203.999 213.683L203.999 213.683L203.999 213.683L203.999 213.683L203.999 213.683L203.999 213.684L203.999 213.684L203.999 213.684L203.999 213.684L203.999 213.684L203.999 213.685L203.999 213.685L203.999 213.685L203.999 213.685L203.999 213.685L203.999 213.686L203.999 213.686L203.999 213.686L203.999 213.686L203.999 213.686L203.999 213.686L203.999 213.687L203.999 213.687L203.999 213.687L203.999 213.687L203.999 213.687L203.999 213.688L203.999 213.688L203.999 213.688L203.999 213.688L203.999 213.688L203.999 213.688L203.999 213.689L203.999 213.689L203.999 213.689L203.999 213.689L203.999 213.689L203.999 213.689L203.999 213.69L203.999 213.69L203.999 213.69L203.999 213.69L203.999 213.69L203.999 213.69L203.999 213.69L203.999 213.691L203.999 213.691L203.999 213.691L203.999 213.691L203.999 213.691L203.999 213.691L203.999 213.692L203.999 213.692L203.999 213.692L203.999 213.692L203.999 213.692L203.999 213.692L203.999 213.692L203.999 213.692L203.999 213.693L203.999 213.693L203.999 213.693L203.999 213.693L203.999 213.693L203.999 213.693L203.999 213.693L203.999 213.694L203.999 213.694L203.999 213.694L203.999 213.694L203.999 213.694L203.999 213.694L203.999 213.694L203.999 213.694L203.999 213.694L203.999 213.695L203.999 213.695L203.999 213.695L203.999 213.695L203.999 213.695L203.999 213.695L203.999 213.695L203.999 213.695L203.999 213.696L203.999 213.696L203.999 213.696L203.999 213.696L203.999 213.696L203.999 213.696L203.999 213.696L203.999 213.696L203.999 213.696L203.999 213.696L203.999 213.697L203.999 213.697L203.999 213.697L203.999 213.697L203.999 213.697L203.999 213.697L203.999 213.697L203.999 213.697L203.999 213.697L203.999 213.697L203.999 213.697L203.999 213.698L203.999 213.698L203.999 213.698L203.999 213.698L203.999 213.698L203.999 213.698L203.999 213.698L203.999 213.698L203.999 213.698L203.999 213.698L203.999 213.698L203.999 213.699L203.999 213.699L203.999 213.699L203.999 213.699L203.999 213.699L203.999 213.699L203.999 213.699L203.999 213.699L203.999 213.699L203.999 213.699L203.999 213.699L203.999 213.699L203.999 213.699L203.999 213.699L203.999 213.7L203.999 213.7L203.999 213.7L203.999 213.7L203.999 213.7L203.999 213.7L203.999 213.7L203.999 213.7L203.999 213.7L203.999 213.7L203.999 213.7L203.999 213.7L203.999 213.7L203.999 213.7L203.999 213.7L203.999 213.7L203.999 213.701L203.999 213.701L203.999 213.701L203.999 213.701L203.999 213.701L203.999 213.701L203.999 213.701L203.999 213.701L203.999 213.701L203.999 213.701L203.999 213.701L203.999 213.701L203.999 213.701L203.999 213.701L203.999 213.701L203.999 213.701L203.999 213.701L203.999 213.701L203.999 213.701L203.999 213.701L203.999 213.702L203.999 213.702L203.999 213.702L203.999 213.702L203.999 213.702L203.999 213.702L203.999 213.702L203.999 213.702L203.999 213.702L203.999 213.702L203.999 213.702L203.999 213.702L203.999 213.702L203.999 213.702L203.999 213.702L203.999 213.702L203.999 213.702L203.999 213.702L203.999 213.702L203.999 213.702L203.999 213.702L203.999 213.702L203.999 213.702L203.999 213.702L203.999 213.702L203.999 213.702L203.999 213.702L203.999 213.702L203.999 213.703L203.999 213.703L203.999 213.703L203.999 213.703L203.999 213.703L203.999 213.703L203.999 213.703L203.999 213.703L203.999 213.703L203.999 213.703L203.999 213.703L203.999 213.703L203.999 213.703L203.999 213.703L203.999 213.703L203.999 213.703L203.999 213.703L203.999 213.703L203.999 213.703L203.999 213.703L203.999 213.703L203.999 213.703L203.999 213.703L203.999 213.703L203.999 213.703L203.999 213.703C203.999 214.313 203.474 214.77 202.828 214.771C192.925 214.361 189.59 218.17 188.941 219.032L188.883 219.109L188.924 219.197C189.635 220.716 190.244 222.74 190.244 224.963L190.244 224.965L190.244 224.967L190.244 224.968L190.244 224.97L190.244 224.972L190.244 224.974L190.244 224.976L190.244 224.977L190.244 224.979L190.244 224.981L190.244 224.983L190.244 224.985L190.244 224.986L190.244 224.988L190.244 224.99L190.244 224.992L190.244 224.993L190.244 224.995L190.244 224.997L190.244 224.999L190.244 225L190.244 225.002L190.244 225.004L190.244 225.006L190.244 225.007L190.244 225.009L190.244 225.011L190.244 225.013L190.244 225.014L190.244 225.016L190.244 225.018L190.244 225.019L190.244 225.021L190.244 225.023L190.244 225.025L190.244 225.026L190.244 225.028L190.244 225.03L190.244 225.032L190.244 225.033L190.244 225.035L190.244 225.037L190.244 225.038L190.244 225.04L190.244 225.042L190.244 225.043L190.244 225.045L190.244 225.047L190.244 225.049L190.244 225.05L190.244 225.052L190.244 225.054L190.244 225.055L190.244 225.057L190.244 225.059L190.244 225.06L190.244 225.062L190.244 225.064L190.244 225.065L190.244 225.067L190.244 225.069L190.244 225.07L190.244 225.072L190.244 225.074L190.244 225.075L190.244 225.077L190.244 225.079L190.244 225.08L190.244 225.082L190.244 225.084L190.244 225.085L190.244 225.087L190.244 225.088L190.244 225.09L190.244 225.092L190.244 225.093L190.244 225.095L190.244 225.097L190.244 225.098L190.244 225.1L190.244 225.102L190.244 225.103L190.244 225.105L190.244 225.106L190.244 225.108L190.244 225.11L190.244 225.111L190.244 225.113L190.244 225.114L190.244 225.116L190.244 225.118L190.244 225.119L190.244 225.121L190.244 225.123L190.244 225.124L190.244 225.126L190.244 225.127L190.244 225.129L190.244 225.13L190.244 225.132L190.244 225.134L190.244 225.135L190.244 225.137L190.244 225.138L190.244 225.14L190.244 225.142L190.244 225.143L190.244 225.145L190.244 225.146L190.244 225.148L190.244 225.149L190.244 225.151L190.244 225.153L190.244 225.154L190.244 225.156L190.244 225.157L190.244 225.159L190.244 225.16L190.244 225.162L190.244 225.163L190.244 225.165L190.244 225.167L190.244 225.168L190.244 225.17L190.244 225.171L190.244 225.173L190.244 225.174L190.244 225.176L190.244 225.177L190.244 225.179L190.244 225.18L190.244 225.182L190.244 225.183L190.244 225.185L190.244 225.187L190.244 225.188L190.244 225.19L190.244 225.191L190.244 225.193L190.244 225.194L190.244 225.196L190.244 225.197L190.244 225.199L190.244 225.2L190.244 225.202L190.244 225.203L190.244 225.205L190.244 225.206L190.244 225.208L190.244 225.209L190.244 225.211L190.244 225.212L190.244 225.214L190.244 225.215L190.244 225.217L190.244 225.218L190.244 225.22L190.244 225.221L190.244 225.223L190.244 225.224L190.244 225.226L190.244 225.227L190.244 225.229L190.244 225.23L190.244 225.232L190.244 225.233L190.244 225.234L190.244 225.236L190.244 225.237L190.244 225.239L190.244 225.24L190.244 225.242L190.244 225.243L190.244 225.245L190.244 225.246L190.244 225.248L190.244 225.249L190.244 225.251L190.244 225.252L190.244 225.253L190.244 225.255L190.244 225.256L190.244 225.258L190.244 225.259L190.244 225.261L190.244 225.262L190.244 225.264L190.244 225.265L190.244 225.266L190.244 225.268L190.244 225.269L190.244 225.271L190.244 225.272L190.244 225.274L190.244 225.275L190.244 225.276L190.244 225.278L190.244 225.279L190.244 225.281L190.244 225.282L190.244 225.284L190.244 225.285L190.244 225.286L190.244 225.288L190.244 225.289L190.244 225.291L190.244 225.292L190.244 225.294L190.244 225.295L190.244 225.296L190.244 225.298L190.244 225.299L190.244 225.301L190.244 225.302L190.244 225.303L190.244 225.305L190.244 225.306L190.244 225.308L190.244 225.309L190.244 225.31L190.244 225.312L190.244 225.313L190.244 225.315L190.244 225.316L190.244 225.317L190.244 225.319L190.244 225.32L190.244 225.321L190.244 225.323L190.244 225.324L190.244 225.326L190.244 225.327L190.244 225.328L190.244 225.33L190.244 225.331L190.244 225.333L190.244 225.334L190.244 225.335L190.244 225.337L190.244 225.338L190.244 225.339L190.244 225.341L190.244 225.342L190.244 225.343L190.244 225.345L190.244 225.346L190.244 225.348L190.244 225.349L190.244 225.35L190.244 225.352L190.244 225.353L190.244 225.354L190.244 225.356L190.244 225.357L190.244 225.358L190.244 225.36L190.244 225.361L190.244 225.362L190.244 225.364L190.244 225.365L190.244 225.366L190.244 225.368L190.244 225.369L190.244 225.37L190.244 225.372L190.244 225.373L190.244 225.375L190.244 225.376L190.244 225.377L190.244 225.379L190.244 225.38L190.244 225.381L190.244 225.383L190.244 225.384L190.244 225.385L190.244 225.386L190.244 225.388L190.244 225.389L190.244 225.39L190.244 225.392L190.244 225.393L190.244 225.394L190.244 225.396L190.244 225.397L190.244 225.398L190.244 225.4L190.244 225.401L190.244 225.402L190.244 225.404L190.244 225.405L190.244 225.406L190.244 225.408L190.244 225.409L190.244 225.41L190.244 225.412L190.244 225.413L190.244 225.414L190.244 225.415L190.244 225.417L190.244 225.418L190.244 225.419L190.244 225.421L190.244 225.422L190.244 225.423L190.244 225.425L190.244 225.426L190.244 225.427L190.244 225.428L190.244 225.43L190.244 225.431L190.244 225.432L190.244 225.434L190.244 225.435L190.244 225.436L190.244 225.437L190.244 225.439L190.244 225.44L190.244 225.441L190.244 225.443L190.244 225.444L190.244 225.445L190.244 225.446L190.244 225.448L190.244 225.449L190.244 225.45L190.244 225.452L190.244 225.453L190.244 225.454L190.244 225.455L190.244 225.457L190.244 225.458L190.244 225.459L190.244 225.461L190.244 225.462L190.244 225.463L190.244 225.464L190.244 225.466L190.244 225.467L190.244 225.468L190.244 225.469L190.244 225.471L190.244 225.472L190.244 225.473L190.244 225.474L190.244 225.476L190.244 225.477L190.244 225.478L190.244 225.48L190.244 225.481L190.244 225.482L190.244 225.483L190.244 225.485L190.244 225.486L190.244 225.487L190.244 225.488L190.244 225.49L190.244 225.491L190.244 225.492L190.244 225.493L190.244 225.495L190.244 225.496L190.244 225.497L190.244 225.498L190.244 225.5L190.244 225.501L190.244 225.502L190.244 225.503L190.244 225.505L190.244 225.506L190.244 225.507L190.244 225.508L190.244 225.51L190.244 225.511L190.244 225.512L190.244 225.513L190.244 225.515L190.244 225.516L190.244 225.517L190.244 225.518L190.244 225.52L190.244 225.521L190.244 225.522L190.244 225.523L190.244 225.524L190.244 225.526L190.244 225.527L190.244 225.528L190.244 225.529L190.244 225.531L190.244 225.532L190.244 225.533L190.244 225.534L190.244 225.536L190.244 225.537L190.244 225.538L190.244 225.539L190.244 225.541L190.244 225.542L190.244 225.543L190.244 225.544L190.244 225.545L190.244 225.547L190.244 225.548L190.244 225.549L190.244 225.55L190.244 225.552L190.244 225.553L190.244 225.554L190.244 225.555L190.244 225.556L190.244 225.558L190.244 225.559L190.244 225.56L190.244 225.561L190.244 225.563L190.244 225.564L190.244 225.565L190.244 225.566L190.244 225.567L190.244 225.569L190.244 225.57L190.244 225.571L190.244 225.572L190.244 225.574L190.244 225.575L190.244 225.576L190.244 225.577L190.244 225.578L190.244 225.58L190.244 225.581L190.244 225.582L190.244 225.583L190.244 225.584L190.244 225.586L190.244 225.587L190.244 225.588L190.244 225.589L190.244 225.591L190.244 225.592L190.244 225.593L190.244 225.594L190.244 225.595L190.244 225.597L190.244 225.598L190.244 225.599L190.244 225.6L190.244 225.601L190.244 225.603L190.244 225.604L190.244 225.605L190.244 225.606L190.244 225.607L190.244 225.609L190.244 225.61L190.244 225.611L190.244 225.612L190.244 225.614L190.244 225.615L190.244 225.616L190.244 225.617L190.244 225.618L190.244 225.62L190.244 225.621L190.244 225.622L190.244 225.623L190.244 225.624L190.244 225.626L190.244 225.627L190.244 225.628L190.244 225.629L190.244 225.63L190.244 225.632L190.244 225.633L190.244 225.634L190.244 225.635L190.244 225.636L190.244 225.638L190.244 225.639L190.244 225.64L190.244 225.641L190.244 225.642L190.244 225.644L190.244 225.645L190.244 225.646L190.244 225.647L190.244 225.648L190.244 225.65L190.244 225.651L190.244 225.652L190.244 225.653L190.244 225.654L190.244 225.656L190.244 225.657L190.244 225.658L190.244 225.659L190.244 225.66L190.244 225.662L190.244 225.663L190.244 225.664L190.244 225.665L190.244 225.666L190.244 225.668L190.244 225.669L190.244 225.67L190.244 225.671L190.244 225.672L190.244 225.674L190.244 225.675L190.244 225.676L190.244 225.676C190.04 230.219 187.407 234.371 183.03 237.213C180.276 238.942 177.01 240.266 173.229 241.081C173.218 241.083 173.206 241.086 173.192 241.089C172.866 241.154 171.665 241.394 170.431 241.553C169.786 241.635 169.136 241.695 168.599 241.697C168.33 241.698 168.094 241.684 167.903 241.652C167.707 241.62 167.578 241.573 167.507 241.519L167.507 241.519L167.5 241.514C167.263 241.357 167.161 241.023 167.161 240.628C167.674 229.895 170.544 222.701 175.708 219.469L175.708 219.469L175.71 219.468C180.068 216.638 184.837 217.343 186.98 217.852L187.082 217.876L187.145 217.792C187.747 216.992 189.263 215.274 192.513 214.059L192.899 213.914L192.518 213.759C189.777 212.646 188.155 211.028 187.347 210.02L187.277 209.933L187.171 209.968C185.945 210.376 184.429 210.777 182.818 210.677L182.818 210.677C179.387 210.476 176.247 208.463 174.114 205.222ZM181.767 235.334L181.767 235.334L181.768 235.333C185.495 232.855 187.789 229.333 187.998 225.485C188.103 223.917 187.684 221.948 186.961 220.094L186.932 220.02L186.855 219.998C185.407 219.585 180.934 218.647 176.972 221.246C172.594 224.053 170.125 230.161 169.509 239.18L169.495 239.383L169.695 239.35C170.132 239.277 170.621 239.191 171.079 239.111C171.267 239.078 171.449 239.047 171.621 239.017C171.916 238.966 172.178 238.921 172.379 238.889C172.587 238.856 172.713 238.84 172.748 238.84L172.765 238.84L172.781 238.837C176.287 238.117 179.386 236.882 181.767 235.334ZM186.77 207.608L186.843 207.578L186.864 207.502C187.175 206.362 187.703 203.334 185.918 200.715C183.925 197.787 179.651 196.041 173.38 195.426L173.18 195.406L173.205 195.606C173.257 196.02 173.335 196.459 173.399 196.805C173.415 196.89 173.429 196.968 173.443 197.039C173.457 197.115 173.47 197.182 173.481 197.241C173.491 197.298 173.499 197.344 173.505 197.378C173.511 197.418 173.512 197.43 173.512 197.428L173.512 197.447L173.516 197.466C174.135 200.035 174.961 202.204 176.104 203.964L176.104 203.964L176.106 203.967C177.874 206.56 180.378 208.127 183.104 208.336L183.104 208.337L183.116 208.337C184.161 208.337 185.517 208.129 186.77 207.608Z" fill="#0200CD" stroke="#0200CD" stroke-width="0.321224"/>
<path d="M-242 8.3552e-05L-242 184.543C-242 200.559 -229.016 213.543 -213 213.543L250.543 213.543C264.05 213.543 275 224.493 275 238V238L275 255C275 271.016 287.984 284 304 284L1576 284L1613 284C1629.02 284 1642 296.984 1642 313L1642 324.543C1642 340.559 1654.98 353.543 1671 353.543L1944 353.543" stroke="#0200CD" stroke-width="3"/>
</svg>
