<svg width="428" height="254" viewBox="0 0 428 254" fill="none" xmlns="http://www.w3.org/2000/svg">
<path d="M426 0V66C426 82.5685 412.569 96 396 96H299M28.5 253.5V193M297.5 96L58.7788 93.7814C42.102 93.6264 28.5 107.103 28.5 123.78V191.5M297.5 96C296.167 95.6667 292.7 94.1 289.5 90.5M297.5 96H299M289.5 90.5C291.147 86.0532 290.418 77.017 274.575 76.0319C274.275 76.0132 274.019 76.263 274.049 76.5622C274.715 83.3269 278.608 94.779 289.5 90.5ZM299 96C296.833 96 291.9 97 289.5 101M289.5 101C292.639 106.948 293.191 119.577 270.601 122.914C270.294 122.96 270.01 122.721 270.025 122.411C270.515 112.791 275.001 95.9056 289.5 101ZM28.5 193C28.5 189.5 32.1 185.3 34.5 184.5M28.5 193V191.5M34.5 184.5C38.4531 186.312 46.8015 185.812 48.9271 169.584C48.9666 169.282 48.728 169.007 48.4237 169.022C41.8203 169.366 30.6155 172.846 34.5 184.5ZM28.5 191.5C28.1667 189.667 26.8 185.8 24 185M24 185C25.8174 178.722 24.0316 166.024 2.57011 165.024C2.27223 165.01 2.01894 165.255 2.04692 165.552C2.88974 174.495 8.32789 190.093 24 185Z" stroke="#0200CD" stroke-width="2.2"/>
</svg>
