<svg width="520" height="1050" viewBox="0 0 520 1050" fill="none" xmlns="http://www.w3.org/2000/svg">
<path d="M381 4.5L381 134C381 150.016 368.016 163 352 163L1.49999 163" stroke="#0200CD" stroke-width="3"/>
<path d="M381 0.5V134.5C381 150.516 368.016 163.5 352 163.5H1.5V546.5C1.5 562.516 14.4837 575.5 30.5 575.5H489C505.016 575.5 518 588.484 518 604.5V1050" stroke="#0200CD" stroke-width="3"/>
<path d="M389.636 57.8749L389.636 57.8749L389.638 57.8731C391.56 56.5544 393.995 55.6368 396.849 55.0236C398.79 54.6137 399.849 54.5146 400.455 54.5394C400.756 54.5517 400.94 54.5945 401.062 54.6412C401.165 54.6807 401.228 54.7238 401.295 54.7698C401.303 54.775 401.311 54.7803 401.319 54.7856C401.462 54.9311 401.572 55.067 401.636 55.1948C401.7 55.3225 401.713 55.4317 401.678 55.5344L401.671 55.5561L401.67 55.579C401.364 63.6695 399.118 68.9401 395.295 71.4636C393.38 72.6761 391.364 73.0802 389.752 73.0802C388.437 73.0802 387.326 72.8772 386.623 72.6759L386.542 72.6527L386.477 72.7061C385.327 73.6496 382.118 76.6694 382.324 83.2005V83.3006C382.324 83.6417 382.335 83.9888 382.346 84.3443C382.369 85.0792 382.393 85.8495 382.325 86.6747L382.324 86.6747V86.688C382.324 87.3183 381.884 87.7592 381.256 87.7592H381.256H381.255H381.255H381.254H381.253H381.253H381.252H381.252H381.251H381.25H381.25H381.249H381.249H381.248H381.248H381.247H381.247H381.246H381.245H381.245H381.244H381.244H381.243H381.243H381.242H381.242H381.241H381.24H381.24H381.239H381.239H381.238H381.238H381.237H381.237H381.236H381.236H381.235H381.235H381.234H381.234H381.233H381.233H381.232H381.232H381.231H381.231H381.23H381.23H381.229H381.229H381.228H381.228H381.227H381.227H381.226H381.226H381.225H381.225H381.224H381.224H381.223H381.223H381.223H381.222H381.222H381.221H381.221H381.22H381.22H381.219H381.219H381.219H381.218H381.218H381.217H381.217H381.216H381.216H381.215H381.215H381.215H381.214H381.214H381.213H381.213H381.213H381.212H381.212H381.211H381.211H381.211H381.21H381.21H381.209H381.209H381.209H381.208H381.208H381.207H381.207H381.207H381.206H381.206H381.205H381.205H381.205H381.204H381.204H381.204H381.203H381.203H381.202H381.202H381.202H381.201H381.201H381.201H381.2H381.2H381.2H381.199H381.199H381.199H381.198H381.198H381.198H381.197H381.197H381.197H381.196H381.196H381.196H381.195H381.195H381.195H381.194H381.194H381.194H381.193H381.193H381.193H381.192H381.192H381.192H381.191H381.191H381.191H381.19H381.19H381.19H381.19H381.189H381.189H381.189H381.188H381.188H381.188H381.188H381.187H381.187H381.187H381.186H381.186H381.186H381.186H381.185H381.185H381.185H381.185H381.184H381.184H381.184H381.183H381.183H381.183H381.183H381.182H381.182H381.182H381.182H381.181H381.181H381.181H381.181H381.18H381.18H381.18H381.18H381.179H381.179H381.179H381.179H381.179H381.178H381.178H381.178H381.178H381.177H381.177H381.177H381.177H381.177H381.176H381.176H381.176H381.176H381.175H381.175H381.175H381.175H381.175H381.174H381.174H381.174H381.174H381.174H381.173H381.173H381.173H381.173H381.173H381.172H381.172H381.172H381.172H381.172H381.171H381.171H381.171H381.171H381.171H381.171H381.17H381.17H381.17H381.17H381.17H381.17H381.169H381.169H381.169H381.169H381.169H381.169H381.168H381.168H381.168H381.168H381.168H381.168H381.167H381.167H381.167H381.167H381.167H381.167H381.166H381.166H381.166H381.166H381.166H381.166H381.166H381.165H381.165H381.165H381.165H381.165H381.165H381.165H381.165H381.164H381.164H381.164H381.164H381.164H381.164H381.164H381.164H381.163H381.163H381.163H381.163H381.163H381.163H381.163H381.163H381.162H381.162H381.162H381.162H381.162H381.162H381.162H381.162H381.162H381.161H381.161H381.161H381.161H381.161H381.161H381.161H381.161H381.161H381.161H381.16H381.16H381.16H381.16H381.16H381.16H381.16H381.16H381.16H381.16H381.16H381.159H381.159H381.159H381.159H381.159H381.159H381.159H381.159H381.159H381.159H381.159H381.159H381.159H381.158H381.158H381.158H381.158H381.158H381.158H381.158H381.158H381.158H381.158H381.158H381.158H381.158H381.158H381.157H381.157H381.157H381.157H381.157H381.157H381.157H381.157H381.157H381.157H381.157H381.157H381.157H381.157H381.157H381.157H381.157H381.157H381.156H381.156H381.156H381.156H381.156H381.156H381.156H381.156H381.156H381.156H381.156H381.156H381.156H381.156H381.156H381.156H381.156H381.156H381.156H381.156H381.156H381.156H381.156H381.155H381.155H381.155H381.155H381.155H381.155H381.155H381.155H381.155H381.155H381.155H381.155H381.155H381.155H381.155H381.155H381.155H381.155H381.155H381.155H381.155H381.155H381.155H381.155H381.155H381.155H381.155H381.154H381.154H381.154H381.154H381.154H381.154H381.154H381.154H381.154H381.154H381.154H381.154H381.154H381.154H381.154H381.154C380.544 87.7592 380.088 87.2347 380.086 86.5886C380.497 76.685 376.687 73.3501 375.825 72.7019L375.748 72.6439L375.661 72.6848C374.142 73.3957 372.118 74.0041 369.894 74.0041H369.893H369.891H369.889H369.887H369.885H369.884H369.882H369.88H369.878H369.876H369.875H369.873H369.871H369.869H369.868H369.866H369.864H369.862H369.861H369.859H369.857H369.855H369.854H369.852H369.85H369.848H369.847H369.845H369.843H369.841H369.84H369.838H369.836H369.834H369.833H369.831H369.829H369.828H369.826H369.824H369.822H369.821H369.819H369.817H369.816H369.814H369.812H369.811H369.809H369.807H369.806H369.804H369.802H369.8H369.799H369.797H369.795H369.794H369.792H369.79H369.789H369.787H369.785H369.784H369.782H369.78H369.779H369.777H369.776H369.774H369.772H369.771H369.769H369.767H369.766H369.764H369.762H369.761H369.759H369.757H369.756H369.754H369.753H369.751H369.749H369.748H369.746H369.745H369.743H369.741H369.74H369.738H369.737H369.735H369.733H369.732H369.73H369.729H369.727H369.725H369.724H369.722H369.721H369.719H369.717H369.716H369.714H369.713H369.711H369.71H369.708H369.706H369.705H369.703H369.702H369.7H369.699H369.697H369.696H369.694H369.692H369.691H369.689H369.688H369.686H369.685H369.683H369.682H369.68H369.679H369.677H369.675H369.674H369.672H369.671H369.669H369.668H369.666H369.665H369.663H369.662H369.66H369.659H369.657H369.656H369.654H369.653H369.651H369.65H369.648H369.647H369.645H369.644H369.642H369.641H369.639H369.638H369.636H369.635H369.633H369.632H369.63H369.629H369.627H369.626H369.624H369.623H369.621H369.62H369.619H369.617H369.616H369.614H369.613H369.611H369.61H369.608H369.607H369.605H369.604H369.603H369.601H369.6H369.598H369.597H369.595H369.594H369.592H369.591H369.59H369.588H369.587H369.585H369.584H369.582H369.581H369.58H369.578H369.577H369.575H369.574H369.572H369.571H369.57H369.568H369.567H369.565H369.564H369.562H369.561H369.56H369.558H369.557H369.555H369.554H369.553H369.551H369.55H369.548H369.547H369.546H369.544H369.543H369.541H369.54H369.539H369.537H369.536H369.535H369.533H369.532H369.53H369.529H369.528H369.526H369.525H369.524H369.522H369.521H369.519H369.518H369.517H369.515H369.514H369.513H369.511H369.51H369.509H369.507H369.506H369.504H369.503H369.502H369.5H369.499H369.498H369.496H369.495H369.494H369.492H369.491H369.49H369.488H369.487H369.486H369.484H369.483H369.482H369.48H369.479H369.478H369.476H369.475H369.474H369.472H369.471H369.47H369.468H369.467H369.466H369.464H369.463H369.462H369.46H369.459H369.458H369.456H369.455H369.454H369.452H369.451H369.45H369.449H369.447H369.446H369.445H369.443H369.442H369.441H369.439H369.438H369.437H369.435H369.434H369.433H369.432H369.43H369.429H369.428H369.426H369.425H369.424H369.423H369.421H369.42H369.419H369.417H369.416H369.415H369.414H369.412H369.411H369.41H369.408H369.407H369.406H369.405H369.403H369.402H369.401H369.399H369.398H369.397H369.396H369.394H369.393H369.392H369.391H369.389H369.388H369.387H369.385H369.384H369.383H369.382H369.38H369.379H369.378H369.377H369.375H369.374H369.373H369.372H369.37H369.369H369.368H369.367H369.365H369.364H369.363H369.362H369.36H369.359H369.358H369.357H369.355H369.354H369.353H369.352H369.35H369.349H369.348H369.347H369.345H369.344H369.343H369.342H369.34H369.339H369.338H369.337H369.335H369.334H369.333H369.332H369.33H369.329H369.328H369.327H369.326H369.324H369.323H369.322H369.321H369.319H369.318H369.317H369.316H369.314H369.313H369.312H369.311H369.31H369.308H369.307H369.306H369.305H369.303H369.302H369.301H369.3H369.299H369.297H369.296H369.295H369.294H369.292H369.291H369.29H369.289H369.288H369.286H369.285H369.284H369.283H369.281H369.28H369.279H369.278H369.277H369.275H369.274H369.273H369.272H369.271H369.269H369.268H369.267H369.266H369.264H369.263H369.262H369.261H369.26H369.258H369.257H369.256H369.255H369.254H369.252H369.251H369.25H369.249H369.248H369.246H369.245H369.244H369.243H369.241H369.24H369.239H369.238H369.237H369.235H369.234H369.233H369.232H369.231H369.229H369.228H369.227H369.226H369.225H369.223H369.222H369.221H369.22H369.219H369.217H369.216H369.215H369.214H369.213H369.211H369.21H369.209H369.208H369.207H369.205H369.204H369.203H369.202H369.201H369.199H369.198H369.197H369.196H369.195H369.193H369.192H369.191H369.19H369.189H369.187H369.186H369.185H369.184H369.183H369.181H369.181C364.638 73.8003 360.487 71.1674 357.644 66.7901C355.915 64.0364 354.592 60.7701 353.776 56.9895C353.774 56.9787 353.772 56.9663 353.769 56.9522C353.704 56.6261 353.463 55.426 353.305 54.1917C353.222 53.5463 353.162 52.8963 353.161 52.3591C353.16 52.0904 353.174 51.8543 353.205 51.6633C353.237 51.468 353.285 51.3386 353.338 51.2673L353.338 51.2674L353.343 51.26C353.501 51.0233 353.835 50.9218 354.229 50.9211C364.963 51.4343 372.157 54.3042 375.388 59.4683L375.388 59.4683L375.389 59.4706C378.219 63.8283 377.514 68.5978 377.006 70.7402L376.981 70.8424L377.065 70.9056C377.865 71.507 379.583 73.0234 380.799 76.274L380.943 76.6597L381.098 76.2782C382.212 73.5373 383.83 71.9159 384.837 71.1078L384.924 71.0379L384.889 70.9319C384.482 69.7059 384.08 68.1898 384.18 66.5786L384.18 66.578C384.382 63.1475 386.395 60.008 389.636 57.8749ZM359.524 65.527L359.524 65.527L359.525 65.5284C362.002 69.2556 365.524 71.5498 369.373 71.7588C370.94 71.8633 372.909 71.4448 374.764 70.7216L374.838 70.6926L374.86 70.616C375.272 69.1676 376.21 64.6941 373.612 60.7327C370.804 56.3545 364.696 53.8858 355.677 53.2692L355.474 53.2553L355.508 53.4557C355.58 53.8928 355.666 54.3818 355.746 54.8394C355.779 55.0274 355.811 55.21 355.841 55.3815C355.892 55.6766 355.936 55.9386 355.968 56.1394C356.001 56.348 356.017 56.4735 356.017 56.5089V56.5252L356.021 56.5412C356.741 60.0474 357.975 63.1464 359.524 65.527ZM387.25 70.5309L387.28 70.6035L387.356 70.6242C388.495 70.9359 391.523 71.4639 394.142 69.6782C397.07 67.6853 398.817 63.412 399.432 57.1405L399.451 56.9404L399.252 56.9654C398.837 57.0174 398.399 57.0951 398.053 57.1594C397.968 57.1751 397.889 57.1899 397.818 57.2033C397.743 57.2176 397.675 57.2303 397.616 57.2411C397.56 57.2515 397.514 57.2596 397.479 57.2651C397.44 57.2714 397.427 57.2721 397.429 57.2721H397.41L397.392 57.2766C394.822 57.8951 392.654 58.7219 390.893 59.8643L390.893 59.8642L390.89 59.8663C388.298 61.6341 386.73 64.139 386.521 66.8643L386.521 66.8642V66.8766C386.521 67.9215 386.729 69.2772 387.25 70.5309Z" fill="#0200CD" stroke="#0200CD" stroke-width="0.321224"/>
<path d="M142.114 567.222L142.114 567.222L142.113 567.219C140.794 565.297 139.876 562.862 139.263 560.009C138.853 558.067 138.754 557.008 138.779 556.402C138.791 556.101 138.834 555.918 138.881 555.796C138.92 555.693 138.963 555.629 139.009 555.562C139.015 555.554 139.02 555.547 139.025 555.539C139.171 555.395 139.306 555.285 139.434 555.221C139.562 555.158 139.671 555.145 139.774 555.179L139.796 555.186L139.818 555.187C147.909 555.493 153.18 557.739 155.703 561.562C156.916 563.477 157.32 565.493 157.32 567.105C157.32 568.42 157.117 569.531 156.915 570.234L156.892 570.315L156.946 570.38C157.889 571.53 160.909 574.739 167.44 574.533L167.54 574.533C167.881 574.533 168.228 574.522 168.584 574.511C169.319 574.488 170.089 574.464 170.914 574.533L170.914 574.533L170.928 574.533C171.558 574.533 171.999 574.974 171.999 575.601L171.999 575.602L171.999 575.602L171.999 575.603L171.999 575.603L171.999 575.604L171.999 575.605L171.999 575.605L171.999 575.606L171.999 575.606L171.999 575.607L171.999 575.608L171.999 575.608L171.999 575.609L171.999 575.609L171.999 575.61L171.999 575.61L171.999 575.611L171.999 575.611L171.999 575.612L171.999 575.613L171.999 575.613L171.999 575.614L171.999 575.614L171.999 575.615L171.999 575.615L171.999 575.616L171.999 575.616L171.999 575.617L171.999 575.617L171.999 575.618L171.999 575.619L171.999 575.619L171.999 575.62L171.999 575.62L171.999 575.621L171.999 575.621L171.999 575.622L171.999 575.622L171.999 575.623L171.999 575.623L171.999 575.624L171.999 575.624L171.999 575.625L171.999 575.625L171.999 575.626L171.999 575.626L171.999 575.627L171.999 575.627L171.999 575.628L171.999 575.628L171.999 575.629L171.999 575.629L171.999 575.63L171.999 575.63L171.999 575.631L171.999 575.631L171.999 575.632L171.999 575.632L171.999 575.633L171.999 575.633L171.999 575.633L171.999 575.634L171.999 575.634L171.999 575.635L171.999 575.635L171.999 575.636L171.999 575.636L171.999 575.637L171.999 575.637L171.999 575.638L171.999 575.638L171.999 575.638L171.999 575.639L171.999 575.639L171.999 575.64L171.999 575.64L171.999 575.641L171.999 575.641L171.999 575.642L171.999 575.642L171.999 575.642L171.999 575.643L171.999 575.643L171.999 575.644L171.999 575.644L171.999 575.644L171.999 575.645L171.999 575.645L171.999 575.646L171.999 575.646L171.999 575.647L171.999 575.647L171.999 575.647L171.999 575.648L171.999 575.648L171.999 575.649L171.999 575.649L171.999 575.649L171.999 575.65L171.999 575.65L171.999 575.65L171.999 575.651L171.999 575.651L171.999 575.652L171.999 575.652L171.999 575.652L171.999 575.653L171.999 575.653L171.999 575.654L171.999 575.654L171.999 575.654L171.999 575.655L171.999 575.655L171.999 575.655L171.999 575.656L171.999 575.656L171.999 575.656L171.999 575.657L171.999 575.657L171.999 575.657L171.999 575.658L171.999 575.658L171.999 575.659L171.999 575.659L171.999 575.659L171.999 575.66L171.999 575.66L171.999 575.66L171.999 575.661L171.999 575.661L171.999 575.661L171.999 575.662L171.999 575.662L171.999 575.662L171.999 575.663L171.999 575.663L171.999 575.663L171.999 575.664L171.999 575.664L171.999 575.664L171.999 575.664L171.999 575.665L171.999 575.665L171.999 575.665L171.999 575.666L171.999 575.666L171.999 575.666L171.999 575.667L171.999 575.667L171.999 575.667L171.999 575.668L171.999 575.668L171.999 575.668L171.999 575.668L171.999 575.669L171.999 575.669L171.999 575.669L171.999 575.67L171.999 575.67L171.999 575.67L171.999 575.67L171.999 575.671L171.999 575.671L171.999 575.671L171.999 575.672L171.999 575.672L171.999 575.672L171.999 575.672L171.999 575.673L171.999 575.673L171.999 575.673L171.999 575.673L171.999 575.674L171.999 575.674L171.999 575.674L171.999 575.674L171.999 575.675L171.999 575.675L171.999 575.675L171.999 575.676L171.999 575.676L171.999 575.676L171.999 575.676L171.999 575.677L171.999 575.677L171.999 575.677L171.999 575.677L171.999 575.677L171.999 575.678L171.999 575.678L171.999 575.678L171.999 575.678L171.999 575.679L171.999 575.679L171.999 575.679L171.999 575.679L171.999 575.68L171.999 575.68L171.999 575.68L171.999 575.68L171.999 575.68L171.999 575.681L171.999 575.681L171.999 575.681L171.999 575.681L171.999 575.682L171.999 575.682L171.999 575.682L171.999 575.682L171.999 575.682L171.999 575.683L171.999 575.683L171.999 575.683L171.999 575.683L171.999 575.683L171.999 575.684L171.999 575.684L171.999 575.684L171.999 575.684L171.999 575.684L171.999 575.685L171.999 575.685L171.999 575.685L171.999 575.685L171.999 575.685L171.999 575.686L171.999 575.686L171.999 575.686L171.999 575.686L171.999 575.686L171.999 575.686L171.999 575.687L171.999 575.687L171.999 575.687L171.999 575.687L171.999 575.687L171.999 575.688L171.999 575.688L171.999 575.688L171.999 575.688L171.999 575.688L171.999 575.688L171.999 575.689L171.999 575.689L171.999 575.689L171.999 575.689L171.999 575.689L171.999 575.689L171.999 575.69L171.999 575.69L171.999 575.69L171.999 575.69L171.999 575.69L171.999 575.69L171.999 575.69L171.999 575.691L171.999 575.691L171.999 575.691L171.999 575.691L171.999 575.691L171.999 575.691L171.999 575.692L171.999 575.692L171.999 575.692L171.999 575.692L171.999 575.692L171.999 575.692L171.999 575.692L171.999 575.692L171.999 575.693L171.999 575.693L171.999 575.693L171.999 575.693L171.999 575.693L171.999 575.693L171.999 575.693L171.999 575.694L171.999 575.694L171.999 575.694L171.999 575.694L171.999 575.694L171.999 575.694L171.999 575.694L171.999 575.694L171.999 575.694L171.999 575.695L171.999 575.695L171.999 575.695L171.999 575.695L171.999 575.695L171.999 575.695L171.999 575.695L171.999 575.695L171.999 575.696L171.999 575.696L171.999 575.696L171.999 575.696L171.999 575.696L171.999 575.696L171.999 575.696L171.999 575.696L171.999 575.696L171.999 575.696L171.999 575.697L171.999 575.697L171.999 575.697L171.999 575.697L171.999 575.697L171.999 575.697L171.999 575.697L171.999 575.697L171.999 575.697L171.999 575.697L171.999 575.697L171.999 575.698L171.999 575.698L171.999 575.698L171.999 575.698L171.999 575.698L171.999 575.698L171.999 575.698L171.999 575.698L171.999 575.698L171.999 575.698L171.999 575.698L171.999 575.699L171.999 575.699L171.999 575.699L171.999 575.699L171.999 575.699L171.999 575.699L171.999 575.699L171.999 575.699L171.999 575.699L171.999 575.699L171.999 575.699L171.999 575.699L171.999 575.699L171.999 575.699L171.999 575.7L171.999 575.7L171.999 575.7L171.999 575.7L171.999 575.7L171.999 575.7L171.999 575.7L171.999 575.7L171.999 575.7L171.999 575.7L171.999 575.7L171.999 575.7L171.999 575.7L171.999 575.7L171.999 575.7L171.999 575.7L171.999 575.701L171.999 575.701L171.999 575.701L171.999 575.701L171.999 575.701L171.999 575.701L171.999 575.701L171.999 575.701L171.999 575.701L171.999 575.701L171.999 575.701L171.999 575.701L171.999 575.701L171.999 575.701L171.999 575.701L171.999 575.701L171.999 575.701L171.999 575.701L171.999 575.701L171.999 575.701L171.999 575.702L171.999 575.702L171.999 575.702L171.999 575.702L171.999 575.702L171.999 575.702L171.999 575.702L171.999 575.702L171.999 575.702L171.999 575.702L171.999 575.702L171.999 575.702L171.999 575.702L171.999 575.702L171.999 575.702L171.999 575.702L171.999 575.702L171.999 575.702L171.999 575.702L171.999 575.702L171.999 575.702L171.999 575.702L171.999 575.702L171.999 575.702L171.999 575.702L171.999 575.702L171.999 575.702L171.999 575.702L171.999 575.703L171.999 575.703L171.999 575.703L171.999 575.703L171.999 575.703L171.999 575.703L171.999 575.703L171.999 575.703L171.999 575.703L171.999 575.703L171.999 575.703L171.999 575.703L171.999 575.703L171.999 575.703L171.999 575.703L171.999 575.703L171.999 575.703L171.999 575.703L171.999 575.703L171.999 575.703L171.999 575.703L171.999 575.703L171.999 575.703L171.999 575.703L171.999 575.703L171.999 575.703C171.999 576.313 171.474 576.77 170.828 576.771C160.925 576.361 157.59 580.17 156.941 581.032L156.883 581.109L156.924 581.197C157.635 582.716 158.244 584.74 158.244 586.963L158.244 586.965L158.244 586.967L158.244 586.968L158.244 586.97L158.244 586.972L158.244 586.974L158.244 586.976L158.244 586.977L158.244 586.979L158.244 586.981L158.244 586.983L158.244 586.985L158.244 586.986L158.244 586.988L158.244 586.99L158.244 586.992L158.244 586.993L158.244 586.995L158.244 586.997L158.244 586.999L158.244 587L158.244 587.002L158.244 587.004L158.244 587.006L158.244 587.007L158.244 587.009L158.244 587.011L158.244 587.013L158.244 587.014L158.244 587.016L158.244 587.018L158.244 587.019L158.244 587.021L158.244 587.023L158.244 587.025L158.244 587.026L158.244 587.028L158.244 587.03L158.244 587.032L158.244 587.033L158.244 587.035L158.244 587.037L158.244 587.038L158.244 587.04L158.244 587.042L158.244 587.043L158.244 587.045L158.244 587.047L158.244 587.049L158.244 587.05L158.244 587.052L158.244 587.054L158.244 587.055L158.244 587.057L158.244 587.059L158.244 587.06L158.244 587.062L158.244 587.064L158.244 587.065L158.244 587.067L158.244 587.069L158.244 587.07L158.244 587.072L158.244 587.074L158.244 587.075L158.244 587.077L158.244 587.079L158.244 587.08L158.244 587.082L158.244 587.084L158.244 587.085L158.244 587.087L158.244 587.088L158.244 587.09L158.244 587.092L158.244 587.093L158.244 587.095L158.244 587.097L158.244 587.098L158.244 587.1L158.244 587.102L158.244 587.103L158.244 587.105L158.244 587.106L158.244 587.108L158.244 587.11L158.244 587.111L158.244 587.113L158.244 587.114L158.244 587.116L158.244 587.118L158.244 587.119L158.244 587.121L158.244 587.123L158.244 587.124L158.244 587.126L158.244 587.127L158.244 587.129L158.244 587.13L158.244 587.132L158.244 587.134L158.244 587.135L158.244 587.137L158.244 587.138L158.244 587.14L158.244 587.142L158.244 587.143L158.244 587.145L158.244 587.146L158.244 587.148L158.244 587.149L158.244 587.151L158.244 587.153L158.244 587.154L158.244 587.156L158.244 587.157L158.244 587.159L158.244 587.16L158.244 587.162L158.244 587.163L158.244 587.165L158.244 587.167L158.244 587.168L158.244 587.17L158.244 587.171L158.244 587.173L158.244 587.174L158.244 587.176L158.244 587.177L158.244 587.179L158.244 587.18L158.244 587.182L158.244 587.183L158.244 587.185L158.244 587.187L158.244 587.188L158.244 587.19L158.244 587.191L158.244 587.193L158.244 587.194L158.244 587.196L158.244 587.197L158.244 587.199L158.244 587.2L158.244 587.202L158.244 587.203L158.244 587.205L158.244 587.206L158.244 587.208L158.244 587.209L158.244 587.211L158.244 587.212L158.244 587.214L158.244 587.215L158.244 587.217L158.244 587.218L158.244 587.22L158.244 587.221L158.244 587.223L158.244 587.224L158.244 587.226L158.244 587.227L158.244 587.229L158.244 587.23L158.244 587.232L158.244 587.233L158.244 587.234L158.244 587.236L158.244 587.237L158.244 587.239L158.244 587.24L158.244 587.242L158.244 587.243L158.244 587.245L158.244 587.246L158.244 587.248L158.244 587.249L158.244 587.251L158.244 587.252L158.244 587.253L158.244 587.255L158.244 587.256L158.244 587.258L158.244 587.259L158.244 587.261L158.244 587.262L158.244 587.264L158.244 587.265L158.244 587.266L158.244 587.268L158.244 587.269L158.244 587.271L158.244 587.272L158.244 587.274L158.244 587.275L158.244 587.276L158.244 587.278L158.244 587.279L158.244 587.281L158.244 587.282L158.244 587.284L158.244 587.285L158.244 587.286L158.244 587.288L158.244 587.289L158.244 587.291L158.244 587.292L158.244 587.294L158.244 587.295L158.244 587.296L158.244 587.298L158.244 587.299L158.244 587.301L158.244 587.302L158.244 587.303L158.244 587.305L158.244 587.306L158.244 587.308L158.244 587.309L158.244 587.31L158.244 587.312L158.244 587.313L158.244 587.315L158.244 587.316L158.244 587.317L158.244 587.319L158.244 587.32L158.244 587.321L158.244 587.323L158.244 587.324L158.244 587.326L158.244 587.327L158.244 587.328L158.244 587.33L158.244 587.331L158.244 587.333L158.244 587.334L158.244 587.335L158.244 587.337L158.244 587.338L158.244 587.339L158.244 587.341L158.244 587.342L158.244 587.343L158.244 587.345L158.244 587.346L158.244 587.348L158.244 587.349L158.244 587.35L158.244 587.352L158.244 587.353L158.244 587.354L158.244 587.356L158.244 587.357L158.244 587.358L158.244 587.36L158.244 587.361L158.244 587.362L158.244 587.364L158.244 587.365L158.244 587.366L158.244 587.368L158.244 587.369L158.244 587.37L158.244 587.372L158.244 587.373L158.244 587.375L158.244 587.376L158.244 587.377L158.244 587.379L158.244 587.38L158.244 587.381L158.244 587.383L158.244 587.384L158.244 587.385L158.244 587.386L158.244 587.388L158.244 587.389L158.244 587.39L158.244 587.392L158.244 587.393L158.244 587.394L158.244 587.396L158.244 587.397L158.244 587.398L158.244 587.4L158.244 587.401L158.244 587.402L158.244 587.404L158.244 587.405L158.244 587.406L158.244 587.408L158.244 587.409L158.244 587.41L158.244 587.412L158.244 587.413L158.244 587.414L158.244 587.415L158.244 587.417L158.244 587.418L158.244 587.419L158.244 587.421L158.244 587.422L158.244 587.423L158.244 587.425L158.244 587.426L158.244 587.427L158.244 587.428L158.244 587.43L158.244 587.431L158.244 587.432L158.244 587.434L158.244 587.435L158.244 587.436L158.244 587.437L158.244 587.439L158.244 587.44L158.244 587.441L158.244 587.443L158.244 587.444L158.244 587.445L158.244 587.446L158.244 587.448L158.244 587.449L158.244 587.45L158.244 587.452L158.244 587.453L158.244 587.454L158.244 587.455L158.244 587.457L158.244 587.458L158.244 587.459L158.244 587.461L158.244 587.462L158.244 587.463L158.244 587.464L158.244 587.466L158.244 587.467L158.244 587.468L158.244 587.469L158.244 587.471L158.244 587.472L158.244 587.473L158.244 587.474L158.244 587.476L158.244 587.477L158.244 587.478L158.244 587.48L158.244 587.481L158.244 587.482L158.244 587.483L158.244 587.485L158.244 587.486L158.244 587.487L158.244 587.488L158.244 587.49L158.244 587.491L158.244 587.492L158.244 587.493L158.244 587.495L158.244 587.496L158.244 587.497L158.244 587.498L158.244 587.5L158.244 587.501L158.244 587.502L158.244 587.503L158.244 587.505L158.244 587.506L158.244 587.507L158.244 587.508L158.244 587.51L158.244 587.511L158.244 587.512L158.244 587.513L158.244 587.515L158.244 587.516L158.244 587.517L158.244 587.518L158.244 587.52L158.244 587.521L158.244 587.522L158.244 587.523L158.244 587.524L158.244 587.526L158.244 587.527L158.244 587.528L158.244 587.529L158.244 587.531L158.244 587.532L158.244 587.533L158.244 587.534L158.244 587.536L158.244 587.537L158.244 587.538L158.244 587.539L158.244 587.541L158.244 587.542L158.244 587.543L158.244 587.544L158.244 587.545L158.244 587.547L158.244 587.548L158.244 587.549L158.244 587.55L158.244 587.552L158.244 587.553L158.244 587.554L158.244 587.555L158.244 587.556L158.244 587.558L158.244 587.559L158.244 587.56L158.244 587.561L158.244 587.563L158.244 587.564L158.244 587.565L158.244 587.566L158.244 587.567L158.244 587.569L158.244 587.57L158.244 587.571L158.244 587.572L158.244 587.574L158.244 587.575L158.244 587.576L158.244 587.577L158.244 587.578L158.244 587.58L158.244 587.581L158.244 587.582L158.244 587.583L158.244 587.584L158.244 587.586L158.244 587.587L158.244 587.588L158.244 587.589L158.244 587.591L158.244 587.592L158.244 587.593L158.244 587.594L158.244 587.595L158.244 587.597L158.244 587.598L158.244 587.599L158.244 587.6L158.244 587.601L158.244 587.603L158.244 587.604L158.244 587.605L158.244 587.606L158.244 587.607L158.244 587.609L158.244 587.61L158.244 587.611L158.244 587.612L158.244 587.614L158.244 587.615L158.244 587.616L158.244 587.617L158.244 587.618L158.244 587.62L158.244 587.621L158.244 587.622L158.244 587.623L158.244 587.624L158.244 587.626L158.244 587.627L158.244 587.628L158.244 587.629L158.244 587.63L158.244 587.632L158.244 587.633L158.244 587.634L158.244 587.635L158.244 587.636L158.244 587.638L158.244 587.639L158.244 587.64L158.244 587.641L158.244 587.642L158.244 587.644L158.244 587.645L158.244 587.646L158.244 587.647L158.244 587.648L158.244 587.65L158.244 587.651L158.244 587.652L158.244 587.653L158.244 587.654L158.244 587.656L158.244 587.657L158.244 587.658L158.244 587.659L158.244 587.66L158.244 587.662L158.244 587.663L158.244 587.664L158.244 587.665L158.244 587.666L158.244 587.668L158.244 587.669L158.244 587.67L158.244 587.671L158.244 587.672L158.244 587.674L158.244 587.675L158.244 587.676L158.244 587.676C158.04 592.219 155.407 596.371 151.03 599.213C148.276 600.942 145.01 602.266 141.229 603.081C141.218 603.083 141.206 603.086 141.192 603.089C140.866 603.154 139.665 603.394 138.431 603.553C137.786 603.635 137.136 603.695 136.599 603.697C136.33 603.698 136.094 603.684 135.903 603.652C135.707 603.62 135.578 603.573 135.507 603.519L135.507 603.519L135.5 603.514C135.263 603.357 135.161 603.023 135.161 602.628C135.674 591.895 138.544 584.701 143.708 581.469L143.708 581.469L143.71 581.468C148.068 578.638 152.837 579.343 154.98 579.852L155.082 579.876L155.145 579.792C155.747 578.992 157.263 577.274 160.513 576.059L160.899 575.914L160.518 575.759C157.777 574.646 156.155 573.028 155.347 572.02L155.277 571.933L155.171 571.968C153.945 572.376 152.429 572.777 150.818 572.677L150.818 572.677C147.387 572.476 144.247 570.463 142.114 567.222ZM149.767 597.334L149.767 597.334L149.768 597.333C153.495 594.855 155.789 591.333 155.998 587.485C156.103 585.917 155.684 583.948 154.961 582.094L154.932 582.02L154.855 581.998C153.407 581.585 148.934 580.647 144.972 583.246C140.594 586.053 138.125 592.161 137.509 601.18L137.495 601.383L137.695 601.35C138.132 601.277 138.621 601.191 139.079 601.111C139.267 601.078 139.449 601.047 139.621 601.017C139.916 600.966 140.178 600.921 140.379 600.889C140.587 600.856 140.713 600.84 140.748 600.84L140.765 600.84L140.781 600.837C144.287 600.117 147.386 598.882 149.767 597.334ZM154.77 569.608L154.843 569.578L154.864 569.502C155.175 568.362 155.703 565.334 153.918 562.715C151.925 559.787 147.651 558.041 141.38 557.426L141.18 557.406L141.205 557.606C141.257 558.02 141.335 558.459 141.399 558.805C141.415 558.89 141.429 558.968 141.443 559.039C141.457 559.115 141.47 559.182 141.481 559.241C141.491 559.298 141.499 559.344 141.505 559.378C141.511 559.418 141.512 559.43 141.512 559.428L141.512 559.447L141.516 559.466C142.135 562.035 142.961 564.204 144.104 565.964L144.104 565.964L144.106 565.967C145.874 568.56 148.378 570.127 151.104 570.336L151.104 570.337L151.116 570.337C152.161 570.337 153.517 570.129 154.77 569.608Z" fill="#0200CD" stroke="#0200CD" stroke-width="0.321224"/>
</svg>
