<svg width="70" height="67" viewBox="0 0 70 67" fill="none" xmlns="http://www.w3.org/2000/svg">
<path d="M42.4997 38.6903V47.1392M42.4997 47.1392C53.4543 34.0881 52.789 23.9665 52.5001 20.3552C54.5 18 52.4993 14.3553 50.4994 12.8551C50.3328 8.85509 46.5001 1.96223 36.4999 1.07595C24.9999 0.0567477 19.5001 9.5752 19.0001 12.8551C16.5 15.5 16.3334 19.3551 18 20.3552C15.6 36.7552 26.9993 43.8552 36.4993 53.3552C38.8318 51.2226 40.815 49.1462 42.4997 47.1392Z" stroke="#B1F540" stroke-width="2"/>
<path d="M28.5 39.6904V45.6904" stroke="#B1F540" stroke-width="2"/>
<path d="M24 41.354C16.8333 43.5207 2.2 49.354 1 55.354V65.354H36.5M46 42.354C63.6 47.554 68.3333 53.1873 68.5 55.354V65.354H36.5M36.5 65.354V53.0752" stroke="#B1F540" stroke-width="2"/>
<path d="M49 26.354C49 34.086 42.732 40.354 35 40.354C27.268 40.354 21 34.086 21 26.354C21 22.5693 22.8174 19.4873 25.5325 17.1181C28.2025 14.7882 31.7011 13.19 35.0146 12.3789C42.7211 14.029 49 18.8441 49 26.354Z" stroke="#B1F540" stroke-width="2"/>
</svg>
