<svg width="25" height="24" viewBox="0 0 25 24" fill="none" xmlns="http://www.w3.org/2000/svg">
<path d="M19.9092 7.24992C19.3637 7.49784 18.7758 7.66075 18.1667 7.73867C18.79 7.36325 19.2717 6.76825 19.4983 6.05284C18.9104 6.407 18.2587 6.65492 17.5717 6.79659C17.0121 6.18742 16.2258 5.83325 15.3333 5.83325C13.6687 5.83325 12.3087 7.19325 12.3087 8.872C12.3087 9.11284 12.3371 9.34659 12.3867 9.56617C9.86499 9.43867 7.61957 8.22742 6.12499 6.39284C5.8629 6.83909 5.71415 7.36325 5.71415 7.91575C5.71415 8.97117 6.2454 9.90617 7.06707 10.4374C6.56415 10.4374 6.09665 10.2958 5.68582 10.0833V10.1045C5.68582 11.5778 6.73415 12.8103 8.12249 13.0866C7.67675 13.2086 7.2088 13.2255 6.7554 13.1362C6.94779 13.74 7.32458 14.2684 7.83279 14.647C8.34101 15.0256 8.9551 15.2355 9.58874 15.247C8.51464 16.0973 7.18323 16.5569 5.81332 16.5503C5.57249 16.5503 5.33165 16.5362 5.09082 16.5078C6.43665 17.372 8.03749 17.8749 9.75165 17.8749C15.3333 17.8749 18.4004 13.2424 18.4004 9.22617C18.4004 9.09159 18.4004 8.96409 18.3933 8.8295C18.9883 8.4045 19.4983 7.86617 19.9092 7.24992Z" fill="#0200CD"/>
<path d="M24.5 12C24.5 18.3322 19.1469 23.5 12.5 23.5C5.85315 23.5 0.5 18.3322 0.5 12C0.5 5.66777 5.85315 0.5 12.5 0.5C19.1469 0.5 24.5 5.66777 24.5 12Z" stroke="#0200CD"/>
</svg>
