<svg width="115" height="120" viewBox="0 0 115 120" fill="none" xmlns="http://www.w3.org/2000/svg">
<path d="M78.1001 40C73.9001 35 71.9001 29.2 72.1001 22.7C72.3001 16.1 74.8001 10.5 79.4001 5.79998C80.9001 4.29998 82.4001 2.79998 84.0001 1.29998C84.5001 0.799976 85.1001 0.499976 85.6001 0.0999756C86.1001 0.0999756 86.7001 0.0999756 87.2001 0.0999756C89.7001 1.09998 91.1001 3.29998 92.4001 5.39998C97.3001 13.7 97.5001 22.2 93.2001 30.8C92.0001 33.3 90.1001 35.3 88.3001 37.3C88.1001 37.7 87.7001 37.7 87.3001 37.8C84.5001 38.2 81.8001 39.1 79.1001 40.1C78.9001 40 78.5001 40.3 78.1001 40Z" fill="#32D636"/>
<path d="M8.80002 87.2C3.50002 79.6 5.30002 69 12.7 63.4C13.1 63.1 13.6 62.9 13.8 62.4C15.7 60.9 17.9 60.2 20.2 59.8C25 58.9 29.4 60.1 33.4 62.7C37.3 65.6 39.9 69.3 40.7 74.1C41 75.9 41.1 77.8 40.8 79.7C40.8 79.8 40.7 79.9 40.7 80C38.5 82.5 36 84.8 33.7 87.2C33.1 87.8 32.5 88.4 31.9 89C31.3 89.5 31.3 89.9 31.8 90.6C34.3 93.5 35.7 96.8 36.1 100.6C36.5 104.5 35.5 108 33.6 111.3C33.5 111.5 33.3 111.7 33.1 111.7C31.3 114 29.3 116.1 26.7 117.6C20.1 121.4 10.8 120 5.90002 114.6C5.80002 113.9 6.40002 113.6 6.80002 113.2C14.1 105.9 21.4 98.5 28.8 91.2C29 91 29.3 90.7 29.5 90.5C30.1 90 30 89.5 29.4 89.1C24.6 84.8 16.8 83.8 11 86.6C10.3 86.9 9.70002 87.6 8.80002 87.2Z" fill="#A93DC7"/>
<path d="M33.1 111.8C34.8 108.9 35.9 105.7 35.9 102.3C35.9 97.8 34.3 93.9 31.3 90.5C31 90.2 30.6 89.9 31.1 89.4C34.3 86.3 37.4 83.2 40.6 80C41.7 79.2 42.9 79.4 44.1 79.5C49.9 80 54.6 82.5 57.9 87.4C60 90.3 60.9 93.6 60.9 97C60.9 100.1 60.2 103.1 58.7 105.9C58.4 106.4 58 106.6 57.6 107C52.8 114.6 42.3 117.2 34.4 112.7C34 112.3 33.6 112 33.1 111.8Z" fill="#9232AF"/>
<path d="M57.7001 106.9C59.8001 103.9 60.7001 100.4 60.6001 96.8C60.6001 93.4 59.5001 90.2 57.6001 87.4C57.3001 86.8 57.8001 86.6 58.1001 86.3C61.6001 83.7 63.8001 80.3 64.8001 76C64.9001 75.5 65.0001 74.8999 65.6001 74.5999C72.3001 73.5999 79.0001 76.9 82.4001 82C82.3001 82.4 82.6001 82.7 82.8001 83.0999C89.2001 94.0999 83.0001 107.5 70.5001 109.5C66.5001 110.1 62.6001 109.4 59.0001 107.3C58.6001 107.2 58.3001 106.7 57.7001 106.9Z" fill="#B658CD"/>
<path d="M33.2999 62.9C31.2999 61.9 29.2999 60.8 27.0999 60.3C22.6999 59.3 18.4999 60 14.4999 62.1C14.1999 62.3 13.9999 62.4 13.5999 62.4C8.89989 55.6 9.69989 46.2 15.5999 40.2C21.1999 34.5 31.1999 33.5 37.8999 38.1C39.1999 38.3 39.9999 39.2 40.7999 40.1C44.3999 43.9 46.0999 48.4 45.8999 53.6C45.8999 54.1 45.8999 54.7 45.4999 55.1C45.1999 55.4 44.6999 55.4 44.2999 55.5C40.1999 56.4 36.8999 58.5 34.1999 61.7C34.0999 62.3 33.8999 62.8 33.2999 62.9Z" fill="#9232AF"/>
<path d="M82.4001 82.1C81.7001 81.9 81.5 81.3 81.1 80.9C77.6 76.9 73.2001 74.9 67.9001 74.9C67.1001 74.9 66.3 74.9 65.6 74.9C65 74.6 65.3001 74.1 65.3001 73.7C65.5001 69.4 64.3 65.5 61.8 62.1C61.4 61.5 60.8001 61 60.4001 60.4C60.3001 60.3 60.3 60.2 60.3 60.1C60.8 59 61.8 58.4 62.6 57.5C63.1 57 63.6 56.4 64.2 55.9C64.5 55.9 64.8 56.1 65 56.2C66.6 57.1 67.9 57 69.2 55.7C70.9 54.1 72.5001 52.3 74.3001 50.8C74.6001 50.5 74.9001 50.1 75.4001 50.2C82.8001 51.1 89.1 57.2 90.1 64.8C91.1 71.7 88.6 77.3 83.2 81.6C83 81.8 82.7001 81.9 82.4001 82.1Z" fill="#9232AF"/>
<path d="M64.2 55.8999C63.3 57.4999 61.8 58.5999 60.4 59.8999C59.8 59.9999 59.4 59.5999 59.1 59.2999C55.4 56.1999 51.1 54.9999 46.3 55.2999C46 55.2999 45.7 55.3999 45.4 55.1999C46 52.3999 45.6 49.5999 44.7 46.8999C43.5 43.1999 41.2 40.2999 38 38.1999C38.9 37.7999 39.2 36.8999 39.8 36.1999C44.8 30.6999 51 28.7999 58.1 30.8999C65.1 32.9999 69.1 37.9999 70.3 45.1999C70.3 45.6999 69.9 45.9999 69.6 46.2999C68.2 47.7999 66.7 49.2999 65.2 50.6999C63.8 51.9999 63.4 53.3999 64.2 55.1999C64.3 55.3999 64.3 55.6999 64.2 55.8999Z" fill="#A93DC7"/>
<path d="M8.79999 87.2C10.7 86.5 12.4 85.5 14.4 85.1C19.6 84 24.4 85 28.7 88.2C30.8 89.7 30.7 89.7 29 91.5C21.6 98.9 14.3 106.2 6.89999 113.6C6.59999 113.9 6.29999 114.3 5.99999 114.6C-1.40001 107.6 -0.800006 94.9 7.29999 88.6C7.79999 88.2 8.49999 87.9 8.79999 87.2Z" fill="#B658CD"/>
<path d="M64.2001 55.8999C62.9001 53.6999 63.1001 52.3999 64.9001 50.5999C66.7001 48.7999 68.5001 46.9999 70.3001 45.1999C72.7001 43.0999 75.3001 41.3999 78.1001 39.8999C81.4001 38.5999 84.8001 37.4999 88.4001 37.0999C93.9001 36.5999 99.1001 37.2999 104.2 39.4999C107.8 40.9999 111 43.1999 113.8 45.9999C115.3 47.4999 115.4 49.5999 114.1 50.9999C112.8 52.4999 110.6 52.5999 109.1 51.0999C105.4 47.6999 101.2 45.2999 96.3001 44.3999C88.9001 43.0999 82.2001 44.7999 76.3001 49.4999C76.0001 49.6999 75.8001 49.9999 75.6001 50.1999C73.6001 51.7999 71.9001 53.6999 70.0001 55.4999C67.9001 57.4999 66.5001 57.5999 64.2001 55.8999Z" fill="#BE6015"/>
<path d="M60.5001 60.1C63.3001 62.6 64.7001 65.9 65.4001 69.5C65.8001 71.3 65.5001 73.1 65.6001 74.9C64.9001 76.5 64.7001 78.3 64.0001 79.8C62.7001 82.6 60.8001 84.8 58.4001 86.6C58.1001 86.8 57.7001 87 57.7001 87.4C53.4001 81.7 47.8001 79 40.6001 79.9C40.6001 79.8 40.6001 79.7 40.6001 79.7C40.9001 79.2 41.2001 78.8 41.6001 78.4C47.5001 72.5 53.3001 66.7 59.2001 60.8C59.5001 60.6 59.8001 60 60.5001 60.1Z" fill="#A93DC7"/>
<path d="M60.5 60.1C60.2001 60.4 59.8 60.7 59.5 61C53.5 67 47.6 72.9 41.6 78.9C41.3 79.2 41 79.5 40.6 79.7C40.8 77.2 40.7001 74.7 39.9001 72.2C38.8001 68.7 36.8 65.9 34 63.6C33.7 63.4 33.4 63.2 33.3 62.9C36.2 58.5 40.2 55.9 45.5 55.2C49.5 54.5 53.3 55.4 56.8 57.3C58.1 58 59.2001 59.1 60.5 59.9C60.5 60 60.5 60 60.5 60.1Z" fill="#B658CD"/>
</svg>
