<svg width="78" height="78" viewBox="0 0 78 78" fill="none" xmlns="http://www.w3.org/2000/svg">
<circle cx="39" cy="39" r="39" fill="#25D366"/>
<g clip-path="url(#clip0_2281_344)">
<path d="M55.8862 22.2664C53.7706 20.1304 51.2508 18.4369 48.4739 17.285C45.697 16.133 42.7184 15.5455 39.7121 15.5568C27.1149 15.5568 16.8485 25.8203 16.837 38.4204C16.837 42.4559 17.8927 46.3819 19.886 49.8579L16.6523 61.7108L28.7793 58.532C32.1327 60.3615 35.8921 61.3187 39.7121 61.3156H39.7236C52.3236 61.3156 62.5872 51.0521 62.5987 38.4405C62.6013 35.4349 62.0092 32.4585 60.8567 29.6827C59.7042 26.9068 58.0168 24.3863 55.8862 22.2664ZM39.7121 57.4445C36.3058 57.4418 32.9627 56.5253 30.0312 54.7906L29.3389 54.3752L22.1447 56.2618L24.0658 49.2435L23.6158 48.5194C21.7114 45.4915 20.7042 41.9858 20.711 38.4088C20.711 27.9492 29.2409 19.4164 39.7236 19.4164C42.2209 19.412 44.6945 19.9018 47.0016 20.8579C49.3087 21.8139 51.4037 23.2171 53.166 24.9866C54.9339 26.7496 56.3356 28.845 57.2901 31.152C58.2446 33.4591 58.7331 35.9323 58.7275 38.429C58.716 48.9262 50.1861 57.4445 39.7121 57.4445ZM50.14 43.2117C49.5717 42.9261 46.765 41.5444 46.2371 41.3483C45.7121 41.1608 45.3284 41.0627 44.9534 41.6338C44.5698 42.2021 43.4736 43.4973 43.1448 43.8694C42.8159 44.2531 42.4755 44.2963 41.9044 44.0136C41.3361 43.7252 39.4928 43.1252 37.312 41.1723C35.6101 39.6579 34.4707 37.7829 34.1303 37.2146C33.8015 36.6434 34.0986 36.3377 34.3841 36.0521C34.6351 35.7982 34.9524 35.3828 35.238 35.054C35.5265 34.7251 35.6217 34.4828 35.8092 34.1021C35.9967 33.7155 35.9072 33.3867 35.7659 33.1011C35.6217 32.8155 34.4822 29.9972 34.0005 28.8607C33.539 27.7386 33.0688 27.8944 32.7168 27.8799C32.388 27.8597 32.0043 27.8597 31.6207 27.8597C31.331 27.8671 31.0459 27.9342 30.7834 28.0568C30.5208 28.1794 30.2863 28.3549 30.0947 28.5722C29.5697 29.1434 28.1014 30.5251 28.1014 33.3434C28.1014 36.1617 30.1495 38.8704 30.438 39.254C30.7207 39.6377 34.4591 45.404 40.1967 47.8848C41.5524 48.4762 42.6198 48.8252 43.4534 49.0906C44.8236 49.5291 46.0611 49.4627 47.0477 49.3214C48.1438 49.1541 50.4256 47.9367 50.9073 46.6012C51.3804 45.2627 51.3804 44.1204 51.2361 43.881C51.0948 43.6386 50.7111 43.4973 50.14 43.2117Z" fill="white"/>
</g>
<defs>
<clipPath id="clip0_2281_344">
<rect width="46.154" height="46.154" fill="white" transform="translate(16.6523 15.5566)"/>
</clipPath>
</defs>
</svg>
