<svg width="27" height="27" viewBox="0 0 27 27" fill="none" xmlns="http://www.w3.org/2000/svg">
<path d="M13.6589 9C14.0061 9.00188 14.8745 9.01 15.7975 9.04563L16.1252 9.05938C17.0541 9.10126 17.9823 9.17376 18.4432 9.29689C19.0575 9.46315 19.5398 9.94693 19.7029 10.5607C19.9629 11.5358 19.9954 13.4372 19.9993 13.8978L20 13.9928V14.1016C19.9954 14.5622 19.9629 16.4642 19.7029 17.4387C19.5378 18.0543 19.0549 18.5387 18.4432 18.7025C17.9823 18.8256 17.0541 18.8981 16.1252 18.94L15.7975 18.9544C14.8745 18.9894 14.0061 18.9981 13.6589 18.9994L13.5062 19H13.3404C12.6059 18.9956 9.53383 18.9637 8.55618 18.7025C7.94255 18.5362 7.45957 18.0524 7.29641 17.4387C7.0364 16.4636 7.0039 14.5622 7 14.1016V13.8978C7.0039 13.4372 7.0364 11.5352 7.29641 10.5607C7.46152 9.94506 7.9445 9.46065 8.55683 9.29752C9.53383 9.03563 12.6065 9.00375 13.3411 9H13.6589ZM12.1996 11.8127V16.1879L16.0998 14.0003L12.1996 11.8127Z" fill="#0200CD"/>
<circle cx="13.5" cy="13.5" r="13" stroke="#0200CD"/>
</svg>
